<svg width="403" height="274" viewBox="0 0 403 274" fill="none" xmlns="http://www.w3.org/2000/svg">
<g clip-path="url(#clip0_131_2976)">
<path opacity="0.25" d="M75.3288 236.347C75.3288 236.347 50.0868 234.778 51.2213 237.419C52.3557 240.061 50.5122 243.81 39.1675 245.13C27.8228 246.451 61.1834 257.471 70.0606 259.608C78.9379 261.745 126.919 274.795 169.66 273.964C212.401 273.134 292.701 265.267 283.065 263.222C273.429 261.177 256.476 256.476 269.948 254.936C283.419 253.395 318.106 247.722 329.755 246.948C341.405 246.174 359.535 249.49 371.263 248.524C382.991 247.559 400.227 241.175 394.661 241.175C389.095 241.175 359.698 242.049 345.269 242.595C330.84 243.142 322.864 242.83 316.312 242.844C309.76 242.858 276.187 243.952 251.215 248.524C226.242 253.097 101.946 257.045 89.4601 251.883C76.9738 246.721 75.3288 236.347 75.3288 236.347Z" fill="#6BABB6"/>
<path d="M214.756 200.257C214.523 201.797 214.003 203.281 213.224 204.63C208.261 213.229 182.735 224.646 160.138 226.457C154.801 226.954 149.419 226.527 144.227 225.193C133.35 222.26 128.876 215.898 128.876 215.898C124.168 210.126 122.431 205.014 122.566 200.548C123.055 185.019 146.276 177.344 146.276 177.344C146.276 177.344 162.45 170.471 165.215 179.474C167.98 188.477 181.594 191.005 196.852 186.574C206.07 183.89 211.92 187.874 214.04 193.341C214.888 195.541 215.135 197.929 214.756 200.257Z" fill="#F47421"/>
<path opacity="0.43" d="M214.756 200.257C214.523 201.797 214.003 203.281 213.225 204.63C208.261 213.229 182.736 224.646 160.138 226.457C154.802 226.954 149.419 226.527 144.227 225.193C140.667 221.28 137.962 216.666 136.286 211.645C136.726 211.858 150.935 218.746 171.334 211.177C192.045 203.487 197.307 200.881 205.368 201.236C211.459 201.52 213.572 196.834 214.04 193.327C214.89 195.532 215.138 197.924 214.756 200.257Z" fill="#A54623"/>
<path d="M214.756 200.257C214.523 201.798 214.003 203.281 213.224 204.63C208.261 213.229 182.735 224.646 160.138 226.457C137.541 228.267 128.876 215.899 128.876 215.899C124.168 210.126 122.431 205.014 122.566 200.548C124.175 207.044 128.479 213.492 138.874 215.203C161.627 218.952 168.838 210.616 182.225 210.616C192.811 210.616 205.616 210.446 214.756 200.257Z" fill="#722914"/>
<path opacity="0.43" d="M166.406 205.759C166.406 205.759 183.693 196.586 191.138 194.505C198.583 192.425 200.71 192.418 200.71 192.418C200.71 192.418 195.513 192.56 193.293 193.185C196.109 191.813 199.002 190.606 201.958 189.571C205.014 188.669 206.567 189.017 206.567 189.017C202.259 187.292 197.586 186.684 192.981 187.249C184.997 188.144 174.546 195.677 174.546 195.677L166.406 205.759Z" fill="#A54623"/>
<path opacity="0.43" d="M191.378 186.794C191.378 186.794 192.201 187.959 190.456 189.379C188.712 190.799 188.535 190.557 188.046 191.949C187.556 193.341 179.168 201.534 173.269 205.283C167.37 209.032 155.444 215.884 148.857 216.175C146.328 216.291 143.843 215.483 141.864 213.901C139.886 212.32 138.548 210.072 138.101 207.577C137.618 204.027 182.565 184.387 183.125 184.359C183.685 184.33 191.378 186.794 191.378 186.794Z" fill="#A54623"/>
<path d="M206.914 185.864C206.914 185.864 213.168 187.81 214.756 194.143C216.345 200.477 214.338 204.716 211.629 206.924C210.129 208.175 208.554 209.334 206.914 210.396C206.914 210.396 212.814 206.846 213.778 201.641C214.742 196.437 213.913 192.531 211.828 189.904C209.743 187.277 205.241 187.064 205.241 187.064C205.241 187.064 204.766 185.829 206.914 185.864Z" fill="#231F20"/>
<path d="M237.643 129.736C237.643 129.736 232.786 162.107 230.496 175.654L191.378 193.355L135.817 174.135V170.797L168.143 157.136C168.143 157.136 168.001 127.755 169.667 120.25C169.667 120.25 221.548 122.111 236.53 127.699L237.643 129.736Z" fill="#B3B3B3"/>
<path opacity="0.43" d="M237.643 129.737C237.643 129.737 232.786 162.107 230.496 175.654L191.378 193.355L135.817 174.135V170.797L191.123 190.529L230.042 173.006C230.042 173.006 234.204 132.577 236.516 127.699L237.643 129.737Z" fill="#231F20"/>
<path d="M170.22 121.06C169.208 132.825 168.794 144.634 168.98 156.441C168.98 156.441 213.316 164.059 227.377 170.109C227.377 170.109 231.078 136.439 234.403 128.657C234.403 128.657 216.188 123.282 170.22 121.06Z" fill="#231F20"/>
<path d="M140.164 170.797L191.378 188.257L226.079 171.997C226.079 171.997 190.988 162.213 168.143 158.294L140.164 170.797Z" fill="#254163"/>
<path d="M168.143 157.136C168.143 157.136 220.995 167.347 230.056 173.006" stroke="white" stroke-width="0.5" stroke-miterlimit="10"/>
<path d="M166.526 159.011C166.526 159.011 218.414 171.401 223.356 173.275" stroke="white" stroke-width="0.5" stroke-miterlimit="10"/>
<path d="M163.13 160.523C163.13 160.523 208.161 171.884 218.691 175.434" stroke="white" stroke-width="0.5" stroke-miterlimit="10"/>
<path d="M160.138 161.872C160.138 161.872 207.644 174.156 214.188 177.571" stroke="white" stroke-width="0.5" stroke-miterlimit="10"/>
<path d="M157.656 162.98C157.656 162.98 196.93 175.178 209.75 179.651" stroke="white" stroke-width="0.5" stroke-miterlimit="10"/>
<path d="M204.41 182.151L154.678 164.308" stroke="white" stroke-width="0.5" stroke-miterlimit="10"/>
<path d="M151.657 165.657L200.269 184.089" stroke="white" stroke-width="0.5" stroke-miterlimit="10"/>
<path d="M147.46 167.531L196.476 185.864" stroke="white" stroke-width="0.5" stroke-miterlimit="10"/>
<path d="M150.629 168.717L171.134 158.826" stroke="white" stroke-width="0.5" stroke-miterlimit="10"/>
<path d="M191.726 184.089L218.01 171.72" stroke="white" stroke-width="0.5" stroke-miterlimit="10"/>
<path d="M185.635 181.81L211.827 170.109" stroke="white" stroke-width="0.5" stroke-miterlimit="10"/>
<path d="M180.189 179.772L204.864 168.355" stroke="white" stroke-width="0.5" stroke-miterlimit="10"/>
<path d="M173.05 177.102L197.725 166.58" stroke="white" stroke-width="0.5" stroke-miterlimit="10"/>
<path d="M155.423 170.513L175.964 159.756" stroke="white" stroke-width="0.5" stroke-miterlimit="10"/>
<path d="M159.677 172.104L180.991 160.8" stroke="white" stroke-width="0.5" stroke-miterlimit="10"/>
<path d="M169.66 172.48L189.272 162.639" stroke="white" stroke-width="0.5" stroke-miterlimit="10"/>
<path d="M143.78 100.575C143.643 101.709 143.828 102.858 144.312 103.891C145.113 105.354 146.12 106.568 145.56 106.987C144.605 107.409 143.606 107.724 142.582 107.924C142.582 107.924 142.568 101.946 143.78 100.575Z" fill="#F47421"/>
<path d="M145.886 95.1864C145.828 95.3882 145.754 95.5853 145.666 95.7758C144.553 98.1899 143.355 100.036 143.489 104.253C143.571 106.347 143.191 108.432 142.376 110.361C141.561 112.29 140.331 114.016 138.774 115.415C135.491 118.468 134.109 118.93 133.598 119.768C133.088 120.605 130.578 120.045 130.578 120.045C130.578 120.045 129.961 125.37 130.578 127.102C130.847 127.862 128.259 127.812 125.04 127.436C121.372 127.003 117.729 126.375 114.128 125.554C114.128 125.554 112.143 114.485 112.327 111.893C112.511 109.302 108.718 92.1688 120.126 82.1645C131.535 72.1602 147.474 77.9398 146.311 87.4897C146.311 87.4897 146.311 87.5252 146.311 87.5394C146.311 87.5536 146.701 92.5309 145.886 95.1864Z" fill="#FCC59A"/>
<path d="M144.106 99.3614C143.657 99.0564 143.125 98.8977 142.582 98.9069C141.921 98.8455 141.254 98.9229 140.625 99.1341C141.192 98.728 141.87 98.505 142.568 98.4951C143.681 98.4951 144.695 98.5732 144.106 99.3614Z" fill="#231F20"/>
<path d="M142.526 103.687C142.647 102.996 142.48 102.389 142.152 102.331C141.824 102.273 141.46 102.787 141.339 103.478C141.218 104.17 141.385 104.777 141.713 104.834C142.041 104.892 142.405 104.379 142.526 103.687Z" fill="#231F20"/>
<path opacity="0.32" d="M125.04 127.436C123.381 124.312 128.323 118.837 128.323 118.837L130.577 120.044C130.577 120.044 129.961 125.37 130.577 127.102C130.847 127.862 128.259 127.805 125.04 127.436Z" fill="#F47421"/>
<path opacity="0.32" d="M145.886 95.1865C145.335 95.8626 144.646 96.4122 143.865 96.7982C141.362 97.8136 140.164 98.6159 140.164 100.576C140.164 102.535 140.717 108.002 138.639 110.644C136.562 113.285 132.967 117.261 129.897 117.219C126.827 117.176 122.807 103.139 126.756 97.3379C129.819 92.8221 141.348 88.9595 146.276 87.4756C146.276 87.4756 146.276 87.5111 146.276 87.5253C146.276 87.5395 146.701 92.531 145.886 95.1865Z" fill="#F47421"/>
<path d="M142.407 103.371C142.454 103.105 142.388 102.87 142.261 102.848C142.134 102.826 141.993 103.023 141.946 103.29C141.899 103.556 141.964 103.791 142.092 103.813C142.219 103.835 142.36 103.638 142.407 103.371Z" fill="white"/>
<path d="M146.637 91.3949C146.637 91.3949 146.567 94.4694 146.013 95.6551C145.46 96.8408 144.021 99.049 143.929 100.76C143.787 101.981 143.73 103.21 143.759 104.438C143.811 106.662 143.365 108.87 142.454 110.899C141.362 113.228 139.937 115.16 138.278 116.218C136.895 117.065 135.602 118.052 134.421 119.164C134.222 119.477 133.598 120.385 132.868 120.52C132.086 120.541 131.305 120.436 130.556 120.208L130.131 119.761C130.131 119.761 132.35 120.137 132.903 119.761C133.456 119.384 135.158 117.751 135.739 117.403C138.121 115.869 140.087 113.769 141.461 111.29C143.262 107.782 143.44 105.56 143.333 104.481C143.227 103.402 143.298 100.696 143.752 99.5531C144.205 98.41 145.46 95.6977 145.716 94.725C145.9 93.8264 146.014 92.9148 146.056 91.9985L146.63 91.3381" fill="#231F20"/>
<path d="M130.372 120.059C130.196 121.936 130.196 123.826 130.372 125.703C130.691 127.635 130.181 121.805 131.131 120.059H130.372Z" fill="#231F20"/>
<path d="M144.213 205.475C129.089 209.025 123.814 208.393 123.814 208.393C123.814 208.393 97.8062 201.08 92.4387 192.773C87.0712 184.465 96.3243 146.28 96.8844 138.69C97.4446 131.1 101.848 118.866 119.935 124.795L120.836 124.866L126.175 125.334L128.877 125.583C129.678 125.661 130.295 125.725 130.614 125.767C132.138 125.973 132.28 126.669 132.28 126.669V128.686C132.28 128.686 147.815 134.103 149.552 135.076C151.289 136.049 154.75 139.656 154.409 150.356C154.069 161.056 152.325 182.655 153.09 186.681C153.856 190.707 159.33 201.932 144.213 205.475Z" fill="#3B577F"/>
<path opacity="0.61" d="M132.28 126.641V128.657C132.28 128.657 129.111 128.657 129.253 127.635C129.239 126.926 129.113 126.223 128.877 125.554C129.678 125.633 130.295 125.696 130.614 125.739C132.139 125.945 132.28 126.641 132.28 126.641Z" fill="#254163"/>
<path opacity="0.61" d="M149.9 137.547C149.9 137.547 139.491 144.008 138.555 153.522C137.619 163.037 105.939 143.17 108.662 138.029C110.591 134.366 117.171 128.089 120.801 124.837L126.14 125.306C125.803 125.939 125.409 126.541 124.963 127.102C123.226 129.232 121.212 133.031 127.594 136.993C133.975 140.955 137.86 141.367 141.328 139.286C144.795 137.206 149.9 137.547 149.9 137.547Z" fill="#254163"/>
<path d="M118.34 135.97C118.34 135.97 126.614 142.176 132.577 143.014C138.541 143.852 140.256 142.453 142.107 141.111C143.958 139.769 148.254 137.383 149.197 139.62C150.141 141.857 137.314 152.223 137.314 152.223C137.314 152.223 124.494 147.828 122.693 144.1C120.892 140.373 118.34 135.97 118.34 135.97Z" fill="#231F20"/>
<path d="M124.494 124.837C124.494 124.837 130.5 125.696 131.103 125.547C131.705 125.398 132.812 126.257 132.812 126.705V128.65L142.568 132.037C142.568 132.037 150.367 134.536 151.077 135.743C151.313 136.193 151.585 136.623 151.892 137.028C151.293 136.785 150.749 136.426 150.289 135.97C149.871 135.417 140.363 131.945 139.59 131.618C138.817 131.291 131.996 128.977 131.996 128.977L131.103 128.579C131.103 128.579 132.11 128.409 131.996 127.699C131.883 126.989 132.117 126.122 131.103 126.094C130.089 126.065 123.97 125.554 123.97 125.554L124.494 124.844" fill="#231F20"/>
<path d="M189.294 176.165C190.087 174.481 190.783 172.753 191.379 170.989C191.53 170.373 191.634 169.746 191.691 169.114C191.691 169.114 192.485 168.674 192.761 170.109C193.038 171.543 193.215 173.14 192.279 173.907C191.343 174.674 189.294 176.165 189.294 176.165Z" fill="#FCC59A"/>
<path d="M206.381 174.468C205.672 174.887 202.978 176.414 202.127 177.308C201.276 178.203 196.292 183.975 194.994 184.842C193.696 185.708 190.406 185.956 189.123 186.439C188.194 186.778 187.247 187.067 186.287 187.305L185.145 184.792L183.408 180.951C183.408 180.951 184.543 180.042 185.847 178.913C186.956 177.979 188.008 176.978 188.995 175.917C190.094 174.711 191.302 173.61 192.605 172.629C193.653 171.766 194.821 171.061 196.072 170.535C197.979 169.91 202.311 170.116 203.006 170.535C203.205 170.655 203.269 170.748 203.269 170.826C203.269 170.904 203.077 171.017 202.935 171.053L202.779 171.088C203.363 171.174 203.938 171.314 204.495 171.507C204.672 171.585 204.743 171.678 204.743 171.77C204.743 171.862 204.495 172.132 204.495 172.132C205.033 172.206 205.531 172.456 205.913 172.842C205.974 172.905 206.024 172.977 206.062 173.055C206.254 173.439 205.743 173.467 205.743 173.467C205.743 173.467 206.495 173.822 206.559 174.177C206.608 174.248 206.566 174.362 206.381 174.468Z" fill="#FCC59A"/>
<path d="M203.326 170.797C203.326 170.918 203.134 170.989 202.993 171.025L202.837 171.06C202.837 171.06 198.001 171.266 197.235 171.635L196.477 171.997C196.477 171.997 196.512 171.145 198.781 170.954C200.355 170.826 202.284 170.804 203.326 170.797Z" fill="#231F20"/>
<path d="M204.801 171.742C204.801 171.926 204.553 172.104 204.553 172.104C204.553 172.104 201.468 172.21 200.546 172.366C199.753 172.505 199.004 172.831 198.363 173.318L198.051 173.616C198.051 173.616 197.703 172.707 199.263 172.274C201.08 171.868 202.94 171.689 204.801 171.742Z" fill="#231F20"/>
<path d="M205.772 173.425C204.743 173.405 203.717 173.515 202.716 173.751C201.873 174.036 201.055 174.39 200.27 174.809C200.571 174.399 200.955 174.058 201.398 173.807C201.84 173.556 202.33 173.401 202.836 173.353C203.908 173.141 204.998 173.027 206.091 173.013C206.282 173.396 205.772 173.425 205.772 173.425Z" fill="#231F20"/>
<path opacity="0.32" d="M206.381 174.468C205.672 174.887 202.978 176.414 202.127 177.308C201.276 178.203 196.292 183.975 194.994 184.842C193.697 185.708 190.407 185.956 189.123 186.439C188.194 186.778 187.247 187.067 186.287 187.305L185.146 184.792C189.003 184.607 194.264 183.897 196.419 181.476C199.404 178.111 203.467 174.426 206.53 174.163C206.608 174.248 206.566 174.362 206.381 174.468Z" fill="#F47421"/>
<path opacity="0.32" d="M195.895 179.083C194.477 181.1 191.371 184.856 189.258 185.019C187.996 185.119 186.72 181.675 185.904 178.885C187.013 177.951 188.065 176.95 189.052 175.888C190.151 174.683 191.359 173.582 192.661 172.601C192.732 173.183 193.144 173.829 194.186 174.461C197.448 176.442 197.334 177.067 195.895 179.083Z" fill="#F47421"/>
<path d="M189.399 188.008C189.108 188.141 188.828 188.297 188.563 188.477C187.386 189.23 185.79 190.508 185.79 190.508L182.245 180.021C182.245 180.021 183.663 178.97 184.94 178.182C185.48 177.78 186.098 177.494 186.755 177.344C187.577 177.408 189.045 178.387 189.981 181.604C190.917 184.82 190.406 187.589 189.399 188.008Z" fill="#FECF0A"/>
<path opacity="0.56" d="M188.563 188.477C187.386 189.23 185.79 190.508 185.79 190.508L182.245 180.021C182.245 180.021 183.663 178.97 184.94 178.182C186.733 179.829 188.896 182.989 188.563 188.477Z" fill="#6BABB6"/>
<path d="M174.013 201.726C170.865 203.97 167.93 205.951 165.214 207.612C158.499 211.737 153.125 213.953 149.282 213.491C143.872 212.838 138.221 204.595 138.313 200.618C138.313 199.944 138.235 198.19 138.1 195.705C137.391 183.493 135.562 153.579 139.327 146.805C140.394 144.878 141.739 143.12 143.319 141.587C145.567 139.328 148.31 137.626 151.331 136.616C156.365 139.542 157.088 154.935 157.181 166.608C157.181 168.248 157.266 169.853 157.372 171.387C157.747 176.972 158.673 182.506 160.137 187.909C160.584 187.667 175.077 179.843 179.281 179.019C182.564 178.38 185.457 180.709 186.783 184.061C187.177 185.087 187.416 186.166 187.492 187.263C187.882 192.219 184.925 193.944 174.013 201.726Z" fill="#3B577F"/>
<path opacity="0.61" d="M174.014 201.726C163.101 209.536 154.685 214.137 149.282 213.491C143.879 212.845 138.221 204.595 138.313 200.618C138.405 196.642 134.768 154.957 139.327 146.805C140.394 144.878 141.739 143.12 143.319 141.587C142.007 146.855 141.419 152.883 143.17 158.244C147.467 171.443 145.666 194.228 151.076 201.03C156.486 207.832 168.001 204.644 176.183 195.35C181.955 188.789 184.21 184.65 186.783 184.089C187.177 185.115 187.416 186.194 187.492 187.291C187.882 192.219 184.926 193.944 174.014 201.726Z" fill="#254163"/>
<path d="M165.214 207.612C158.5 211.738 153.125 213.953 149.282 213.491C143.872 212.838 138.221 204.595 138.313 200.618C138.313 199.944 138.235 198.19 138.101 195.705C140.802 201.698 145.191 207.229 152.189 208.436C156.54 209.106 160.983 208.825 165.214 207.612Z" fill="#1D3751"/>
<path d="M160.138 187.959C160.138 187.959 156.67 190.131 156.16 190.55C155.756 190.884 156.713 177.372 157.372 171.436C157.747 177.022 158.674 182.556 160.138 187.959Z" fill="#1D3751"/>
<path d="M151.21 135.97C151.21 135.97 154.174 137.547 155.422 142.041C156.67 146.536 157.549 155.532 157.457 158.294C157.365 161.056 157.585 173.808 158.102 175.796C158.62 177.784 159.435 183.606 159.669 184.316C159.903 185.026 160.506 187.249 160.506 187.249C160.506 187.249 173.978 180.106 178.232 179.027C182.486 177.947 184.507 179.474 185.606 181.37C186.285 182.574 186.8 183.863 187.138 185.204C187.138 185.204 184.592 180.29 181.565 179.623C178.537 178.956 169.043 183.571 168.093 184.139C167.143 184.707 161.378 187.852 160.917 188.037C160.456 188.221 156.11 190.493 156.11 190.493C156.11 190.493 158.946 188.221 158.946 187.014C158.946 185.807 157.145 176.186 157.053 171.394C156.961 166.601 156.727 158.99 156.592 157.136C156.457 155.283 154.976 141.665 152.841 139.031C150.707 136.396 149.863 135.48 149.863 135.48L151.225 136.19L151.21 135.97Z" fill="#231F20"/>
<path d="M139.207 191.381C139.207 191.381 141.433 204.367 145.588 207.562C149.743 210.758 155.146 212.085 157.642 209.998C160.138 207.91 166.072 200.199 171.958 197.423C177.843 194.647 182.983 193.71 185.819 190.508C188.656 187.305 187.344 185.864 187.344 185.864C187.689 186.905 187.795 188.011 187.654 189.099C187.513 190.187 187.128 191.229 186.528 192.148C184.465 195.265 164.349 208.436 164.349 208.436C164.349 208.436 154.09 214.826 149.311 213.491C144.532 212.156 140.838 207.492 139.731 203.877C138.625 200.263 139.235 191.381 139.235 191.381" fill="#231F20"/>
<path d="M182.891 179.339C182.891 179.339 185.947 177.287 187.003 177.102C188.06 176.918 189.272 179.19 189.549 179.772C189.825 180.354 190.853 183.322 190.456 185.616C190.35 184.066 190.038 182.538 189.527 181.071C188.669 178.622 187.62 177.557 187.166 177.571C186.712 177.585 183.309 179.651 183.309 179.651L182.891 179.339Z" fill="#231F20"/>
<path d="M187.379 177.344C187.379 177.344 190.846 173.794 191.725 173.005C193.163 171.864 194.764 170.947 196.476 170.286C198.001 170.116 199.537 170.057 201.071 170.109C201.071 170.109 197.341 170.009 195.583 170.982C193.995 171.847 192.505 172.88 191.137 174.063C190.194 174.937 187.847 177.393 187.847 177.393L187.379 177.344Z" fill="#231F20"/>
<path d="M190.343 186.276C190.343 186.276 193.938 185.715 194.944 184.856C195.951 183.997 199.248 181.128 199.688 180.326C200.847 178.766 202.203 177.362 203.722 176.151C204.829 175.377 206.396 174.447 206.396 174.447C204.633 175.172 203.026 176.227 201.659 177.557C199.723 179.58 197.277 182.356 195.895 183.656C194.512 184.955 190.407 185.85 190.407 185.85L190.343 186.276Z" fill="#231F20"/>
<path d="M189.775 175.093C189.775 175.093 190.336 173.474 190.541 172.92C190.747 172.366 191.406 169.988 191.534 169.718C191.661 169.448 191.534 168.76 192.243 169.136C192.243 169.136 191.931 168.838 191.796 169.427C191.661 170.016 191.25 171.862 191.123 172.267C190.995 172.672 190.215 174.575 190.215 174.575L189.775 175.093Z" fill="#231F20"/>
<path d="M141.944 252.571C87.5387 242.844 93.6436 229.51 77.5483 221.451C61.7366 213.52 57.9645 191.239 57.8581 190.543C57.8581 190.543 57.298 202.252 50.3919 204.63C49.4145 204.966 48.3684 205.051 47.3499 204.876C46.3314 204.701 45.3732 204.272 44.5635 203.629C41.2594 201.272 39.3308 196.593 39.2031 196.28L42.0393 192.574C42.0393 192.574 42.9611 197.942 46.6623 199.61C47.1016 199.827 47.5986 199.896 48.0804 199.809C50.9733 199.291 52.7104 192.546 51.5831 183.216C50.2713 172.459 48.9738 158.478 68.3023 139.677C82.8023 125.576 86.8935 120.336 88.0351 118.589C88.3941 118.039 88.7872 117.513 89.2121 117.013C90.7573 115.18 91.8743 113.024 92.4816 110.704C93.0888 108.384 93.1709 105.957 92.7218 103.6C92.2417 100.504 92.4254 97.3403 93.2607 94.3203C95.0404 87.22 99.5783 79.8925 105.017 76.9388C112.972 72.6289 118.893 69.3841 121.325 66.4232C122.105 65.4576 123.785 64.6056 125.955 64.0589C130.457 62.9157 137.051 63.1074 141.972 66.4232C149.254 71.3295 154.48 81.3338 148.148 89.5702C141.816 97.8065 138.484 97.1675 135.775 103.096C133.067 109.025 133.917 114.854 130.627 118.838C127.337 122.821 121.261 125.036 122.587 132.91C123.913 140.785 132.053 144.981 142.688 150.143C153.324 155.305 163.499 169.051 163.499 169.051L162.024 170.379L161.556 170.797C161.556 170.797 157.763 162.923 142.32 158.663V158.706C143.664 160.803 144.553 163.16 144.929 165.623C145.305 168.087 145.16 170.602 144.503 173.006C142.192 181.072 145.517 190.046 152.083 193.355C155.954 195.286 158.989 195.18 160.96 194.143C161.585 193.835 162.133 193.391 162.566 192.845C162.999 192.299 163.305 191.663 163.463 190.984C164.109 187.93 162.91 187.093 162.91 187.093C162.91 187.093 166.009 186.688 167.03 187.32C167.112 187.362 167.183 187.422 167.238 187.496C167.293 187.57 167.331 187.655 167.349 187.746C167.584 189.248 168.021 190.712 168.646 192.098L169.292 193.391C169.199 193.633 169.092 193.87 168.973 194.101C167.971 196.091 166.404 197.74 164.468 198.84C162.533 199.941 160.316 200.443 158.096 200.285C149.587 199.916 142.376 194.534 139.32 188.79C139.32 188.79 138.122 200.555 143.114 208.053C148.105 215.551 158.096 215.579 158.096 215.579C158.096 215.579 151.53 216.111 147.829 214.074C144.993 212.526 144.128 211.283 143.858 210.786C144.709 212.781 151.076 226.677 164.201 230.284C178.36 234.111 196.342 262.299 141.944 252.571Z" fill="url(#paint0_linear_131_2976)"/>
<path d="M48.0591 199.795C42.9895 201.435 39.3662 196.543 39.1748 196.28L42.011 192.574C42.011 192.574 42.9327 197.942 46.634 199.61C47.0769 199.823 47.5766 199.888 48.0591 199.795Z" fill="#6BABB6"/>
<path d="M167.037 187.32C166.849 188.232 166.519 189.109 166.059 189.918C164.981 191.941 163.153 193.459 160.968 194.143C161.592 193.835 162.141 193.391 162.574 192.845C163.006 192.298 163.313 191.663 163.471 190.983C164.116 187.93 162.918 187.092 162.918 187.092C162.918 187.092 166.016 186.688 167.037 187.32Z" fill="#6BABB6"/>
<path opacity="0.32" d="M106.406 236.596C85.1847 223.261 74.2228 214.23 70.3373 211.177C66.4517 208.124 58.1204 191.076 57.8581 190.543C57.8581 190.543 57.2979 202.252 50.3918 204.63C49.4144 204.966 48.3684 205.051 47.3499 204.876C46.3314 204.701 45.3732 204.272 44.5635 203.629C46.5344 203.343 48.3855 202.508 49.906 201.221C51.4266 199.933 52.5555 198.243 53.1642 196.344C57.461 184.359 50.7747 179.488 54.8305 165.053C58.8862 150.618 86.8722 124.908 90.6231 118.653C94.3739 112.398 94.7851 111.29 94.0903 105.738C93.5077 101.961 93.2397 98.1417 93.2891 94.3202C95.0688 87.22 99.6067 79.8925 105.045 76.9388C113.001 72.6289 118.921 69.3841 121.353 66.4232C122.133 65.4576 123.813 64.6056 125.983 64.0588C132.74 64.9961 139.455 67.609 142 73.7862C147.8 87.9513 133.648 91.7002 128.933 98.9283C124.218 106.156 133.542 110.324 125.983 118.376C118.425 126.428 115.837 123.346 114.206 133.521C112.575 143.696 125.955 148.524 125.955 148.524C125.955 148.524 114.341 147.686 110.179 139.627C106.102 131.739 109.881 125.718 110.037 125.469C109.647 125.654 94.8631 132.889 100.472 148.524C106.144 164.357 117.95 158.109 124.466 170.748C130.982 183.386 118.226 211.731 141.674 227.429C165.122 243.128 127.628 249.93 106.406 236.596Z" fill="#6BABB6"/>
<path opacity="0.32" d="M161.996 170.379L161.528 170.797C161.528 170.797 157.735 162.923 142.292 158.663C142.292 158.663 140.873 155.702 134.797 151.25C128.884 146.948 123.41 143.681 123.069 143.483C123.544 143.632 139.016 148.517 148.595 156.973C156.104 163.662 160.521 166.836 161.996 170.379Z" fill="#6BABB6"/>
<path opacity="0.32" d="M168.979 194.072C167.978 196.062 166.411 197.712 164.475 198.812C162.54 199.912 160.323 200.415 158.103 200.256C149.594 199.887 142.383 194.505 139.327 188.761C139.327 188.761 138.037 185.921 138.313 179.779C138.59 173.637 135.817 167.368 135.817 167.368C135.817 167.368 139.795 170.144 140.781 177.188C141.766 184.231 141.724 190.678 151.601 195.336C158.011 198.325 164.64 196.529 168.979 194.072Z" fill="#6BABB6"/>
<path d="M139.732 105.595C139.022 109.38 135.116 111.716 133.215 112.454C132.811 112.629 132.372 112.711 131.932 112.696C130.663 112.611 129.699 111.666 129.018 111.077C128.139 110.296 128.188 106.149 129.798 100.242C131.407 94.3344 135.853 93.4469 135.853 93.4469C138.498 93.3546 139.037 94.3983 139.625 95.0445C139.734 95.1682 139.858 95.2779 139.994 95.3711C140.788 95.8752 140.441 101.839 139.732 105.595Z" fill="#F47421"/>
<path opacity="0.43" d="M139.59 95.0375C137.812 95.3552 136.222 96.3405 135.144 97.7924C132.939 100.824 132.11 109.799 131.897 112.703C130.628 112.618 129.663 111.673 128.983 111.084C128.103 110.303 128.153 106.157 129.763 100.249C131.372 94.3416 135.818 93.4541 135.818 93.4541C138.463 93.3476 139.023 94.3913 139.59 95.0375Z" fill="#A54623"/>
<path d="M138.455 101.037C138.455 100.959 138.895 99.617 138.455 99.3259C138.015 99.0348 137.292 99.2549 135.867 102.876C134.442 106.497 134.371 109.593 135.378 109.153C136.385 108.712 138.405 102.045 138.455 101.037Z" fill="white"/>
<path d="M139.661 94.6184C138.512 96.8905 137.2 97.0254 136.307 97.4585C136.084 97.5564 135.841 97.6025 135.598 97.5934C134.797 97.5141 134.032 97.2251 133.378 96.7556C132.669 96.2798 133.201 94.4054 133.201 94.4054C133.201 94.4054 133.698 89.8683 129.72 82.4556C125.742 75.0429 117.666 72.3164 115.34 72.359C113.015 72.4016 109.902 74.2903 109.902 74.2903C109.843 73.8107 109.898 73.3238 110.065 72.8702C110.278 72.3377 110.604 71.7981 112.369 70.9673C112.894 70.7188 113.546 70.4419 114.369 70.1366C114.716 70.0093 115.053 69.855 115.376 69.6751C116.794 68.8727 117.34 67.8716 118.212 67.2823C118.618 67.029 119.071 66.8608 119.544 66.7875C120.017 66.7143 120.5 66.7377 120.963 66.8563C124.671 67.4101 133.811 70.8324 137.229 76.9529C140.646 83.0733 140.809 92.3534 139.661 94.6184Z" fill="#EE2C28"/>
<path d="M135.591 97.5792C134.791 97.4999 134.025 97.2109 133.372 96.7414C132.663 96.2657 133.194 94.3912 133.194 94.3912C133.194 94.3912 133.691 89.8541 129.713 82.4414C125.735 75.0287 117.659 72.3022 115.333 72.3448C113.008 72.3874 109.895 74.2761 109.895 74.2761C109.836 73.7965 109.892 73.3096 110.058 72.856C110.271 72.3235 110.597 71.7839 112.363 70.9532C114.157 70.7908 115.964 70.8696 117.737 71.1875C120.822 71.7566 123.728 73.0476 126.219 74.9552C128.711 76.8628 130.717 79.333 132.074 82.1645C134.3 86.8649 136.35 92.5451 135.591 97.5792Z" fill="#AB2B2B"/>
<path d="M118.198 69.7532C117.258 69.6191 116.307 69.5882 115.361 69.6609C116.779 68.8585 117.325 67.8574 118.198 67.2681C121.239 68.4254 121.296 70.2289 118.198 69.7532Z" fill="#AB2B2B"/>
<path d="M136.024 97.5792C136.925 97.3717 137.764 96.9508 138.47 96.3516C139.176 95.7524 139.728 94.9925 140.079 94.1355C141.122 91.2954 140.54 87.2554 140.292 85.9063C140.044 84.5573 139.356 78.2309 136.038 74.6169C133.065 71.37 129.292 68.963 125.097 67.6373C121.311 66.4231 120.191 66.3876 119.184 66.5225C118.78 66.5455 118.389 66.6726 118.048 66.8916C117.708 67.1105 117.43 67.4139 117.241 67.7722C117.085 68.3118 115.114 69.6822 113.916 69.9946C112.717 70.307 110.619 71.4146 110.129 72.1247C109.841 72.7301 109.759 73.4135 109.895 74.0702C110.105 73.3498 110.49 72.6929 111.016 72.1587C111.542 71.6245 112.192 71.2297 112.909 71.0099C115.405 70.2147 116.582 69.1709 117.347 69.0289C118.113 68.8869 119.531 69.2987 119.29 68.5248C119.049 67.7509 118.319 67.5024 119.014 67.0551C119.709 66.6077 126.225 68.0917 130.181 70.5271C134.138 72.9625 136.563 75.1423 137.598 78.3374C138.633 81.5325 139.576 83.1656 139.853 88.3417C140.129 93.5178 139.47 94.2421 138.399 95.442C137.328 96.642 135.939 97.4514 136.002 96.2372C136.066 95.0231 136.038 91.9345 135.556 90.4363C135.074 88.9381 133.648 85.0685 133.372 84.1738C132.526 82.0807 131.444 80.0914 130.146 78.2451C129.3 77.2666 128.316 76.4174 127.224 75.7245C127.224 75.7245 130.635 78.8415 133.195 85.0543C135.754 91.267 135.627 95.2503 135.485 96.3792C135.343 97.5082 134.563 97.0396 134.017 96.6206C133.471 96.2017 133.23 95.9106 133.372 95.3C133.58 93.5176 133.508 91.7136 133.159 89.9535C132.712 88.2139 130.493 82.2781 128.373 79.6723C126.065 76.7279 122.951 74.5198 119.411 73.3175C119.411 73.3175 124.736 75.6464 127.749 79.8782C130.763 84.1099 132.088 87.6885 132.33 89.4991C132.571 91.3096 132.918 92.4883 132.847 94.1924C132.776 95.8964 132.741 96.5852 133.23 97.0325C133.719 97.4798 135.329 97.8987 136.024 97.5792Z" fill="#231F20"/>
<path d="M134.846 97.3663C133.864 98.8752 133.192 100.565 132.868 102.336C132.358 105.346 132.066 108.388 131.996 111.439C131.996 111.439 132.585 103.338 133.868 100.554C135.151 97.771 136.13 97.345 136.13 97.345L134.846 97.3663Z" fill="#231F20"/>
<path d="M133.01 94.6184C133.01 94.6184 130.684 95.8325 129.365 100.576C128.047 105.319 127.82 109.763 128.415 110.736C129.011 111.709 130.649 113.164 132.244 112.866C134.263 112.38 136.11 111.349 137.583 109.884C138.682 108.811 139.473 107.463 139.873 105.979C140.107 104.698 140.218 103.397 140.207 102.095C140.207 102.095 139.455 106.653 138.384 108.073C137.232 109.629 135.757 110.915 134.059 111.844C132.443 112.646 131.996 112.362 130.592 111.46C129.188 110.559 128.628 110.076 128.841 108.095C129.053 106.114 129.55 101.591 130.471 99.2336C131.393 96.8763 132.542 95.5556 132.79 95.5272C133.038 95.4988 133.187 94.8314 133.01 94.6184Z" fill="#231F20"/>
<path d="M356.111 66.764C376.673 76.7044 380.53 89.485 380.53 89.485C380.53 89.485 386.075 66.1463 403 56.7029L402.702 56.2343C402.69 56.2098 402.673 56.1881 402.653 56.1704C400.086 52.3718 382.573 29.3171 331.975 21.4145C307.619 17.6159 288.121 23.6724 273.911 32.8247C255.909 44.391 246.4 60.8992 246.259 68.5604C246.259 68.5604 169.292 60.1892 171.986 153.885L224.335 165.075C224.335 165.075 226.937 126.619 234.418 115.657L234.453 115.6C235.439 114.18 236.502 113.221 237.658 112.895C247.641 110.054 256.242 119.995 263.184 140.458C270.125 160.921 293.424 190.905 326.161 188.264C352.438 186.134 371.54 167.673 380.672 141.594C382.971 134.938 384.598 128.069 385.529 121.088C390.528 84.5077 314.228 66.7924 314.228 66.7924C314.228 66.7924 335.584 56.8236 356.111 66.764ZM328.196 149.127C324.31 144.974 320.311 136.042 314.915 127.734C307.825 116.807 296.14 103.146 295.771 102.72C304.088 103.693 321.432 111.886 330.727 123.005C340.023 134.124 337.385 151.896 332.145 151.485C330.848 151.385 329.586 150.569 328.302 149.227L328.196 149.127Z" fill="url(#paint1_linear_131_2976)"/>
<path opacity="0.46" d="M380.658 141.587C371.589 167.695 352.445 186.134 326.146 188.257C293.41 190.898 270.132 160.886 263.169 140.451C256.206 120.016 247.627 110.04 237.643 112.888C236.488 113.214 235.424 114.166 234.438 115.593C235.325 114.173 253.93 84.8202 284.256 102.358C315.326 120.322 338.618 217.07 380.658 141.587Z" fill="#AF4D26"/>
<path opacity="0.43" d="M403 56.6959C386.075 66.1392 380.53 89.4779 380.53 89.4779C380.53 89.4779 376.645 76.6974 356.111 66.757C335.577 56.8166 314.22 66.757 314.22 66.757C314.22 66.757 290.354 59.607 284.944 53.3516C279.534 47.0963 278.073 22.6571 316.333 22.8204C352.197 22.9553 385.288 35.9062 402.653 56.1917C402.673 56.2094 402.69 56.2311 402.702 56.2556L403 56.6959Z" fill="#A54623"/>
<path d="M183.466 111.276C183.466 111.276 203.794 109.146 228.483 115.493C228.483 115.493 239.651 93.6741 262.716 93.7238C262.716 93.7238 250.13 80.7161 221.69 74.6028C221.69 74.617 191.301 82.9527 183.466 111.276Z" fill="#F47421"/>
<path d="M59.9782 198.609C59.9782 198.609 55.6317 199.504 57.4327 202.869C59.2337 206.235 61.0701 223.844 58.4892 233.01C55.9083 242.177 52.8594 243.724 52.8594 243.724C52.8594 243.724 89.3397 266.211 139.285 266.907C189.23 267.603 227.511 260.382 249.435 254.602C271.359 248.822 274.684 245.627 274.684 245.627C274.684 245.627 270.522 216.31 275.393 205.759C280.264 195.208 280.392 193.355 280.392 193.355C271.344 191.481 261.984 191.751 253.058 194.143C237.941 198.112 195.767 209.92 174.262 216.154C152.757 222.388 121.268 221.834 100.046 217.574C78.8246 213.314 65.8703 204.155 59.9782 198.609Z" fill="url(#paint2_linear_131_2976)"/>
<path d="M72.5569 214.088C72.5569 214.088 71.5856 235.765 69.8555 240.359C68.933 242.596 68.2578 244.926 67.8418 247.31C67.8418 247.31 84.2775 255.504 96.4872 258.422C108.697 261.34 109.874 260.715 109.874 260.715C109.874 260.715 112.441 233.024 112.93 230.078C113.213 228.496 113.35 226.892 113.341 225.285C113.341 225.285 94.7501 223.553 72.5569 214.088Z" fill="#F47421"/>
<path d="M212.054 155.745C210.246 155.191 202.326 153.338 200.298 153.338C198.27 153.338 194.626 152.55 191.938 151.996C189.251 151.442 183.153 150.576 181.579 150.235C180.005 149.894 178.034 149.724 177.091 149.525C176.148 149.326 175.077 149.198 175.992 150.235C175.992 150.235 196.377 154.126 199.518 154.126C202.659 154.126 204.751 154.836 206.608 155.191C208.466 155.546 211.437 157.044 213.103 157.137C214.67 157.293 216.227 157.53 217.769 157.847C218.421 157.939 218.875 157.364 218.719 157.137C218.563 156.909 213.826 156.299 212.054 155.745Z" fill="white"/>
<path d="M177.758 144.725C177.758 144.725 181.303 144.952 182.565 145.094C183.827 145.236 184.834 145.847 185.848 145.584C186.862 145.321 186.777 144.725 186.735 144.725C185.238 144.773 183.74 144.68 182.26 144.448C180.304 144.079 179.999 143.937 178.807 143.987C177.616 144.036 176.46 144.398 177.758 144.725Z" fill="white"/>
<path d="M220.023 148.801C219.378 148.289 205.843 147.736 201.659 146.578C198.669 145.844 195.605 145.455 192.527 145.421C191.711 145.648 193.066 146.344 194.356 146.344C195.646 146.344 197.086 147.054 198.291 147.366C200.66 148.105 203.115 148.525 205.594 148.616C210.005 148.858 214.395 149.399 218.733 150.235C219.804 150.562 219.931 150.561 220.023 150.05C220.116 149.539 220.669 149.312 220.023 148.801Z" fill="white"/>
<path d="M219.854 139.954C218.833 139.535 216.309 139.166 213.38 138.427C210.452 137.689 204.872 137.454 201.674 137.178C198.476 136.901 190.492 136.716 186.784 135.97C183.076 135.225 179.211 134.259 178.857 134.905C178.857 134.905 178.318 136.205 179.474 136.432C180.63 136.659 197.044 137.596 200.653 138.058C203.334 138.424 206.037 138.609 208.743 138.612C210.828 138.612 213.6 139.954 216.053 140.032C217.524 140.002 218.988 140.22 220.386 140.678C221.222 140.926 220.854 140.387 219.854 139.954Z" fill="white"/>
<path d="M222.194 129.119C221.088 128.565 221.783 128.146 217.16 127.45C212.537 126.754 200.646 126.946 195.98 126.108C192.947 125.508 189.853 125.269 186.763 125.398C184.125 125.441 180.559 125.398 180.559 125.398C180.559 125.398 179.963 125.348 180.559 125.86C181.154 126.371 183.473 126.875 189.443 126.69C195.413 126.506 213.473 127.819 216.507 128.316C219.542 128.813 221.549 129.247 222.754 129.935C223.959 130.624 223.307 129.673 222.194 129.119Z" fill="white"/>
<path d="M205.084 118.561C209.111 119.072 210.962 120.691 213.777 120.598C216.397 120.619 219.01 120.898 221.576 121.429C223.427 121.756 225.689 122.494 225.781 122.082C225.873 121.67 223.93 120.598 222.548 120.456C221.165 120.314 212.834 119.746 210.061 118.795C207.289 117.843 202.127 116.956 199.489 117.261C196.852 117.566 182.522 117.261 182.522 117.261C182.522 117.261 180.345 117.545 180.53 118.284C180.714 119.022 201.064 118.049 205.084 118.561Z" fill="white"/>
<path d="M267.813 93.5818C266.984 93.0209 265.871 93.0919 264.977 90.8695C264.084 88.6472 257.348 83.4355 254.505 82.5338C251.661 81.6321 242.784 78.231 241.671 77.1163C240.117 75.6774 238.337 74.5044 236.403 73.6442C234.871 73.0904 231.546 72.6715 230.433 72.1887C229.355 71.641 228.173 71.3311 226.965 71.2798C225.441 71.2159 225.994 72.3946 227.937 72.5295C227.937 72.5295 245.663 78.6428 255.823 84.7562C265.984 90.8695 265.396 93.2339 266.714 93.9866C268.033 94.7392 268.65 94.1357 267.813 93.5818Z" fill="white"/>
<path d="M272.947 88.505C270.877 87.085 269.48 84.7561 268.508 83.3715C267.537 81.987 264.899 80.3823 263.233 78.5078C261.567 76.6334 261.503 75.7955 258.794 73.921C256.086 72.0466 255.604 72.3874 253.384 71.2797C251.165 70.1721 254.632 73.0903 254.632 73.0903C254.632 73.0903 262.333 78.2948 264.141 80.8012C265.162 82.3471 266.554 83.6117 268.189 84.4792C269.551 85.3809 271.976 88.292 272.805 89.4494C273.635 90.6067 274.684 91.3309 275.514 92.7865C276.343 94.2421 277.18 96.1875 277.251 95.5627C277.322 94.9379 275.017 89.9748 272.947 88.505Z" fill="white"/>
<path d="M283.072 91.8068C282.937 90.3867 280.491 87.5466 280.236 86.0769C279.981 84.6071 275.868 81.4546 275.868 81.4546C275.868 81.4546 279.888 86.3183 281.349 89.1726C282.81 92.0269 284.611 95.6552 285.511 96.8196C286.412 97.9841 286.759 102.23 286.759 102.23C287.104 101.894 287.351 101.472 287.476 101.007C287.601 100.542 287.598 100.052 287.468 99.5887C287.099 97.7853 283.214 93.2269 283.072 91.8068Z" fill="white"/>
<path d="M291.34 97.6077C291.694 96.8622 290.794 95.7119 290.794 95.7119L289.163 93.738C289.163 93.738 292.162 99.6881 292.233 102.194C292.304 104.701 292.715 107.051 293.339 106.568C293.963 106.085 292.786 102.954 292.63 101.151C292.474 99.3473 290.992 98.3532 291.34 97.6077Z" fill="white"/>
<path d="M367.583 158.571C366.562 158.109 357.146 159.835 351.402 158.479C345.659 157.122 342.327 155.411 340.058 154.928C337.789 154.446 333.18 151.747 334.931 153.167C334.931 153.167 348.162 159.835 356.203 159.934C364.243 160.033 363.236 159.189 364.995 159.189C366.753 159.189 368.597 159.032 367.583 158.571Z" fill="white"/>
<path d="M370.079 150.1C367.399 149.39 363.144 151.343 360.549 151.066C357.954 150.789 356.763 149.965 354.728 150.1C352.693 150.235 351.396 149.312 349.361 149.028C347.326 148.744 338.356 147.182 340.299 148.197C340.625 148.368 354.168 151.556 357.593 151.449C361.017 151.343 363.052 152.088 365.179 151.996C367.307 151.903 372.759 150.796 370.079 150.1Z" fill="white"/>
<path d="M348.899 143.291C350.849 142.897 352.85 142.835 354.82 143.106C357.224 143.383 358.472 142.886 360.18 143.326C361.889 143.767 363.421 143.738 363.329 143.326C363.236 142.915 357.5 142.616 356.018 142.496C354.536 142.375 348.254 142.268 346.035 141.786C343.816 141.303 339.377 140.209 340.667 141.324C340.667 141.345 346.865 143.66 348.899 143.291Z" fill="white"/>
<path d="M373.78 143.653C372.022 143.27 369.895 143.476 368.32 143.199C366.746 142.922 366.193 143.653 366.193 143.653C366.193 143.653 373.872 145.073 375.631 144.952C377.389 144.832 375.539 144.029 373.78 143.653Z" fill="white"/>
<path d="M376.34 129.027C375.106 129.211 372.759 130.042 369.958 130.447C367.158 130.851 364.038 131 361.173 132.2C358.309 133.4 347.574 133.407 343.788 133.5C340.001 133.592 340.405 134.92 340.405 134.92C339.555 135.921 349.424 134.082 351.176 133.897C352.927 133.713 361.911 132.882 363.669 132.967C365.428 133.052 375.51 130.198 376.311 129.914C377.113 129.63 380.318 128.622 379.665 128.622C379.013 128.622 377.566 128.842 376.34 129.027Z" fill="white"/>
<path d="M375.844 114.947C373.56 116.129 371.212 117.182 368.81 118.099C366.222 119.207 362.705 119.952 360.677 120.783C358.649 121.614 344.029 126.804 341.994 127.06C339.959 127.315 340.788 128.565 340.788 128.565C341.625 129.275 343.469 128.011 344.951 127.45C346.432 126.889 348.007 126.619 357.004 123.005C366.002 119.391 368.009 119.86 370.859 118.838C373.709 117.815 380.034 113.867 380.715 113.285C381.395 112.703 378.311 113.562 375.844 114.947Z" fill="white"/>
<path d="M340.023 121.337C336.697 121.898 336.896 123.098 336.896 123.098C336.896 123.098 338.264 122.821 340.023 122.388C343.598 121.173 347.064 119.655 350.382 117.851C352.232 116.644 349.673 117.666 347.787 118.405C345.901 119.143 343.348 120.783 340.023 121.337Z" fill="white"/>
<path d="M358.331 113.108C356.849 113.551 355.511 114.379 354.452 115.507C354.452 115.507 359.813 114.023 362.124 112.667C364.436 111.311 371.377 108.904 372.207 108.343C373.036 107.782 378.404 106.49 378.127 105.29C377.851 104.09 370.817 107.236 367.874 108.84C364.932 110.445 360.458 112.632 358.331 113.108Z" fill="white"/>
<path d="M312.094 84.2024C310.483 85.5169 308.965 86.9403 307.549 88.4626C305.968 90.1312 299.515 94.7605 298.218 96.3368C297.466 97.2204 296.928 98.2649 296.644 99.3899C296.644 99.3899 297.388 99.5745 298.125 98.5592C298.863 97.5438 301.089 95.5913 302.564 93.7381C304.039 91.8849 314.866 82.8179 314.866 82.8179C313.862 83.0969 312.92 83.567 312.094 84.2024Z" fill="white"/>
<path d="M327.26 73.7366C327.26 73.7366 325.778 74.8513 324.949 75.4051C324.119 75.959 320.879 78.1813 319.674 78.9553C318.722 79.6596 317.881 80.502 317.178 81.4546C317.178 81.4546 321.524 78.4015 323.836 77.0169C325.208 76.1936 326.378 75.0726 327.26 73.7366Z" fill="white"/>
<path d="M293.134 88.0932C294.694 87.227 296.459 86.2401 299.331 82.8177C302.203 79.3954 310.243 74.4749 311.441 73.7364C312.64 72.998 314.866 70.094 314.866 70.094C314.317 70.3514 313.79 70.6555 313.292 71.0028C311.48 72.4236 309.559 73.7008 307.549 74.8228C305.039 76.115 304.046 77.599 302.103 79.3599C300.161 81.1207 297.573 83.5277 295.772 84.82C293.971 86.1122 288.206 92.6303 288.206 92.6303L289.163 93.7309C289.163 93.7309 291.574 88.9595 293.134 88.0932Z" fill="white"/>
<path d="M282.107 86.4745L283.008 87.3052C283.008 87.3052 286.383 83.9255 287.454 83.3717C288.524 82.8179 293.126 77.0737 293.126 77.0737C292.615 77.355 292.139 77.6958 291.708 78.0891C290.878 78.7991 290.134 79.2038 289.127 80.0345C288.12 80.8653 282.107 86.4745 282.107 86.4745Z" fill="white"/>
<path d="M303.953 66.9771C304.414 65.8623 303.953 66.9771 302.656 68.0847C301.897 68.7103 301.186 69.3914 300.528 70.1225C299.77 70.939 297.479 73.0904 297.479 73.0904C299.883 72.5295 303.521 68.0847 303.953 66.9771Z" fill="white"/>
<path d="M282.498 72.5294C280.831 74.9435 274.294 80.3397 274.294 80.3397L275.343 81.0497C275.343 81.0497 276.116 80.2261 276.761 79.6723C277.515 78.8701 278.196 78.0029 278.796 77.0807C280.844 75.029 283.005 73.0947 285.27 71.2869C287.121 69.9378 294.608 63.1854 294.984 62.2624C295.36 61.3394 294.984 62.2624 293.963 62.9724C292.687 63.9347 291.302 64.7427 289.836 65.3794C287.929 66.2173 288.51 67.048 286.936 68.532C285.362 70.0159 284.164 70.094 282.498 72.5294Z" fill="white"/>
<path d="M278.705 58.9182C277.318 59.8833 276.046 61.0028 274.911 62.2554C273.713 63.5476 272.231 64.2931 270.657 65.2162C269.083 66.1392 262.716 73.7365 262.716 73.7365L264.949 71.8833C266.553 70.607 268.06 69.2139 269.459 67.7155C271.309 65.6777 283.236 57.1573 284.072 56.1349C284.909 55.1125 283.512 55.7728 282.108 56.7881C280.704 57.8035 280.279 57.8106 278.705 58.9182Z" fill="white"/>
<path d="M271.309 54.1043C272.018 53.0819 269.891 54.935 268.19 56.135C266.488 57.3349 265.204 58.9751 261.872 60.31C258.539 61.6448 254.938 67.7155 254.938 67.7155C254.938 67.7155 259.1 64.1086 260.574 62.9939C262.049 61.8791 270.565 55.1196 271.309 54.1043Z" fill="white"/>
<path d="M279.626 49.2902C280.555 48.2678 278.704 50.3055 276.577 50.7103C274.45 51.115 274.294 52.2865 274.294 52.2865C275.123 52.338 275.948 52.1455 276.669 51.7327C277.817 51.1375 278.824 50.3049 279.626 49.2902Z" fill="white"/>
<path d="M268.189 46.7839C270.564 45.6763 272.663 44.3769 274.294 43.8231C275.925 43.2693 269.515 44.2846 268.189 45.3994C266.863 46.5141 260.673 51.2571 258.262 52.2654C256.608 52.8817 255.001 53.6198 253.455 54.4735C252.625 55.0274 249.243 58.9183 249.243 58.9183C249.243 58.9183 255.029 53.9481 259.283 52.2654C263.537 50.5826 265.814 47.8987 268.189 46.7839Z" fill="white"/>
<path d="M280.739 34.8412C282.774 33.7264 282.866 31.9087 281.2 32.8176C279.132 34.01 276.894 34.8792 274.563 35.395C272.046 35.8565 267.055 39.009 267.055 39.009C267.055 39.009 272.11 36.5097 274.294 36.2257C276.478 35.9417 278.704 35.9488 280.739 34.8412Z" fill="white"/>
<path d="M335.307 78.366C329.897 80.1765 303.677 100.185 303.677 100.185C323.828 106.987 332.804 118.795 332.804 118.795L372.064 99.4041C356.529 83.7622 335.307 78.366 335.307 78.366Z" fill="url(#paint3_linear_131_2976)"/>
<path d="M65.8276 207.84C65.8276 207.84 66.799 213.598 65.8276 216.175C64.8562 218.753 64.8562 221.855 64.5796 223.467C64.3031 225.079 63.8139 226.456 64.3031 226.307C64.7924 226.158 65.8985 224.781 65.8985 223.254C65.8985 221.728 66.6642 214.116 66.8699 212.156C67.0755 210.197 66.1041 207.357 65.8276 207.84Z" fill="white"/>
<path d="M63.2614 234.927C63.2614 234.927 62.5027 238.477 61.8078 239.649C61.1129 240.82 60.0707 242.255 59.9359 243.696C59.8012 245.137 62.29 242.361 62.7083 240.97C63.1266 239.578 64.722 234.579 63.2614 234.927Z" fill="white"/>
<path d="M117.922 252.919C117.922 252.919 117.574 256.881 117.298 258.266C117.159 259.376 117.183 260.5 117.368 261.603C117.368 261.809 117.503 261.88 117.922 260.488C118.314 258.546 118.57 256.58 118.687 254.602C118.822 253.196 118.687 251.151 117.922 252.919Z" fill="white"/>
<path d="M120.07 225.136C119.793 225.484 119.446 227.912 119.311 229.538C119.176 231.164 118.751 233.543 118.389 235.417C118.028 237.292 118.893 240.97 118.269 242.844C117.645 244.719 118.545 245.35 118.73 245.066C119.053 244.684 119.227 244.197 119.219 243.696C119.413 242.03 119.512 240.354 119.517 238.676C119.446 236.738 119.517 231.455 120.07 229.538C120.623 227.621 120.346 224.788 120.07 225.136Z" fill="white"/>
<path d="M129.295 230.482C129.224 229.304 129.295 225.967 129.295 225.967C129.295 225.967 128.188 224.738 128.188 226.634C128.188 228.53 128.323 238.193 128.188 239.372C127.973 240.805 127.973 242.263 128.188 243.696C128.465 245.826 127.564 250.122 127.77 252.216C127.976 254.311 128.713 257.087 128.515 258.337C128.316 259.586 129.16 260.417 129.295 258.337C129.429 256.256 127.947 239.649 128.515 237.987C129.082 236.326 129.365 231.661 129.295 230.482Z" fill="white"/>
<path d="M138.101 247.225C138.661 245.28 137.477 239.415 137.391 237.419C137.306 235.424 137.243 232.08 137.058 230.412C136.874 228.743 136.987 226.663 136.307 227.841C136.307 227.841 136.463 238.747 136.739 240.068C137.202 242.004 137.459 243.985 137.505 245.975C137.434 247.921 136.796 253.196 137.058 254.936C137.321 256.675 137.292 257.194 137.434 259.608C137.477 261.016 137.716 262.412 138.143 263.754C138.462 262.913 138.585 262.01 138.505 261.113C138.384 259.729 137.54 249.17 138.101 247.225Z" fill="white"/>
<path d="M146.113 227.5C145.809 229.404 145.669 231.331 145.694 233.259C145.836 235.481 146.063 237.427 146.113 239.166C146.162 240.906 147.148 239.571 147.084 237.419C147.02 235.268 147.332 226.18 146.113 227.5Z" fill="white"/>
<path d="M149.098 250.768C149.275 248.404 148.233 245.975 147.467 247.36C147.467 247.36 148.438 253.04 148.027 255.49C147.616 257.939 148.367 259.814 148.367 261.717C148.367 263.619 149.828 261.504 149.622 259.587C149.417 257.669 148.949 253.125 149.098 250.768Z" fill="white"/>
<path d="M158.387 235.9C158.848 232.939 158.635 227.948 158.387 227.798C158.139 227.649 157.642 224.852 156.969 227.365C156.969 227.365 157.245 234.317 157.614 237.419C157.983 240.522 157.706 243.497 157.614 246.55C157.522 249.603 158.323 252.018 158.323 255.163C158.323 258.308 158.323 259.934 158.415 261.717C158.507 263.499 159.833 263.641 159.713 262.462C159.528 259.049 159.528 255.629 159.713 252.216C159.982 249.98 160.181 245.116 159.713 242.588C159.245 240.061 157.926 238.868 158.387 235.9Z" fill="white"/>
<path d="M172.737 240.998C172.255 237.753 171.234 233.188 171.518 231.455C171.802 229.723 172.163 222.658 170.773 224.419C170.773 224.419 171.234 240.16 172.071 243.313C172.908 246.465 172.624 248.283 172.78 250.626C172.936 252.969 173.432 255.532 173.709 257.662C173.907 259.182 174.099 260.034 174.198 260.637C174.158 259.74 174.179 258.841 174.262 257.946C174.446 256.185 175.092 252.479 174.262 249.887C173.432 247.296 173.227 244.236 172.737 240.998Z" fill="white"/>
<path d="M174.29 261.276C174.284 261.062 174.262 260.849 174.227 260.637C174.248 261.248 174.29 261.582 174.29 261.276Z" fill="white"/>
<path d="M190.01 249.426C190.286 247.481 187.294 236.454 187.542 234.416C187.79 232.378 187.145 225.988 187.145 224.135C187.145 222.282 186.982 218.455 185.848 219.875C185.848 219.875 185.94 230.901 186.869 235.112C187.798 239.322 189.825 248.027 189.549 251.173C189.272 254.318 189.322 255.703 189.549 256.959C189.776 258.216 189.889 259.8 189.981 260.254C190.074 260.708 191.187 260.069 190.818 257.655C190.449 255.241 189.733 251.364 190.01 249.426Z" fill="white"/>
<path d="M196.129 222.473C196.299 220.528 195.009 217.872 194.711 219.569C194.711 219.569 195.172 225.058 195.172 226.669C195.172 228.281 196.647 230.291 196.554 232.229C196.462 234.167 197.668 231.86 197.483 230.383C197.299 228.906 195.952 224.419 196.129 222.473Z" fill="white"/>
<path d="M202.837 250.349C202.518 248.92 202.065 247.524 201.482 246.181C201.482 246.181 201.851 250.441 201.943 252.479C202.064 254.051 202.363 255.605 202.837 257.109C203.049 257.946 203.886 257.819 203.546 255.688C203.205 253.558 203.177 252.202 202.837 250.349Z" fill="white"/>
<path d="M215.535 239.329C214.826 235.254 213.132 226.826 213.132 225.249C213.132 223.673 212.671 212.284 211.097 214.414C211.097 214.414 213.224 229.581 213.316 233.663C213.408 237.746 215.72 242.29 215.812 245.35C215.904 248.411 216.741 256.001 218.13 255.816C219.52 255.632 216.925 248.588 216.712 245.72C216.5 242.851 216.308 243.405 215.535 239.329Z" fill="white"/>
<path d="M226.235 213.52C226.096 212.551 225.858 211.6 225.526 210.68C225.526 210.68 224.696 213.925 225.526 216.516C226.278 218.691 226.866 220.92 227.284 223.183C227.377 224.298 227.469 221.089 227.284 219.541C227.1 217.993 226.235 214.542 226.235 213.52Z" fill="white"/>
<path d="M231.262 239.237C231.262 237.199 229.965 234.139 229.965 234.139C229.965 234.139 230.426 240.906 231.17 243.497C231.915 246.089 232.184 249.611 232.368 250.441C232.553 251.272 234.311 250.534 233.482 248.219C232.652 245.904 231.262 241.275 231.262 239.237Z" fill="white"/>
<path d="M238.749 217.07C238.565 215.522 236.714 206.817 236.346 209.317C236.346 209.317 239.402 222.097 239.494 226.357C239.549 229.63 240.045 232.881 240.969 236.021C241.621 238.151 240.323 230.092 240.323 227.962C240.323 225.832 238.934 218.625 238.749 217.07Z" fill="white"/>
<path d="M244.486 248.311C244.947 249.518 244.67 245.535 243.841 243.866C243.909 245.366 244.125 246.855 244.486 248.311Z" fill="white"/>
<path d="M254.937 216.175C254.937 214.691 254.008 202.933 252.902 204.105C252.902 204.105 256.043 231.15 257.341 235.687C258.639 240.224 257.986 240.657 258.447 242.425C258.908 244.193 259.099 239.209 258.915 238.165C258.731 237.121 254.937 217.652 254.937 216.175Z" fill="white"/>
<path opacity="0.46" d="M348.347 156.803C337.08 158.983 329.132 150.178 328.274 149.184C329.557 150.526 330.819 151.314 332.117 151.442C337.385 151.854 340.022 134.075 330.699 122.963C321.375 111.851 304.06 103.65 295.743 102.677C276.315 72.2526 246.216 68.5534 246.216 68.5534C246.372 60.8922 255.88 44.4124 273.869 32.8176C266.778 47.5578 280.654 60.7928 287.411 64.3358C296.154 68.9226 326.664 73.6443 352.601 98.6515C378.538 123.659 360.244 154.495 348.347 156.803Z" fill="#AF4D26"/>
<path d="M281.937 147.977C281.937 147.977 286.255 148.467 286.901 149.738C287.546 151.009 285.582 159.558 283.767 160.268C281.951 160.978 279.158 160.126 279.158 160.126C279.158 160.126 279.051 158.358 279.42 157.91C279.789 157.463 281.434 158.088 282.434 157.91C283.433 157.733 284.079 153.742 284.32 152.344C284.561 150.945 283.71 150.782 281.54 150.42C279.37 150.057 281.937 147.977 281.937 147.977Z" fill="#EE2C28"/>
<path d="M273.677 165.288C270.274 165.153 265.247 164.017 263.637 161.248C262.028 158.478 262.68 151.691 262.928 147.139C263.105 143.703 263.538 141.345 264.105 140.181C264.228 139.874 264.434 139.608 264.701 139.414C265.538 138.91 272.578 139.031 277.613 140.926C282.647 142.822 283.455 144.036 283.285 144.967C283.284 144.983 283.284 145 283.285 145.016C283.285 145.016 280.449 156.987 280.002 159.962C279.814 161.486 279.058 162.881 277.884 163.869C276.711 164.857 275.208 165.364 273.677 165.288Z" fill="url(#paint4_linear_131_2976)"/>
<path opacity="0.32" d="M276.166 145.357C271.202 144.846 267.281 143 265.204 141.274C264.797 140.943 264.426 140.569 264.098 140.159C264.22 139.853 264.427 139.587 264.693 139.393C265.53 138.889 272.571 139.009 277.605 140.905C282.639 142.801 283.448 144.015 283.277 144.945C282.661 145.117 282.033 145.246 281.398 145.328C279.662 145.553 277.904 145.562 276.166 145.357Z" fill="#722914"/>
<path d="M276.166 145.357C271.203 144.846 267.282 143 265.204 141.274C266.296 140.564 268.749 140.351 273.365 141.381C278.158 142.439 280.413 144.221 281.385 145.329C279.653 145.552 277.9 145.561 276.166 145.357Z" fill="#722914"/>
<path d="M271.493 152.365C272.798 151.591 274.393 152.805 275.23 152.23C276.067 151.655 274.578 149.39 272.259 149.646C270.699 149.93 269.258 150.672 268.118 151.776C267.445 152.372 267.658 152.748 268.423 153.252C269.189 153.757 270.196 153.167 271.493 152.365Z" fill="#722914"/>
<path d="M269.543 155.581C271.114 155.841 272.726 155.515 274.074 154.666C275.563 153.7 275.492 153.018 274.038 152.663C273.468 152.484 272.861 152.456 272.276 152.58C271.691 152.705 271.148 152.978 270.699 153.373C269.72 154.126 268.472 153.771 268.203 153.877C267.154 154.254 268.572 155.297 269.543 155.581Z" fill="#722914"/>
<path d="M275.634 142.282C275.634 142.282 276.343 138.534 279.179 138.981C282.015 139.428 284.355 139.691 287.057 134.884C289.758 130.077 298.401 124.12 303.599 125.398C308.796 126.676 311.129 129.963 307.902 132.796C306.679 133.928 305.234 134.792 303.66 135.333C302.085 135.875 300.415 136.082 298.756 135.942C296.409 135.651 293.239 136.602 292.303 139.286C291.368 141.97 289.248 145.165 287.177 143.596C285.107 142.027 283.249 141.139 281.186 142.73C279.122 144.32 275.386 145.115 275.634 142.282Z" fill="white"/>
<path d="M275.705 117.623C275.705 117.623 272.805 117.808 273.152 113.477C273.5 109.146 274.28 107.363 270.423 107.953C266.565 108.542 264.041 112.703 263.573 115.529C263.105 118.355 265.495 119.562 267.232 120.08C268.969 120.598 269.359 122.771 270.983 123.36C272.606 123.95 272.578 124.269 273.457 125.774C274.337 127.28 276.052 126.485 276.294 124.993C276.535 123.502 275.584 122.43 277.003 121.827C278.421 121.223 280.002 120.35 279.307 118.987C278.612 117.623 276.286 117.666 275.705 117.623Z" fill="white"/>
<path d="M267.09 129.857C267.09 129.857 268.898 129.111 269.55 130.496C270.203 131.881 270.068 133.265 269.033 133.805C267.997 134.344 266.983 134.039 266.686 132.846C266.388 131.653 266.182 130.056 267.09 129.857Z" fill="white"/>
<path d="M275.478 177.06C274.629 175.522 273.345 174.271 271.786 173.464C270.228 172.658 268.465 172.332 266.722 172.529C264.979 172.725 263.332 173.435 261.992 174.568C260.651 175.701 259.677 177.207 259.191 178.895C258.705 180.583 258.73 182.378 259.262 184.052C259.795 185.726 260.811 187.204 262.183 188.299C263.554 189.395 265.219 190.058 266.967 190.206C268.715 190.354 270.468 189.98 272.003 189.13C274.06 187.988 275.58 186.076 276.231 183.814C276.883 181.551 276.612 179.122 275.478 177.06ZM271.344 187.959C270.044 188.68 268.561 188.998 267.08 188.874C265.6 188.751 264.189 188.19 263.027 187.263C261.865 186.336 261.004 185.085 260.552 183.667C260.1 182.25 260.079 180.731 260.49 179.301C260.901 177.871 261.726 176.596 262.861 175.636C263.996 174.676 265.39 174.075 266.866 173.909C268.343 173.743 269.835 174.019 271.155 174.702C272.474 175.386 273.562 176.446 274.279 177.748C275.241 179.492 275.471 181.547 274.921 183.462C274.371 185.376 273.084 186.993 271.344 187.959ZM265.232 178.125C265.309 177.859 265.489 177.636 265.731 177.502C265.973 177.369 266.257 177.338 266.523 177.415C266.718 177.473 266.893 177.588 267.023 177.745C267.154 177.902 267.235 178.094 267.257 178.298C267.279 178.501 267.24 178.706 267.146 178.888C267.051 179.069 266.905 179.218 266.726 179.317C266.547 179.415 266.343 179.459 266.14 179.441C265.936 179.424 265.742 179.347 265.583 179.219C265.423 179.092 265.304 178.92 265.242 178.725C265.18 178.53 265.176 178.321 265.232 178.125ZM269.756 179.431C269.792 179.299 269.855 179.177 269.94 179.069C270.024 178.962 270.129 178.873 270.249 178.807C270.368 178.741 270.5 178.699 270.635 178.684C270.771 178.67 270.908 178.682 271.039 178.721C271.236 178.778 271.411 178.892 271.543 179.049C271.674 179.206 271.757 179.398 271.78 179.602C271.802 179.805 271.764 180.011 271.67 180.193C271.576 180.375 271.431 180.525 271.252 180.624C271.072 180.723 270.868 180.767 270.664 180.75C270.46 180.733 270.266 180.655 270.106 180.528C269.946 180.4 269.827 180.228 269.765 180.033C269.703 179.837 269.699 179.628 269.756 179.431ZM270.904 184.195C270.372 184.8 269.678 185.241 268.905 185.467C268.132 185.692 267.311 185.694 266.537 185.471C265.764 185.247 265.069 184.809 264.534 184.206C263.999 183.604 263.646 182.861 263.516 182.065C263.502 181.934 263.54 181.802 263.623 181.698C263.705 181.595 263.825 181.528 263.956 181.512C264.021 181.494 264.089 181.494 264.154 181.512C264.249 181.54 264.334 181.595 264.398 181.671C264.463 181.746 264.503 181.839 264.516 181.938C264.617 182.541 264.887 183.103 265.294 183.559C265.701 184.016 266.228 184.348 266.815 184.517C267.402 184.686 268.025 184.686 268.612 184.516C269.198 184.346 269.725 184.013 270.132 183.556C270.22 183.468 270.338 183.415 270.464 183.409C270.589 183.403 270.711 183.444 270.808 183.524C270.905 183.604 270.968 183.717 270.986 183.841C271.004 183.965 270.975 184.092 270.904 184.195Z" fill="url(#paint5_linear_131_2976)"/>
<path d="M173.928 71.1945C172.442 71.0194 170.938 71.2895 169.605 71.9707C168.272 72.6519 167.171 73.7137 166.44 75.0217C165.71 76.3297 165.384 77.8251 165.502 79.3189C165.621 80.8128 166.179 82.2378 167.107 83.4138C168.034 84.5899 169.289 85.4641 170.713 85.9259C172.136 86.3877 173.665 86.4163 175.104 86.0082C176.544 85.6001 177.831 84.7736 178.802 83.6331C179.772 82.4927 180.384 81.0896 180.558 79.6013C180.792 77.6062 180.225 75.5998 178.981 74.0233C177.738 72.4469 175.921 71.4294 173.928 71.1945ZM179.438 79.4593C179.289 80.7134 178.773 81.8954 177.954 82.856C177.136 83.8166 176.051 84.5127 174.838 84.8565C173.624 85.2002 172.336 85.1761 171.136 84.7873C169.936 84.3985 168.878 83.6624 168.096 82.6719C167.313 81.6813 166.842 80.4809 166.74 79.2221C166.638 77.9633 166.912 76.7025 167.525 75.5991C168.139 74.4956 169.065 73.599 170.187 73.0223C171.309 72.4456 172.576 72.2148 173.829 72.359C174.664 72.455 175.471 72.715 176.205 73.1241C176.939 73.5332 177.585 74.0834 178.106 74.743C178.627 75.4027 179.013 76.1589 179.241 76.9682C179.47 77.7775 179.537 78.624 179.438 79.4593ZM169.603 78.8557C169.497 78.7186 169.433 78.5529 169.421 78.3796C169.408 78.2063 169.447 78.0332 169.532 77.8819C169.617 77.7307 169.746 77.6081 169.9 77.5297C170.055 77.4513 170.23 77.4205 170.402 77.4412C170.574 77.4619 170.737 77.5331 170.869 77.646C171.001 77.7589 171.096 77.9084 171.143 78.0756C171.191 78.2427 171.187 78.4202 171.134 78.5855C171.081 78.7509 170.98 78.8968 170.844 79.0048C170.752 79.0829 170.645 79.1412 170.53 79.1761C170.415 79.211 170.293 79.2218 170.174 79.2078C170.054 79.1938 169.938 79.1554 169.834 79.0948C169.73 79.0342 169.639 78.9529 169.568 78.8557H169.603ZM172.744 76.3706C172.635 76.2334 172.568 76.0666 172.553 75.8914C172.538 75.7163 172.575 75.5406 172.66 75.3867C172.745 75.2328 172.874 75.1076 173.03 75.0271C173.186 74.9465 173.362 74.9141 173.537 74.9341C173.711 74.954 173.876 75.0254 174.01 75.1392C174.144 75.2529 174.241 75.404 174.289 75.5731C174.337 75.7422 174.333 75.9217 174.279 76.089C174.225 76.2563 174.123 76.4037 173.985 76.5126C173.893 76.5901 173.787 76.648 173.672 76.6829C173.557 76.7178 173.436 76.7289 173.317 76.7157C173.197 76.7024 173.082 76.665 172.977 76.6056C172.873 76.5463 172.782 76.4664 172.709 76.3706H172.744ZM176.602 77.9043C176.76 78.576 176.723 79.2791 176.496 79.9306C176.268 80.5822 175.86 81.155 175.318 81.5818C174.776 82.0086 174.124 82.2715 173.438 82.3395C172.753 82.4075 172.062 82.2778 171.447 81.9657C171.398 81.9383 171.355 81.9015 171.32 81.8574C171.285 81.8133 171.259 81.7627 171.244 81.7085C171.229 81.6544 171.225 81.5978 171.232 81.542C171.238 81.4862 171.256 81.4323 171.284 81.3834C171.309 81.3335 171.346 81.2899 171.39 81.2556C171.456 81.2027 171.537 81.1704 171.621 81.1628C171.706 81.1553 171.79 81.1727 171.865 81.213C172.331 81.4572 172.858 81.5578 173.38 81.5022C173.903 81.4466 174.397 81.2373 174.801 80.9006C175.215 80.5825 175.528 80.1508 175.701 79.6579C175.875 79.1651 175.902 78.6323 175.779 78.1244C175.764 78.0703 175.76 78.0138 175.767 77.9581C175.773 77.9023 175.791 77.8485 175.819 77.7997C175.847 77.7509 175.884 77.708 175.928 77.6735C175.972 77.6391 176.023 77.6138 176.077 77.599C176.187 77.5707 176.303 77.5869 176.402 77.644C176.5 77.7011 176.572 77.7946 176.602 77.9043Z" fill="url(#paint6_linear_131_2976)"/>
<path d="M247.095 147.97C246.448 148.337 245.947 148.916 245.677 149.61C245.451 150.198 245.347 150.826 245.372 151.456C244.834 151.128 244.236 150.913 243.613 150.824C242.876 150.722 242.125 150.875 241.486 151.257C239.685 152.322 239.196 154.595 240.345 156.554C241.585 158.684 244.131 159.11 247.988 159.785C248.64 159.906 249.406 160.033 250.158 160.182C250.261 160.2 250.366 160.18 250.456 160.126C250.501 160.101 250.542 160.068 250.575 160.028C250.608 159.988 250.632 159.941 250.647 159.891C250.895 159.139 251.143 158.429 251.356 157.761C252.632 154.062 253.483 151.612 252.228 149.497C251.996 149.055 251.677 148.664 251.291 148.347C250.906 148.03 250.461 147.793 249.982 147.651C249.504 147.509 249.002 147.464 248.506 147.519C248.011 147.573 247.531 147.727 247.095 147.97Z" fill="#EE2C28"/>
<path d="M235.843 183.279C235.56 183.014 235.194 182.854 234.808 182.825C234.478 182.807 234.148 182.852 233.836 182.96C233.92 182.64 233.937 182.307 233.886 181.98C233.825 181.597 233.634 181.246 233.347 180.986C233.149 180.808 232.916 180.672 232.664 180.587C232.411 180.502 232.144 180.469 231.878 180.491C231.613 180.513 231.355 180.589 231.12 180.714C230.884 180.84 230.677 181.012 230.511 181.22C229.646 182.165 229.802 183.514 230.064 185.544C230.107 185.892 230.149 186.254 230.199 186.695C230.203 186.749 230.229 186.8 230.27 186.837C230.311 186.873 230.364 186.893 230.419 186.894L231.574 186.936C233.616 187.007 234.971 187.057 235.829 186.112C236.021 185.93 236.174 185.711 236.279 185.468C236.384 185.226 236.439 184.964 236.44 184.699C236.442 184.434 236.389 184.172 236.287 183.928C236.184 183.684 236.033 183.463 235.843 183.279Z" fill="#EE2C28"/>
<path d="M206.984 61.1404C206.557 61.1739 206.155 61.3517 205.842 61.6446C205.578 61.8962 205.366 62.1978 205.218 62.5321C205.022 62.2264 204.766 61.9632 204.467 61.7582C204.109 61.5224 203.681 61.4148 203.254 61.4528C202.963 61.4823 202.682 61.5706 202.426 61.7122C202.17 61.8538 201.945 62.0459 201.766 62.2769C201.586 62.5078 201.455 62.7728 201.381 63.0559C201.306 63.3389 201.29 63.6342 201.333 63.9237C201.446 65.3438 202.659 66.21 204.502 67.5307L205.537 68.2833C205.585 68.3176 205.642 68.3351 205.7 68.333C205.762 68.3266 205.82 68.299 205.864 68.2549L206.757 67.3461C208.352 65.7343 209.409 64.6764 209.288 63.2563C209.282 62.9638 209.217 62.6755 209.097 62.4089C208.976 62.1423 208.803 61.9029 208.588 61.7052C208.372 61.5074 208.119 61.3554 207.844 61.2584C207.568 61.1613 207.275 61.1212 206.984 61.1404Z" fill="#EE2C28"/>
<path d="M170.653 131.568C170.226 131.602 169.824 131.779 169.511 132.072C169.245 132.321 169.034 132.623 168.894 132.96C168.695 132.654 168.437 132.391 168.136 132.186C167.778 131.948 167.351 131.838 166.923 131.873C166.633 131.905 166.351 131.995 166.096 132.137C165.84 132.28 165.616 132.473 165.437 132.704C165.258 132.935 165.127 133.2 165.052 133.483C164.977 133.766 164.96 134.062 165.002 134.351C165.115 135.772 166.335 136.638 168.171 137.958C168.483 138.179 168.838 138.434 169.206 138.711C169.256 138.746 169.316 138.761 169.377 138.754C169.436 138.751 169.492 138.726 169.533 138.683L170.426 137.767C172.021 136.162 173.078 135.097 172.957 133.684C172.951 133.392 172.886 133.103 172.766 132.837C172.645 132.57 172.472 132.331 172.257 132.133C172.041 131.935 171.788 131.783 171.512 131.686C171.237 131.589 170.944 131.549 170.653 131.568Z" fill="#EE2C28"/>
<path d="M159.584 109.948C159.208 110.132 157.131 113.739 157.131 113.739L158.287 114.712L160.875 110.686C160.875 110.686 159.939 109.763 159.584 109.948Z" fill="url(#paint7_linear_131_2976)"/>
<path d="M157.117 106.518C157.067 106.1 158.223 104.481 158.223 104.481C158.223 104.481 157.443 103.416 156.564 103.65C155.685 103.884 155.146 105.411 155.146 105.411C155.146 105.411 153.664 103.671 152.65 103.614C151.636 103.558 152.154 105.269 151.232 106.334C150.31 107.399 149.445 109.344 150.275 110.175C151.104 111.006 155.628 112.831 155.947 112.305L158.358 108.592C157.868 107.949 157.452 107.254 157.117 106.518Z" fill="url(#paint8_linear_131_2976)"/>
<path d="M209.296 50.6319C208.93 48.1361 208.007 45.7551 206.594 43.6666C204.162 39.9318 201.411 39.0088 201.411 39.0088L206.594 36.7864C206.594 36.7864 211.558 39.5626 211.827 41.7566C212.028 42.7978 212.028 43.8679 211.827 44.9091L209.296 50.6319Z" fill="#6BABB6"/>
<path d="M89.1126 89.4778C89.1126 89.4778 87.0776 88.2636 87.9994 85.1182C88.6636 83.0302 89.5955 81.0373 90.7717 79.1895L95.2175 82.8177C95.2175 82.8177 86.8933 85.7146 89.1126 89.4778Z" fill="#6BABB6"/>
<path d="M243.004 120.946C243.004 120.946 250.449 120.946 252.647 117.211L254.845 113.469L258.844 120.57C258.844 120.57 252.81 124.376 250.959 124.006C249.109 123.637 243.004 120.946 243.004 120.946Z" fill="url(#paint9_linear_131_2976)"/>
<path d="M192.988 89.4776L191.017 84.2234L192.988 81.0425L194.945 83.3714L192.988 89.4776Z" fill="#6BABB6"/>
<path d="M173.404 53.806L176.708 51.2925L178.835 53.806C178.835 53.806 174.319 54.7503 173.993 56.9727L173.673 59.1951C173.673 59.1951 171.674 55.1266 173.404 53.806Z" fill="#6BABB6"/>
<path d="M76.3498 147.977C76.3498 147.977 62.3745 150.902 59.9283 149.397C57.4821 147.892 57.0922 143.468 57.0922 143.468L52.8379 147.963C52.8379 147.963 54.4403 155.17 58.9995 156.355C63.5587 157.541 76.3498 147.977 76.3498 147.977Z" fill="#6BABB6"/>
<path d="M223.398 156.37C223.398 156.37 231.467 154.793 233.162 151.449C234.857 148.105 230.758 144.959 230.758 144.959L238.749 144.043C238.559 146.718 238.189 149.378 237.643 152.003C236.934 154.957 234.566 156.263 234.438 156.803C234.311 157.342 223.398 156.37 223.398 156.37Z" fill="#F47421"/>
<path d="M176.708 120.591C176.708 120.591 172.205 117.446 172.737 114.712C173.064 112.439 173.169 110.139 173.049 107.846L175.963 103.586C175.963 103.586 177.736 106.717 176.672 109.891C175.609 113.065 174.042 117.708 176.708 120.591Z" fill="#F47421"/>
<path d="M338.073 79.1894C338.073 79.1894 340.115 73.9352 338.782 72.3092C337.914 71.27 336.846 70.4174 335.641 69.8028L340.554 67.7153C340.554 67.7153 344.241 68.5248 343.915 71.4501C343.591 73.7647 343.118 76.0558 342.497 78.309L338.073 79.1894Z" fill="#EE2C28"/>
<path d="M309.384 33.4493C309.966 32.8955 311.604 21.1871 315.503 20.2783C319.403 19.3695 317.177 17.708 317.177 17.708L313.596 15.7341C313.596 15.7341 306.924 17.1542 306.817 20.257C306.779 22.0488 306.419 23.819 305.754 25.4828L309.384 33.4493Z" fill="#3B577F"/>
<path opacity="0.25" d="M247.138 42.6158C247.138 42.6158 254.937 19.8949 275.464 12.2408C295.991 4.58667 305.244 8.91074 305.244 8.91074C305.244 8.91074 310.98 4.65056 308.789 1.68264C306.598 -1.28528 300.373 0.262584 298.246 1.68264C296.119 3.1027 294.36 5.29669 289.829 2.79739C285.299 0.298091 280.86 1.12882 275.961 3.0743C271.061 5.01978 266.247 7.05756 266.247 7.05756C266.247 7.05756 259.589 3.99734 254.413 9.37225C249.237 14.7472 245.713 28.0815 241.65 33.4493C238.063 38.4855 236.007 44.4526 235.729 50.632C235.681 52.7554 235.835 54.8786 236.19 56.9726C236.19 56.9726 236.375 52.5562 237.608 51.2923C238.842 50.0285 238.899 48.4522 239.36 47.2523C240.096 45.8302 241.214 44.6425 242.588 43.8232C243.963 43.0039 245.539 42.5857 247.138 42.6158Z" fill="#6BABB6"/>
<path d="M170.256 106C170.256 106 166.243 93.0917 164.392 90.0386C162.542 86.9855 159.954 81.6247 159.429 72.2879C158.904 62.951 160.911 58.6979 162.662 55.6022C164.414 52.5065 163.591 51.7041 161.648 52.2438C159.706 52.7834 158.777 51.4911 159.337 49.361C159.897 47.231 163.222 29.7217 169.42 25.6461C175.617 21.5705 180.977 21.109 181.161 17.9636C181.346 14.8182 171.518 14.3566 164.18 20.6049C156.841 26.8531 158.224 48.8924 155.728 54.5443C153.232 60.1961 155.139 76.1291 158.443 83.3501C161.748 90.5711 169.653 100.291 170.256 106Z" fill="url(#paint10_linear_131_2976)"/>
<path d="M77.832 106.845C77.832 106.845 65.6222 89.9747 64.0978 80.0343C62.5734 70.0939 57.2981 65.0456 57.2981 61.1689C57.2981 57.2921 54.8022 56.7312 55.0787 53.5361C55.3553 50.3409 52.0228 47.6996 54.2421 46.8689C56.4614 46.0382 58.6878 47.1458 58.8225 42.559C58.9572 37.9723 59.6592 34.9191 64.3743 36.7297C69.0895 38.5403 70.7557 40.7556 70.7557 40.7556C70.7557 40.7556 66.5936 33.8115 61.0418 30.0625C55.49 26.3136 50.9167 24.3823 48.4208 28.5289C45.925 32.6754 48.8321 44.6465 48.4208 52.9823C48.0096 61.318 53.689 74.8511 58.546 80.0343C63.4029 85.2176 69.6425 101.704 77.832 106.845Z" fill="url(#paint11_linear_131_2976)"/>
<path d="M66.3172 130.936C65.8989 131.014 42.2097 130.049 29.6879 128.657C17.1662 127.265 11.5151 126.662 13.8762 123.076C16.2374 119.491 21.0872 120.087 22.6188 117.219C24.1503 114.35 20.2576 115.088 22.6188 112.689C24.9799 110.289 23.8667 108.151 21.7821 109.138C19.6975 110.125 19.8393 116.544 11.2386 116.544C2.63787 116.544 -1.10589 116.665 0.283835 120.563C1.67356 124.461 5.1337 123.765 4.85718 128.629C4.58065 133.492 4.85718 134.039 13.5997 134.664C22.3422 135.289 39.6784 134.664 45.9251 132.882C52.1718 131.1 66.3172 130.936 66.3172 130.936Z" fill="url(#paint12_linear_131_2976)"/>
<path d="M294.424 204.048C294.424 204.048 306.081 193.965 318.106 193.355C330.131 192.744 350.289 181.632 354.452 171.72C358.614 161.808 351.885 154.104 351.885 154.104C351.885 154.104 362.464 157.655 363.329 163.661C364.194 169.668 367.328 166.999 367.874 171.72C368.42 176.442 360.244 187.959 346.064 194.413C331.883 200.867 306.818 192.929 294.424 204.048Z" fill="url(#paint13_linear_131_2976)"/>
<path opacity="0.25" d="M380.758 115.536C380.758 115.536 385.799 105.453 384.693 100.213C383.855 96.8198 382.166 93.6965 379.786 91.1392C379.786 91.1392 386.359 91.3238 387.834 95.7401C389.309 100.157 380.758 115.536 380.758 115.536Z" fill="#6BABB6"/>
</g>
<defs>
<linearGradient id="paint0_linear_131_2976" x1="39.1677" y1="159.011" x2="178.807" y2="159.011" gradientUnits="userSpaceOnUse">
<stop stop-color="#ABDDE8"/>
<stop offset="1" stop-color="#FECF0A"/>
</linearGradient>
<linearGradient id="paint1_linear_131_2976" x1="395.591" y1="41.9485" x2="209.596" y2="179.299" gradientUnits="userSpaceOnUse">
<stop stop-color="#F47421"/>
<stop offset="0.83" stop-color="#FECF0A"/>
</linearGradient>
<linearGradient id="paint2_linear_131_2976" x1="52.8594" y1="229.538" x2="280.371" y2="229.538" gradientUnits="userSpaceOnUse">
<stop stop-color="#F47421"/>
<stop offset="0.83" stop-color="#FECF0A"/>
</linearGradient>
<linearGradient id="paint3_linear_131_2976" x1="303.677" y1="98.5805" x2="372.064" y2="98.5805" gradientUnits="userSpaceOnUse">
<stop stop-color="#ABDDE8"/>
<stop offset="1" stop-color="#FECF0A"/>
</linearGradient>
<linearGradient id="paint4_linear_131_2976" x1="272.608" y1="138.987" x2="273.432" y2="165.323" gradientUnits="userSpaceOnUse">
<stop stop-color="#ABDDE8"/>
<stop offset="1" stop-color="#FECF0A"/>
</linearGradient>
<linearGradient id="paint5_linear_131_2976" x1="258.844" y1="181.355" x2="276.584" y2="181.355" gradientUnits="userSpaceOnUse">
<stop stop-color="#ABDDE8"/>
<stop offset="1" stop-color="#FECF0A"/>
</linearGradient>
<linearGradient id="paint6_linear_131_2976" x1="165.484" y1="78.7137" x2="180.615" y2="78.7137" gradientUnits="userSpaceOnUse">
<stop stop-color="#ABDDE8"/>
<stop offset="1" stop-color="#FECF0A"/>
</linearGradient>
<linearGradient id="paint7_linear_131_2976" x1="157.117" y1="112.319" x2="160.86" y2="112.319" gradientUnits="userSpaceOnUse">
<stop stop-color="#ABDDE8"/>
<stop offset="1" stop-color="#FECF0A"/>
</linearGradient>
<linearGradient id="paint8_linear_131_2976" x1="149.984" y1="108.009" x2="158.415" y2="108.009" gradientUnits="userSpaceOnUse">
<stop stop-color="#ABDDE8"/>
<stop offset="1" stop-color="#FECF0A"/>
</linearGradient>
<linearGradient id="paint9_linear_131_2976" x1="243.004" y1="118.759" x2="258.844" y2="118.759" gradientUnits="userSpaceOnUse">
<stop stop-color="#ABDDE8"/>
<stop offset="1" stop-color="#FECF0A"/>
</linearGradient>
<linearGradient id="paint10_linear_131_2976" x1="149.729" y1="36.5024" x2="168.864" y2="54.9793" gradientUnits="userSpaceOnUse">
<stop stop-color="#375E8B"/>
<stop offset="1" stop-color="#FECF0A"/>
</linearGradient>
<linearGradient id="paint11_linear_131_2976" x1="43.0817" y1="47.6854" x2="67.0231" y2="66.4974" gradientUnits="userSpaceOnUse">
<stop stop-color="#375E8B"/>
<stop offset="1" stop-color="#FECF0A"/>
</linearGradient>
<linearGradient id="paint12_linear_131_2976" x1="0.000216717" y1="121.919" x2="66.3172" y2="121.919" gradientUnits="userSpaceOnUse">
<stop stop-color="#375E8B"/>
<stop offset="0.72" stop-color="#FECF0A"/>
</linearGradient>
<linearGradient id="paint13_linear_131_2976" x1="374.369" y1="160.623" x2="309.642" y2="195.431" gradientUnits="userSpaceOnUse">
<stop stop-color="#375E8B"/>
<stop offset="1" stop-color="#FECF0A"/>
</linearGradient>
<clipPath id="clip0_131_2976">
<rect width="403" height="274" fill="white"/>
</clipPath>
</defs>
</svg>
