<svg width="535" height="520" viewBox="0 0 535 520" fill="none" xmlns="http://www.w3.org/2000/svg">
<g clip-path="url(#clip0_131_3152)">
<path d="M382.169 84.7963C381.442 85.1956 380.378 85.8201 379.241 86.588C376.713 88.2364 373.815 90.2842 373.355 90.7449C372.689 91.4104 367.273 99.6218 366.342 100.093C365.397 100.436 364.407 100.64 363.403 100.697C363.403 100.697 355.653 118.993 355.059 121.256C354.466 123.519 342.641 111.017 342.702 110.71C342.764 110.403 344.443 105.591 344.443 105.591C344.443 105.591 346.04 102.837 347.75 99.5297C349.848 95.4956 352.121 90.6323 351.896 88.9224C351.907 88.8512 351.907 88.7787 351.896 88.7074C351.026 86.1068 348.221 83.4345 348.886 79.4926C349.123 78.1719 349.178 76.825 349.05 75.4893C349.02 74.1037 348.489 72.7759 347.555 71.7522C346.419 70.8103 349.828 68.1482 352.224 72.4792C354.148 75.9398 354.66 77.5985 355.203 78.1002C355.257 78.1608 355.323 78.2094 355.397 78.2429C355.471 78.2764 355.552 78.294 355.633 78.2947C355.93 78.2947 357.813 76.247 360.199 73.6054C364.222 69.1926 369.689 63.2746 371.327 63.3668C373.928 63.5716 371.727 66.4384 370.59 67.7796C369.454 69.1209 365.85 73.5235 365.379 74.3938C364.908 75.2641 365.246 75.6532 365.85 75.2538C366.454 74.8545 376.866 66.7148 379.067 66.51C381.268 66.3053 381.944 68.7114 379.937 70.2472C377.931 71.7829 370.191 78.264 369.792 78.8681C369.392 79.4722 369.792 79.9943 371.461 79.0012C373.129 78.008 379.733 74.1174 381.944 74.4552C384.155 74.7931 383.674 76.6565 381.944 77.7316C380.214 78.8067 374.194 82.5335 373.395 83.4038C372.597 84.2741 372.863 85.0727 374.194 84.4277C375.525 83.7826 382.384 80.8237 383.408 81.6939C384.432 82.5642 384.504 83.5369 382.169 84.7963Z" fill="#FCC59A"/>
<path opacity="0.32" d="M379.241 86.5879C376.713 88.2363 373.815 90.284 373.355 90.7448C372.689 91.4103 367.273 99.6217 366.342 100.093C365.397 100.436 364.407 100.64 363.403 100.697C363.403 100.697 355.653 118.993 355.059 121.256C354.466 123.519 342.641 111.017 342.702 110.71C342.764 110.403 344.443 105.591 344.443 105.591C344.443 105.591 346.04 102.837 347.75 99.5295C347.412 101.905 347.412 104.506 348.651 105.99C351.323 109.195 354.118 106.195 355.817 107.393C357.517 108.591 360.281 105.345 360.281 102.652C360.281 99.9595 358.755 100.318 357.148 98.3828C355.541 96.4477 355.541 96.1098 355.541 96.1098C355.541 96.1098 364.028 101.383 367.028 96.9084C370.027 92.4341 372.71 89.0963 375.044 88.0315C375.842 87.6937 377.45 87.1715 379.241 86.5879Z" fill="#F47421"/>
<path opacity="0.32" d="M351.896 88.9531C351.907 88.8819 351.907 88.8094 351.896 88.7381C351.026 86.1375 348.221 83.4652 348.886 79.5233C349.123 78.2026 349.178 76.8557 349.05 75.52C349.561 76.6528 349.827 77.8812 349.828 79.124C349.756 82.0625 350.76 82.728 351.825 84.7962C352.265 86.1432 352.29 87.5918 351.896 88.9531Z" fill="#F47421"/>
<path opacity="0.32" d="M369.28 89.6085C369.28 89.6085 366.27 89.1375 365.604 88.9532C364.939 88.7689 362.267 88.8099 361.335 86.199C360.169 83.5902 358.417 81.2849 356.216 79.462C355.779 79.101 355.429 78.646 355.192 78.131C355.247 78.1916 355.313 78.2402 355.387 78.2737C355.461 78.3072 355.541 78.3248 355.622 78.3255C355.919 78.3255 357.803 76.2778 360.188 73.6362C362.707 75.0492 365.307 79.0422 365.041 81.6633C364.734 84.6632 369.28 89.6085 369.28 89.6085Z" fill="#F47421"/>
<path d="M302.57 163.89L303.041 163.255C306.45 158.648 339.703 109.779 340.706 108.57C341.709 107.362 344.504 103.359 344.504 103.359C344.504 103.359 348.251 107.751 351.671 112.359C354.578 116.27 357.23 120.335 357.138 121.993C356.933 125.597 336.509 165.466 332.905 175.234C331.388 179.305 329.321 183.15 326.762 186.66C323.814 190.664 320.752 193.5 318.736 194.554C315.132 196.449 255.445 222.291 255.445 222.291C255.445 222.291 253.654 212.441 251.186 201.558C250.377 197.974 249.497 194.278 248.586 190.787C246.252 181.879 243.713 174.282 241.624 173.145C241.624 173.145 276.279 172.203 287.889 169.603C289.998 169.132 291.728 168.774 293.172 168.466C299.314 167.197 300.236 166.982 302.642 163.828" fill="#F47421"/>
<path opacity="0.43" d="M357.127 121.993C356.923 125.597 336.498 165.467 332.894 175.234C331.377 179.305 329.311 183.15 326.752 186.661C323.803 190.664 320.742 193.5 318.725 194.555C315.121 196.449 255.435 222.291 255.435 222.291C255.435 222.291 253.643 212.441 251.176 201.558C250.367 197.974 249.486 194.278 248.575 190.787C255.629 192.404 269.819 195.067 281.469 193.551C297.696 191.442 299.099 180.456 314.323 179.535C329.546 178.613 338.361 152.586 339.917 136.952C340.757 128.843 345.907 118.615 351.681 112.297C354.568 116.27 357.219 120.335 357.127 121.993Z" fill="#A54623"/>
<path d="M326.69 186.722C323.742 190.725 320.681 193.562 318.664 194.616C315.06 196.51 255.373 222.353 255.373 222.353C255.373 222.353 253.582 212.503 251.114 201.619C263.73 204.459 276.797 204.665 289.496 202.223C312.132 197.585 319.114 193.92 326.69 186.722Z" fill="#722914"/>
<path opacity="0.43" d="M312.532 172.152C310.654 170.68 308.588 169.464 306.389 168.538C302.888 167.105 293.131 168.538 293.131 168.538C299.274 167.268 300.195 167.053 302.601 163.9C303.625 163.613 304.648 163.275 305.775 162.876C311.231 160.828 314.702 167.023 314.886 167.361C313.154 166.599 311.34 166.035 309.481 165.681C307.255 165.705 305.037 165.941 302.857 166.388C304.278 166.441 305.673 166.79 306.952 167.412C308.754 168.292 312.184 171.784 312.532 172.152Z" fill="#A54623"/>
<path d="M263.513 172.377C263.513 172.377 284.807 171.302 291.421 169.664C298.035 168.026 300.236 167.125 303.174 167.289C306.112 167.453 307.054 168.2 307.054 168.2C305.503 167.498 303.858 167.025 302.171 166.797L300.308 166.726C301.626 165.605 303.214 164.846 304.915 164.524C307.515 164.125 308.856 163.92 310.32 164.524C310.935 164.758 311.536 165.024 312.122 165.323C312.122 165.323 311.559 163.798 308.651 163.327C306.5 163.135 304.332 163.436 302.314 164.207C302.314 164.207 308.723 156.641 310.791 153.641C312.859 150.641 340.266 110.946 340.839 109.297C341.413 107.649 345.098 104.055 345.098 104.055C345.098 104.055 344.31 102.96 344.074 103.031C343.839 103.103 327.643 127.409 325.042 130.215C322.442 133.02 311.149 152.115 306.01 158.054C300.871 163.992 301.536 164.934 299.806 165.405C298.076 165.876 297.461 166.808 296.397 167.002C285.585 169.612 274.593 171.409 263.513 172.377Z" fill="#231F20"/>
<path d="M344.013 104.055C346.85 106.893 349.389 110.016 351.589 113.372C352.847 115.652 354.418 117.744 356.257 119.587C356.257 119.587 353.452 113.27 352.254 111.816C351.056 110.362 344.064 103.021 344.064 103.021L344.013 104.055Z" fill="#231F20"/>
<path d="M354.046 129.826C354.046 129.826 337.829 167.146 336.426 169.664C335.024 172.183 328.615 186.046 327.683 187.162C326.751 188.278 321.141 194.176 316.933 195.916C312.726 197.657 258.639 221.625 258.639 221.625L256.643 211.817C260.737 212.761 264.978 212.89 269.123 212.196L262.11 214.335C267.286 214.037 272.381 212.91 277.2 210.998C284.152 207.998 308.344 199.203 315.797 195.373C323.25 191.544 327.151 186.22 330.488 179.217C333.826 172.214 342.641 151.368 344.309 148.296C345.978 145.225 354.046 129.826 354.046 129.826Z" fill="#231F20"/>
<path d="M340.706 108.57L344.003 112.83L340.194 109.42L340.706 108.57Z" fill="#231F20"/>
<path d="M356.257 119.352L363.833 101.055C364.58 101.081 365.323 100.931 366.002 100.619C366.682 100.306 367.278 99.8381 367.744 99.2534C369.147 97.2978 372.494 91.3185 376.303 88.9533C380.111 86.5882 381.637 85.2777 382.743 84.7248C383.848 84.1719 384.391 83.3528 384.37 82.9228C384.35 82.4928 383.51 81.8989 383.51 81.8989C383.65 81.9915 383.762 82.1195 383.835 82.2698C383.909 82.42 383.941 82.5872 383.928 82.754C383.916 82.9208 383.859 83.0813 383.764 83.2189C383.669 83.3565 383.539 83.4664 383.388 83.5371C382.19 84.2948 378.811 86.6087 377.531 87.3459C375.312 88.5549 373.367 90.2109 371.819 92.2092C370.017 94.7075 366.833 99.448 365.737 99.9906C364.898 100.452 363.924 100.604 362.983 100.421C362.605 100.216 361.612 99.7449 361.612 99.7449C361.612 99.7449 363.137 100.769 362.912 101.27C362.687 101.772 358.428 111.837 357.906 112.809C357.383 113.782 355.571 118.42 355.571 118.42L356.257 119.352Z" fill="#231F20"/>
<path d="M345.19 104.69C345.19 104.69 348.763 97.9017 349.541 96.325C350.319 94.7482 352.121 90.7449 352.121 89.9872V88.9634C352.121 88.9634 353.299 90.8268 353.575 91.1544L353.851 91.4718C353.093 90.1072 352.41 88.7025 351.804 87.2638C351.456 86.1682 349.183 83.8133 349.132 81.8066C349.081 79.7998 349.582 76.0729 349.132 74.1993C348.681 72.3256 347.678 71.7727 347.678 71.3939C347.678 71.015 348.405 69.5509 350.135 70.7898C351.611 71.8364 352.758 73.2819 353.442 74.9569L354.312 76.7384C354.312 76.7384 352.111 71.9468 351.988 71.8137C351.483 70.9681 350.685 70.3377 349.746 70.0424C348.405 69.7864 346.675 70.585 347.32 71.5884C347.965 72.5918 348.948 73.4723 348.978 75.5303C349.009 77.5883 348.231 80.8032 348.507 81.9192C349.023 83.4023 349.66 84.8406 350.412 86.2194C350.934 87.2433 351.988 88.9941 351.21 90.8473C350.432 92.7005 345.067 104.065 345.067 104.065L345.19 104.69Z" fill="#231F20"/>
<path d="M358.428 75.5202C358.428 75.5202 366.065 66.5204 368.195 64.9948C370.324 63.4693 371.266 62.8447 372.29 63.4181C373.314 63.9915 372.566 65.9675 371.891 66.4897C371.215 67.0119 366.28 73.1346 366.28 73.1346C366.28 73.1346 369.495 68.947 370.744 67.2883C371.993 65.6296 372.443 65.0358 372.443 64.3908C372.443 63.7457 371.614 63.2645 370.467 63.9607C368.051 65.6124 365.862 67.5745 363.956 69.7968C361.407 72.7148 358.428 75.5202 358.428 75.5202Z" fill="#231F20"/>
<path d="M365.451 75.4587C365.451 75.4587 373.078 69.7251 374.604 68.6295C376.129 67.534 378.238 66.2746 379.59 66.3975C380.941 66.5204 381.842 67.5545 381.217 68.906C380.593 70.2575 378.259 71.9775 377.532 72.5304C376.805 73.0833 371.502 77.2914 371.502 77.2914C371.502 77.2914 377.081 72.1721 378.238 71.2608C379.395 70.3496 380.859 69.0083 380.992 68.1893C381.125 67.3702 380.583 66.807 379.661 66.7558C378.74 66.7046 377.757 67.1859 375.566 68.5886C373.375 69.9913 365.758 75.6737 365.451 75.4587Z" fill="#231F20"/>
<path d="M371.307 79.0934C371.307 79.0934 377.603 75.0594 380.214 74.486C382.824 73.9127 383.787 74.9877 383.469 76.032C383.086 77.0159 382.358 77.8272 381.422 78.3153C380.398 79.0422 375.443 81.8783 375.443 81.8783C375.443 81.8783 381.35 78.1105 381.678 77.7829C382.005 77.4552 383.275 76.3802 383.203 75.6737C383.131 74.9672 381.923 74.4246 380.674 74.8444C377.414 75.9339 374.274 77.3579 371.307 79.0934Z" fill="#231F20"/>
<path d="M281.511 286.938C276.777 293.247 271.72 299.306 266.359 305.091C260.852 311.409 254.43 316.865 247.306 321.278C235.215 328.445 222.94 330.237 209.272 328.527C188.438 325.916 172.017 285.852 171.392 277.447C171.075 273.023 164.574 258.116 158.472 243.127C152.954 229.571 147.753 215.923 147.753 209.933C147.753 197.319 152.964 197.114 152.964 197.114C152.416 194.976 152.325 192.747 152.698 190.572C153.19 187.298 154.298 184.146 155.964 181.285C161.175 172.07 171.392 170.268 181.21 171.866C184.227 172.399 187.29 172.626 190.353 172.541C194.949 172.388 199.516 171.456 207.409 170.289L208.853 170.074C209.723 169.951 210.572 169.849 211.381 169.787C223.462 168.763 229.083 174.077 229.083 174.077C229.083 174.077 244.306 171.272 247.306 175.275C250.306 179.278 258.926 223.397 258.926 223.397C260.903 230.956 264.105 238.14 268.406 244.662C275.388 255.044 283.2 259.222 287.459 264.024C291.718 268.826 289.189 276.32 281.511 286.938Z" fill="#F47421"/>
<path opacity="0.43" d="M183.432 190.695L182.306 190.357C180.635 190.07 178.931 190.028 177.249 190.234C175.509 190.383 173.792 190.727 172.13 191.258C167.789 192.722 153.097 197.063 153.097 197.063C152.8 196.003 152.649 194.908 152.647 193.807C152.615 192.708 152.676 191.609 152.831 190.521C159.046 182.913 164.093 182.186 171.321 183.354C176.119 184.239 180.427 186.85 183.432 190.695Z" fill="#A54623"/>
<path d="M177.197 190.244C175.458 190.394 173.741 190.737 172.078 191.268C167.738 192.732 153.046 197.073 153.046 197.073C152.749 196.013 152.597 194.918 152.596 193.817C155.763 191.164 159.542 189.345 163.591 188.524C168.196 187.69 172.945 188.29 177.197 190.244Z" fill="#722914"/>
<path opacity="0.43" d="M229.134 174.077C227.238 174.5 225.382 175.082 223.585 175.818C222.049 176.616 222.254 176.145 222.254 176.145C219.118 173.31 215.436 171.146 211.433 169.787C223.513 168.804 229.134 174.077 229.134 174.077Z" fill="#A54623"/>
<path d="M178.518 182.084C178.518 182.084 188.07 179.545 193.076 186.691C193.125 183.806 192.902 180.924 192.411 178.081C191.934 176.341 191.089 174.725 189.933 173.34C189.933 173.34 184.599 173.668 182.06 172.971C179.521 172.275 175.58 172.265 173.379 173.473C171.177 174.681 169.376 180.22 178.518 182.084Z" fill="#722914"/>
<path d="M281.511 286.938C279.77 289.333 277.764 291.893 275.521 294.606C272.791 297.869 269.747 301.371 266.389 305.111C264.618 307.067 262.867 308.899 261.107 310.589C256.94 314.672 252.32 318.265 247.337 321.298C223.882 316.65 222.326 285.074 225.53 277.272C226.485 275.076 226.548 272.593 225.704 270.351C224.015 265.6 219.101 260.696 214.524 252.392C209.948 244.089 210.071 239.758 210.89 236.297C211.279 234.639 211.842 233.226 212.118 231.628C212.369 230.506 212.414 229.347 212.251 228.209C212.059 227.334 211.689 226.509 211.166 225.782C210.48 224.758 209.538 223.591 208.392 221.779C205.382 217.038 207.45 205.95 207.45 205.95C207.45 205.95 213.859 205.284 215.732 204.015C215.965 203.801 216.146 203.537 216.259 203.242C216.373 202.947 216.417 202.63 216.388 202.315C216.412 201.954 216.412 201.591 216.388 201.23C216.122 199.203 215.645 197.209 214.965 195.281C214.965 195.281 214.831 195.947 210.153 196.612C208.446 196.945 206.695 196.993 204.972 196.756C204.069 196.578 203.211 196.219 202.449 195.702C201.688 195.185 201.038 194.519 200.539 193.745C198.133 190.469 193.127 186.804 193.127 186.804C192.994 185.555 192.81 184.234 192.585 182.913C191.96 179.074 191.069 175.193 190.455 172.674C195.052 172.521 199.618 171.589 207.511 170.422C219.705 174.446 220.821 189.189 221.169 191.636C221.568 194.247 218.701 196.049 218.701 196.049L222.377 203.861L230.782 199.448C230.782 199.448 235.195 207.639 237.795 213.076C240.395 218.513 240.6 222.086 241.399 238.509C242.197 254.932 272.849 276.576 272.849 276.576L281.511 286.938Z" fill="white"/>
<path d="M192.534 182.811C192.759 184.131 192.944 185.452 193.077 186.701C193.077 186.701 198.083 190.367 200.489 193.643C200.988 194.417 201.637 195.082 202.399 195.6C203.161 196.117 204.019 196.475 204.922 196.653C202.73 194.4 200.856 191.858 199.353 189.097C197.95 186.65 195.155 184.459 192.534 182.811Z" fill="#D6D6D6"/>
<path d="M272.799 276.443C272.799 276.443 242.157 254.809 241.348 238.376C240.539 221.943 240.324 218.349 237.744 212.943C235.164 207.537 230.731 199.315 230.731 199.315L222.336 203.728L218.661 195.916C218.267 196.583 218.06 197.343 218.06 198.117C218.06 198.892 218.267 199.652 218.661 200.319C220.063 202.458 220.862 205.796 222.203 205.264C223.544 204.731 229.81 202.325 229.81 202.325C229.81 202.325 235.952 213.271 235.952 219.147C235.952 225.024 226.452 231.301 224.179 236.912C222.95 239.766 222.01 242.736 221.374 245.778C221.374 245.778 226.718 233.574 232.328 230.236C237.447 227.164 238.01 225.219 238.061 224.932C237.905 226.017 237.529 227.058 236.957 227.993C236.385 228.928 235.629 229.736 234.734 230.369C232.775 231.79 231.25 233.73 230.332 235.97C230.465 235.744 232.676 232.079 235.266 231.567C236.031 231.424 236.752 231.11 237.377 230.647C238.001 230.184 238.512 229.584 238.87 228.895C239.233 233.297 239.233 237.721 238.87 242.123C238.205 247.191 240.334 256.805 245.678 262.283C250.654 267.402 272.512 282.31 275.512 294.586C277.754 291.873 279.76 289.313 281.501 286.917L272.799 276.443Z" fill="#D6D6D6"/>
<path d="M209.498 221.953C207.901 218.277 208.403 212.042 208.7 209.933C208.997 207.824 214.412 207.23 215.866 206.226C216.89 205.561 216.736 204.015 216.542 203.052C216.485 202.772 216.413 202.496 216.327 202.223C216.356 202.538 216.312 202.855 216.199 203.15C216.085 203.445 215.905 203.709 215.672 203.923C213.798 205.192 207.389 205.858 207.389 205.858C207.389 205.858 205.342 216.946 208.331 221.687C209.478 223.499 210.379 224.676 211.106 225.69C210.696 224.687 210.133 223.458 209.498 221.953Z" fill="#D6D6D6"/>
<path d="M212.61 243.986C211.495 241.553 210.906 238.912 210.88 236.236C210.061 239.697 209.959 244.079 214.514 252.331C219.07 260.583 224.005 265.539 225.694 270.29C225.295 267.515 223.186 263.03 220.923 259.918C217.913 255.812 215.313 248.993 212.61 243.986Z" fill="#D6D6D6"/>
<path d="M209.426 202.756C210.551 202.756 211.463 201.843 211.463 200.718C211.463 199.593 210.551 198.681 209.426 198.681C208.301 198.681 207.389 199.593 207.389 200.718C207.389 201.843 208.301 202.756 209.426 202.756Z" fill="white"/>
<path d="M224.22 198.691C225.345 198.691 226.257 197.778 226.257 196.653C226.257 195.528 225.345 194.616 224.22 194.616C223.095 194.616 222.183 195.528 222.183 196.653C222.183 197.778 223.095 198.691 224.22 198.691Z" fill="white"/>
<path opacity="0.43" d="M281.511 286.938C276.778 293.246 271.72 299.306 266.359 305.091C260.853 311.408 254.431 316.865 247.307 321.278C235.216 328.445 222.94 330.237 209.273 328.527C188.439 325.916 172.017 285.852 171.393 277.446C171.075 273.023 164.574 258.116 158.473 243.126C162.424 247.57 169.048 255.587 171.546 262.017C175.201 271.426 195.001 272.952 202.823 270.3C202.352 270.587 194.807 275.04 187.814 275.04C180.648 275.04 175.887 275.04 177.147 277.846C178.406 280.651 188.019 281.654 188.214 289.057C188.408 296.46 201.861 314.899 231.94 301.681C262.018 288.463 269.82 279.044 269.39 264.024C269.123 254.123 267.731 248.225 268.366 244.662C275.348 255.044 283.16 259.222 287.419 264.024C291.678 268.825 289.19 276.32 281.511 286.938Z" fill="#A54623"/>
<path opacity="0.43" d="M206.734 240.116C206.371 244.489 207.697 248.835 210.44 252.259C215.109 258.402 223.156 267.218 224.005 271.365C224.855 275.511 222.183 281.112 222.183 281.112C222.183 281.112 221.026 269.849 218.088 267.351C215.15 264.853 201.963 258.136 206.734 240.116Z" fill="#A54623"/>
<path opacity="0.43" d="M241.42 224.615C241.819 220.562 241.362 216.47 240.078 212.605C237.949 206.052 235.983 202.714 235.277 200.718C234.57 198.721 238.215 193.489 239.014 190.019C239.421 188.397 239.732 186.752 239.945 185.094C239.945 185.094 239.147 196.643 242.75 202.755C246.354 208.868 241.42 224.615 241.42 224.615Z" fill="#A54623"/>
<path opacity="0.43" d="M243.15 236.236C243.15 236.236 243.948 227.83 245.555 223.417C247.163 219.004 246.886 211.53 246.886 211.53C248.295 216.127 249.104 220.886 249.292 225.69C249.292 232.233 247.019 240.628 248.494 245.246C249.738 248.665 251.399 251.918 253.439 254.932C250.409 253.133 248.023 250.424 246.62 247.191C244.358 241.888 242.556 240.946 243.15 236.236Z" fill="#A54623"/>
<path d="M184.128 371.263C184.128 371.263 173.194 395.027 155.022 399.307C136.85 403.587 115.586 393.563 115.586 393.563C115.586 393.563 116.262 393.379 117.398 392.99C122.1 391.458 126.597 389.358 130.789 386.734C137.812 382.178 152.616 344.817 152.616 344.817L168.997 358.557L184.128 371.263Z" fill="#F47421"/>
<path d="M184.128 371.263C184.128 371.263 173.194 395.027 155.022 399.307C136.85 403.587 115.586 393.563 115.586 393.563C115.586 393.563 116.262 393.379 117.398 392.99C144.487 400.157 158.524 388.618 158.524 388.618C152.355 391.258 145.637 392.358 138.949 391.822C138.949 391.822 145.091 391.556 154.213 385.147C159.24 381.604 164.912 369.052 168.987 358.526L184.128 371.263Z" fill="#722914"/>
<path d="M220.288 306.493C220.288 306.493 212.405 312.903 202.884 313.835C193.363 314.766 193.27 315.032 191.673 311.787C190.557 309.555 186.902 296.081 184.793 286.692C184.066 283.837 183.553 280.931 183.258 277.999C183.258 277.999 184.886 278.102 187.353 278.173C192.41 278.327 200.949 278.378 205.679 277.15C212.671 275.419 213.613 273.945 213.613 273.945C215.059 276.419 216.044 279.136 216.521 281.962C216.603 282.484 216.654 282.986 216.684 283.559C216.951 288.678 217.217 299.05 218.619 301.589C218.722 301.773 218.824 301.958 218.916 302.142C219.603 303.51 220.066 304.979 220.288 306.493Z" fill="#FECF0A"/>
<path d="M220.288 306.494C220.288 306.494 212.405 312.903 202.884 313.835C193.363 314.766 193.27 315.033 191.673 311.787C190.557 309.555 186.902 296.081 184.793 286.692C184.066 283.837 183.553 280.931 183.258 278C183.258 278 184.886 278.102 187.353 278.174C189.267 281.194 192.564 287.173 193.199 293.357C194.11 302.173 199.004 308.849 206.703 308.582C212.415 308.388 216.019 304.077 218.916 302.193C219.598 303.545 220.061 304.997 220.288 306.494Z" fill="url(#paint0_linear_131_3152)"/>
<path opacity="0.43" d="M216.551 282.054C214.012 284.774 210.85 286.837 207.337 288.064C200.98 290.573 191.233 288.576 184.814 286.733C184.086 283.878 183.573 280.972 183.278 278.04C183.278 278.04 198.635 278.982 205.658 277.242C212.681 275.501 213.593 274.037 213.593 274.037C215.057 276.508 216.059 279.224 216.551 282.054Z" fill="#A54623"/>
<path d="M365.942 267.423C365.893 270.632 365.623 273.834 365.134 277.006C363.496 288.146 358.459 305.552 343.102 309.698C320.067 315.903 303.973 291.084 303.973 291.084L309.993 276.975L314.088 267.423C314.088 267.423 339.119 272.44 350.944 271.436C362.769 270.433 365.942 267.423 365.942 267.423Z" fill="#F47421"/>
<path d="M365.134 277.006C363.496 288.146 358.459 305.552 343.102 309.698C320.067 315.903 303.973 291.084 303.973 291.084L309.993 276.976C324.141 280.385 349.224 284.624 365.134 277.006Z" fill="#722914"/>
<path d="M177.791 170.934C172.993 170.164 168.075 170.879 163.694 172.981C156.353 176.483 150.385 187.52 152.555 196.663L153.753 196.387C152.927 193.357 153.019 190.15 154.019 187.172C155.688 182.165 158.892 177.159 163.899 174.814C168.905 172.469 175.16 171.016 180.586 172.111L177.791 170.934Z" fill="#231F20"/>
<path d="M174.628 180.784C176.114 181.697 177.809 182.215 179.552 182.289C181.805 182.135 186.934 181.132 190.404 184.49C193.875 187.848 195.267 188.893 196.547 190.019C197.926 191.393 199.231 192.839 200.458 194.35C200.96 194.903 202.055 195.916 202.055 195.916C201.281 195.842 200.512 195.723 199.752 195.558L198.728 195.302C200.686 196.086 202.711 196.693 204.778 197.114C207.575 197.317 210.386 197.162 213.143 196.654C213.678 196.483 214.185 196.235 214.648 195.916C214.648 195.916 216.429 202.234 215.805 203.217C215.18 204.199 211.597 204.589 210.542 204.855C209.488 205.121 207.236 205.418 206.089 205.725L204.932 206.053H206.724C206.724 206.053 205.485 215.022 206.038 217.674C206.734 220.454 208.05 223.041 209.887 225.24C211.29 226.735 212.293 228.24 211.72 230.042C211.146 231.844 209.672 237.209 209.672 239.553C209.672 241.898 209.723 242.625 209.723 242.625C209.095 240.962 208.806 239.19 208.874 237.414C208.959 236.298 209.141 235.191 209.416 234.107C208.481 236.372 208.129 238.837 208.392 241.274C208.843 245.369 211.689 250.386 213.593 252.833C215.497 255.28 221.108 263.604 222.265 265.252C223.422 266.901 226.012 271.119 225.336 274.774C224.66 278.43 222.777 283.037 223.637 290.05C224.497 297.064 225.531 303.668 228.889 309.279C231.067 312.79 233.972 315.796 237.407 318.094L238.758 316.937C235.662 314.923 232.99 312.321 230.895 309.279C227.537 304.323 226.186 299.613 225.131 293.45C224.077 287.286 224.589 280.887 225.438 278.481C226.288 276.075 227.189 273.208 226.237 270.812C225.285 268.416 220.729 260.451 219.982 259.201C219.234 257.952 210.665 247.939 210.768 241.171C210.87 234.403 213.163 231.956 212.662 228.301C212.16 224.646 208.106 223.397 207.154 217.039C206.567 213.317 206.756 209.514 207.706 205.868C207.706 205.868 213.429 205.244 215.067 204.486C216.706 203.728 216.818 202.52 216.368 199.162C216.26 197.552 215.806 195.983 215.037 194.565C213.109 195.626 210.96 196.222 208.761 196.305C205.608 196.254 203.703 196.305 202.751 195.282C201.799 194.258 194.643 187.091 193.384 186.169C192.124 185.248 189.985 182.217 185.971 181.459C181.958 180.702 176.164 181.828 174.628 180.784Z" fill="#231F20"/>
<path d="M212.508 173.289C214.222 174.367 215.704 175.777 216.864 177.438C218.025 179.098 218.841 180.973 219.265 182.954C220.893 189.896 221.445 192.322 220.289 193.52C219.568 194.271 218.911 195.079 218.323 195.937L222.193 204.558L230.383 200.268C230.383 200.268 239.362 214.489 239.597 221.707C239.833 228.926 240.181 239.727 241.849 244.068C243.518 248.41 249.262 256.693 253.408 260.635C257.554 264.576 273.208 277.19 273.792 277.692C274.375 278.194 274.969 276.259 274.969 276.259C271.038 274.081 267.325 271.53 263.881 268.641C258.681 264.167 249.6 256.171 246.395 249.485C243.191 242.799 241.276 242.318 241.522 237.331C241.594 231.026 241.145 224.724 240.181 218.492C239.382 214.09 236.843 209.749 235.645 207.414C234.447 205.08 230.752 198.937 230.752 198.937L222.49 203.442L219.756 195.937C220.756 194.893 221.389 193.553 221.558 192.118C221.957 189.282 220.749 184.244 219.347 180.169C218.018 176.878 215.566 174.165 212.426 172.511C211.085 172.009 212.477 173.289 212.477 173.289" fill="#231F20"/>
<path d="M216.716 169.193C216.716 169.193 224.323 170.146 226.729 172.122C229.134 174.098 231.53 172.541 234.407 172.511C237.284 172.48 248.515 172.982 248.515 172.982C248.515 172.982 243.887 173.842 241.819 173.494C239.751 173.145 230.721 174.436 229.534 174.364C228.346 174.292 222.879 176.299 222.879 176.299C223.775 175.486 224.753 174.769 225.797 174.159L226.657 173.821C226.657 173.821 225.93 172.163 221.231 170.954C216.532 169.746 215.19 170.412 215.19 170.412L216.716 169.193Z" fill="#231F20"/>
<path d="M146.186 356.468C146.186 356.468 137.331 378.092 132.877 383.089C128.424 388.085 115.616 393.512 115.616 393.512C115.616 393.512 126.735 391.771 132.744 386.426C138.754 381.082 147.835 357.984 147.835 357.984L146.217 356.417" fill="#231F20"/>
<path d="M191.919 232.845C199.968 230.575 204.491 221.636 202.021 212.879C199.552 204.123 191.025 198.864 182.977 201.134C174.928 203.404 170.405 212.343 172.875 221.1C175.344 229.857 183.871 235.115 191.919 232.845Z" fill="white"/>
<path d="M191.545 231.515C198.919 229.435 203.062 221.246 200.8 213.224C198.538 205.202 190.726 200.385 183.352 202.465C175.979 204.544 171.835 212.734 174.097 220.756C176.359 228.778 184.171 233.595 191.545 231.515Z" stroke="#231F20" stroke-width="0.5" stroke-miterlimit="10" stroke-dasharray="1.01 1.01"/>
<path d="M180.361 207.855L188.869 205.285L191.992 207.936L195.913 221.933L194.694 225.875L186.187 228.444L184.886 223.806L185.705 223.55L182.542 212.288L181.713 212.534L180.361 207.855ZM189.442 222.434L191.316 221.861L191.582 221.093L188.787 211.1L188.152 210.568L186.279 211.131L189.442 222.434Z" fill="#F47421"/>
<path d="M389.213 432.961C382.139 432.828 351.691 424.944 346.746 421.074C341.801 417.204 344.699 414.265 344.699 409.658C344.699 407.057 342.416 395.948 340.419 386.734C338.873 379.567 337.491 373.526 337.491 373.526L359.728 369.256C359.728 369.256 360.332 374.181 361.11 380.099C362.062 387.348 363.27 396.092 363.936 399.041C365.133 404.375 379.692 410.795 390.104 420.808C400.515 430.821 396.318 433.094 389.213 432.961Z" fill="#FCC59A"/>
<path opacity="0.32" d="M361.182 380.109C355.429 384.102 346.982 385.915 340.492 386.744C338.946 379.577 337.563 373.536 337.563 373.536L359.8 369.267C359.8 369.267 360.404 374.181 361.182 380.109Z" fill="#F47421"/>
<path d="M406.024 437.651C405.825 438.405 405.572 439.145 405.266 439.862C404.068 442.76 390.575 439.637 377.224 438.214C363.874 436.791 340.071 428.549 338.228 427.484C336.805 426.665 336.549 423.511 336.979 420.696C337.104 419.872 337.299 419.06 337.563 418.269C337.983 417.04 338.73 415.31 339.385 413.396C339.902 411.945 340.289 410.451 340.542 408.931C340.801 407.51 340.742 406.048 340.368 404.652C339.993 403.468 340.042 402.19 340.507 401.039C340.972 399.888 341.825 398.935 342.917 398.345C342.917 398.345 343.788 402.839 345.989 403.843C348.19 404.846 357.168 405.563 360.383 403.925L360.547 403.843C363.618 402.113 363.516 396.379 363.516 396.379C364.278 396.457 364.981 396.823 365.482 397.403C366.147 398.345 366.28 399.942 369.485 403.413C372.3 406.484 383.92 411.604 394.055 418.464C395.489 419.416 396.881 420.419 398.222 421.443C406.853 428.108 406.955 434.057 406.024 437.651Z" fill="#EE2C28"/>
<path d="M358.397 423.88C358.254 430.023 357.865 430.873 357.865 430.873L354.261 430.289L353.186 429.89C353.186 429.89 354.661 421.207 353.453 419.733C352.562 418.648 343.839 415.136 339.386 413.395C339.903 411.944 340.29 410.45 340.543 408.931C344.402 410.723 350.258 413.436 353.319 414.798C358.131 416.968 358.5 417.695 358.397 423.88Z" fill="white"/>
<path d="M406.024 437.65C405.825 438.405 405.572 439.144 405.266 439.862C404.068 442.76 390.575 439.637 377.224 438.214C363.874 436.79 340.071 428.548 338.228 427.484C336.805 426.664 336.549 423.511 336.979 420.695C340.9 423.48 348.896 427.862 363.741 431.548C382.046 436.115 398.857 437.691 406.024 437.65Z" fill="#FECF0A"/>
<path d="M394.025 418.494C393.244 420.093 391.911 421.356 390.272 422.05C388.634 422.744 386.8 422.823 385.108 422.272C380.419 420.716 367.161 409.72 360.373 403.925L360.537 403.843C363.608 402.113 363.506 396.379 363.506 396.379C364.268 396.457 364.971 396.823 365.472 397.403C366.137 398.345 366.27 399.942 369.475 403.413C372.29 406.484 383.91 411.675 394.025 418.494Z" fill="#AB2B2B"/>
<path d="M236.208 416.805C236.341 421.074 229.533 425.61 222.325 425.743C218.23 425.815 212.425 421.422 208.125 417.552C204.819 414.603 202.423 411.972 202.423 411.972C221.516 407.569 222.325 393.542 222.325 393.542C222.325 393.542 225.049 397.3 228.089 401.846C231.867 407.539 236.136 414.429 236.208 416.805Z" fill="#FCC59A"/>
<path opacity="0.32" d="M228.089 401.867C225.638 405.894 222.349 409.348 218.445 411.993C215.24 414.258 211.776 416.131 208.125 417.573C204.819 414.624 202.423 411.993 202.423 411.993C221.516 407.59 222.325 393.563 222.325 393.563C222.325 393.563 225.049 397.321 228.089 401.867Z" fill="#F47421"/>
<path d="M256.776 469.421C246.702 468.336 232.307 454.851 224.015 443.589C222.276 441.279 220.712 438.842 219.336 436.299C213.265 424.678 218.466 411.993 228.11 410.385C236.495 408.993 241.992 412.658 246.947 420.491C247.685 421.658 248.411 422.927 249.138 424.279C254.708 434.692 259.868 438.163 259.868 438.163C263.205 442.842 272.286 446.579 275.091 456.193C277.896 465.807 269.194 470.752 256.776 469.421Z" fill="#AB2B2B"/>
<path d="M246.906 420.491C234.426 412.556 225.458 416.805 222.97 427.658C221.927 432.981 222.28 438.483 223.994 443.63C222.256 441.319 220.692 438.883 219.315 436.34C213.244 424.719 218.445 412.033 228.089 410.426C236.474 408.993 241.972 412.658 246.906 420.491Z" fill="#FECF0A"/>
<path d="M246.292 419.549L246.19 419.313C233.3 425.242 227.321 436.269 224.567 444.47L224.813 444.552C227.547 436.422 233.495 425.436 246.292 419.549Z" fill="#EE2C28"/>
<path d="M250.05 425.968L249.927 425.733C237.795 431.876 232.164 442.606 229.574 450.521L229.82 450.592C232.39 442.739 237.99 432.081 250.05 425.968Z" fill="#EE2C28"/>
<path d="M253.715 431.651L253.592 431.436C242.126 437.856 236.986 448.258 234.703 455.855L234.949 455.927C237.222 448.381 242.32 438.03 253.715 431.651Z" fill="#EE2C28"/>
<path d="M258.722 437.302L258.599 437.087C247.603 443.476 242.607 453.551 240.345 460.882L240.59 460.954C242.812 453.674 247.808 443.65 258.722 437.302Z" fill="#EE2C28"/>
<path d="M264.312 442.565L264.179 442.35C253.859 448.79 249.108 458.537 246.948 465.592L247.194 465.663C249.364 458.67 254.074 448.974 264.312 442.565Z" fill="#EE2C28"/>
<path d="M270.116 447.766L269.983 447.551C262.199 452.48 256.313 459.9 253.285 468.602L253.531 468.694C256.536 460.045 262.382 452.668 270.116 447.766Z" fill="#EE2C28"/>
<path d="M273.433 452.282C267.133 456.555 262.191 462.546 259.192 469.544L259.428 469.657C262.399 462.703 267.302 456.747 273.556 452.497L273.433 452.282Z" fill="#EE2C28"/>
<path d="M275.491 460.278C272.732 462.637 270.319 465.374 268.324 468.407L268.539 468.54C270.535 465.526 272.948 462.81 275.706 460.472L275.491 460.278Z" fill="#EE2C28"/>
<path d="M370.151 356.765C370.027 358.775 369.585 360.752 368.84 362.622C367.171 366.994 363.373 372.728 354.722 375.799C339.498 381.205 328.882 380.407 328.882 380.407C328.882 380.407 312.655 332.735 310.853 327.893C309.898 325.247 308.691 322.7 307.249 320.285L306.225 321.504C301.168 327.411 278.634 353.243 262.203 364.956C251.014 372.788 238.349 378.261 224.978 381.041L224.568 381.113L224.22 381.174L229.165 389.365C229.165 389.365 224.752 408.993 200.919 415.607C200.919 415.607 151.552 372.134 138.98 343.691C135.559 336.099 132.818 328.218 130.789 320.142C126.971 304.61 127.831 294.177 129.581 290.583C129.581 290.583 134.588 274.355 151.818 274.355C169.048 274.355 182.859 295.794 192.073 305.808C192.073 305.808 203.396 321.227 218.067 322.435C232.738 323.643 255.947 307.21 264.383 291.781C272.819 276.351 286.016 250.314 301.444 246.731C316.873 243.147 335.69 251.85 342.304 281.051C345.795 296.47 348.784 310.343 351.835 321.452L351.927 321.76C352.9 325.302 353.883 328.558 354.896 331.486C354.89 331.53 354.89 331.575 354.896 331.619C356.239 335.894 358.139 339.974 360.547 343.752C361.23 344.783 361.913 345.745 362.595 346.639C367.908 354.206 370.151 356.765 370.151 356.765Z" fill="#3B577F"/>
<path d="M307.249 320.316C307.249 320.316 280.815 351.759 262.202 364.987C250.809 372.994 237.862 378.519 224.199 381.205C224.199 381.205 193.301 330.124 188.889 323.121C184.794 316.548 182.388 312.606 182.111 312.145C183.135 313.456 202.587 339.339 224.199 346.65C246.374 354.165 269.809 349.721 281.531 337.343C293.254 324.964 292.25 321.514 296.059 318.309C299.437 315.463 297.594 309.616 297.144 308.337L299.857 315.104C300.007 312.039 299.317 308.991 297.861 306.289C295.455 302.081 293.448 298.876 293.254 295.876C293.157 294.268 292.959 292.668 292.66 291.084C293.049 291.791 306.286 314.398 307.249 320.316Z" fill="#1D3751"/>
<path opacity="0.61" d="M306.215 321.535C301.158 327.442 278.624 353.274 262.192 364.987C250.799 372.994 237.852 378.519 224.189 381.205L193.24 324.975C193.66 325.415 208.403 340.517 241.563 338.336C275.215 336.135 281.818 326.92 283.026 315.709C284.234 304.497 283.026 298.078 286.026 292.672C289.026 287.266 287.429 269.225 296.264 261.823C296.264 261.823 287.05 273.566 293.244 292.078C297.216 303.945 303.84 313.446 306.215 321.535Z" fill="#254163"/>
<path opacity="0.61" d="M229.133 389.427C229.133 389.427 224.721 409.054 200.887 415.669C200.887 415.669 151.52 372.195 138.948 343.752C135.527 336.16 132.786 328.28 130.758 320.203C145.613 367.455 173.542 379.588 182.06 391.802C191.775 405.696 200.662 412.638 213.48 404.897C226.298 397.157 219.889 384.062 208.136 371.509C196.383 358.957 188.909 343.998 180.626 316.753C172.754 290.839 156.905 281.942 155.38 281.153C156.158 281.522 160.499 283.621 164.87 286.109C169.672 288.853 182.06 312.125 182.06 312.125L224.148 381.185L229.133 389.427Z" fill="#254163"/>
<path opacity="0.61" d="M368.84 362.622C367.171 366.994 363.373 372.728 354.722 375.799C339.498 381.205 328.881 380.407 328.881 380.407C328.881 380.407 312.654 332.736 310.852 327.893C309.897 325.247 308.691 322.7 307.249 320.285C307.249 320.285 279.34 284.89 296.233 261.823C296.233 261.823 290.162 282.853 310.187 308.757C330.212 334.66 326.209 344.817 331.82 350.428C336.549 355.158 340.143 356.284 341.146 356.52C339.518 356.223 331.441 354.605 328.083 351.493C324.725 348.38 323.66 346.158 323.558 345.902C323.66 346.547 326.168 360.902 336.099 363.513C346.245 366.185 342.508 369.39 352.654 369.124C359.339 368.95 365.451 365.172 368.84 362.622Z" fill="#254163"/>
<path d="M364.642 354.154L362.246 351.492C360.823 349.916 357.445 339.749 354.916 331.681C356.257 335.933 358.15 339.992 360.547 343.752C361.229 344.783 361.912 345.745 362.594 346.639C362.994 349.213 363.68 351.734 364.642 354.154Z" fill="#1D3751"/>
<path d="M161.267 276.535C161.267 276.535 173.849 281.778 185.735 295.671C197.622 309.565 207.47 321.268 218.067 321.135C228.663 321.002 243.948 315.893 254.636 303.013C265.324 290.132 274.661 270.157 279.739 263.881C284.817 257.604 291.083 248.246 303.972 245.246C316.862 242.246 331.686 251.86 337.563 264.546C343.439 277.232 350.78 314.582 352.787 321.135C354.793 327.688 358.52 340.005 365.133 348.288C371.747 356.571 372.546 355.363 372.546 355.363C372.546 355.363 370.785 366.717 364.642 371.652C358.499 376.587 353.298 377.396 345.282 379.536C339.598 380.864 333.762 381.425 327.929 381.205C327.929 381.205 317.394 349.394 316.463 346.813C315.531 344.233 307.648 321.309 305.375 319.435C303.102 317.562 301.863 316.763 300.881 310.692C300.287 307.042 299.101 303.515 297.369 300.248C297.369 300.248 308.047 316.947 309.654 321.555C311.262 326.162 324.878 365.816 326.608 370.762C328.339 375.707 328.216 379.045 331.819 379.045C335.423 379.045 353.677 378.174 362.134 370.362C370.59 362.55 368.84 356.028 368.84 356.028C368.84 356.028 357.578 342.012 353.585 332.264C349.592 322.517 343.972 290.061 341.3 281.071C338.628 272.082 330.622 248.615 312.46 247.151C294.298 245.686 285.084 257.297 272.931 278.665C260.779 300.033 257.841 303.903 252.763 308.05C247.685 312.197 237.713 322.067 224.005 323.674C210.296 325.282 203.754 318.33 195.083 310.651C186.411 302.972 177.801 294.73 175.692 291.044C173.583 287.358 161.021 273.628 147.804 276.034C134.587 278.44 130.4 288.771 128.424 295.088C128.424 295.129 134.659 264.874 161.267 276.535Z" fill="#231F20"/>
<path d="M204.584 345.605C204.584 345.605 226.728 367.106 255.435 358.557C284.142 350.008 292.425 336.032 294.831 329.725C297.237 323.418 305.662 318.155 305.662 318.155L307.249 320.316C307.249 320.316 289.087 343.742 282.545 348.421C276.003 353.1 259.746 370.086 242.618 376.731C225.49 383.375 224.189 381.215 224.189 381.215L204.584 345.605Z" fill="#231F20"/>
<path d="M182.091 312.145C182.091 312.145 199.946 337.168 207.44 350.796C214.934 364.424 228.868 387.553 229.963 388.218L230.987 388.884C230.987 388.884 226.185 400.607 220.841 405.563C215.497 410.518 207.082 414.532 204.01 415.668C202.706 416.237 201.327 416.617 199.915 416.794L179.214 396.379C179.214 396.379 157.581 372.594 155.718 370.987C153.855 369.379 136.891 346.813 131.946 330.124C128.96 319.759 127.677 308.977 128.148 298.2C128.148 298.2 131.7 331.855 141.18 346.414C150.661 360.973 164.42 378.338 170.02 383.273C175.621 388.208 189.565 403.976 193.281 407.18C196.997 410.385 199.802 413.989 201.87 413.856C203.939 413.723 217.831 408.501 222.643 400.361C227.455 392.222 228.141 389.416 228.141 389.416C228.141 389.416 205.618 354.032 204.594 352.025C203.57 350.018 194.182 336.134 193.23 335.059L192.278 334.035L199.352 342.052C199.352 342.052 185.254 316.323 182.091 312.145Z" fill="#231F20"/>
<path d="M323.537 339.206C320.512 335.361 317.706 331.348 315.132 327.186C312.194 322.067 309.921 317.306 309.921 317.306C309.921 317.306 312.593 328.22 315.04 330.841C317.487 333.462 323.537 339.206 323.537 339.206Z" fill="#231F20"/>
<path d="M325.81 344.274L319.135 339.872C319.135 339.872 319.401 345.882 325.81 344.274Z" fill="#231F20"/>
<path d="M186.667 329.131C186.667 329.131 195.083 346.343 196.076 349.854L197.099 353.356C197.099 353.356 197.171 351.789 197.099 349.854C197.099 347.141 196.864 343.711 196.076 342.913C194.693 341.541 186.667 329.131 186.667 329.131Z" fill="#231F20"/>
<path d="M199.936 353.366V359.571L201.819 356.469L199.936 353.366Z" fill="#231F20"/>
<path d="M203.488 414.727C203.488 414.727 210.655 420.737 212.375 421.894C213.783 422.739 215.267 423.452 216.808 424.023C216.808 424.023 210.235 419.825 208.832 417.593C207.843 416.158 206.45 415.05 204.829 414.409L203.488 414.727Z" fill="#231F20"/>
<path d="M225.192 398.969C225.192 398.969 230.066 405.512 230.997 407.242C231.929 408.972 232.738 410.139 232.738 410.139L233.331 410.201L226.329 398.252L225.192 398.969Z" fill="#231F20"/>
<path d="M224.916 411.378C224.916 411.378 215.313 414.327 216.377 427.76C217.442 441.193 227.25 448.238 231.478 452.456C235.706 456.674 244.091 466.38 252.036 468.643C259.98 470.906 267.239 469.892 270.116 468.49C272.993 467.087 277.047 463.462 275.655 458.681C275.269 460.922 274.257 463.007 272.735 464.696C271.213 466.385 269.243 467.608 267.055 468.223C259.376 470.435 249.958 468.449 241.153 460.227C232.348 452.005 222.336 442.821 219.316 434.436C216.295 426.05 215.63 416.703 224.916 411.378Z" fill="#231F20"/>
<path d="M229.257 410.201C229.257 410.201 237.775 410.303 242.351 415.392C246.927 420.481 252.302 431.119 254.698 434.559C257.094 437.999 269.461 446.446 272.665 451.913C275.87 457.381 275.491 458.118 275.491 458.118C275.491 458.118 275.491 454.186 272.266 449.384C269.041 444.582 260.216 438.992 256.571 434.753C252.927 430.514 247.777 421.269 246.968 419.661C246.16 418.054 239.403 407.805 229.257 410.201Z" fill="#231F20"/>
<path d="M338.434 380.109C338.434 380.109 342.908 400.28 343.102 401.078C343.297 401.877 343.86 404.15 345.979 404.273C348.098 404.395 351.6 404.774 351.6 404.774C351.6 404.774 345.713 404.682 344.31 400.802C342.908 396.921 339.386 380.109 339.386 380.109H338.434Z" fill="#231F20"/>
<path d="M359.391 374.335L362.513 389.938L360.373 373.833L359.391 374.335Z" fill="#231F20"/>
<path d="M342.641 397.566C342.641 397.566 339.027 400.106 339.836 404.109C340.457 407.212 340.099 410.432 338.812 413.324C338.014 414.859 336.212 420.132 336.345 423.562C336.478 426.992 337.543 427.504 339.007 428.364C340.471 429.224 366.454 436.985 369.454 437.784C372.454 438.582 389.49 440.19 391.691 440.722C395.875 441.274 400.106 441.39 404.314 441.07C406.177 440.722 406.362 434.774 406.362 434.774C406.362 434.774 406.362 439.985 402.215 440.384C398.069 440.784 375.372 437.579 374.164 437.446C372.955 437.313 358.08 433.975 353.872 432.511C349.664 431.047 338.106 427.965 337.492 425.631C336.877 423.296 337.829 418.822 338.096 418.013C338.362 417.204 340.696 412.832 341.034 408.952C341.372 405.071 340.768 404.529 340.696 402.993C340.624 401.457 341.495 399.317 342.897 399.123C344.3 398.928 342.641 397.566 342.641 397.566Z" fill="#231F20"/>
<path d="M359.718 404.201C359.718 404.201 371.45 413.754 372.904 414.911C374.358 416.068 381.524 420.409 381.524 420.409C381.524 420.409 369.792 411.491 367.847 409.515C365.901 407.539 360.957 403.556 360.957 403.556L359.718 404.201Z" fill="#231F20"/>
<path d="M96.2657 78.3867C96.2657 78.3867 91.1468 83.9361 90.5837 84.663C89.3463 85.5875 88.0309 86.4029 86.6524 87.0998L86.5398 87.1612L86.2224 87.3455L85.5467 87.7243C84.9248 88.0555 84.3322 88.4392 83.7755 88.8711C83.0384 89.6083 82.0351 89.8949 82.3013 92.9665C82.3013 93.0792 82.3013 93.2123 82.3013 93.3454C82.8209 95.8026 83.498 98.2239 84.3284 100.594C85.2703 103.523 86.1814 106.072 86.1814 106.072L69.9544 109.922C69.9544 109.922 68.7566 95.3931 68.9306 92.8539C69.033 90.8983 67.9068 84.6118 67.5485 79.6563C67.4461 78.3512 67.4461 77.04 67.5485 75.7349C68.0092 70.9944 72.5548 64.3188 74.715 62.5783C76.8752 60.8377 77.7147 61.8411 76.7626 63.7864C75.8105 65.7318 73.9574 67.718 73.4251 69.6531C73.1375 70.6981 72.9793 71.7744 72.9541 72.8578C72.9475 72.9704 72.9475 73.0832 72.9541 73.1957L73.2203 72.8271C74.2441 71.363 78.3392 65.8239 80.0285 63.6124C82.076 61.0117 84.1236 59.3428 85.5774 60.5408C87.0312 61.7387 84.1031 63.3461 82.0965 66.4792C80.0899 69.6122 78.0014 73.2264 78.0014 73.2264C77.9825 73.2759 77.9825 73.3306 78.0014 73.38C78.0014 73.38 78.0014 73.38 78.0833 73.38C78.1652 73.38 78.6668 73.1343 79.6292 72.0592C81.4311 70.0115 88.7716 63.1107 89.7032 62.8445C90.6349 62.5782 91.9761 63.3769 90.727 65.3222C89.0337 67.8445 87.1586 70.2399 85.1167 72.4893C84.2465 73.2981 82.2399 75.6939 82.2399 75.6939C82.2399 75.6939 89.0583 70.6258 90.4301 69.6839C91.802 68.7419 92.836 69.7555 92.0375 71.0866C91.2389 72.4176 86.7547 76.3697 86.1609 76.8304C85.4457 77.5893 84.8393 78.4439 84.3591 79.3696C84.2958 79.6323 84.2513 79.8992 84.226 80.1682C84.226 80.1682 87.1643 81.1102 88.5668 80.0351C89.9694 78.9601 92.0375 77.0352 93.7677 77.0966C94.1487 77.1061 94.5242 77.1895 94.8734 77.3424C95.4314 77.5436 95.9163 77.9073 96.2657 78.3867Z" fill="#FCC59A"/>
<path opacity="0.32" d="M86.172 106.031L69.945 109.881C69.945 109.881 68.7471 95.3525 68.9212 92.8133C69.0236 90.8577 67.8974 84.5712 67.5391 79.6157C67.7187 81.1312 68.1879 82.5981 68.9212 83.9364C70.7845 86.6701 71.6547 90.6735 71.0506 92.9464C70.4466 95.2194 70.9176 101.496 76.1696 101.69C80.705 101.864 81.2885 98.5572 84.3599 100.554C85.271 103.482 86.172 106.031 86.172 106.031Z" fill="#F47421"/>
<path opacity="0.32" d="M85.5474 87.7246C84.9255 88.0558 84.333 88.4394 83.7763 88.8713C83.0391 89.6085 82.0358 89.8952 82.302 92.9668C82.302 93.0794 82.302 93.2125 82.302 93.3456C80.3982 91.8251 78.2382 90.6567 75.9238 89.8952C77.2604 89.9754 78.6005 89.9754 79.9371 89.8952C81.4932 89.7826 84.1244 88.5027 85.5474 87.7246Z" fill="#F47421"/>
<path opacity="0.32" d="M94.8944 77.2298C93.3556 77.5525 91.9747 78.3949 90.9835 79.6154C89.5195 81.7246 86.2434 82.687 84.3084 81.9293C82.3735 81.1717 79.8345 80.4652 78.9643 78.7861C77.1203 76.1073 74.4807 74.0764 71.4189 72.9808C71.9065 72.8868 72.3985 72.8185 72.8932 72.776H73.1594C74.7956 72.6237 76.4457 72.8013 78.0121 73.2982C78.0121 73.2982 78.0736 73.2982 78.094 73.2982C78.5684 73.4689 79.0191 73.6994 79.4352 73.9842C81.3984 75.4174 83.0757 77.2059 84.3801 79.2571C84.3168 79.5198 84.2723 79.7866 84.247 80.0557C84.247 80.0557 87.1853 80.9976 88.5878 79.9226C89.9904 78.8475 92.0585 76.9226 93.7887 76.9841C94.1697 76.9935 94.5452 77.0769 94.8944 77.2298Z" fill="#F47421"/>
<path d="M165.689 260.604C165.033 260.215 133.235 241.458 112.206 228.936C105.357 224.84 99.6544 221.451 96.5319 219.547C86.2326 213.281 80.3356 208.95 77.5816 201.117C76.857 199.009 76.3593 196.83 76.0971 194.616C75.9026 193.152 75.6262 190.94 75.2883 188.176C72.7903 167.76 66.8831 117.386 66.8831 117.386L65.4805 117.785V111.58C65.4805 111.58 67.528 107.966 73.4967 104.168C79.4654 100.369 88.3109 104.168 88.3109 104.168C88.3109 104.168 89.3347 106.164 91.3208 121.195C92.877 132.856 98.4157 156.59 102.501 170.094C103.329 173.024 104.355 175.894 105.572 178.685C109.176 186.097 116.987 187.5 133.613 193.51C149.257 199.162 154.089 196.961 154.56 196.684C153.477 197.626 152.628 198.807 152.083 200.134C148.428 208.459 152.697 223.95 154.243 228.803C155.072 231.383 157.57 238.335 160.027 245.082L161.839 250.058L162.331 251.389L162.576 252.055L163.037 253.324L165.689 260.604Z" fill="#F47421"/>
<path opacity="0.43" d="M165.689 260.604C164.819 260.092 109.248 227.297 96.5323 219.547C86.233 213.281 80.336 208.95 77.582 201.117C80.2205 204.24 83.6506 206.596 87.5128 207.936C105.746 214.141 116.179 217.079 123.765 224.625C131.351 232.171 154.95 238.959 158.523 243.126C158.932 243.608 159.434 244.253 159.997 245.041C162.812 252.781 165.566 260.317 165.689 260.604Z" fill="#A54623"/>
<path d="M165.689 260.604C165.033 260.215 133.235 241.458 112.206 228.936C123.15 233.543 134.801 238.325 140.196 240.117C147.567 242.623 154.72 245.728 161.583 249.403L161.809 250.017L162.3 251.348L162.546 252.014L163.006 253.284L165.689 260.604Z" fill="#722914"/>
<path opacity="0.43" d="M154.53 196.684C153.446 197.626 152.598 198.807 152.052 200.135C148.173 200.889 144.169 200.678 140.391 199.52C130.153 196.715 117.96 190.306 108.951 188.196C99.9413 186.087 96.1225 174.477 93.3276 165.866C90.6965 157.798 89.1198 144.426 88.9355 142.788C89.2427 144.621 92.314 161.596 102.552 170.095C103.381 173.024 104.407 175.894 105.623 178.685C109.227 186.098 117.038 187.5 133.665 193.51C149.226 199.162 154.018 196.961 154.53 196.684Z" fill="#A54623"/>
<path opacity="0.43" d="M75.3914 182.186C75.6511 184.177 75.6166 186.195 75.2891 188.176C72.791 167.76 66.8838 117.386 66.8838 117.386C66.8838 117.386 74.0503 110.874 76.0979 110.577C78.1454 110.28 79.763 109.922 79.978 109.881C79.5071 110.065 71.6137 113.249 72.2894 118.891C72.9958 124.696 76.9988 131.177 74.9 141.027C72.8013 150.876 74.4905 178.08 75.3914 182.186Z" fill="#A54623"/>
<path d="M142.602 205.633C142.684 207.199 142.531 208.182 140.688 208.008L140.196 207.936C137.893 207.527 129.682 202.756 129.682 202.756C128.372 197.38 132.753 193.213 132.753 193.213C133.777 191.964 135.292 192.507 136.296 193.213C137.299 193.92 139.5 194.411 142.51 195.21C143.154 195.373 143.784 195.589 144.394 195.855C145.704 196.428 145.93 196.879 145.93 196.879C143.329 198.425 142.479 203.923 142.602 205.633Z" fill="#FECF0A"/>
<path d="M142.603 205.633C142.685 207.199 142.531 208.182 140.689 208.008C140.578 205.689 140.816 203.366 141.395 201.118C141.778 199.08 142.83 197.228 144.385 195.855C145.695 196.428 145.92 196.879 145.92 196.879C143.33 198.425 142.48 203.923 142.603 205.633Z" fill="url(#paint1_linear_131_3152)"/>
<path d="M174.217 190.694C171.323 190.948 168.469 191.536 165.71 192.445C161.911 193.817 152.165 196.704 149.564 196.633C148.586 196.559 147.604 196.559 146.626 196.633C146.626 196.633 145.121 194.984 143.821 195.087C142.521 195.189 137.944 193.479 137.34 193.039C136.534 192.324 135.478 191.957 134.402 192.015C133.4 192.313 132.333 192.313 131.331 192.015C130.307 191.616 112.77 185.206 110.855 183.824C107.951 181.813 105.828 178.863 104.845 175.47C103.105 170.401 96.0307 145.347 95.8976 142.788C95.7645 140.228 90.8913 115.512 90.5534 111.969C90.2046 109.168 89.6642 106.394 88.9358 103.666C88.9358 103.666 81.6362 99.5705 74.7564 102.929C70.8012 104.771 67.38 107.59 64.8154 111.12V118.666L65.4809 117.867L65.8802 111.857C65.8802 111.857 70.8251 105.048 75.9645 103.666C81.1039 102.284 87.308 104.004 87.779 104.465C88.2499 104.925 88.6492 108.14 88.6492 108.14C87.3494 108.032 86.0407 108.146 84.7793 108.478L83.0388 109.011C83.0388 109.011 88.2499 107.669 88.6492 109.543C89.0485 111.417 92.7443 134.382 93.3176 137.392C93.891 140.402 97.9963 157.624 99.0611 160.941C100.126 164.258 101.467 169.889 101.866 170.688C102.266 171.487 102.665 172.511 102.665 172.511C101.089 171.314 99.6562 169.94 98.3956 168.415C97.6303 167.355 96.9459 166.24 96.3481 165.077C96.3481 165.077 99.8289 174.63 103.361 178.838C106.893 183.046 110.241 185.114 111.551 185.647C112.862 186.179 127.778 192.056 127.778 192.056L132.488 193.49C131.797 194.002 131.215 194.648 130.775 195.388C130.336 196.128 130.048 196.948 129.928 197.8C129.928 197.8 132.119 193.52 134.382 193.592C136.644 193.664 137.924 195.128 139.327 195.189C140.661 195.338 141.982 195.588 143.278 195.937C143.278 195.937 140.299 198.732 140.647 205.745C140.647 205.745 141.671 197.554 144.128 197.134C146.585 196.715 145.398 197.319 145.398 197.319C145.398 197.319 151.008 198.578 153.178 198.158C155.349 197.739 174.217 190.694 174.217 190.694Z" fill="#231F20"/>
<path d="M68.1021 127.758C68.1021 127.758 75.6986 194.309 75.6986 197.698C75.6986 201.087 79.9268 208.182 86.1719 212.605C92.417 217.028 124.81 239.041 126.673 239.308C128.536 239.574 164.42 259.949 165.659 261.833C166.897 263.716 170.481 274.18 170.481 276.044C170.481 277.907 172.825 284.235 173.726 286.139C174.627 288.043 178.845 294.596 178.845 294.596L188.192 303.023C188.192 303.023 182.991 292.507 181.517 291.095C180.043 289.682 176.173 281.644 176.173 281.644L177.115 286.139C177.115 286.139 174.842 282.044 174.709 280.057C174.576 278.071 174.709 273.238 173.511 271.774C172.313 270.31 171.238 269.235 171.238 269.235C171.238 269.235 178.712 272.44 181.251 272.307L183.79 272.174C183.79 272.174 174.443 274.047 169.365 262.826C164.287 251.604 161.359 250.007 155.349 248.492C149.34 246.976 120.54 232.54 115.514 228.905C110.487 225.27 89.3149 214.868 84.7796 209.124C80.2442 203.38 77.3264 195.107 76.8452 185.094C76.364 175.081 71.9515 148.552 72.361 142.788C72.7706 137.024 72.8832 134.085 71.4192 129.938C69.9551 125.792 68.2557 121.389 68.1021 119.515C67.9485 117.642 69.474 115.133 69.474 115.133L66.8838 117.386L68.1021 127.758Z" fill="#231F20"/>
<path d="M69.2894 106.349C69.2894 106.349 68.3987 95.0862 68.583 92.8951C68.7673 90.704 67.3852 83.281 67.5592 82.1957C67.7332 81.1104 65.8802 75.4178 69.0335 69.7046C72.1867 63.9914 75.1762 61.6877 76.2921 61.3396C77.408 60.9915 77.5411 62.1997 76.8961 63.3874C76.8961 63.3874 77.449 61.8618 76.4969 61.7799C75.5447 61.698 74.0807 62.8959 70.9377 67.79C67.7947 72.684 67.3852 75.9092 67.5592 78.561C67.9584 81.7748 68.5187 84.9664 69.2382 88.1239C69.3815 88.8304 71.0708 89.3116 71.0708 89.3116C71.0708 89.3116 69.2382 89.0249 69.2382 89.6802C69.2382 90.3354 69.3406 99.2943 70.0879 101.291C70.8353 103.287 72.8112 102.253 74.0398 102.458C75.2683 102.663 76.8961 102.796 76.8961 102.796C75.267 103.094 73.7472 103.822 72.4938 104.905C72.1003 105.368 71.6086 105.738 71.0544 105.988C70.5001 106.238 69.8972 106.361 69.2894 106.349Z" fill="#231F20"/>
<path d="M82.3532 102.253C82.3532 102.253 84.2574 102.202 83.4589 99.3558C82.6603 96.5094 81.6775 92.7928 81.8413 92.1887C81.9352 91.945 81.9323 91.6746 81.8334 91.4328C81.7344 91.1911 81.5468 90.9964 81.3089 90.8884L80.2852 90.3355C81.052 90.2316 81.7863 89.9589 82.4351 89.5369C83.9216 88.3142 85.5553 87.2823 87.2981 86.4653C88.7837 86.0242 90.0939 85.1292 91.0451 83.9057C91.9461 82.6566 96.1641 78.2232 96.1641 78.2232C95.7731 77.8244 95.2755 77.5467 94.7308 77.4233C94.1861 77.2998 93.6175 77.3358 93.0927 77.527C92.0297 77.8168 91.0178 78.2692 90.093 78.8683C90.093 78.8683 92.7958 76.4007 94.6489 76.8205C94.6489 76.8205 97.0445 77.6703 96.5941 78.5713C96.1436 79.4723 91.4751 84.0285 90.8404 85.0524C90.2056 86.0763 85.8238 87.4994 83.8786 89.5676C81.9335 91.6358 82.9572 92.9054 83.4282 95.9975C83.9112 98.4055 84.6456 100.756 85.6191 103.011L82.3532 102.253Z" fill="#231F20"/>
<path d="M84.2473 80.0558C84.8429 78.7419 85.7368 77.585 86.8579 76.6771C88.9055 74.8648 91.8233 71.9263 92.2226 70.6363C92.6219 69.3462 92.2942 69.0083 91.6902 68.9776C91.0862 68.9469 90.1341 69.5919 88.67 70.8615C89.5326 70.284 90.4562 69.8033 91.424 69.4281C91.8745 69.4281 92.3659 70.155 91.424 71.3325C90.0567 73.0284 88.561 74.6167 86.9501 76.0832C86.4894 76.2368 85.9877 76.4928 85.1175 77.7419C84.2473 78.991 84.1244 79.7077 84.2473 80.0558Z" fill="#231F20"/>
<path d="M82.3018 75.5814C82.3018 75.5814 87.7688 69.9297 88.3011 69.1823C89.4354 67.7051 90.4455 66.1366 91.3213 64.493C91.567 63.6227 91.393 62.7831 90.2975 62.7217C90.2975 62.7217 91.6694 63.0903 90.8913 64.6261C89.8797 66.4287 88.641 68.0941 87.2057 69.5816C85.8338 71.0355 83.1105 74.2401 82.9467 74.5166C82.7829 74.793 82.3018 75.5814 82.3018 75.5814Z" fill="#231F20"/>
<path d="M77.9809 73.2676L81.8098 67.0527C82.1272 66.5203 84.2567 63.5511 84.6969 63.0392C85.1371 62.5272 85.9561 61.7184 85.9561 61.0938C85.9266 60.8698 85.8425 60.6565 85.7114 60.4725C85.5803 60.2886 85.4061 60.1395 85.204 60.0385C85.002 59.9375 84.7782 59.8875 84.5524 59.893C84.3265 59.8985 84.1055 59.9592 83.9086 60.07C83.9086 60.07 86.079 59.7833 85.5364 61.2372C84.9938 62.691 83.8472 63.0699 83.151 64.3804C82.4548 65.691 80.2741 68.6397 79.7008 69.6431C79.1275 70.6465 77.817 72.8887 77.9809 73.2676Z" fill="#231F20"/>
<path d="M217.217 128.3C217.217 128.3 217.002 118.686 219.049 114.478C221.097 110.27 222.121 109.072 220.186 105.765C219.216 103.973 217.965 102.348 216.48 100.953C216.48 100.953 216.674 106.072 216.48 107.362C216.48 107.362 211.668 103.062 210.173 98.3524C208.679 93.6426 209.733 91.1853 209.733 91.1853C209.733 91.1853 205.382 93.8883 205.638 96.8882C204.966 95.0491 204.525 93.1334 204.327 91.1853C204.133 88.3799 201.031 87.2741 198.523 87.0898C196.014 86.9056 189.605 84.3869 188.111 78.5815C188.111 78.5815 187.005 84.8885 190.711 89.5983C190.711 89.5983 182.101 86.8953 178.589 88.298C175.078 89.7007 168.178 96.407 160.468 94.3081C160.468 94.3081 165.874 98.7107 170.276 96.6118C170.276 96.6118 164.574 104.014 156.353 103.42L163.069 106.83C163.069 106.83 156.486 109.635 154.469 113.035C152.452 116.434 145.255 117.447 145.255 117.447C145.255 117.447 151.459 121.348 156.67 119.342C156.67 119.342 151.858 131.259 143.75 132.119L150.456 132.171L148.654 139.338L155.063 134.3C155.063 134.3 156.271 145.266 146.555 149.269C146.555 149.269 150.558 151.552 156.271 147.846L155.063 153.467C156.028 153.264 157.03 153.322 157.964 153.638C158.899 153.953 159.732 154.512 160.376 155.259C162.68 157.87 174.269 171.272 180.504 172.664C186.739 174.057 186.514 176.995 186.514 176.995C186.514 176.995 190.424 165.856 188.121 159.252C185.817 152.648 190.025 129.898 198.533 124.492C207.04 119.086 215.681 122.393 217.217 128.3Z" fill="#231F20"/>
<path d="M223.135 140.617C222.873 141.666 222.531 142.693 222.111 143.689C222.111 143.689 219.562 133.757 218.558 131.402C217.555 129.048 217.975 125.259 217.975 125.259C218.486 125.275 218.989 125.386 219.459 125.587C219.792 125.721 220.091 125.927 220.333 126.191C220.576 126.455 220.757 126.77 220.862 127.112C221.415 128.966 222.807 134.822 223.36 137.177C223.541 138.326 223.464 139.501 223.135 140.617Z" fill="#F47421"/>
<path d="M223.135 140.617C222.873 141.666 222.531 142.693 222.111 143.689C222.111 143.689 219.562 133.757 218.558 131.402C217.555 129.048 217.975 125.259 217.975 125.259C218.486 125.275 218.989 125.386 219.459 125.587C219.482 128.564 220.08 131.509 221.22 134.259C222.09 136.302 222.732 138.434 223.135 140.617Z" fill="#AF4D26"/>
<path d="M214.218 170.862L212.405 171.681C212.405 171.681 212.508 175.275 213.511 175.777C213.64 175.836 213.774 175.884 213.91 175.92C215.006 176.248 217.084 176.504 217.688 178.562C217.783 178.895 217.838 179.239 217.852 179.586C217.924 181.162 216.828 183.087 215.057 184.756C212.967 186.821 210.294 188.193 207.399 188.688C202.188 189.394 193.066 186.64 193.066 186.64C191.188 184.07 188.375 182.341 185.234 181.828C186.409 178.835 186.937 175.628 186.786 172.417C186.634 169.205 185.805 166.062 184.354 163.194C179.45 152.955 177.187 147.836 178.446 143.566C179.255 140.873 181.835 139.665 184.139 138.805C185.31 138.468 186.445 138.015 187.527 137.454L189.575 136.051C189.575 136.051 182.46 134.648 179.962 130.338C179.962 130.338 185.961 129.642 188.572 124.932C188.572 124.932 184.016 125.229 182.337 123.222L188.172 121.225L185.101 119.72C185.101 119.72 188.91 116.014 193.824 116.813L190.445 112.39H196.322L195.124 111.11L200.529 112.39V108.704C200.529 108.704 206.734 111.509 208.443 115.215L207.737 109.308C207.737 109.308 213.081 114.427 214.75 117.714L215.108 118.389C215.364 118.891 215.753 119.638 216.132 120.499V120.57C216.275 120.847 216.408 121.133 216.552 121.43C217.688 123.836 218.866 126.703 218.599 127.737C218.159 129.642 218.599 132.437 221.169 136.553C221.362 136.861 221.533 137.183 221.681 137.515C222.111 138.516 222.407 139.57 222.561 140.648C223.278 145.112 222.49 151.173 221.169 156.477C219.664 162.497 218.937 167.31 216.112 169.787L216.019 169.859C215.741 170.081 215.446 170.283 215.139 170.463C214.914 170.586 214.678 170.699 214.443 170.801L214.218 170.862Z" fill="#FCC59A"/>
<path opacity="0.32" d="M222.612 140.618C221.73 141.715 220.646 142.632 219.418 143.321L221.169 138.201L218.415 136.348C216.15 134.778 214.415 132.557 213.439 129.98C212.794 128.403 215.128 122.864 216.152 120.57C216.295 120.847 216.429 121.133 216.572 121.43C217.708 123.836 218.886 126.703 218.619 127.737C218.179 129.642 218.619 132.437 221.189 136.553C221.382 136.861 221.553 137.183 221.701 137.515C222.139 138.505 222.445 139.548 222.612 140.618Z" fill="#F47421"/>
<path d="M213.91 175.92C207.532 176.33 195.677 168.272 195.677 168.272C207 173.279 212.405 171.681 212.405 171.681C212.405 171.681 212.508 175.275 213.511 175.777C213.64 175.836 213.774 175.884 213.91 175.92Z" fill="#AF4D26"/>
<path opacity="0.32" d="M217.852 179.596C217.924 181.173 216.828 183.098 215.057 184.766C212.967 186.831 210.294 188.203 207.399 188.698C202.188 189.405 193.066 186.65 193.066 186.65C191.188 184.08 188.375 182.352 185.234 181.838C186.409 178.846 186.937 175.638 186.786 172.427C186.634 169.216 185.805 166.072 184.354 163.204C179.45 152.965 177.187 147.846 178.446 143.576C179.255 140.884 181.835 139.676 184.139 138.815C185.311 138.475 186.446 138.019 187.527 137.454L189.575 136.051C189.575 136.051 182.46 134.648 179.962 130.338C179.962 130.338 185.961 129.642 188.572 124.932C188.572 124.932 184.016 125.229 182.337 123.222L188.172 121.225L185.101 119.72C185.101 119.72 188.91 116.014 193.824 116.813L190.445 112.39H196.322L195.124 111.11L200.529 112.39V108.704C200.529 108.704 206.734 111.509 208.443 115.215L207.737 109.308C207.737 109.308 213.081 114.427 214.75 117.714L215.108 118.389C213.792 117.613 212.271 117.255 210.747 117.366C206.14 117.867 200.622 116.157 194.018 120.57C187.415 124.983 187.108 128.188 191.213 133.092C195.318 137.996 200.13 147.017 199.332 152.924C198.533 158.832 198.113 164.719 203.632 168.354C208.157 171.344 211.822 171.968 214.535 170.811L214.258 170.944L212.446 171.763C212.446 171.763 202.208 172.439 193.916 167.432C193.916 167.432 196.987 176.76 205.935 179.268C209.824 180.4 213.982 180.18 217.729 178.644C217.805 178.956 217.846 179.275 217.852 179.596Z" fill="#F47421"/>
<path opacity="0.32" d="M215.057 184.766C212.967 186.831 210.294 188.203 207.399 188.698C202.188 189.405 193.066 186.65 193.066 186.65C191.188 184.08 188.375 182.352 185.234 181.838C186.409 178.845 186.937 175.638 186.786 172.427C186.634 169.216 185.805 166.072 184.354 163.204C179.45 152.965 177.187 147.846 178.446 143.576C179.255 140.884 181.835 139.675 184.139 138.815C185.449 140.443 187.271 142.634 188.961 144.375C192.032 147.58 195.185 155.3 192.523 160.102C189.862 164.903 186.022 165.149 190.394 170.238C194.766 175.326 197.857 176.627 198.717 180.732C199.362 183.804 208.054 186.599 215.057 184.766Z" fill="#F47421"/>
<path d="M206.897 132.273C206.897 132.273 207.235 130.533 204.962 130.225C202.689 129.918 195.277 128.628 193.7 134.239C193.7 134.239 194.908 131.229 199.515 131.167C204.122 131.106 206.231 132.744 206.897 132.273Z" fill="#231F20"/>
<path d="M221.732 137.454C221.379 138.942 220.893 140.395 220.278 141.795C219.254 144.201 218.65 143.535 218.65 143.535L220.79 138.191C219.935 137.792 219.127 137.298 218.384 136.716C216.582 135.447 213.511 132.048 212.835 129.918C212.313 128.239 214.954 122.751 216.121 120.437C216.275 120.734 216.418 121.051 216.572 121.369C214.934 123.478 213.439 129.918 213.439 129.918C215.906 135.406 221.732 137.454 221.732 137.454Z" fill="#231F20"/>
<path d="M206.272 142.732C206.913 142.548 207.171 141.487 206.848 140.362C206.525 139.237 205.744 138.474 205.103 138.658C204.461 138.842 204.203 139.903 204.526 141.028C204.849 142.154 205.63 142.916 206.272 142.732Z" fill="#231F20"/>
<path d="M205.925 140.674C206.191 140.598 206.298 140.157 206.164 139.69C206.03 139.222 205.706 138.905 205.439 138.982C205.173 139.058 205.066 139.499 205.2 139.966C205.334 140.434 205.659 140.751 205.925 140.674Z" fill="white"/>
<path d="M217.974 149.249C217.913 149.402 217.37 150.641 216.746 152.228C215.936 154.159 215.282 156.152 214.79 158.187C214.618 159.083 214.718 160.01 215.077 160.849C215.389 161.636 215.884 162.338 216.521 162.897C216.351 163.146 216.135 163.362 215.886 163.531C214.561 164.383 213.018 164.835 211.443 164.832C210.26 165 209.054 164.838 207.958 164.365C206.862 163.891 205.917 163.125 205.228 162.149C204.428 160.907 203.895 159.513 203.662 158.054C203.365 156.364 203.245 154.649 203.303 152.934C203.303 152.126 203.303 151.255 203.437 150.334C203.426 150.242 213.756 151.112 217.974 149.249Z" fill="#231F20"/>
<path d="M215.875 163.49C214.55 164.342 213.007 164.794 211.432 164.791C208.361 164.996 204.778 163.992 203.651 158.003C206.979 157.583 213.51 157.613 215.875 163.49Z" fill="#EE2C28"/>
<path d="M217.985 149.238C217.985 149.238 217.411 150.539 216.746 152.228C212.651 154.552 203.304 152.842 203.304 152.842C203.304 152.033 203.304 151.163 203.437 150.242C203.427 150.242 213.777 151.112 217.985 149.238Z" fill="white"/>
<path d="M216.51 162.856C216.34 163.106 216.125 163.321 215.875 163.491C214.55 164.342 213.007 164.794 211.432 164.791C210.25 164.959 209.044 164.797 207.948 164.324C206.851 163.851 205.907 163.084 205.218 162.108C207.531 162.442 209.885 162.359 212.169 161.863C213.163 161.605 214.132 161.263 215.067 160.839C215.383 161.615 215.877 162.306 216.51 162.856Z" fill="white"/>
<path d="M172.58 162.63C171.344 163.096 170.074 163.465 168.782 163.736C165.485 164.463 160.592 164.934 156.67 162.835C151.439 160.061 150.784 153.62 150.753 151.04C150.753 150.334 150.753 149.904 150.753 149.904C152.491 149.778 154.169 149.211 155.626 148.255C155.626 148.255 154.602 152.351 158.114 152.945C158.697 153.032 159.286 153.066 159.875 153.047C162.239 152.914 164.576 152.473 166.826 151.737C167.652 152.445 168.345 153.294 168.874 154.245C169.181 154.818 169.775 156.129 170.389 157.542C171.464 159.979 172.58 162.63 172.58 162.63Z" fill="#EE2C28"/>
<path opacity="0.42" d="M172.58 162.631C171.344 163.096 170.074 163.466 168.781 163.737C165.649 161.464 161.984 156.262 159.885 153.047C162.249 152.914 164.586 152.473 166.836 151.737C167.661 152.446 168.355 153.295 168.884 154.245C169.191 154.819 169.785 156.129 170.399 157.542C171.464 159.979 172.58 162.631 172.58 162.631Z" fill="#AB2B2B"/>
<path d="M170.41 157.542C168.526 158.32 165.741 158.77 161.656 158.351C159.373 158.139 157.18 157.359 155.275 156.082C153.371 154.805 151.816 153.072 150.753 151.04C150.753 150.334 150.753 149.904 150.753 149.904C152.491 149.778 154.169 149.211 155.626 148.255C155.626 148.255 154.602 152.351 158.114 152.945C161.626 153.539 166.826 151.737 166.826 151.737C167.652 152.445 168.345 153.294 168.874 154.245C169.202 154.859 169.795 156.129 170.41 157.542Z" fill="#AB2B2B"/>
<path d="M189.882 161.566C188.374 163.35 186.578 164.869 184.568 166.061C180.811 168.569 178.856 169.02 174.801 165.262C171.146 161.883 166.068 151.553 164.563 146.833C164.417 146.397 164.297 145.952 164.205 145.502C164.173 145.35 164.156 145.196 164.154 145.041C163.97 141.447 169.437 136.85 174.771 134.802C180.33 132.652 182.306 138.007 182.306 138.007C182.377 139.256 187.578 149.669 189.851 154.931C190.22 155.781 190.506 156.498 190.69 156.979C190.965 157.748 191.035 158.575 190.893 159.379C190.751 160.184 190.403 160.937 189.882 161.566Z" fill="#F47421"/>
<path d="M189.882 161.566C189.95 160.145 189.523 158.744 188.674 157.603C187.415 155.699 180.484 139.675 179.409 137.126C178.334 134.576 174.546 135.672 169.437 139.174C167.191 140.635 165.378 142.671 164.185 145.071C164.001 141.477 169.468 136.88 174.802 134.832C180.361 132.682 182.337 138.037 182.337 138.037C182.419 139.491 189.422 153.313 190.722 157.05C190.979 157.812 191.037 158.627 190.89 159.417C190.743 160.208 190.396 160.947 189.882 161.566Z" fill="#AF4D26"/>
<path d="M169.989 147.928C169.989 147.928 168.965 146.73 171.095 144.928C173.224 143.126 175.047 142.225 175.651 143.32C176.255 144.416 180.503 152.934 182.008 155.095C183.513 157.255 184.271 158.299 182.51 160.101C180.749 161.903 179.439 162.569 178.098 161.566C176.756 160.562 172.17 154.183 169.989 147.928Z" fill="#FECF0A"/>
<path d="M203.294 149.935C203.294 149.935 211.842 150.866 217.985 149.238C217.985 149.238 214.832 151.286 203.652 150.467C203.652 150.467 202.628 157.808 205.7 162.456C208.771 167.105 216.337 163.48 216.511 162.856C216.511 162.856 215.569 164.955 211.392 164.996C207.215 165.037 205.69 163.685 204.154 160.654C202.618 157.624 203.058 150.897 203.294 149.935Z" fill="#231F20"/>
<path d="M215.876 118.932C215.876 118.932 218.763 125.198 218.947 127.246C219.132 129.294 218.333 130.133 220.043 133.809C221.753 137.485 223.626 138.662 223.114 146.28C222.602 153.897 219.511 164.207 218.63 166.562C217.75 168.917 215.395 172.275 208.577 172.101C204.058 171.804 199.663 170.495 195.718 168.272C195.718 168.272 201.86 171.344 207.686 171.344C213.511 171.344 216.9 171.057 218.947 163.87C220.995 156.682 222.776 149.32 222.695 144.16C222.613 139 221.947 138.017 220.197 135.089C218.446 132.16 218.241 130.379 218.446 128.679C218.651 126.98 216.194 121.318 216.194 121.318C216.357 120.509 216.245 119.67 215.876 118.932Z" fill="#231F20"/>
<path d="M212.774 171.333C212.774 171.333 212.559 174.917 213.705 175.542C214.852 176.166 217.8 176.176 218.026 178.91C218.065 180.395 217.667 181.858 216.88 183.118C216.094 184.378 214.954 185.379 213.603 185.995C213.603 185.995 216.674 183.569 217.176 180.651C217.678 177.733 216.152 176.811 214.872 176.555C213.593 176.299 213.173 176.453 212.538 174.948C212.141 173.857 211.96 172.699 212.006 171.538L212.774 171.333Z" fill="#231F20"/>
<path d="M191.243 184.705C191.243 184.705 199.904 187.777 204.921 188.196C209.938 188.616 211.995 187.05 211.995 187.05C211.995 187.05 209.303 189.394 203.723 188.739C200.132 188.296 196.575 187.612 193.076 186.691L191.243 184.705Z" fill="#231F20"/>
<path d="M167.052 145.809C167.052 145.809 165.567 144.109 168.905 141.56C172.242 139.01 174.976 137.73 175.795 139.287C176.614 140.843 182.368 152.894 184.456 155.945C186.545 158.996 187.599 160.481 184.855 163.03C182.112 165.579 180.115 166.521 178.18 165.078C176.245 163.634 169.877 154.665 167.052 145.809Z" stroke="white" stroke-width="0.25" stroke-miterlimit="10"/>
<path opacity="0.43" d="M189.882 161.566C188.374 163.35 186.578 164.869 184.568 166.061C180.811 168.569 178.856 169.02 174.801 165.262C171.146 161.883 166.068 151.553 164.563 146.833C168.011 147.782 171.047 149.849 173.194 152.709C178.927 159.989 186.79 157.962 189.892 154.942C190.261 155.791 190.547 156.508 190.731 156.989C190.998 157.76 191.06 158.588 190.911 159.39C190.762 160.192 190.408 160.942 189.882 161.566Z" fill="#A54623"/>
<path d="M187.465 148.716C185.868 145.645 182.346 136.942 182.346 136.942C182.346 136.942 180.964 134.587 181.445 136.44C181.927 138.293 187.23 150.313 188.131 152.167C189.032 154.02 190.731 157.009 190.414 159.631C190.391 159.802 190.35 159.97 190.291 160.132C189.692 158.106 188.795 156.181 187.629 154.419C186.472 152.566 182.101 143.3 182.101 143.3C182.101 143.3 183.79 147.139 184.271 148.716C184.752 150.293 187.445 155.187 188.684 157.583C189.306 158.728 189.64 160.007 189.656 161.31C188.096 163.205 186.277 164.87 184.251 166.255C189.431 163.562 191.284 161.033 191.335 158.484C191.386 155.934 189.073 151.788 187.465 148.716Z" fill="#231F20"/>
<path d="M172.969 163.173C172.969 163.173 164.533 166.019 158.769 163.839C153.005 161.658 151.981 159.948 150.742 152.187C150.742 152.187 151.602 159.559 156.568 162.037C161.533 164.514 170.614 163.153 171.976 161.781L172.969 163.173Z" fill="#231F20"/>
<path d="M217.964 124.635C217.964 124.635 220.145 124.891 220.82 126.365C221.573 128.879 222.172 131.437 222.612 134.024C222.612 134.024 220.697 126.857 220.288 126.365C219.667 125.932 218.973 125.613 218.24 125.423L217.964 124.635Z" fill="#231F20"/>
<g opacity="0.92">
<path d="M447.467 134.28C447.419 161.057 437.15 186.806 418.759 206.267C400.367 225.728 375.24 237.434 348.51 238.992C321.78 240.55 295.463 231.844 274.935 214.652C254.408 197.459 241.217 173.078 238.058 146.487C234.899 119.897 242.011 93.1033 257.939 71.5795C273.868 50.0557 297.412 35.4254 323.763 30.6769C350.115 25.9285 377.284 31.4201 399.723 46.0301C422.162 60.6401 438.177 83.2662 444.498 109.287C446.484 117.469 447.481 125.86 447.467 134.28Z" fill="url(#paint2_linear_131_3152)"/>
<path opacity="0.15" d="M447.467 134.279C447.456 149.369 444.202 164.28 437.924 178.001C431.646 191.723 422.491 203.934 411.08 213.806C399.669 223.679 386.269 230.982 371.788 235.222C357.307 239.461 342.084 240.536 327.151 238.376C343.788 231.884 358.745 221.789 366.987 206.124C393.247 156.252 356.923 138.201 387.903 107.966C404.068 92.1987 428.496 93.5604 444.477 109.287C446.47 117.468 447.473 125.859 447.467 134.279Z" fill="#722914"/>
<path opacity="0.34" d="M248.739 162.62C248.361 161.307 248.073 159.97 247.879 158.617C246.599 149.781 242.996 116.239 256.776 86.5881C272.798 52.0737 313.258 50.8553 313.258 72.7045C313.258 94.5538 270.392 118.778 269.594 151.337C268.795 183.896 307.648 184.715 313.258 204.578C318.868 224.441 293.806 222.393 279.872 211.571C266.359 200.995 255.097 184.377 248.739 162.62Z" fill="white"/>
<path opacity="0.34" d="M417.214 81.1409C414.992 79.534 412.323 78.664 409.581 78.6529C406.839 78.6419 404.163 79.4905 401.929 81.0794C396.984 84.7551 392.981 93.2122 396.717 112.358C404.201 150.631 418.35 171.743 402.86 197.114C387.37 222.485 362.216 228.936 362.216 228.936C362.216 228.936 396.728 230.082 421.595 189.732C445.04 151.552 442.02 98.5465 417.214 81.1409Z" fill="white"/>
<path opacity="0.34" d="M321.93 64.6366C326.21 64.6366 329.68 61.1665 329.68 56.8859C329.68 52.6053 326.21 49.1353 321.93 49.1353C317.65 49.1353 314.18 52.6053 314.18 56.8859C314.18 61.1665 317.65 64.6366 321.93 64.6366Z" fill="white"/>
<path opacity="0.34" d="M402.594 68.3736C404.658 68.3736 406.331 66.7005 406.331 64.6365C406.331 62.5726 404.658 60.8994 402.594 60.8994C400.53 60.8994 398.857 62.5726 398.857 64.6365C398.857 66.7005 400.53 68.3736 402.594 68.3736Z" fill="white"/>
<path opacity="0.34" d="M345.702 209.063C360.199 209.063 371.952 197.309 371.952 182.811C371.952 168.312 360.199 156.559 345.702 156.559C331.205 156.559 319.452 168.312 319.452 182.811C319.452 197.309 331.205 209.063 345.702 209.063Z" fill="white"/>
</g>
<path d="M482.92 207.732C466.089 230.564 457.162 236.031 425.588 234.352C394.946 232.755 378.279 240.311 377.357 240.741C378.494 240.127 402.952 226.97 426.192 221.615C450.026 216.127 453.834 214.766 464.645 198.066C475.457 181.367 474.883 170.217 474.883 170.217C474.883 170.217 463.468 158.607 460.663 156.487C460.663 156.487 460.468 147.365 468.853 145.358C469.967 145.06 471.129 144.984 472.273 145.133C477.269 145.87 477.76 152.003 483.483 153.723C490.291 155.771 493.721 154.747 493.721 154.747C493.721 154.747 499.782 184.9 482.92 207.732Z" fill="#EE2C28"/>
<path d="M474.904 170.289C474.904 170.289 463.489 158.678 460.684 156.559C460.684 156.559 460.489 147.436 468.874 145.43C469.988 145.132 471.15 145.055 472.294 145.204C477.617 154.941 474.904 170.289 474.904 170.289Z" fill="#AB2B2B"/>
<path d="M352.356 258.608C358.894 256.25 366.049 256.25 372.586 258.608C383.203 262.611 386.408 265.427 390.82 261.823C395.233 258.219 395.826 254.604 395.826 254.604L400.833 264.843C398.887 266.949 396.488 268.585 393.817 269.627C391.145 270.668 388.272 271.087 385.415 270.853C375.555 270.024 366.341 257.246 352.356 258.608Z" fill="#ABDDE8"/>
<path d="M457.684 247.795C457.684 247.795 467.491 243.7 469.897 239.461C471.326 237.018 471.892 234.166 471.505 231.362L475.6 241.785C475.6 241.785 471.699 247.591 457.684 247.795Z" fill="#F47421"/>
<path d="M462.926 84.3359C448.112 81.3257 444.303 62.0976 434.639 45.8693C434.011 44.8101 433.327 43.7848 432.591 42.7978C423.868 31.1052 416.886 39.7262 416.886 39.7262C416.886 39.7262 410.744 34.5147 407.816 28.8834C406.805 27.1286 406.315 25.122 406.403 23.0986C407.14 15.9316 409.474 6.07176 428.926 10.2798C448.378 14.4879 464.584 26.0985 458.37 46.1151C452.156 66.1316 462.926 84.3359 462.926 84.3359Z" fill="#ABDDE8"/>
<path d="M432.52 42.7362C423.797 31.0437 416.815 39.6646 416.815 39.6646C416.815 39.6646 410.672 34.4532 407.744 28.8219C414.235 28.6478 427.769 29.9482 432.52 42.7362Z" fill="#6BABB6"/>
<path d="M225.724 89.6085C225.724 89.6085 221.916 54.6845 260.533 41.0569L249.763 24.8286C249.763 24.8286 213.121 38.9887 225.724 89.6085Z" fill="#F47421"/>
<path d="M246.487 58.8927L250.582 52.4731C250.582 52.4731 254.995 51.6745 255.589 52.4731C256.183 53.2717 255.589 57.2136 255.589 57.2136L246.487 58.8927Z" fill="#EE2C28"/>
<path d="M397.588 400.239C397.588 400.239 401.796 380.406 432.038 362.98C462.281 345.554 495.943 316.036 506.355 293.829C516.767 271.621 514.545 267.618 510.163 269.02C505.782 270.423 493.138 283.047 493.138 283.047C493.138 283.047 503.55 270.618 502.147 267.423C500.745 264.229 492.135 269.471 490.732 273.628C489.329 277.785 488.326 279.044 484.323 280.846C482.314 281.703 480.371 282.705 478.508 283.846C478.508 283.846 502.751 256.806 505.126 238.376C507.502 219.947 516.163 214.541 516.163 214.541C516.163 214.541 505.925 232.97 516.163 243.383C526.401 253.795 535.185 264.546 534.99 270.894C534.99 270.894 524.967 272.635 522.971 281.645C520.975 290.655 527.373 297.269 527.373 297.269C527.036 299.301 526.296 301.245 525.197 302.987C524.099 304.73 522.663 306.235 520.975 307.415C515.364 311.122 510.563 313.231 511.566 318.186C512.569 323.142 511.965 330.954 490.732 341.172C469.499 351.39 452.074 366.615 438.048 372.021C424.022 377.427 414.409 377.796 397.588 400.239Z" fill="url(#paint3_linear_131_3152)"/>
<path d="M321.275 407.047C321.275 407.047 310.187 405.737 309.921 396.379C309.655 387.02 311.252 387.41 303.041 385.014C294.831 382.618 291.78 378.195 290.756 372.584L289.783 366.983L268.284 380.14L275.45 379.454L249.067 393.563C249.067 393.563 278.911 375.993 290.746 387.01C302.581 398.027 291.77 408.931 291.77 408.931C291.77 408.931 298.588 398.877 321.275 407.047Z" fill="url(#paint4_linear_131_3152)"/>
<path d="M179.961 437.088C179.961 437.088 118.36 428.078 89.3151 412.853C60.2703 397.628 58.2739 382.157 64.2733 381.205C70.2726 380.253 76.2925 381.205 69.6891 376.598C63.0857 371.99 37.0405 351.892 33.2321 344.858C29.4236 337.824 55.6632 352.69 56.4618 348.134C57.2603 343.578 41.2381 326.162 41.2381 326.162C41.2381 326.162 74.4906 352.598 83.5102 356.509C92.5298 360.421 98.9284 359.581 98.9284 359.581C98.9284 359.581 93.5228 363.39 87.9125 363.584C82.3021 363.779 85.3121 367.188 86.7146 368.99C88.1172 370.792 76.702 367.26 83.3054 375.543C89.9089 383.826 96.5225 385.024 89.7143 386.222C82.9062 387.42 90.7381 399.041 94.5261 402.051L98.3346 405.051L101.334 403.249C101.334 403.249 95.9287 409.474 120.786 417.583C145.644 425.692 179.961 437.088 179.961 437.088Z" fill="url(#paint5_linear_131_3152)"/>
<path d="M113.354 337.332C113.354 337.332 76.8968 321.749 56.4825 303.012C36.0682 284.276 28.6458 274.027 31.2462 274.037C33.8466 274.047 37.0613 271.826 31.451 260.614C25.8406 249.403 10.7295 218.636 3.9623 189.732C-2.80492 160.828 1.19808 149.238 1.19808 149.238C1.37509 162.727 4.52099 176.01 10.4122 188.145L11.221 163.808C11.8689 175.98 17.1688 187.439 26.0249 195.814C41.0438 210.332 45.2209 219.742 45.2209 219.742C45.2209 219.742 34.6042 214.141 38.208 223.755C41.8117 233.369 48.0261 246.587 42.6102 247.795C37.1944 249.004 43.2143 264.013 50.4217 272.03C57.6292 280.047 58.8372 281.634 58.8372 281.634C58.8372 281.634 52.8276 289.057 66.8535 301.681C80.8794 314.306 96.5228 331.926 113.354 337.332Z" fill="url(#paint6_linear_131_3152)"/>
<path d="M59.4719 171.681C59.4719 171.681 42.2416 137.617 33.4268 97.7481C33.4268 97.7481 43.0503 109.574 41.0437 97.7481C39.0371 85.9225 34.0308 78.2947 36.6312 63.6944C39.2316 49.0941 47.4526 32.6406 47.4526 32.6406C45.5666 36.5981 44.5035 40.8972 44.3275 45.2776C44.1515 49.658 44.8664 54.0286 46.4288 58.1246L51.8344 71.7113L53.882 63.6944C53.882 63.6944 52.2849 79.4619 54.0868 82.1956C55.8886 84.9294 56.6974 93.325 56.6974 93.325C56.6974 93.325 46.0705 97.3386 49.0804 106.359C52.0904 115.379 49.0804 116.382 49.0804 116.382C49.0804 116.382 36.6312 117.806 59.4719 171.681Z" fill="url(#paint7_linear_131_3152)"/>
<path d="M280.272 237.373C280.272 237.373 271.59 229.898 261.383 228.936C251.176 227.974 242.504 231.926 237.119 226.54C231.734 221.155 231.847 217.141 231.847 217.141L222.633 230.861C222.633 230.861 232.871 245.543 246.507 240.762C260.144 235.98 266.922 232.161 280.272 237.373Z" fill="#FECF0A"/>
<path d="M95.3869 280.426C90.7594 279.495 84.1252 276.822 82.5281 272.676C80.931 268.529 83.3267 259.365 84.6576 253.222C85.6814 248.564 86.7769 245.431 87.8109 243.956C88.0588 243.561 88.4139 243.245 88.8347 243.045C90.1042 242.533 99.7278 244.253 106.239 247.97C112.75 251.686 113.569 253.519 113.109 254.748V254.809C113.109 254.809 106.556 270.566 105.307 274.559C104.708 276.615 103.35 278.365 101.507 279.454C99.6645 280.544 97.4763 280.892 95.3869 280.426Z" fill="url(#paint8_linear_131_3152)"/>
<path opacity="0.32" d="M103.228 253.724C96.5021 251.922 91.5776 248.533 89.1103 245.707C88.6229 245.165 88.1972 244.571 87.8408 243.936C88.0888 243.541 88.4438 243.225 88.8646 243.024C90.1341 242.513 99.7577 244.233 106.269 247.949C112.78 251.666 113.599 253.499 113.139 254.727C112.255 254.826 111.366 254.864 110.477 254.84C108.024 254.764 105.59 254.389 103.228 253.724Z" fill="#722914"/>
<path d="M103.228 253.724C96.5021 251.922 91.5777 248.533 89.1104 245.707C90.7689 244.949 94.2293 245.236 100.27 247.652C106.607 250.171 109.299 253.15 110.395 254.819C107.971 254.743 105.565 254.375 103.228 253.724Z" fill="#722914"/>
<path d="M110.569 258.556C110.569 258.556 116.385 260.184 116.948 262.058C117.511 263.931 113.016 275.214 110.375 275.737C107.734 276.259 104.089 274.528 104.089 274.528C104.089 274.528 104.335 272.081 104.939 271.559C105.543 271.037 107.662 272.245 109.034 272.225C110.406 272.204 112.207 266.88 112.852 265.058C113.497 263.235 112.361 262.785 109.464 261.812C106.566 260.839 110.569 258.556 110.569 258.556Z" fill="url(#paint9_linear_131_3152)"/>
<path d="M95.2841 262.253C97.2395 261.485 99.1642 263.502 100.403 262.898C101.642 262.293 100.147 258.802 96.9017 258.7C94.6961 258.756 92.5575 259.469 90.7589 260.747C89.7352 261.413 89.9092 261.986 90.8408 262.795C91.7725 263.604 93.3389 263.031 95.2841 262.253Z" fill="#722914"/>
<path d="M91.8949 266.225C93.9933 266.931 96.2784 266.84 98.314 265.969C100.566 264.945 100.628 264.034 98.7031 263.225C97.9658 262.85 97.1443 262.671 96.3178 262.705C95.4912 262.739 94.6873 262.985 93.9834 263.42C92.4682 264.239 90.8301 263.471 90.4513 263.553C88.9156 263.88 90.6254 265.631 91.8949 266.225Z" fill="#722914"/>
<path d="M112.422 237.404C112.422 237.404 114.245 232.428 118.012 233.666C121.78 234.905 124.943 235.817 129.724 229.796C134.505 223.776 147.62 217.561 154.49 220.469C161.359 223.377 163.806 228.383 158.759 231.547C156.835 232.821 154.668 233.682 152.395 234.075C150.122 234.468 147.791 234.385 145.552 233.83C142.399 232.909 137.853 233.513 135.959 236.984C134.065 240.455 130.482 244.356 127.994 241.755C125.506 239.154 123.141 237.516 119.967 239.236C116.794 240.956 111.45 241.223 112.422 237.404Z" fill="url(#paint10_linear_131_3152)"/>
<path d="M114.408 206.258C114.408 206.258 110.395 205.868 111.828 200.012C113.262 194.155 114.726 191.893 109.31 191.821C103.894 191.749 99.4713 196.94 98.2326 200.677C96.9938 204.415 99.9832 206.626 102.256 207.722C104.529 208.817 104.539 211.817 106.669 213.036C108.798 214.254 108.655 214.633 109.525 216.895C110.395 219.158 112.934 218.401 113.62 216.455C114.306 214.51 113.221 212.78 115.299 212.268C117.377 211.756 119.742 210.916 119.087 208.909C118.432 206.903 115.197 206.483 114.408 206.258Z" fill="url(#paint11_linear_131_3152)"/>
<path d="M98.744 226.888C98.744 226.888 101.396 226.264 101.979 228.301C102.563 230.338 102.082 232.212 100.536 232.724C98.9897 233.236 97.6793 232.581 97.5359 230.891C97.3926 229.202 97.4336 226.96 98.744 226.888Z" fill="url(#paint12_linear_131_3152)"/>
<g opacity="0.25">
<path d="M292.977 508.021C280.958 507.151 262.53 508.891 244.705 504.488C226.881 500.086 197.171 512.495 197.171 512.495C176.531 519.048 222.469 518.106 231.857 519.713C241.245 521.321 274.948 515.7 290.837 515.3C306.726 514.901 304.955 508.891 292.977 508.021Z" fill="#6BABB6"/>
<path d="M436.081 488.465C417.786 483.653 405.501 490.861 370.15 490.461C334.798 490.062 342.292 496.83 342.292 496.83C342.292 496.83 347.524 502.379 366.986 503.495C379.343 504.212 397.894 504.847 409.105 507.652C420.315 510.457 452.38 504.048 479.213 503.495C506.047 502.942 454.376 493.267 436.081 488.465Z" fill="#6BABB6"/>
</g>
<path opacity="0.25" d="M296.131 18.4091C301.214 18.4091 305.334 14.2881 305.334 9.20454C305.334 4.12101 301.214 0 296.131 0C291.047 0 286.927 4.12101 286.927 9.20454C286.927 14.2881 291.047 18.4091 296.131 18.4091Z" fill="#6BABB6"/>
<path opacity="0.25" d="M301.433 255.996C306.516 255.996 310.637 251.875 310.637 246.792C310.637 241.708 306.516 237.587 301.433 237.587C296.35 237.587 292.229 241.708 292.229 246.792C292.229 251.875 296.35 255.996 301.433 255.996Z" fill="#6BABB6"/>
<path opacity="0.25" d="M136.87 85.8817C141.953 85.8817 146.074 81.7607 146.074 76.6772C146.074 71.5937 141.953 67.4727 136.87 67.4727C131.787 67.4727 127.666 71.5937 127.666 76.6772C127.666 81.7607 131.787 85.8817 136.87 85.8817Z" fill="#6BABB6"/>
<path opacity="0.25" d="M482.695 121.573C491.702 121.573 499.004 114.271 499.004 105.263C499.004 96.2554 491.702 88.9531 482.695 88.9531C473.688 88.9531 466.386 96.2554 466.386 105.263C466.386 114.271 473.688 121.573 482.695 121.573Z" fill="#6BABB6"/>
<path d="M469.293 299.153L464.676 269.174C464.636 268.79 464.488 268.424 464.249 268.121C464.01 267.817 463.69 267.587 463.326 267.457C462.962 267.328 462.568 267.304 462.191 267.388C461.814 267.473 461.469 267.663 461.195 267.935L387.718 334.374L406.893 355.537L469.293 299.153Z" fill="#231F20"/>
<path d="M434.699 260.891L469.293 299.153L406.842 355.578L372.248 317.316C371.787 316.816 371.43 316.228 371.199 315.588C370.967 314.948 370.866 314.268 370.9 313.589C370.934 312.909 371.104 312.243 371.399 311.629C371.693 311.016 372.108 310.467 372.617 310.016L427.348 260.533C427.849 260.063 428.439 259.699 429.084 259.462C429.728 259.225 430.414 259.12 431.1 259.153C431.786 259.186 432.458 259.358 433.076 259.656C433.695 259.955 434.247 260.375 434.699 260.891Z" fill="url(#paint13_linear_131_3152)"/>
<path d="M416.906 308.152C419.23 308.152 421.114 306.268 421.114 303.944C421.114 301.62 419.23 299.736 416.906 299.736C414.582 299.736 412.698 301.62 412.698 303.944C412.698 306.268 414.582 308.152 416.906 308.152Z" fill="white"/>
<path opacity="0.46" d="M437.126 263.573L469.293 299.153L406.842 355.578L404.569 353.028C417.735 343.568 436.829 327.278 438.641 311.275C440.811 292.364 433.839 278.102 437.126 263.573Z" fill="#AF4D26"/>
</g>
<defs>
<linearGradient id="paint0_linear_131_3152" x1="183.329" y1="296.245" x2="220.319" y2="296.245" gradientUnits="userSpaceOnUse">
<stop stop-color="#F47421"/>
<stop offset="0.83" stop-color="#FECF0A"/>
</linearGradient>
<linearGradient id="paint1_linear_131_3152" x1="140.648" y1="201.937" x2="145.92" y2="201.937" gradientUnits="userSpaceOnUse">
<stop stop-color="#F47421"/>
<stop offset="0.83" stop-color="#FECF0A"/>
</linearGradient>
<linearGradient id="paint2_linear_131_3152" x1="404.57" y1="199.725" x2="259.56" y2="47.3441" gradientUnits="userSpaceOnUse">
<stop stop-color="#F47421"/>
<stop offset="0.83" stop-color="#FECF0A"/>
</linearGradient>
<linearGradient id="paint3_linear_131_3152" x1="558.548" y1="263.563" x2="432.353" y2="317.954" gradientUnits="userSpaceOnUse">
<stop stop-color="#375E8B"/>
<stop offset="1" stop-color="#FECF0A"/>
</linearGradient>
<linearGradient id="paint4_linear_131_3152" x1="249.119" y1="387.952" x2="321.275" y2="387.952" gradientUnits="userSpaceOnUse">
<stop stop-color="#375E8B"/>
<stop offset="0.81" stop-color="#FECF0A"/>
</linearGradient>
<linearGradient id="paint5_linear_131_3152" x1="-15.4592" y1="354.544" x2="128.24" y2="386.033" gradientUnits="userSpaceOnUse">
<stop stop-color="#375E8B"/>
<stop offset="1" stop-color="#FECF0A"/>
</linearGradient>
<linearGradient id="paint6_linear_131_3152" x1="-22.6357" y1="193.838" x2="72.5602" y2="255.365" gradientUnits="userSpaceOnUse">
<stop stop-color="#375E8B"/>
<stop offset="1" stop-color="#FECF0A"/>
</linearGradient>
<linearGradient id="paint7_linear_131_3152" x1="37.4093" y1="86.6802" x2="56.1459" y2="104.75" gradientUnits="userSpaceOnUse">
<stop stop-color="#375E8B"/>
<stop offset="1" stop-color="#FECF0A"/>
</linearGradient>
<linearGradient id="paint8_linear_131_3152" x1="100.298" y1="243.539" x2="95.5468" y2="279.715" gradientUnits="userSpaceOnUse">
<stop stop-color="#F47421"/>
<stop offset="0.41" stop-color="#FECF0A"/>
</linearGradient>
<linearGradient id="paint9_linear_131_3152" x1="112.316" y1="258.088" x2="110.059" y2="275.279" gradientUnits="userSpaceOnUse">
<stop stop-color="#F47421"/>
<stop offset="0.41" stop-color="#FECF0A"/>
</linearGradient>
<linearGradient id="paint10_linear_131_3152" x1="136.757" y1="233.289" x2="129.741" y2="249.535" gradientUnits="userSpaceOnUse">
<stop stop-color="#FBB368"/>
<stop offset="1" stop-color="#FFFDF4"/>
</linearGradient>
<linearGradient id="paint11_linear_131_3152" x1="103.199" y1="193.841" x2="114.836" y2="216.777" gradientUnits="userSpaceOnUse">
<stop stop-color="#FBB368"/>
<stop offset="1" stop-color="#FFFDF4"/>
</linearGradient>
<linearGradient id="paint12_linear_131_3152" x1="98.3515" y1="227.011" x2="101.126" y2="232.48" gradientUnits="userSpaceOnUse">
<stop stop-color="#FBB368"/>
<stop offset="1" stop-color="#FFFDF4"/>
</linearGradient>
<linearGradient id="paint13_linear_131_3152" x1="437.156" y1="321.821" x2="361.576" y2="258.921" gradientUnits="userSpaceOnUse">
<stop stop-color="#F47421"/>
<stop offset="0.83" stop-color="#FECF0A"/>
</linearGradient>
<clipPath id="clip0_131_3152">
<rect width="535" height="520" fill="white"/>
</clipPath>
</defs>
</svg>
