<svg width="56" height="89" viewBox="0 0 56 89" fill="none" xmlns="http://www.w3.org/2000/svg">
<path d="M27.45 9.5406H21.622C21.4002 9.5406 21.2176 9.7238 21.2176 9.94503V32.1118C21.2176 32.3337 21.4008 32.5162 21.622 32.5162H27.45C27.6718 32.5162 27.8544 32.333 27.8544 32.1118V9.94503C27.8544 9.72316 27.6712 9.5406 27.45 9.5406ZM31.6456 76.9107C31.645 76.5925 31.328 76.3738 31.0301 76.486C30.8532 76.5545 30.7379 76.7212 30.7372 76.9107V78.728C30.7379 79.0462 31.0548 79.2649 31.3527 79.1527C31.5296 79.0843 31.645 78.9176 31.6456 78.728V76.9107ZM30.7366 87.8154C30.7372 88.1336 31.0542 88.3523 31.3521 88.2401C31.5289 88.1717 31.6443 88.005 31.645 87.8154V85.9981C31.6443 85.6799 31.3274 85.4612 31.0294 85.5734C30.8526 85.6419 30.7372 85.8086 30.7366 85.9981V87.8154ZM30.7366 83.2717C30.7372 83.5899 31.0542 83.8086 31.3521 83.6964C31.5289 83.628 31.6443 83.4613 31.645 83.2717V81.4544C31.6443 81.1362 31.3274 80.9175 31.0294 81.0297C30.8526 81.0982 30.7372 81.2649 30.7366 81.4544V83.2717ZM28.1618 79.0709C28.1611 78.7527 27.8442 78.534 27.5463 78.6462C27.3694 78.7147 27.254 78.8814 27.2534 79.0709V80.8882C27.254 81.2064 27.571 81.4251 27.8689 81.3129C28.0458 81.2445 28.1611 81.0778 28.1618 80.8882V79.0709ZM27.2528 85.4319C27.2534 85.7501 27.5703 85.9688 27.8683 85.8566C28.0451 85.7882 28.1605 85.6215 28.1611 85.4319V83.6146C28.1605 83.2964 27.8436 83.0777 27.5456 83.1899C27.3688 83.2584 27.2534 83.4251 27.2528 83.6146V85.4319ZM24.6779 76.9099C24.6773 76.5917 24.3604 76.373 24.0624 76.4852C23.8856 76.5536 23.7702 76.7204 23.7696 76.9099V78.7272C23.7702 79.0454 24.0872 79.2641 24.3851 79.1519C24.5619 79.0835 24.6773 78.9167 24.6779 78.7272V76.9099ZM23.7689 87.8146C23.7696 88.1328 24.0865 88.3515 24.3845 88.2393C24.5613 88.1709 24.6767 88.0042 24.6773 87.8146V85.9973C24.6767 85.6791 24.3597 85.4604 24.0618 85.5726C23.885 85.641 23.7696 85.8078 23.7689 85.9973V87.8146ZM23.7689 83.2709C23.7696 83.5891 24.0865 83.8078 24.3845 83.6956C24.5613 83.6272 24.6767 83.4604 24.6773 83.2709V81.4536C24.6767 81.1354 24.3597 80.9167 24.0618 81.0289C23.885 81.0974 23.7696 81.2641 23.7689 81.4536V83.2709ZM22.7268 41.5792V38.3775L19.5105 36.5209L16.2943 38.3775V40.9587C18.312 41.242 20.4691 41.4525 22.7263 41.5799L22.7268 41.5792ZM15.3858 40.8243V37.8571L19.5105 35.4755L23.6353 37.8571V41.6256C24.6723 41.6731 25.7283 41.7029 26.8016 41.7143C26.8922 40.7026 27.341 39.7936 28.0193 39.1153C28.7825 38.3521 29.8359 37.8805 31.0004 37.8805C32.1161 37.8805 33.1316 38.3154 33.8865 39.0247C34.5476 39.6459 35.0078 40.4788 35.16 41.415C39.6073 41.0391 43.5793 40.3323 46.7543 39.3898C49.8838 38.4611 52.2159 37.3258 53.4209 36.0815C51.4165 34.0131 47.0028 32.7326 44.2581 32.0981V35.5212C44.2581 36.2444 43.6679 36.8346 42.9446 36.8346H37.1167C36.3934 36.8346 35.8033 36.2444 35.8033 35.5212V30.7822C33.4636 30.5655 31.1106 30.4507 28.7614 30.4254V32.1103C28.7614 32.8335 28.1712 33.4237 27.4479 33.4237H21.62C20.8967 33.4237 20.3066 32.8335 20.3066 32.1103V30.7335C18.0251 30.9287 15.7509 31.2178 13.4993 31.638V36.576C13.4993 37.2993 12.9091 37.8895 12.1859 37.8895H6.35793C5.63467 37.8895 5.0445 37.2993 5.0445 36.576V34.1476C4.20397 34.5463 3.30199 35.0484 2.56851 35.6696C2.02083 36.1336 2.05506 36.0695 2.62556 36.538C3.92186 37.6029 6.05167 38.5753 8.79331 39.3892C10.7203 39.9609 12.9414 40.4465 15.3844 40.8236L15.3858 40.8243ZM34.2536 41.4867C34.1223 40.7824 33.768 40.1568 33.2666 39.6851C32.6758 39.1298 31.879 38.7894 31.0017 38.7894C30.0883 38.7894 29.2617 39.1596 28.6633 39.758C28.1486 40.2727 27.8025 40.9567 27.7157 41.7199H27.7759C30.0104 41.7199 32.1802 41.6394 34.2543 41.4873L34.2536 41.4867ZM42.946 29.2894H37.118C36.8962 29.2894 36.7136 29.4726 36.7136 29.6938V35.5218C36.7136 35.7437 36.8968 35.9262 37.118 35.9262H42.946C43.1678 35.9262 43.3504 35.743 43.3504 35.5218V29.6938C43.3504 29.472 43.1672 29.2894 42.946 29.2894ZM37.118 28.3804H42.946C43.6692 28.3804 44.2594 28.9706 44.2594 29.6938V31.167C47.2539 31.8459 51.7526 33.1511 53.9845 35.3621C54.2203 34.9666 54.344 34.5628 54.344 34.1539C54.344 32.1933 51.5218 30.3614 46.9445 28.9751C42.2898 27.5653 35.8806 26.6677 28.7632 26.5916V29.5208C31.1136 29.5455 33.4642 29.6584 35.8052 29.8733V29.6939C35.8052 28.9706 36.3953 28.3805 37.1186 28.3805L37.118 28.3804ZM48.902 18.0031C47.8294 18.6224 46.7588 19.2417 45.6857 19.861V23.5781L48.902 25.4346L52.1183 23.5781V19.861C51.0457 19.2417 49.9751 18.6224 48.902 18.0031ZM48.902 16.9585C50.2769 17.7521 51.6517 18.5451 53.0267 19.3387V24.0979L48.902 26.4795L44.7773 24.0979V19.3387C46.1522 18.5451 47.527 17.7521 48.902 16.9585ZM9.20624 6.01122C7.37935 6.01122 5.89924 7.49198 5.89924 9.31822C5.89924 11.1451 7.38 12.6252 9.20624 12.6252C11.0331 12.6252 12.5132 11.1445 12.5132 9.31822C12.5132 7.49133 11.0325 6.01122 9.20624 6.01122ZM9.20624 5.10222C11.5346 5.10222 13.4221 6.98996 13.4221 9.31812C13.4221 11.6464 11.5344 13.534 9.20624 13.534C6.87808 13.534 4.99034 11.6463 4.99034 9.31812C4.99034 6.9898 6.87808 5.10222 9.20624 5.10222ZM12.1867 18.8391H6.3588C6.13694 18.8391 5.95438 19.0223 5.95438 19.2435V36.5761C5.95438 36.798 6.13757 36.9806 6.3588 36.9806H12.1867C12.4086 36.9806 12.5912 36.7974 12.5912 36.5761V19.2435C12.5912 19.0217 12.408 18.8391 12.1867 18.8391ZM6.3588 17.9301H12.1867C12.91 17.9301 13.5002 18.5203 13.5002 19.2435V26.8805C15.7485 26.4685 18.0293 26.1807 20.3074 25.9874V9.94374C20.3074 9.22048 20.8976 8.63032 21.6209 8.63032H27.4488C28.1721 8.63032 28.7622 9.22047 28.7622 9.94374V25.6851C35.9784 25.7618 42.4808 26.6733 47.2064 28.1039C52.1717 29.6075 55.2377 31.7323 55.2517 34.136C55.2967 35.3835 55.251 36.7261 55.2504 37.9844C55.2986 40.4438 54.6856 42.7702 53.6334 44.9895C50.6947 51.1882 44.7793 56.1465 39.9611 61.0953C37.5669 63.5541 34.0716 67.256 33.5093 70.9092C33.3629 71.86 33.5277 72.2543 32.3835 72.8312C31.0993 73.479 29.1012 73.6159 27.6693 73.6051C26.3793 73.595 22.9456 73.3864 22.2357 72.0337C22.0867 71.7504 22.1051 71.4734 22.0702 71.1672C21.598 66.993 17.3015 62.7093 12.676 58.0971C6.78085 52.219 0.364003 45.8207 0.305746 38.16L0.297505 34.1532C0.297505 31.78 3.16523 30.1585 5.04535 29.316V19.2436C5.04535 18.5203 5.63553 17.9301 6.3588 17.9301ZM13.5002 27.8029V30.715C15.7485 30.3029 18.0293 30.0152 20.3075 29.8218V26.8983C18.0261 27.0935 15.7518 27.3827 13.5002 27.8029ZM5.04535 33.151V30.3132C3.64509 30.9768 1.20592 32.3606 1.20592 34.1526C1.20592 34.4043 1.25219 34.6534 1.34284 34.9C1.57611 35.5345 1.55836 35.3392 1.97545 34.9855C2.87621 34.2217 3.99429 33.6214 5.04535 33.151ZM42.4173 47.6873C42.7101 47.6303 42.797 48.0759 42.5041 48.1329C38.8802 48.8441 35.1612 49.2353 31.4745 49.4115C31.1765 49.4254 31.1556 48.9728 31.4529 48.9589C35.1174 48.7839 38.8155 48.3947 42.4172 47.6879L42.4173 47.6873ZM0.0683727 56.0305C-0.141449 55.8194 0.179302 55.5 0.389758 55.711C0.851236 56.1769 1.3165 56.6397 1.78304 57.1011C1.99539 57.3103 1.67781 57.633 1.46546 57.4244C0.997658 56.9623 0.531116 56.4983 0.0683727 56.0312V56.0305ZM2.63378 58.5763C2.42143 58.3671 2.73901 58.0445 2.95135 58.253C4.34463 59.626 5.73404 61.0047 7.06015 62.4429C7.26237 62.6623 6.92831 62.9697 6.72673 62.7497C5.40571 61.3165 4.02128 59.9435 2.63367 58.5755L2.63378 58.5763ZM0.625626 52.2602C0.43419 52.032 0.782196 51.7404 0.973625 51.9693C1.41735 52.4986 1.8712 53.0183 2.33457 53.5305C2.53362 53.7511 2.19829 54.0541 1.99925 53.8342C1.53208 53.3182 1.07252 52.7946 0.625626 52.2608V52.2602ZM3.06868 54.9873C2.86457 54.7711 3.19292 54.4605 3.39702 54.6766C6.15505 57.59 9.12858 60.291 11.8449 63.2443C12.0471 63.4636 11.7131 63.771 11.5115 63.5511C8.79661 60.5996 5.82552 57.8987 3.06879 54.9867L3.06868 54.9873ZM54.922 55.7105C55.1319 55.4994 55.4532 55.8189 55.2434 56.03C54.7807 56.4972 54.3141 56.9612 53.8463 57.4233C53.634 57.6325 53.3164 57.3092 53.5288 57.1C53.9953 56.6385 54.4606 56.1764 54.922 55.7099V55.7105ZM52.3599 58.253C52.5722 58.0438 52.8898 58.3671 52.6775 58.5763C51.2899 59.9442 49.9055 61.3173 48.5844 62.7505C48.3822 62.9698 48.0488 62.663 48.251 62.4437C49.5771 61.0054 50.9671 59.6268 52.3598 58.2538L52.3599 58.253ZM54.3382 51.9693C54.5296 51.7411 54.877 52.032 54.6862 52.2602C54.2387 52.794 53.7797 53.3175 53.3125 53.8335C53.1129 54.0541 52.7775 53.7505 52.9772 53.5299C53.4406 53.0177 53.8951 52.4979 54.3382 51.9686V51.9693ZM51.9148 54.6767C52.1189 54.4605 52.4472 54.7711 52.2431 54.9873C49.4864 57.8993 46.5153 60.6004 43.8004 63.5517C43.5982 63.771 43.2648 63.4642 43.467 63.2449C46.1838 60.2916 49.1573 57.5899 51.9149 54.6772L51.9148 54.6767ZM36.3497 11.0441C34.5228 11.0441 33.0427 12.5249 33.0427 14.3511C33.0427 16.178 34.5234 17.6582 36.3497 17.6582C38.1766 17.6582 39.6567 16.1774 39.6567 14.3511C39.6567 12.5243 38.1759 11.0441 36.3497 11.0441ZM36.3497 10.1351C38.678 10.1351 40.5656 12.0229 40.5656 14.3511C40.5656 16.6794 38.6778 18.567 36.3497 18.567C34.0215 18.567 32.1338 16.6792 32.1338 14.3511C32.1338 12.0227 34.0215 10.1351 36.3497 10.1351ZM47.9859 0.909H42.158C41.9361 0.909 41.7536 1.09219 41.7536 1.31342V7.14137C41.7536 7.36323 41.9367 7.54579 42.158 7.54579H47.9859C48.2078 7.54579 48.3903 7.3626 48.3903 7.14137V1.31342C48.3903 1.09156 48.2071 0.909 47.9859 0.909ZM42.158 0H47.9859C48.7092 0 49.2993 0.590146 49.2993 1.31342V7.14137C49.2993 7.86463 48.7092 8.45479 47.9859 8.45479H42.158C41.4347 8.45479 40.8446 7.86464 40.8446 7.14137V1.31342C40.8446 0.590162 41.4347 0 42.158 0ZM32.5945 70.9061C33.1307 66.9677 36.7072 63.1372 39.3123 60.4616C44.0443 55.6009 49.9426 50.6585 52.8141 44.6005C53.4702 43.2167 53.9456 41.793 54.1814 40.3237C53.8194 40.7123 53.37 41.0869 52.8395 41.4463C46.8416 45.5102 34.0886 46.4553 27.0718 46.4553C19.7727 46.4553 13.1548 45.5336 8.35013 44.0637C5.16224 43.0881 2.75424 41.8514 1.4351 40.4557C2.60717 46.7748 8.16448 52.3163 13.3148 57.4507C18.0131 62.1358 22.3806 66.4906 22.9555 70.9392C22.9923 71.2219 22.9473 71.6219 23.1736 71.8311C23.9114 72.5144 26.9502 72.6912 27.673 72.6963C28.8983 72.7058 30.8679 72.5778 31.9752 72.0681C32.6624 71.7518 32.5121 71.5065 32.5939 70.9049L32.5945 70.9061ZM1.21209 38.1265C1.35218 40.032 4.15462 41.8316 8.61459 43.197C13.3326 44.6409 19.8565 45.5462 27.0734 45.5462C33.8654 45.5462 46.5301 44.6284 52.3331 40.697C53.6142 39.8292 54.3305 38.9082 54.3463 37.9776L54.3444 36.37C53.0646 37.8895 50.4923 39.2231 47.0115 40.2563C42.0805 41.72 35.2789 42.6252 27.7754 42.6252C20.272 42.6252 13.4706 41.7201 8.53934 40.2563C5.46244 39.3429 3.0955 38.195 1.7035 36.8911C1.13934 36.3624 1.2059 36.1475 1.20717 37.0274C1.2078 37.3944 1.20844 37.7608 1.21097 38.1272L1.21209 38.1265Z" fill="#234263"/>
</svg>
