<svg width="166" height="168" viewBox="0 0 166 168" fill="none" xmlns="http://www.w3.org/2000/svg">
<path d="M125.667 166.665C126.252 167.675 124.714 168.565 124.129 167.556C116.955 155.179 109.725 153.336 99.0642 150.62C77.8663 145.218 38.862 139.102 27.5789 117.934C24.5822 112.311 23.4484 105.923 24.5847 99.1928C27.7055 80.7083 23.0832 70.4429 16.2814 55.3415C14.9886 52.4702 13.8585 49.6996 12.7172 46.7575C10.1266 40.0798 5.86685 29.1028 1.02486 18.872C-3.89439 8.47968 10.0806 1.293 17.7941 9.9291C20.9908 13.5096 23.2001 18.6062 25.1611 23.1303C26.8761 27.0869 28.0596 29.0354 30.9307 32.3848C32.9786 34.7741 34.5099 38.8688 36.3158 42.9942C37.005 41.335 38.2966 38.0677 38.9709 36.4084C42.807 26.9724 46.4571 17.9923 53.6352 7.80632C58.6909 0.181212 70.6006 -4.6115 72.3864 8.48687C80.4487 2.09245 88.8129 7.36421 87.925 17.6409C87.5313 22.1974 86.5924 27.9683 87.4692 32.3547C90.3218 46.6404 102.99 52.651 111.521 56.6982C114.247 57.991 116.352 59.0355 118.858 60.7343C125.822 65.4561 133.572 70.7104 140.663 80.9037C143.821 85.4427 146.72 90.5073 149.562 95.4761C154.616 104.306 160.556 112.571 165.477 121.287C166.049 122.302 164.505 123.172 163.934 122.156C159.685 114.632 154.519 107.598 150.152 100.07C150.467 102.148 150.516 104.316 150.136 106.391C149.926 107.539 148.18 107.22 148.39 106.071C148.792 103.868 148.651 101.512 148.211 99.294C147.678 96.609 146.715 94.1499 145.747 92.4064C143.645 88.7827 141.487 85.201 139.203 81.9175C133.529 73.7633 127.394 68.8317 121.601 64.7658C123.513 69.6205 121.605 75.1543 117.078 77.7647C115.469 78.6937 113.658 79.4785 111.978 80.0573C111.929 80.0734 111.882 80.0896 111.835 80.1057C123.986 83.3434 122.421 97.9492 108.207 98.8756C103.543 99.1799 99.1328 99.1861 94.6371 97.6909C91.4578 98.811 87.1795 99.5202 83.778 99.2308C86.9735 103.804 82.0058 107.058 82.756 111.791C82.9385 112.944 81.1862 113.222 81.0037 112.07C80.2362 107.226 84.6251 103.74 82.2617 100.201C79.9021 106.089 76.3143 110.753 71.2946 114.625C70.3718 115.338 69.2864 113.934 70.2091 113.221C75.2536 109.33 78.7359 104.63 80.9528 98.6484C80.4225 98.4484 79.9543 98.1988 79.5656 97.8908C78.6515 97.1693 79.7506 95.7784 80.6646 96.4999C83.4837 98.7304 93.3307 96.906 96.0194 95.1177C96.9484 94.5029 97.9295 95.8429 97.0738 96.5446C100.726 97.4177 104.374 97.3469 108.096 97.1047C120.51 96.295 121.347 84.5988 111.516 81.8605C109.354 81.2582 107.295 81.3216 105.092 81.1601C95.2184 80.4386 79.3683 76.7515 70.7112 77.7052C64.8582 78.3498 61.3521 84.003 57.3297 90.4918C53.8748 96.0628 50.0547 102.224 44.0055 106.608C43.0592 107.293 42.016 105.854 42.9623 105.168C48.7358 100.985 52.4565 94.985 55.8195 89.5602C60.088 82.6765 63.8074 76.6779 70.5162 75.9391C79.3746 74.9642 95.0883 78.634 105.094 79.3816C106.768 79.507 107.602 79.4412 109.294 79.0115C109.946 78.8463 110.659 78.6314 111.403 78.3756C113.003 77.8242 114.71 77.0865 116.197 76.2284C121.299 73.2851 122.126 65.9728 117.673 62.2098C115.839 60.6599 113.137 59.8577 109.637 60.4923C99.5238 62.3253 96.9432 65.8398 85.1962 66.0884C80.5863 66.1865 76.0285 65.6475 71.5229 64.6975C66.4584 63.6294 61.1493 62.1851 56.0403 61.666C50.2394 61.0761 48.8002 62.5142 46.2244 67.463C41.8144 75.9402 36.1751 90.1015 33.9061 99.2294C33.6266 100.363 31.9029 99.9398 32.181 98.8047C34.4798 89.555 40.1775 75.23 44.6459 66.6435C47.0316 62.0584 48.8708 59.6256 54.349 59.7734C56.0131 53.4299 57.6274 46.4479 58.2 39.913C58.7539 33.5917 61.9668 28.875 65.044 24.3595C68.1673 19.7756 71.143 15.408 70.7456 9.88883C69.731 -1.99996 59.8755 1.93944 55.0878 8.82703C51.8428 13.4318 49.3255 17.7985 47.1846 22.0807C47.3423 22.878 48.3681 23.7336 49.6572 23.8653C50.3539 23.9336 50.2495 24.9942 49.5528 24.9246C48.409 24.8079 47.2839 24.1931 46.6021 23.2605C44.3543 27.8828 42.5088 32.423 40.6175 37.0752C39.5656 39.6646 38.4355 42.2488 37.4135 44.8421C37.7574 45.7835 38.5634 46.2852 39.4973 46.5423C40.1729 46.7286 39.8886 47.7556 39.2142 47.5694C38.3275 47.3247 37.5041 46.8801 36.9316 46.1474C34.7397 52.4725 34.2218 59.8665 33.6904 67.4706C33.2544 73.7013 32.8086 80.0721 31.4276 86.1957C31.1718 87.3345 29.4394 86.9446 29.6964 85.8057C31.0451 79.8284 31.486 73.5208 31.9182 67.3512C32.5702 59.0454 33.134 51.9579 35.3422 45.3139C33.5154 40.4357 31.7967 36.1214 29.5824 33.537C26.5857 30.0398 25.3216 27.9536 23.5345 23.8305C21.6282 19.4329 19.4797 14.4765 16.4731 11.1097C10.1368 4.01485 -1.41749 9.55606 2.63224 18.1126C5.1508 23.434 7.51524 28.963 9.56935 33.9878C9.92578 34.8584 10.1741 35.1341 11.1639 35.1776C11.8631 35.2074 11.8184 36.2717 11.118 36.2419C10.8857 36.232 10.6622 36.2034 10.4498 36.1562C11.9848 39.9614 13.3174 43.3941 14.373 46.1174C14.9443 47.5891 15.4336 48.8521 15.8298 49.8479C16.0334 50.3621 16.2011 50.8725 16.642 51.2426C17.1387 51.6599 17.7994 51.712 18.5284 51.676C19.2288 51.6437 19.2785 52.7068 18.5781 52.7403C17.9844 52.7701 17.4604 52.7316 16.9984 52.6025C17.2505 53.1626 17.5771 53.8891 17.9025 54.6106C24.8361 70.0052 29.549 80.4693 26.3373 99.4825C25.2681 105.815 26.3299 111.818 29.144 117.097C40.0765 137.607 79.481 143.836 100.067 148.992C106.075 150.497 114.627 152.64 120.866 151.547C122.018 151.346 122.325 153.099 121.171 153.3C118.634 153.744 115.778 153.693 112.873 153.376C117.508 155.823 121.582 159.619 125.667 166.663V166.665ZM145.855 133.385C145.463 133.966 144.578 133.369 144.971 132.789C147.034 129.734 148.499 126.263 149.391 122.692C149.561 122.012 150.595 122.27 150.425 122.951C149.505 126.633 147.982 130.236 145.855 133.385ZM9.38592 27.2332C8.80224 27.6169 8.21853 26.7277 8.80224 26.344C10.4788 25.2424 6.25017 17.8916 5.5149 16.5703C5.17463 15.9581 6.10481 15.4414 6.44509 16.0525C7.55782 18.0544 12.0285 25.4958 9.38589 27.232L9.38592 27.2332ZM70.03 53.4693C70.7292 53.4258 70.7963 54.4888 70.0971 54.5336C68.5956 54.6317 67.0843 54.3361 65.7419 53.6556C66.2312 54.3808 66.7453 55.0924 67.2806 55.7842C73.0105 63.1896 76.8332 64.4924 85.1625 64.316C96.4489 64.0763 99.4008 60.547 109.325 58.7472C109.979 58.628 110.611 58.5547 111.221 58.52C99.3871 52.9029 88.5306 46.7482 85.7252 32.701C84.8062 28.0962 85.7413 22.2565 86.1537 17.4867C86.9758 7.9639 79.2773 4.30395 72.5599 10.6936C72.6381 16.3692 69.6451 20.7629 66.512 25.3617C63.6109 29.619 60.5843 34.0598 59.9996 39.7888C60.1573 42.3011 61.3508 45.8529 63.2485 49.4791C64.7189 52.2895 66.7905 53.6805 70.0304 53.4694L70.03 53.4693ZM69.034 80.4903C68.9347 79.7961 69.9915 79.6458 70.0897 80.34C70.2673 81.5695 71.0571 83.061 72.0419 83.8308C72.5933 84.2606 71.9376 85.1001 71.3862 84.6691C70.1803 83.7265 69.2514 81.9969 69.034 80.4903ZM50.9321 64.1757C50.8575 63.479 51.9181 63.366 51.9914 64.0627C52.1156 65.2238 52.9278 66.4446 53.8244 67.1662C54.3696 67.6045 53.7027 68.4354 53.1563 67.997C52.0398 67.1003 51.0835 65.6175 50.9308 64.1755L50.9321 64.1757ZM96.8849 82.9841C96.9693 82.2874 98.0299 82.4165 97.9442 83.1133C97.7579 84.6234 98.1044 85.9361 98.8334 87.2561C99.1712 87.8709 98.2361 88.3838 97.8983 87.769C97.0674 86.2626 96.6713 84.7067 96.8849 82.9841ZM104.816 83.8211C104.863 83.122 105.926 83.1927 105.88 83.8919C105.545 88.7339 110.976 88.58 114.382 88.3664C115.081 88.3229 115.148 89.386 114.449 89.4307C110.283 89.6928 104.419 89.5512 104.817 83.8209L104.816 83.8211ZM91.4849 68.8043C91.4849 68.1051 92.5492 68.1051 92.5492 68.8043C92.5443 70.4982 93.1702 71.8979 93.9303 73.3694C94.2519 73.9928 93.3043 74.4809 92.9827 73.8574C92.1382 72.2206 91.4787 70.6871 91.4849 68.8043ZM101.904 66.8222C101.795 66.1305 102.846 65.9641 102.956 66.6558C103.239 68.4392 103.957 70.2598 105.732 71.0222C108.029 72.0095 111.236 70.9117 113.383 69.9442C114.023 69.6561 114.461 70.6285 113.821 70.9166C111.361 72.0257 107.932 73.1284 105.311 72.0021C103.167 71.0818 102.248 68.9917 101.905 66.8221L101.904 66.8222ZM53.424 14.9433C52.8949 14.485 53.5916 13.6803 54.1207 14.1373C55.1328 15.0103 56.2691 15.3494 57.5631 14.8241C59.7402 13.9398 61.5496 11.0363 62.5507 9.01685C62.8612 8.38844 63.8162 8.86037 63.5058 9.48877C62.3719 11.7788 60.4259 14.814 57.9631 15.8139C56.2853 16.4957 54.7441 16.0859 53.4228 14.9446L53.424 14.9433ZM138.863 134.489C138.377 134.995 137.61 134.256 138.096 133.75C142.661 129.015 145.371 122.338 146.123 115.857C146.203 115.161 147.263 115.281 147.182 115.978C146.403 122.689 143.587 129.588 138.863 134.489ZM72.0353 62.9944C69.8023 61.3924 67.7159 59.2515 65.8742 56.8731C62.9669 53.1152 60.6558 48.7326 59.358 44.9535C58.5706 49.9706 57.4318 54.9878 56.1514 59.8985C61.4481 60.4238 66.6827 61.8669 71.8836 62.9634L72.0339 62.9945L72.0353 62.9944Z" fill="#234263"/>
</svg>
