<svg width="76" height="78" viewBox="0 0 76 78" fill="none" xmlns="http://www.w3.org/2000/svg">
<path d="M15.6365 77.1397C15.1986 77.1397 15.1986 76.4736 15.6365 76.4736H27.0394C27.8307 61.011 28.6221 45.5485 29.4138 30.086C28.9836 29.9817 28.6763 29.8144 28.4914 29.6174C28.2581 29.3688 28.2647 29.1833 28.2455 28.8908L27.8378 22.7641C27.7418 21.2254 30.8526 20.489 31.9255 20.2772V13.2736C31.3992 13.2341 30.6452 13.1403 30.158 12.9927C27.9547 12.3259 28.8915 10.5535 30.5229 9.71992C31.6489 9.14428 33.0953 8.75797 33.7918 8.57415C34.6945 8.33654 36.8265 7.72689 35.8958 6.46696C35.2066 5.53355 35.3887 4.91074 36.2843 4.23026C37.1398 3.57999 37.2205 3.14868 37.2205 2.18123V0.33309C37.2205 0.149259 37.3697 0 37.5536 0C37.7374 0 37.8866 0.149259 37.8866 0.33309V2.15651C37.8866 3.12889 37.9508 3.5679 38.8228 4.23026C39.7184 4.91071 39.9011 5.53407 39.2113 6.46696C38.2806 7.72689 40.4125 8.3366 41.3153 8.57415C41.9771 8.74865 43.3522 9.17723 44.4481 9.76548C44.9908 10.0569 45.4715 10.3916 45.7794 10.7626C46.4768 11.6021 46.1465 12.6262 45.1439 12.9757C44.5024 13.199 43.8083 13.3362 43.13 13.3708V20.2718C44.3362 20.5198 47.064 21.1909 46.9624 22.8499L46.5964 28.84C46.5541 29.5282 46.3346 29.8327 45.6465 30.0401C46.4493 45.5181 47.2522 60.9961 48.055 76.4741H57.3975C57.8354 76.4741 57.8354 77.1402 57.3975 77.1402H15.6358L15.6365 77.1397ZM28.6209 16.4978C28.8399 16.4978 28.8399 16.8308 28.6209 16.8308H7.01527C6.79632 16.8308 6.79632 16.4978 7.01527 16.4978H28.6209ZM28.5765 18.0655C28.7872 18.0057 28.8778 18.3256 28.6676 18.3854L0.210753 26.5715C3.45143e-05 26.6314 -0.0905039 26.3114 0.119661 26.2516L28.5765 18.0655ZM28.6676 14.9431C28.8783 15.0029 28.7872 15.3228 28.5765 15.263L0.119661 7.07685C-0.0910573 7.01704 3.45143e-05 6.69713 0.210753 6.75694L28.6676 14.9431ZM47.0633 16.8308C46.8444 16.8308 46.8444 16.4977 47.0633 16.4977H68.669C68.8879 16.4977 68.8879 16.8308 68.669 16.8308H47.0633ZM47.0167 18.3854C46.806 18.3256 46.897 18.0056 47.1078 18.0655L75.5646 26.2516C75.7753 26.3114 75.6842 26.6313 75.4735 26.5715L47.0167 18.3854ZM47.1078 15.2629C46.897 15.3228 46.8065 15.0028 47.0167 14.943L75.4735 6.7569C75.6842 6.69709 75.7748 7.01701 75.5646 7.07681L47.1078 15.2629ZM37.3845 22.4411C37.3845 22.2222 37.7176 22.2222 37.7176 22.4411V25.2913C37.7176 25.5103 37.3845 25.5103 37.3845 25.2913V22.4411ZM42.7354 22.946C42.754 22.7276 43.086 22.7567 43.0673 22.9745L42.8259 25.7403C42.8072 25.9587 42.4752 25.9296 42.4939 25.7117L42.7354 22.946ZM32.0618 22.9696C32.0524 22.7512 32.3839 22.7369 32.3938 22.9553L32.5156 25.6711C32.5249 25.8895 32.1935 25.9037 32.1836 25.6853L32.0618 22.9696ZM44.7987 58.8816C44.7877 58.6632 45.1192 58.6468 45.1307 58.8646L45.804 71.8518C45.815 72.0702 45.4836 72.0866 45.472 71.8688L44.7987 58.8816ZM39.0681 57.6239V61.1678C39.0681 61.4383 38.8481 61.6584 38.5776 61.6584H36.4879C36.2174 61.6584 35.9974 61.4383 35.9974 61.1678V57.6239C35.9974 55.604 39.0675 55.604 39.0675 57.6239H39.0681ZM36.6636 57.6239V60.9922H38.402V57.6239C38.402 56.4809 36.6636 56.4809 36.6636 57.6239ZM39.0681 45.0367V48.5806C39.0671 48.884 38.892 49.0712 38.5776 49.0712H36.4879C36.2174 49.0712 35.9974 48.8511 35.9974 48.5806V45.0367C35.9974 43.0168 39.0675 43.0168 39.0675 45.0367H39.0681ZM36.6636 45.0367V48.405H38.402V45.0367C38.402 43.8937 36.6636 43.8937 36.6636 45.0367ZM39.0681 32.843V36.3869C39.0681 36.6574 38.8481 36.8774 38.5776 36.8774H36.4879C36.2174 36.8774 35.9974 36.6574 35.9974 36.3869V32.843C35.9974 30.8231 39.0675 30.8231 39.0675 32.843H39.0681ZM36.6636 32.843V36.2113H38.402V32.843C38.402 31.7 36.6636 31.7 36.6636 32.843ZM32.5617 20.8321C30.2119 21.2134 28.5031 21.8604 28.5022 22.7423L28.8649 28.1957C29.086 28.0667 29.3692 27.9575 29.7116 27.8801C34.3189 26.8397 40.8155 26.7426 45.3975 27.9312C45.6208 27.9893 45.8123 28.0667 45.972 28.1584L46.2985 22.8119C46.36 21.811 44.6479 21.2458 43.1124 20.9368C39.825 20.275 35.8865 20.2925 32.5612 20.8319L32.5617 20.8321ZM37.2145 19.7916V11.0649C35.6089 11.071 34.012 11.1599 32.5908 11.3234V20.1577C34.1097 19.9102 35.6781 19.8081 37.2145 19.7922V19.7916ZM37.8807 11.0672V19.7906C39.4024 19.8016 40.9603 19.8971 42.4638 20.1479V11.3723C41.0601 11.1824 39.4775 11.0831 37.8807 11.0667V11.0672ZM37.3095 4.20844C37.1136 4.43177 36.8913 4.60025 36.6839 4.75774C36.0967 5.20387 35.97 5.45135 36.4276 6.07089C37.7759 7.896 35.368 8.84535 33.9594 9.21636C33.2839 9.39415 31.8819 9.76895 30.8234 10.31C30.2538 10.6014 29.7851 10.94 29.6304 11.312C30.0315 11.0799 30.5611 10.9504 31.0171 10.873C34.5521 10.2722 38.9492 10.2321 42.5231 10.71C43.0527 10.7808 43.5789 10.8664 44.1024 10.9751C44.4328 11.0437 44.7132 11.1276 44.9491 11.2116C45.3107 11.3406 45.5774 11.4218 45.0342 10.9482C44.7938 10.7386 44.4805 10.5372 44.1331 10.3506C43.0938 9.79253 41.7795 9.38318 41.1457 9.21636C39.7371 8.84541 37.3292 7.89608 38.6775 6.07089C39.1351 5.45135 39.0084 5.20387 38.4212 4.75774C38.2122 4.5986 37.9877 4.42848 37.7907 4.20186C37.445 3.80567 37.659 3.81005 37.3095 4.2079L37.3095 4.20844ZM44.8936 11.904C44.6731 11.8041 44.3668 11.7092 43.9668 11.6258C43.6985 11.5698 43.4186 11.5182 43.1294 11.471V12.703C43.7303 12.669 44.3564 12.546 44.9249 12.3479C45.4012 12.1822 45.3266 12.0999 44.8931 11.9035L44.8936 11.904ZM30.3484 12.3551C30.782 12.4862 31.4547 12.568 31.9239 12.6064V11.4074C31.649 11.4453 31.3829 11.4859 31.1255 11.5298C30.642 11.6121 28.9739 12.0094 30.3485 12.3556L30.3484 12.3551ZM30.0614 29.4191C32.9078 28.4588 42.0499 28.3353 44.9283 29.3571C45.2422 29.4685 45.1703 29.5003 45.5117 29.3872C46.0999 29.1924 46.056 28.788 45.2301 28.574C40.7475 27.4112 34.3628 27.5105 29.8561 28.5279C28.0771 28.9296 29.3305 29.666 30.0614 29.4191ZM44.9831 30.0913C42.8639 28.9504 32.3971 29.1441 30.0755 30.1209L29.591 39.5857C34.2421 38.4981 40.8584 38.8575 45.4777 39.6181L44.9831 30.0913ZM29.5557 40.2771L28.8802 53.4701C34.343 52.8637 40.7309 52.8763 46.1957 53.4712L45.5125 40.2985C40.931 39.528 34.1677 39.1445 29.5555 40.2771L29.5557 40.2771ZM28.8462 54.1434L27.7032 76.4725H34.8374V68.49C34.8374 66.9464 40.2568 66.9464 40.2568 68.49V76.4725H47.3893L46.2315 54.1434C40.7571 53.5376 34.3176 53.5239 28.8458 54.1428L28.8462 54.1434ZM35.5036 76.4725H39.5913V68.6063C39.5913 68.2847 38.6255 67.9774 37.4671 67.9867C36.318 67.9961 35.5042 68.3012 35.5042 68.6063V76.4725H35.5036ZM60.6648 77.1387C60.2269 77.1387 60.2269 76.4725 60.6648 76.4725H65.2886C65.7265 76.4725 65.7265 77.1387 65.2886 77.1387H60.6648Z" fill="#234263"/>
</svg>
