<svg width="172" height="35" viewBox="0 0 172 35" fill="none" xmlns="http://www.w3.org/2000/svg">
<path d="M26.2745 34.3137L23.0882 25.8824H6.81373L3.62745 34.3137H0L13.1863 0H16.7157L29.902 34.3137H26.2745ZM8.03922 22.6471H21.8627L14.951 4.26471L8.03922 22.6471Z" fill="#F47421"/>
<path d="M54.4175 0H57.6528V34.3137H54.4175V29.5098C52.1626 33.1046 48.862 34.902 44.5155 34.902C41.0188 34.902 38.0286 33.6601 35.545 31.1765C33.094 28.6928 31.8685 25.6536 31.8685 22.0588C31.8685 18.4641 33.094 15.4248 35.545 12.9412C38.0286 10.4575 41.0188 9.21569 44.5155 9.21569C48.862 9.21569 52.1626 11.0131 54.4175 14.6078V0ZM37.8979 28.9706C39.7606 30.8333 42.0482 31.7647 44.7606 31.7647C47.4731 31.7647 49.7607 30.8333 51.6234 28.9706C53.4861 27.0752 54.4175 24.7712 54.4175 22.0588C54.4175 19.3464 53.4861 17.0588 51.6234 15.1961C49.7607 13.3007 47.4731 12.3529 44.7606 12.3529C42.0482 12.3529 39.7606 13.3007 37.8979 15.1961C36.0352 17.0588 35.1038 19.3464 35.1038 22.0588C35.1038 24.7712 36.0352 27.0752 37.8979 28.9706Z" fill="#F47421"/>
<path d="M90.3362 9.90196C89.8787 12.7451 88.4245 15.0163 85.9735 16.7157C88.4898 18.4804 89.5193 21.1111 89.0617 24.6078C88.6369 27.549 87.297 29.902 85.0421 31.6667C82.8199 33.4314 79.8951 34.3137 76.2676 34.3137H62.101L68.1304 0H81.1206C84.0944 0 86.4964 0.931373 88.3264 2.79412C90.1238 4.62418 90.7938 6.99346 90.3362 9.90196ZM80.3362 6.32353H73.7676L72.4441 13.8725H79.0617C80.2055 13.8725 81.1859 13.5131 82.0029 12.7941C82.8526 12.0752 83.3755 11.1765 83.5715 10.098C83.7676 9.01961 83.5715 8.12092 82.9833 7.40196C82.3951 6.68301 81.5127 6.32353 80.3362 6.32353ZM82.4441 23.9216C82.6402 22.7451 82.4277 21.781 81.8068 21.0294C81.1859 20.2778 80.2545 19.902 79.0127 19.902H71.4147L69.9931 27.9902H77.4931C78.7676 27.9902 79.846 27.6144 80.7284 26.8627C81.6434 26.0784 82.2153 25.098 82.4441 23.9216Z" fill="#F47421"/>
<path d="M114.366 13.0882L114.954 9.80392H121.278L116.964 34.3137H110.641L111.033 32.0588C108.909 34.0196 106.196 35 102.896 35C99.2355 35 96.4904 33.6438 94.6603 30.9314C92.8629 28.2516 92.3074 25.098 92.9936 21.4706C93.6472 17.9739 95.2159 15.049 97.6995 12.6961C100.216 10.3105 103.255 9.11765 106.817 9.11765C110.281 9.11765 112.798 10.4412 114.366 13.0882ZM104.856 28.9706C106.752 28.9706 108.435 28.366 109.905 27.1569C111.376 25.9477 112.324 24.3791 112.749 22.451L112.847 21.6667C113.108 19.7059 112.7 18.1373 111.621 16.9608C110.543 15.7516 109.056 15.1471 107.16 15.1471C105.2 15.1471 103.484 15.768 102.013 17.0098C100.575 18.2516 99.6767 19.9183 99.3172 22.0098C98.9577 24.0686 99.3008 25.7516 100.347 27.0588C101.392 28.3333 102.896 28.9706 104.856 28.9706Z" fill="#F47421"/>
<path d="M131.918 35C126.918 35 123.601 32.9902 121.967 28.9706L127.653 26.1275C128.274 28.219 129.875 29.2647 132.457 29.2647C134.581 29.2647 135.774 28.6274 136.035 27.3529C136.133 26.732 135.823 26.2091 135.104 25.7843C134.418 25.3595 133.355 24.9346 131.918 24.5098C130.872 24.2484 129.957 23.9542 129.172 23.6275C128.388 23.268 127.587 22.7941 126.77 22.2059C125.986 21.585 125.431 20.7843 125.104 19.8039C124.777 18.7908 124.728 17.6307 124.957 16.3235C125.414 14.0033 126.574 12.2386 128.437 11.0294C130.365 9.7549 132.522 9.11765 134.908 9.11765C137.032 9.11765 138.895 9.57516 140.496 10.4902C142.097 11.4052 143.274 12.6797 144.025 14.3137L138.339 17.1569C137.751 15.5229 136.493 14.7059 134.565 14.7059C132.669 14.7059 131.574 15.4085 131.28 16.8137C131.182 17.5 131.476 18.0719 132.163 18.5294C132.849 18.9542 133.895 19.3464 135.3 19.7059C136.411 19.9673 137.342 20.2451 138.094 20.5392C138.878 20.8333 139.679 21.2908 140.496 21.9118C141.346 22.5 141.917 23.3007 142.212 24.3137C142.538 25.2941 142.571 26.4706 142.31 27.8431C141.918 30.1634 140.79 31.9444 138.927 33.1863C137.065 34.3954 134.728 35 131.918 35Z" fill="#F47421"/>
<path d="M163.326 9.11765C166.038 9.11765 168.162 10.0327 169.698 11.8627C171.201 13.6601 171.675 16.1274 171.12 19.2647L168.473 34.3137H162.149L164.649 20.049C164.943 18.415 164.731 17.1732 164.012 16.3235C163.293 15.4412 162.182 15 160.679 15C159.143 15 157.819 15.4575 156.708 16.3725C155.597 17.2549 154.813 18.5784 154.355 20.3431L151.904 34.3137H145.581L151.61 0H157.934L155.728 12.5C157.623 10.2451 160.156 9.11765 163.326 9.11765Z" fill="#F47421"/>
</svg>
