<svg width="134" height="173" viewBox="0 0 134 173" fill="none" xmlns="http://www.w3.org/2000/svg">
<path d="M41.7928 27.5638C41.3375 27.6066 40.9337 27.2725 40.8909 26.8173C40.848 26.362 41.1821 25.9582 41.6373 25.9154C42.7143 25.8138 43.6957 25.7269 44.578 25.6547C45.5252 25.5776 46.5238 25.5029 47.5738 25.4295C48.0303 25.3989 48.4256 25.7452 48.4562 26.2017C48.4867 26.6582 48.1404 27.0535 47.684 27.084C46.7197 27.1513 45.7272 27.226 44.7078 27.3092C43.6137 27.3985 42.642 27.483 41.7928 27.5638ZM63.1302 165.788L66.3498 165.78V155.419C66.3498 154.96 66.7218 154.588 67.1807 154.588C67.6396 154.588 68.0117 154.96 68.0117 155.419V165.777L71.1765 165.769C71.7015 165.773 71.7308 166.135 71.5179 166.415L67.5812 172.168C67.3193 172.529 66.9693 172.554 66.6952 172.167L62.7863 166.437C62.5636 166.141 62.604 165.775 63.129 165.788L63.1302 165.788ZM68.0118 107.73C68.0106 107.147 67.4305 106.748 66.8859 106.953C66.5616 107.078 66.3511 107.382 66.3499 107.73V111.054C66.3511 111.636 66.9312 112.035 67.4758 111.831C67.8001 111.706 68.0106 111.401 68.0118 111.054V107.73ZM66.3499 144.287C66.3511 144.87 66.9312 145.268 67.4758 145.064C67.8001 144.939 68.0106 144.635 68.0118 144.287V142.816C68.0106 142.234 67.4305 141.835 66.8859 142.039C66.5616 142.164 66.3511 142.469 66.3499 142.816V144.287ZM66.3499 137.633C66.3511 138.216 66.9312 138.615 67.4758 138.411C67.8001 138.286 68.0106 137.981 68.0118 137.633V132.655C68.0106 132.073 67.4305 131.674 66.8859 131.878C66.5616 132.003 66.3511 132.308 66.3499 132.655V137.633ZM66.3499 127.671C66.3511 128.253 66.9312 128.652 67.4758 128.448C67.8001 128.323 68.0106 128.018 68.0118 127.671V124.347C68.0106 123.765 67.4305 123.366 66.8859 123.57C66.5616 123.695 66.3511 124 66.3499 124.347V127.671ZM66.3499 119.362C66.3511 119.945 66.9312 120.344 67.4758 120.14C67.8001 120.015 68.0106 119.71 68.0118 119.362V116.039C68.0106 115.458 67.4305 115.057 66.8859 115.262C66.5616 115.387 66.3511 115.691 66.3499 116.039V119.362ZM82.4668 60.1299C82.4668 59.671 82.8388 59.299 83.2977 59.299C83.7566 59.299 84.1286 59.671 84.1286 60.1299V81.1174C88.0519 81.5409 91.612 82.105 94.6713 82.7793C102.145 84.4265 106.767 86.8557 106.767 89.6778C106.767 92.4998 102.145 94.9303 94.6713 96.5763C87.5466 98.1464 77.7148 99.1169 66.8648 99.1169C56.0149 99.1169 46.1831 98.1464 39.0584 96.5763C31.585 94.9291 26.9628 92.4999 26.9628 89.6778C26.9628 86.8558 31.585 84.4253 39.0584 82.7793C42.2818 82.0695 46.0584 81.4809 50.2338 81.0514V78.3725C50.2351 77.992 50.4456 77.6591 50.7698 77.522C51.3157 77.2981 51.8945 77.735 51.8957 78.3725V80.8898C56.3625 80.4835 61.2404 80.2535 66.351 80.2388V80.0516C66.3522 79.704 66.5627 79.3993 66.887 79.2745C67.4328 79.0689 68.0116 79.469 68.0128 80.0516V80.2425C73.1356 80.2743 78.0135 80.5239 82.4681 80.9498V60.1312L82.4668 60.1299ZM84.1287 82.7878V87.5629C84.1287 88.0218 83.7566 88.3938 83.2978 88.3938C82.8389 88.3938 82.4668 88.0218 82.4668 87.5629V82.6165C78.0173 82.1869 73.1294 81.9348 67.9897 81.903C67.9273 82.1686 67.7388 82.3877 67.4757 82.4892C66.9911 82.6716 66.4808 82.3766 66.3707 81.9006C61.2431 81.9141 56.3565 82.1478 51.8935 82.5578V87.465C51.8923 87.8456 51.6818 88.1785 51.3575 88.3156C50.8129 88.5395 50.2329 88.1026 50.2316 87.465V82.7204C46.1909 83.1426 42.5368 83.7141 39.4136 84.4018C32.7466 85.8703 28.6226 87.7464 28.6226 89.6775C28.6226 91.6099 32.7466 93.4846 39.4136 94.9532C46.4296 96.4988 56.1339 97.4558 66.8626 97.4558C77.5913 97.4558 87.2959 96.5001 94.3116 94.9532C100.979 93.4847 105.103 91.6086 105.103 89.6775C105.103 87.7452 100.979 85.8705 94.3116 84.4018C91.3525 83.7496 87.9162 83.2025 84.1261 82.7877L84.1287 82.7878ZM68.0118 60.1102C68.0106 59.5289 67.4305 59.1287 66.8859 59.3331C66.5616 59.4579 66.3511 59.7626 66.3499 60.1102V61.7721C66.3511 62.3546 66.9312 62.7535 67.4758 62.5492C67.8001 62.4243 68.0106 62.1196 68.0118 61.7721V60.1102ZM66.3499 87.5432C66.3511 88.1257 66.9312 88.5246 67.4758 88.3203C67.8001 88.1955 68.0106 87.8907 68.0118 87.5432V86.6964C68.0106 86.1138 67.4305 85.7149 66.8859 85.9193C66.5616 86.0441 66.3511 86.3488 66.3499 86.6964V87.5432ZM66.3499 75.0645C66.3511 75.647 66.9312 76.0459 67.4758 75.8416C67.8001 75.7168 68.0106 75.412 68.0118 75.0645V73.4026C68.0106 72.8201 67.4305 72.4211 66.8859 72.6255C66.5616 72.7503 66.3511 73.055 66.3499 73.4026V75.0645ZM66.3499 68.4182C66.3511 68.9995 66.9312 69.3996 67.4758 69.1953C67.8001 69.0704 68.0106 68.7657 68.0118 68.4182V66.7563C68.0106 66.1738 67.4305 65.7748 66.8859 65.9792C66.5616 66.104 66.3511 66.4087 66.3499 66.7563V68.4182ZM51.8947 60.1847C51.8935 59.5484 51.3134 59.1103 50.7688 59.3342C50.4445 59.4713 50.234 59.8042 50.2328 60.1847V69.2772C50.234 69.9135 50.8141 70.3516 51.3587 70.1277C51.683 69.9906 51.8935 69.6578 51.8947 69.2772V60.1847ZM98.5395 0.83314C98.5383 0.250621 97.9582 -0.148315 97.4136 0.0560401C97.0893 0.180865 96.8789 0.485583 96.8776 0.83314V4.15677C96.8789 4.73929 97.4589 5.13822 98.0035 4.93387C98.3278 4.80904 98.5383 4.50432 98.5395 4.15677V0.83314ZM96.8776 39.0506C96.8789 39.6319 97.4589 40.0321 98.0035 39.8277C98.3278 39.7029 98.5383 39.3982 98.5395 39.0506V35.727C98.5383 35.1457 97.9582 34.7455 97.4136 34.9499C97.0893 35.0747 96.8789 35.3794 96.8776 35.727V39.0506ZM96.8776 27.4187C96.8789 28 97.4589 28.4002 98.0035 28.1958C98.3278 28.071 98.5383 27.7663 98.5395 27.4187V24.0951C98.5383 23.5126 97.9582 23.1136 97.4136 23.318C97.0893 23.4428 96.8789 23.7475 96.8776 24.0951V27.4187ZM96.8776 15.7868C96.8789 16.3681 97.4589 16.7683 98.0035 16.5639C98.3278 16.4391 98.5383 16.1344 98.5395 15.7868V12.4632C98.5383 11.8807 97.9582 11.4817 97.4136 11.6861C97.0893 11.8109 96.8789 12.1156 96.8776 12.4632V15.7868ZM83.1997 0.885146C83.1984 0.278158 82.6184 -0.139136 82.0738 0.0750251C81.7495 0.204743 81.539 0.522927 81.5378 0.885146V4.35194C81.539 4.95893 82.1191 5.37622 82.6637 5.16206C82.988 5.03235 83.1984 4.71416 83.1997 4.35194V0.885146ZM81.5378 39.0212C81.539 39.6282 82.1191 40.0455 82.6637 39.8313C82.988 39.7016 83.1984 39.3834 83.1997 39.0212V35.5544C83.1984 34.9474 82.6184 34.5301 82.0738 34.7443C81.7495 34.874 81.539 35.1922 81.5378 35.5544V39.0212ZM81.5378 30.3532C81.539 30.9602 82.1191 31.3775 82.6637 31.1634C82.988 31.0336 83.1984 30.7155 83.1997 30.3532V26.8864C83.1984 26.2795 82.6184 25.8622 82.0738 26.0763C81.7495 26.206 81.539 26.5242 81.5378 26.8864V30.3532ZM81.5378 21.6853C81.539 22.2923 82.1191 22.7096 82.6637 22.4954C82.988 22.3657 83.1984 22.0475 83.1997 21.6853V18.2185C83.1984 17.6115 82.6184 17.1942 82.0738 17.4084C81.7495 17.5381 81.539 17.8563 81.5378 18.2185V21.6853ZM81.5378 13.0174C81.539 13.6244 82.1191 14.0417 82.6637 13.8275C82.988 13.6978 83.1984 13.3796 83.1997 13.0174V9.55057C83.1984 8.94359 82.6184 8.52629 82.0738 8.74045C81.7495 8.87017 81.539 9.18836 81.5378 9.55057V13.0174ZM67.872 0.778629C67.8708 0.24141 67.2907 -0.128171 66.7462 0.0614912C66.4219 0.176526 66.2114 0.457983 66.2102 0.778629V2.312C66.2114 2.84922 66.7915 3.2188 67.336 3.02913C67.6604 2.9141 67.8708 2.63264 67.872 2.312V0.778629ZM66.2102 39.1152C66.2114 39.6524 66.7915 40.022 67.336 39.8323C67.6604 39.7173 67.8708 39.4358 67.872 39.1152V37.5818C67.8708 37.0446 67.2907 36.675 66.7462 36.8647C66.4219 36.9797 66.2114 37.2611 66.2102 37.5818V39.1152ZM66.2102 32.9817C66.2114 33.5189 66.7915 33.8885 67.336 33.6988C67.6604 33.5838 67.8708 33.3023 67.872 32.9817V31.4483C67.8708 30.9111 67.2907 30.5415 66.7462 30.7312C66.4219 30.8462 66.2114 31.1277 66.2102 31.4483V32.9817ZM66.2102 26.8482C66.2114 27.3854 66.7915 27.755 67.336 27.5654C67.6604 27.4503 67.8708 27.1689 67.872 26.8482V25.3149C67.8708 24.7776 67.2907 24.4081 66.7462 24.5977C66.4219 24.7128 66.2114 24.9942 66.2102 25.3149V26.8482ZM66.2102 20.7148C66.2114 21.252 66.7915 21.6216 67.336 21.4319C67.6604 21.3169 67.8708 21.0354 67.872 20.7148V19.1814C67.8708 18.6442 67.2907 18.2746 66.7462 18.4642C66.4219 18.5793 66.2114 18.8607 66.2102 19.1814V20.7148ZM66.2102 14.5813C66.2114 15.1185 66.7915 15.4881 67.336 15.2984C67.6604 15.1834 67.8708 14.9019 67.872 14.5813V13.0479C67.8708 12.5107 67.2907 12.1411 66.7462 12.3308C66.4219 12.4458 66.2114 12.7273 66.2102 13.0479V14.5813ZM66.2102 8.44781C66.2114 8.98503 66.7915 9.35462 67.336 9.16495C67.6604 9.04992 67.8708 8.76846 67.872 8.44781V6.91445C67.8708 6.37723 67.2907 6.00765 66.7462 6.19731C66.4219 6.31234 66.2114 6.5938 66.2102 6.91445V8.44781ZM53.2678 0.831261C53.2666 0.248741 52.6865 -0.150195 52.1419 0.0541604C51.8176 0.178985 51.6071 0.483704 51.6059 0.831261V2.49314C51.6071 2.96062 51.9816 3.31184 52.4124 3.32406C52.323 3.32651 52.2312 3.34364 52.1419 3.37791C51.8176 3.50273 51.6071 3.80745 51.6059 4.15501V5.81688C51.6071 6.28437 51.9816 6.63559 52.4124 6.64781C52.323 6.65025 52.2313 6.66739 52.1419 6.70165C51.8176 6.82648 51.6071 7.1312 51.6059 7.47875V9.14063C51.6071 9.60811 51.9816 9.95933 52.4124 9.97155C52.323 9.974 52.2313 9.99113 52.1419 10.0254C51.8176 10.1502 51.6072 10.4549 51.6059 10.8025V12.4644C51.6072 12.9319 51.9816 13.2831 52.4124 13.2953C52.323 13.2977 52.2313 13.3149 52.1419 13.3491C51.8176 13.474 51.6072 13.7787 51.6059 14.1262V15.7881C51.6072 16.2556 51.9816 16.6068 52.4124 16.619C52.3231 16.6215 52.2325 16.6386 52.1419 16.6729C51.8176 16.7977 51.6072 17.1024 51.6059 17.45V19.1119C51.6072 19.5793 51.9816 19.9306 52.4124 19.9428C52.3231 19.9452 52.2313 19.9624 52.1419 19.9966C51.8176 20.1215 51.6072 20.4262 51.6059 20.7737V22.4356C51.6072 22.9031 51.9816 23.2543 52.4124 23.2665C52.3231 23.269 52.2313 23.2861 52.1419 23.3204C51.8176 23.4452 51.6072 23.7499 51.6059 24.0975V25.7594C51.6072 26.2268 51.9816 26.5781 52.4124 26.5903C52.3231 26.5927 52.2313 26.6099 52.142 26.6441C51.8176 26.769 51.6072 27.0737 51.606 27.4212V29.0831C51.6072 29.5506 51.9817 29.9018 52.4124 29.914C52.3231 29.9165 52.2313 29.9336 52.142 29.9679C51.8177 30.0927 51.6072 30.3974 51.606 30.745V32.4069C51.6072 32.8743 51.9817 33.2256 52.4124 33.2378C52.3231 33.2402 52.2313 33.2574 52.142 33.2916C51.8177 33.4164 51.6072 33.7212 51.606 34.0687V35.7306C51.6072 36.1981 51.9817 36.5493 52.4124 36.5615C52.3231 36.564 52.2313 36.5811 52.142 36.6154C51.8177 36.7402 51.6072 37.0449 51.606 37.3925V39.0543C51.6072 39.6369 52.1873 40.0358 52.7319 39.8314C53.0562 39.7066 53.2666 39.4019 53.2679 39.0543V37.3925C53.2666 36.925 52.8922 36.5738 52.4614 36.5615C52.5507 36.5591 52.6425 36.542 52.7318 36.5077C53.0562 36.3829 53.2666 36.0782 53.2678 35.7306V34.0687C53.2666 33.6012 52.8922 33.25 52.4614 33.2378C52.5507 33.2354 52.6425 33.2182 52.7318 33.184C53.0562 33.0591 53.2666 32.7544 53.2678 32.4069V30.745C53.2666 30.2775 52.8922 29.9263 52.4614 29.9141C52.5507 29.9116 52.6425 29.8945 52.7318 29.8602C53.0562 29.7354 53.2666 29.4307 53.2678 29.0831V27.4212C53.2666 26.9537 52.8921 26.6025 52.4614 26.5903C52.5507 26.5879 52.6425 26.5707 52.7318 26.5365C53.0561 26.4116 53.2666 26.1069 53.2678 25.7594V24.0975C53.2666 23.63 52.8921 23.2788 52.4614 23.2666C52.5507 23.2641 52.6425 23.247 52.7318 23.2127C53.0561 23.0879 53.2666 22.7832 53.2678 22.4356V20.7737C53.2666 20.3063 52.8921 19.955 52.4614 19.9428C52.5507 19.9404 52.6425 19.9232 52.7318 19.889C53.0561 19.7641 53.2666 19.4594 53.2678 19.1119V17.45C53.2666 16.9825 52.8921 16.6313 52.4614 16.6191C52.5507 16.6166 52.6413 16.5995 52.7318 16.5652C53.0561 16.4404 53.2666 16.1357 53.2678 15.7881V14.1262C53.2666 13.6588 52.8921 13.3075 52.4614 13.2953C52.5507 13.2929 52.6425 13.2757 52.7318 13.2415C53.0561 13.1167 53.2666 12.8119 53.2678 12.4644V10.8025C53.2666 10.335 52.8921 9.98379 52.4613 9.97158C52.5507 9.96913 52.6425 9.952 52.7318 9.91773C53.0561 9.7929 53.2666 9.48819 53.2678 9.14063V7.47875C53.2666 7.01127 52.8921 6.66005 52.4613 6.64783C52.5507 6.64538 52.6425 6.62825 52.7318 6.59398C53.0561 6.46916 53.2666 6.16444 53.2678 5.81688V4.15501C53.2666 3.68753 52.8921 3.3363 52.4613 3.32408C52.5507 3.32164 52.6425 3.3045 52.7318 3.27024C53.0561 3.14541 53.2666 2.84069 53.2678 2.49314V0.831261ZM36.1876 0.831261C36.1876 0.372363 36.5596 0.00033824 37.0185 0.00033824C37.4774 0.00033824 37.8494 0.372363 37.8494 0.831261V39.0644C37.8494 39.5233 37.4774 39.8953 37.0185 39.8953C36.5596 39.8953 36.1876 39.5233 36.1876 39.0644V0.831261ZM131.99 41.5863C132.172 41.1666 132.66 40.9757 133.08 41.158C133.5 41.3404 133.691 41.8286 133.508 42.2484L89.0942 143.323C88.9118 143.743 88.4236 143.934 88.0038 143.751C87.5841 143.569 87.3932 143.081 87.5755 142.661L131.99 41.5863ZM0.0690777 41.9021C-0.113263 41.4823 0.0776449 40.9941 0.4974 40.8117C0.917138 40.6293 1.40542 40.8203 1.58778 41.24L46.2088 142.797C46.3911 143.217 46.2002 143.705 45.7805 143.888C45.3607 144.07 44.8724 143.879 44.6901 143.459L0.0690777 41.9021ZM66.8643 139.656C71.4216 139.656 75.5642 140.141 78.5795 140.924C81.9094 141.789 83.969 143.122 83.969 144.716C83.969 146.311 81.9094 147.643 78.5795 148.508C75.5654 149.292 71.4216 149.776 66.8643 149.776C62.307 149.776 58.1644 149.292 55.1491 148.508C51.8192 147.643 49.7596 146.311 49.7596 144.716C49.7596 143.122 51.8192 141.789 55.1491 140.924C58.1632 140.141 62.307 139.656 66.8643 139.656ZM78.1632 142.527C75.2873 141.779 71.2941 141.318 66.8643 141.318C62.4345 141.318 58.4398 141.78 55.5654 142.527C53.0053 143.193 51.4216 143.975 51.4216 144.716C51.4216 145.458 53.0052 146.24 55.5654 146.906C58.4413 147.653 62.4345 148.115 66.8643 148.115C71.2941 148.115 75.2888 147.652 78.1632 146.906C80.7233 146.24 82.307 145.458 82.307 144.716C82.307 143.975 80.7234 143.193 78.1632 142.527ZM57.1597 26.5963C56.7033 26.611 56.3202 26.2512 56.3067 25.7947C56.292 25.3383 56.6518 24.9552 57.1083 24.9418C58.0163 24.9112 58.944 24.8855 59.8911 24.8622C60.8065 24.8402 61.7415 24.8231 62.6948 24.8096C63.1512 24.8047 63.5269 25.1706 63.5318 25.6271C63.5368 26.0836 63.1708 26.4592 62.7144 26.4641C61.7929 26.4776 60.864 26.4947 59.9303 26.5168C59.0137 26.5388 58.0898 26.5645 57.1609 26.5963H57.1597ZM71.4251 26.4703C70.9686 26.4654 70.6015 26.0897 70.6076 25.6332C70.6125 25.1767 70.9882 24.8096 71.4447 24.8157C72.4947 24.8316 73.5238 24.8537 74.5335 24.8794C75.5822 24.9063 76.6028 24.9393 77.5977 24.976C78.0542 24.9919 78.4128 25.3762 78.3956 25.8327C78.3797 26.2903 77.9955 26.6477 77.539 26.6306C76.5135 26.5926 75.499 26.5608 74.4943 26.5339C73.4663 26.507 72.4433 26.4862 71.4251 26.4703ZM86.8556 27.1384C86.3991 27.1066 86.054 26.7089 86.0858 26.2524C86.1176 25.796 86.5154 25.4509 86.9718 25.4827C87.9631 25.5549 88.9005 25.6283 89.784 25.7018C90.5856 25.7691 91.5059 25.8535 92.5436 25.9539C92.9989 25.9967 93.3329 26.4005 93.2901 26.8558C93.2473 27.311 92.8434 27.6451 92.3882 27.6023C91.616 27.5276 90.7031 27.4456 89.6482 27.3575C88.6851 27.2767 87.7538 27.2033 86.8556 27.1384ZM102.355 28.8162C101.901 28.7501 101.587 28.3279 101.653 27.8752C101.72 27.4211 102.142 27.1079 102.594 27.1739C102.885 27.2168 103.091 27.2486 103.215 27.2669C103.458 27.3037 103.171 27.262 103.833 27.3661C111.576 28.5849 117.94 30.182 122.335 32.0287C126.834 33.9206 129.366 36.154 129.366 38.6236C129.366 42.6656 122.21 46.1976 110.641 48.639C99.4235 51.007 83.9454 52.4704 66.8655 52.4704C49.7856 52.4704 34.3059 51.0056 23.0904 48.639C11.5208 46.1976 4.36539 42.6659 4.36539 38.6236C4.36539 36.061 7.10051 33.7483 11.9343 31.8072C16.6665 29.9067 23.5064 28.284 31.7849 27.0785C32.2389 27.0136 32.6587 27.3293 32.7223 27.7821C32.7872 28.2361 32.4715 28.6559 32.0187 28.7195C23.867 29.9054 17.1584 31.4938 12.5509 33.3442C8.38516 35.0171 6.02708 36.8186 6.02708 38.6224C6.02708 41.7688 12.6772 44.7462 23.4278 47.015C34.5309 49.3585 49.8881 50.8073 66.8677 50.8073C83.8474 50.8073 99.2017 49.3584 110.308 47.015C121.058 44.7461 127.708 41.7688 127.708 38.6224C127.708 36.8982 125.543 35.1701 121.697 33.5535C117.426 31.7582 111.195 30.1992 103.586 29.0012C103.332 28.9608 103.628 29.0098 102.974 28.9094C102.687 28.8653 102.483 28.8348 102.359 28.8164L102.355 28.8162Z" fill="#234263"/>
</svg>
