<svg width="182" height="156" viewBox="0 0 182 156" fill="none" xmlns="http://www.w3.org/2000/svg">
<path d="M18.0972 73.2048C18.0946 72.6559 17.2733 72.665 17.2707 73.2048V74.8578C17.2733 75.4067 18.0946 75.3976 18.0972 74.8578V73.2048ZM124.152 4.85861C124.15 4.30974 123.328 4.3188 123.326 4.85861V6.51164C123.328 7.06051 124.15 7.05145 124.152 6.51164V4.85861ZM123.326 14.4217C123.328 14.9706 124.15 14.9615 124.152 14.4217V13.1251C124.15 12.5762 123.328 12.5853 123.326 13.1251V14.4217ZM123.326 10.6455C123.328 11.1944 124.15 11.1854 124.152 10.6455V8.99251C124.15 8.44364 123.328 8.45269 123.326 8.99251V10.6455ZM73.3845 73.2028C73.3832 72.911 73.0952 72.7147 72.8214 72.8167C72.6613 72.88 72.558 73.0298 72.5567 73.2028V74.8559C72.558 75.1529 72.8589 75.3518 73.1327 75.2355C73.2863 75.1684 73.3819 75.0237 73.3832 74.8559V73.2028H73.3845ZM72.558 82.7659C72.5592 83.063 72.8602 83.2618 73.1339 83.1456C73.2876 83.0785 73.3832 82.9338 73.3845 82.7659V81.4693C73.3832 81.1775 73.0952 80.9812 72.8214 81.0832C72.6613 81.1465 72.558 81.2963 72.5567 81.4693V82.7659H72.558ZM72.558 78.9898C72.5592 79.2868 72.8602 79.4857 73.1339 79.3694C73.2876 79.3023 73.3832 79.1576 73.3845 78.9898V77.3367C73.3832 77.0449 73.0952 76.8485 72.8214 76.9506C72.6613 77.0139 72.558 77.1637 72.5567 77.3367V78.9898H72.558ZM164.384 116.057C164.381 115.508 163.56 115.518 163.557 116.057V117.71C163.56 118.259 164.381 118.25 164.384 117.71V116.057ZM163.557 125.62C163.56 126.169 164.381 126.16 164.384 125.62V124.324C164.381 123.775 163.56 123.784 163.557 124.324V125.62ZM163.557 121.844C163.56 122.393 164.381 122.384 164.384 121.844V120.191C164.381 119.642 163.56 119.651 163.557 120.191V121.844ZM124.152 116.19C124.15 115.641 123.328 115.65 123.326 116.19V117.843C123.328 118.392 124.15 118.383 124.152 117.843V116.19ZM123.326 125.753C123.328 126.302 124.15 126.293 124.152 125.753V124.457C124.15 123.908 123.328 123.917 123.326 124.457V125.753ZM123.326 121.977C123.328 122.526 124.15 122.517 124.152 121.977V120.324C124.15 119.775 123.328 119.784 123.326 120.324V121.977ZM124.152 73.2028C124.15 72.654 123.328 72.663 123.326 73.2028V74.8559C123.328 75.4047 124.15 75.3957 124.152 74.8559V73.2028ZM123.326 82.7659C123.328 83.3148 124.15 83.3057 124.152 82.7659V81.4693C124.15 80.9205 123.328 80.9295 123.326 81.4693V82.7659ZM123.326 78.9898C123.328 79.5386 124.15 79.5296 124.152 78.9898V77.3367C124.15 76.7878 123.328 76.7969 123.326 77.3367V78.9898ZM124.152 47.8933C124.15 47.3444 123.328 47.3535 123.326 47.8933V49.5463C123.328 50.0952 124.15 50.0861 124.152 49.5463V47.8933ZM123.326 57.4564C123.328 58.0053 124.15 57.9962 124.152 57.4564V56.1598C124.15 55.6109 123.328 55.62 123.326 56.1598V57.4564ZM123.326 53.6802C123.328 54.2291 124.15 54.22 124.152 53.6802V52.0272C124.15 51.4783 123.328 51.4874 123.326 52.0272V53.6802ZM0.56517 95.1349L11.2299 84.4702C11.39 84.3101 11.5721 84.1835 11.7671 84.0905V71.1116C9.40895 70.7126 7.67717 68.6618 7.67717 66.2649C7.67717 63.5504 9.87907 61.3485 12.5936 61.3485C14.9905 61.3485 17.0413 63.0803 17.4403 65.4384H32.6108C32.7038 65.2421 32.8304 65.0574 32.9931 64.8947L43.6578 54.23C43.8205 54.0673 44.0039 53.9408 44.2014 53.8478V35.8684C41.8433 35.4694 40.1115 33.4186 40.1115 31.0218C40.1115 28.3072 42.3134 26.1053 45.028 26.1053C47.4249 26.1053 49.4756 27.8371 49.8746 30.1952H95.733V20.3895C95.733 19.2155 96.6912 18.2573 97.8652 18.2573H118.504V1.07605C118.504 -0.011351 120.157 -0.011351 120.157 1.07605V18.2573H140.795C141.969 18.2573 142.927 19.2155 142.927 20.3895V41.654C142.927 42.828 141.969 43.7862 140.795 43.7862H120.157V61.4168C122.21 61.7642 123.829 63.3849 124.177 65.4369H164.134C164.533 63.0788 166.584 61.347 168.981 61.347C171.695 61.347 173.897 63.5489 173.897 66.2634C173.897 68.6603 172.165 70.7111 169.807 71.1101V84.2735C176.515 84.7023 181.745 90.284 181.745 97.0121C181.745 103.739 176.516 109.321 169.807 109.751V130.974C170.014 131.067 170.206 131.199 170.375 131.368L181.04 142.033C181.792 142.784 181.792 144.021 181.04 144.772L170.375 155.436C169.624 156.188 168.386 156.188 167.636 155.436L156.971 144.772C156.22 144.02 156.221 142.783 156.971 142.033L167.636 131.368C167.791 131.213 167.967 131.089 168.154 130.998V109.75C161.446 109.322 156.216 103.74 156.216 97.0119C156.216 90.2847 161.445 84.7034 168.154 84.2733V71.1099C166.101 70.7625 164.481 69.1417 164.134 67.0897H124.177C123.829 69.143 122.209 70.7624 120.157 71.1099V84.5989C123.604 86.589 127.048 88.5791 130.495 90.5693V103.454C127.046 105.445 123.601 107.436 120.153 109.427L120.157 132.835H128.807C129.897 132.835 130.785 133.724 130.785 134.814V153.768C130.785 154.858 129.897 155.747 128.807 155.747H109.853C108.763 155.747 107.874 154.858 107.874 153.768V134.814C107.874 133.724 108.763 132.835 109.853 132.835H118.502L118.506 109.424L108.165 103.453V90.5683L118.503 84.5992V71.1089C116.145 70.7098 114.413 68.659 114.413 66.2622C114.413 63.8654 116.145 61.8145 118.503 61.4155V43.7849H97.8643C96.6904 43.7849 95.7322 42.8267 95.7322 41.6528V31.847H49.8738C49.5264 33.9004 47.9057 35.5197 45.8536 35.8672V53.8465C46.0499 53.9395 46.2346 54.0661 46.3973 54.2288L57.062 64.8935C57.2247 65.0562 57.3513 65.2396 57.4442 65.4372H72.7272C72.9015 64.4105 73.3923 63.4923 74.0974 62.7871C74.9872 61.8974 76.2166 61.3472 77.574 61.3472C78.9314 61.3472 80.1608 61.8974 81.0507 62.7871C81.9405 63.6769 82.4906 64.9064 82.4906 66.2638C82.4906 67.6211 81.9405 68.8505 81.0507 69.7404C80.3456 70.4456 79.4273 70.9376 78.4007 71.1106V85.2222C78.4007 85.2623 78.3981 85.3023 78.3916 85.3423H87.0545C87.5995 85.3423 88.0941 85.5645 88.4518 85.9235C88.8096 86.2812 89.033 86.7771 89.033 87.3208V106.275C89.033 106.82 88.8109 107.315 88.4518 107.672C88.0941 108.03 87.5995 108.254 87.0545 108.254H68.1002C67.5552 108.254 67.0606 108.031 66.7029 107.672C66.3451 107.315 66.1217 106.82 66.1217 106.275V87.3208C66.1217 86.7759 66.3438 86.2812 66.7029 85.9235C67.0606 85.5658 67.5552 85.3423 68.1002 85.3423H76.7555C76.7503 85.3036 76.7464 85.2636 76.7464 85.2222V71.1106C75.7197 70.9363 74.8015 70.4456 74.0964 69.7404C73.3913 69.0353 72.8993 68.1171 72.7262 67.0904H57.4433C57.3503 67.2867 57.2238 67.4714 57.061 67.6341L46.3964 78.2988C46.2336 78.4615 46.0502 78.5881 45.8527 78.6811V129.376C52.5927 129.768 57.8656 135.362 57.8656 142.119C57.8656 149.169 52.151 154.883 45.1012 154.883C38.0514 154.883 32.3368 149.169 32.3368 142.119C32.3368 135.42 37.5234 129.852 44.2 129.385V78.6834C44.0037 78.5904 43.819 78.4638 43.6563 78.3011L32.9916 67.6364C32.8289 67.4737 32.7023 67.2903 32.6093 67.0928H17.4388C17.0914 69.1461 15.4707 70.7655 13.4187 71.1129V84.0866C13.6175 84.1796 13.8035 84.3074 13.9675 84.4714L24.6322 95.1361C25.3838 95.8877 25.3838 97.1249 24.6322 97.8753L13.9675 108.54C13.2159 109.292 11.9787 109.292 11.2284 108.54L0.5637 97.8753C-0.1879 97.1237 -0.1879 95.8865 0.5637 95.1361L0.56517 95.1349ZM12.3986 85.6402L1.73386 96.3049C1.62539 96.4134 1.62539 96.5981 1.73386 96.7065L12.3986 107.371C12.507 107.48 12.6917 107.48 12.8002 107.371L23.4649 96.7065C23.5733 96.5981 23.5733 96.4134 23.4649 96.3049L12.8002 85.6402C12.6917 85.5318 12.507 85.5318 12.3986 85.6402ZM45.1028 131.006C38.9661 131.006 33.9914 135.981 33.9914 142.117C33.9914 148.254 38.9661 153.229 45.1028 153.229C51.2395 153.229 56.2141 148.254 56.2141 142.117C56.2141 135.981 51.2395 131.006 45.1028 131.006ZM87.0567 86.9957H68.1024C68.0133 86.9957 67.9332 87.0332 67.8738 87.0913C67.8144 87.1507 67.7782 87.232 67.7782 87.3199V106.274C67.7782 106.363 67.8157 106.443 67.8738 106.503C67.9332 106.562 68.0146 106.598 68.1024 106.598H87.0567C87.1458 106.598 87.2259 106.561 87.2853 106.503C87.3447 106.443 87.3808 106.362 87.3808 106.274V87.3199C87.3808 87.2308 87.3434 87.1507 87.2853 87.0913C87.2259 87.0319 87.1445 86.9957 87.0567 86.9957ZM79.8829 63.9564C79.2927 63.3662 78.4765 63.0008 77.5751 63.0008C76.6736 63.0008 75.8575 63.3663 75.2673 63.9564C74.6771 64.5466 74.3116 65.3628 74.3116 66.2642C74.3116 67.1657 74.6771 67.9818 75.2673 68.572C75.8575 69.1622 76.6736 69.5277 77.5751 69.5277C78.4765 69.5277 79.2927 69.1622 79.8829 68.572C80.4731 67.9819 80.8385 67.1657 80.8385 66.2642C80.8385 65.3628 80.473 64.5466 79.8829 63.9564ZM44.7956 55.4318L34.1647 66.0627C34.0562 66.1712 34.0562 66.3559 34.1647 66.4643L44.8294 77.129C44.9378 77.2375 45.1225 77.2375 45.231 77.129L55.8957 66.4643C56.0042 66.3559 56.0042 66.1712 55.8957 66.0627L45.2647 55.4318C45.1059 55.2819 44.9664 55.2755 44.7972 55.4318H44.7956ZM128.809 134.49H109.855C109.678 134.49 109.53 134.638 109.53 134.815V153.769C109.53 153.946 109.678 154.095 109.855 154.095H128.809C128.986 154.095 129.135 153.946 129.135 153.769V134.815C129.135 134.638 128.986 134.49 128.809 134.49ZM168.809 132.537L158.145 143.202C158.036 143.31 158.036 143.495 158.145 143.603L168.809 154.268C168.918 154.376 169.102 154.376 169.211 154.268L179.876 143.603C179.984 143.495 179.984 143.31 179.876 143.202L169.211 132.537C169.102 132.428 168.918 132.428 168.809 132.537ZM168.985 63.0006C167.182 63.0006 165.721 64.4612 165.721 66.264C165.721 68.0669 167.182 69.5275 168.985 69.5275C170.788 69.5275 172.248 68.0669 172.248 66.264C172.248 64.4612 170.788 63.0006 168.985 63.0006ZM119.331 63.0006C117.528 63.0006 116.068 64.4612 116.068 66.264C116.068 68.0669 117.528 69.5275 119.331 69.5275C121.134 69.5275 122.595 68.0669 122.595 66.264C122.595 64.4612 121.134 63.0006 119.331 63.0006ZM45.0275 27.758C43.2247 27.758 41.764 29.2186 41.764 31.0214C41.764 32.8242 43.2247 34.2849 45.0275 34.2849C46.8303 34.2849 48.2909 32.8242 48.2909 31.0214C48.2909 29.2186 46.8303 27.758 45.0275 27.758ZM119.328 86.0273L109.818 91.5183V102.51L119.328 108.001C122.5 106.169 125.67 104.341 128.842 102.51V91.5183C125.67 89.6871 122.499 87.8585 119.328 86.0273ZM168.982 85.902C162.845 85.902 157.87 90.8767 157.87 97.0134C157.87 103.15 162.845 108.125 168.982 108.125C175.118 108.125 180.093 103.15 180.093 97.0134C180.093 90.8767 175.118 85.902 168.982 85.902ZM140.793 19.9097H97.8643C97.6021 19.9097 97.3852 20.1267 97.3852 20.3889V41.6534C97.3852 41.9156 97.6021 42.1326 97.8643 42.1326H140.793C141.056 42.1326 141.273 41.9156 141.273 41.6534V20.3889C141.273 20.1267 141.056 19.9097 140.793 19.9097ZM12.5911 63.0009C10.7882 63.0009 9.3276 64.4616 9.3276 66.2644C9.3276 68.0672 10.7882 69.5278 12.5911 69.5278C14.3939 69.5278 15.8545 68.0672 15.8545 66.2644C15.8545 64.4616 14.3939 63.0009 12.5911 63.0009ZM50.1711 82.9239C50.1685 82.3751 49.3471 82.3841 49.3445 82.9239V84.577C49.3471 85.1258 50.1685 85.1168 50.1711 84.577V82.9239ZM49.3445 121.777C49.3471 122.326 50.1685 122.317 50.1711 121.777V120.124C50.1685 119.575 49.3471 119.584 49.3445 120.124V121.777ZM49.3445 117.643C49.3471 118.192 50.1685 118.183 50.1711 117.643V115.99C50.1685 115.441 49.3471 115.45 49.3445 115.99V117.643ZM49.3445 113.509C49.3471 114.058 50.1685 114.049 50.1711 113.509V111.856C50.1685 111.307 49.3471 111.316 49.3445 111.856V113.509ZM49.3445 109.375C49.3471 109.924 50.1685 109.915 50.1711 109.375V107.722C50.1685 107.173 49.3471 107.182 49.3445 107.722V109.375ZM49.3445 105.241C49.3471 105.79 50.1685 105.781 50.1711 105.241V103.588C50.1685 103.039 49.3471 103.048 49.3445 103.588V105.241ZM49.3445 101.107C49.3471 101.656 50.1685 101.647 50.1711 101.107V99.4542C50.1685 98.9054 49.3471 98.9144 49.3445 99.4542V101.107ZM49.3445 96.9734C49.3471 97.5222 50.1685 97.5132 50.1711 96.9734V95.3203C50.1685 94.7715 49.3471 94.7805 49.3445 95.3203V96.9734ZM49.3445 92.8395C49.3471 93.3883 50.1685 93.3793 50.1711 92.8395V91.1864C50.1685 90.6376 49.3471 90.6466 49.3445 91.1864V92.8395ZM49.3445 88.7056C49.3471 89.2544 50.1685 89.2454 50.1711 88.7056V87.0525C50.1685 86.5037 49.3471 86.5127 49.3445 87.0525V88.7056ZM164.382 72.6467C164.38 72.0978 163.558 72.1069 163.556 72.6467V74.2997C163.558 74.8486 164.38 74.8395 164.382 74.2997V72.6467ZM163.556 82.2098C163.558 82.7587 164.38 82.7496 164.382 82.2098V80.9132C164.38 80.3643 163.558 80.3734 163.556 80.9132V82.2098ZM163.556 78.4336C163.558 78.9825 164.38 78.9735 164.382 78.4336V76.7806C164.38 76.2317 163.558 76.2408 163.556 76.7806V78.4336ZM17.2691 82.7613C17.2717 83.3102 18.0931 83.3011 18.0956 82.7613V81.4647C18.0931 80.9158 17.2717 80.9249 17.2691 81.4647V82.7613ZM17.2691 78.9851C17.2717 79.534 18.0931 79.5249 18.0956 78.9851V77.3321C18.0931 76.7832 17.2717 76.7923 17.2691 77.3321V78.9851Z" fill="#234263"/>
</svg>
