<svg width="632" height="616" viewBox="0 0 632 616" fill="none" xmlns="http://www.w3.org/2000/svg">
<g clip-path="url(#clip0_131_2367)">
<path opacity="0.25" d="M519.594 616.012C572.038 616.012 614.553 610.527 614.553 603.76C614.553 596.993 572.038 591.508 519.594 591.508C467.15 591.508 424.636 596.993 424.636 603.76C424.636 610.527 467.15 616.012 519.594 616.012Z" fill="#6BABB6"/>
<path opacity="0.25" d="M334.546 616C350.123 616 362.751 613.876 362.751 611.257C362.751 608.637 350.123 606.514 334.546 606.514C318.969 606.514 306.342 608.637 306.342 611.257C306.342 613.876 318.969 616 334.546 616Z" fill="#6BABB6"/>
<path opacity="0.25" d="M179.973 606.514C185.747 606.514 190.427 605.737 190.427 604.779C190.427 603.821 185.747 603.044 179.973 603.044C174.2 603.044 169.52 603.821 169.52 604.779C169.52 605.737 174.2 606.514 179.973 606.514Z" fill="#6BABB6"/>
<path opacity="0.25" d="M261.455 585.369C264.238 585.369 266.493 585.022 266.493 584.593C266.493 584.164 264.238 583.816 261.455 583.816C258.672 583.816 256.416 584.164 256.416 584.593C256.416 585.022 258.672 585.369 261.455 585.369Z" fill="#6BABB6"/>
<path d="M416.683 303.069C416.416 305.58 415.748 309.401 414.85 313.635C412.567 324.347 408.779 337.776 406.229 339.729C404.068 341.391 396.637 342.337 390.445 342.155C390.961 341.541 391.417 340.879 391.805 340.177C394.233 335.798 394.634 329.624 394.112 324.977C390.544 326.068 386.888 326.847 383.185 327.306C383.185 327.088 383.27 326.882 383.318 326.664C383.427 326.154 383.537 325.632 383.658 325.111C383.852 324.225 384.047 323.328 384.265 322.406C384.35 322.03 384.435 321.641 384.532 321.253L384.86 319.87C384.957 319.47 385.042 319.082 385.139 318.657L385.613 316.74C385.613 316.668 385.613 316.595 385.613 316.534C385.88 315.467 386.147 314.375 386.426 313.295C386.56 312.761 386.706 312.228 386.839 311.694L387.458 309.34C387.458 309.122 387.568 308.904 387.628 308.698C387.871 307.751 388.126 306.805 388.381 305.859C389.595 301.37 390.809 296.991 391.963 293.109C392.133 292.527 392.303 291.896 392.473 291.387C392.703 290.586 392.934 289.822 393.165 289.082C393.396 288.342 393.602 287.638 393.821 286.971C393.93 286.631 394.027 286.304 394.136 285.976C394.537 284.69 394.913 283.55 395.253 282.555C395.338 282.3 395.423 282.07 395.496 281.84C395.816 280.777 396.222 279.742 396.71 278.746L398.495 279.522L399.272 279.85C402.465 281.245 407.917 283.611 411.413 285.078C416.804 287.274 417.63 294.165 416.683 303.069Z" fill="#EE2C28"/>
<path d="M401.421 322.211C400.945 323.911 400.568 325.636 400.292 327.379C399.994 330.018 399.081 332.551 397.626 334.774C396.172 336.996 394.215 338.847 391.914 340.177C394.343 335.798 394.743 329.624 394.221 324.977C390.653 326.068 386.997 326.847 383.294 327.306C383.294 327.088 383.379 326.882 383.428 326.664C383.537 326.154 383.646 325.632 383.767 325.111C383.962 324.225 384.156 323.328 384.375 322.406C384.46 322.03 384.545 321.641 384.642 321.253L384.969 319.87C385.067 319.47 385.152 319.082 385.249 318.657L385.722 316.74C385.722 316.668 385.722 316.595 385.722 316.534C385.989 315.467 386.256 314.375 386.536 313.295C386.669 312.761 386.815 312.228 386.949 311.694L387.568 309.34C387.568 309.122 387.677 308.904 387.738 308.698C387.981 307.751 388.236 306.805 388.49 305.859C389.705 301.37 390.919 296.991 392.072 293.109C392.242 292.527 392.412 291.896 392.582 291.387C392.813 290.586 393.044 289.822 393.274 289.082C393.505 288.342 393.711 287.638 393.93 286.971C394.039 286.631 394.136 286.304 394.246 285.976C394.646 284.69 395.023 283.55 395.363 282.555C395.448 282.3 395.533 282.07 395.605 281.84L398.034 282.786L398.616 283.016C403.91 285.176 410.127 288.075 411.244 290.295C412.992 293.667 404.809 309.789 401.421 322.211Z" fill="#AB2B2B"/>
<path d="M363.2 269.563C363.2 269.563 346.567 255.976 340.921 249.911C335.275 243.845 325.44 214.149 325.44 214.149C325.46 213.969 325.505 213.794 325.574 213.627C325.934 212.703 326.559 211.905 327.371 211.334C328.514 210.472 329.813 209.838 331.195 209.466C331.884 209.202 332.642 209.181 333.345 209.405C334.559 210.133 340.897 221.985 345.28 230.392C345.62 231.023 345.935 231.605 346.239 232.224C347.217 234.002 348.39 235.666 349.736 237.185C355.806 244.294 365.859 251.985 367.122 252.956L367.256 253.065C371.651 263.861 363.2 269.563 363.2 269.563Z" fill="#F47421"/>
<path opacity="0.43" d="M363.2 269.563C363.2 269.563 346.567 255.976 340.921 249.911C335.275 243.845 325.44 214.149 325.44 214.149C325.698 212.997 326.389 211.989 327.371 211.334C327.101 214.72 327.805 218.112 329.399 221.112C333.199 228.548 339.112 240.218 339.379 244.161C339.622 247.885 353.949 260.998 367.146 252.919L367.28 253.028C371.651 263.861 363.2 269.563 363.2 269.563Z" fill="#A54623"/>
<path d="M352.977 244.088C348.545 240.109 345.497 231.023 345.291 230.38C345.631 231.011 345.947 231.593 346.25 232.212C347.228 233.99 348.401 235.654 349.747 237.173C350.294 239.69 351.397 242.053 352.977 244.088Z" fill="#722914"/>
<path d="M333.247 210.436C333.453 211.092 331.377 212.05 328.803 213.275C327.803 213.793 326.641 213.902 325.562 213.578C325.922 212.654 326.547 211.857 327.358 211.286C328.502 210.424 329.8 209.79 331.183 209.417C332.421 209.417 333.065 209.878 333.247 210.436Z" fill="#722914"/>
<path d="M332.628 211.286C332.055 211.682 331.454 212.039 330.831 212.353C329.677 213.05 328.392 213.504 327.055 213.688C326.91 213.707 326.763 213.707 326.618 213.688C324.991 213.214 321.385 209.575 320.317 206.603C320.229 206.356 320.172 206.1 320.147 205.839C319.819 202.903 322.866 198.985 323.049 198.657C323.231 198.33 322.138 195.564 320.62 193.623C320.111 193.088 319.802 192.394 319.746 191.658C319.746 191.015 320.159 190.76 320.341 191.148C320.657 191.815 324.493 194.872 325.489 195.782C327.275 197.785 328.899 199.927 330.346 202.187C330.53 202.462 330.7 202.745 330.856 203.037C331.854 205.226 332.368 207.606 332.361 210.012C332.478 210.43 332.567 210.856 332.628 211.286Z" fill="#FCC59A"/>
<path opacity="0.32" d="M323.923 197.954C323.923 198.548 323.049 198.597 323.049 198.597C323.255 198.233 322.138 195.503 320.62 193.562C320.111 193.027 319.802 192.333 319.746 191.597C320.209 192.58 320.856 193.466 321.652 194.205C322.742 195.221 323.528 196.518 323.923 197.954Z" fill="#F47421"/>
<path opacity="0.32" d="M332.628 211.286C332.054 211.682 331.454 212.039 330.831 212.353C330.739 212.164 330.691 211.957 330.691 211.747C330.691 211.536 330.739 211.329 330.831 211.14C331.45 209.757 329.459 208.568 330.418 206.47C330.819 205.364 330.952 204.179 330.807 203.012C331.806 205.202 332.319 207.581 332.312 209.988C332.447 210.413 332.552 210.846 332.628 211.286Z" fill="#F47421"/>
<path opacity="0.32" d="M327.055 213.688C326.91 213.707 326.763 213.707 326.618 213.688C324.991 213.214 321.385 209.575 320.316 206.603C320.228 206.356 320.171 206.1 320.146 205.839C320.8 207.332 321.882 208.598 323.255 209.478C325.513 210.728 325.78 212.584 327.055 213.688Z" fill="#F47421"/>
<path d="M360.468 268.168C360.468 268.168 352.734 262.309 351.483 260.465C350.233 258.621 341.624 252.24 340.131 250.032C338.09 246.992 336.322 243.777 334.85 240.424C333.842 237.731 328.779 224.994 328.196 223.295C327.613 221.597 326.156 216.247 326.156 216.247C326.156 216.247 333.308 235.354 334.971 238.204C336.634 241.055 339.123 246.963 341.564 249.559C344.004 252.155 353.438 260.635 354.98 261.69C356.522 262.745 356.996 263.061 356.996 263.061L354.859 260.513C354.859 260.513 357.117 262.867 359.436 262.491C361.755 262.114 362.423 258.402 362.423 258.402C362.423 258.402 360.626 268.216 360.468 268.216" fill="#231F20"/>
<path d="M323.048 198.597C323.048 198.597 324.797 198.597 325.124 198.948C325.452 199.3 326.436 201.799 326.618 202.03C327.03 202.637 327.357 203.298 327.589 203.995L327.48 204.589C327.411 204.163 327.268 203.752 327.055 203.376C326.565 202.712 326.157 201.991 325.841 201.229C325.732 200.768 325.137 199.3 324.627 199.167C324.117 199.033 323.048 198.766 322.842 199.106C322.446 199.627 322.085 200.174 321.761 200.744C321.761 200.865 323.595 201.059 323.874 201.362C324.153 201.666 325.877 204.88 326.108 205.184C326.339 205.487 326.739 206.106 326.666 206.397C326.594 206.688 326.424 207.088 326.424 207.088C326.424 207.088 326.606 206.275 326.424 206.033C325.904 205.296 325.434 204.526 325.015 203.728C324.636 202.908 324.15 202.141 323.57 201.447C323.255 201.29 321.786 200.998 321.567 201.326C321.348 201.654 320.839 202.697 321.021 202.867C321.203 203.037 322.818 203.243 323.218 203.922C323.619 204.601 324.882 206.615 325.076 206.882C325.27 207.149 325.902 207.974 325.792 208.374L325.671 208.762C325.41 209.182 325.126 209.587 324.821 209.975C324.435 210.126 324.015 210.168 323.607 210.097C322.84 209.341 322.129 208.53 321.482 207.671C321.348 207.423 321.194 207.188 321.021 206.967C321.121 206.93 321.231 206.924 321.335 206.95C321.438 206.976 321.532 207.033 321.603 207.113C321.858 207.379 323.704 209.478 324.299 209.539C324.894 209.599 325.707 208.204 325.428 207.84C325.149 207.476 323.388 204.99 323.206 204.723C323.024 204.456 322.575 203.595 322.198 203.51C321.822 203.425 320.511 203.218 320.511 203.218C321.071 201.537 321.93 199.972 323.048 198.597Z" fill="#231F20"/>
<path d="M325.428 207.513C325.428 207.513 325.998 207.646 326.156 207.416L326.314 207.173C326.183 207.412 326.037 207.643 325.877 207.865L325.78 207.95L325.428 207.513Z" fill="#231F20"/>
<path d="M326.642 205.924C326.642 205.924 326.642 206.009 326.969 205.596C327.297 205.184 327.382 204.965 327.382 204.965C327.382 204.965 327.091 205.766 327.018 205.924C326.942 206.05 326.843 206.161 326.727 206.251L326.642 205.924Z" fill="#231F20"/>
<path d="M329.859 201.544C329.859 201.544 329.107 201.193 328.985 201.544C328.864 201.896 327.467 205.875 327.225 206.251C327.076 206.57 327.005 206.919 327.018 207.27C327.018 207.27 327.018 207.768 327.273 207.95L328.123 208.495C327.85 208.376 327.627 208.166 327.492 207.9C327.357 207.635 327.318 207.331 327.382 207.04C327.625 205.984 328.815 203.243 328.876 202.964C328.937 202.685 329.471 201.678 329.859 201.896C330.417 202.693 330.862 203.562 331.183 204.48C331.588 205.536 331.85 206.642 331.96 207.768C331.902 208.263 331.902 208.764 331.96 209.26C332.032 209.674 331.963 210.101 331.766 210.473C331.559 210.703 330.551 211.504 330.551 211.504C330.987 211.383 331.398 211.186 331.766 210.922C332.069 210.631 332.227 210.485 332.336 210.703C332.427 210.945 332.48 211.198 332.494 211.455C332.494 211.455 332.992 211.286 332.87 210.982C332.61 210.431 332.466 209.832 332.445 209.223C332.347 207.853 332.152 206.491 331.863 205.147C331.608 204.31 330.321 201.69 329.859 201.544Z" fill="#231F20"/>
<path d="M329.144 208.459C329.341 208.174 329.516 207.874 329.666 207.561C329.957 206.955 330.103 206.166 330.321 205.778C330.443 205.558 330.581 205.347 330.734 205.147C330.734 205.147 330.503 206.13 330.382 206.421C330.261 206.712 329.702 208.386 329.144 208.459Z" fill="#231F20"/>
<path d="M327.565 198.208C326.604 196.898 325.575 195.638 324.481 194.436C323.922 194.047 321.567 192.009 321.276 191.73C320.984 191.451 320.632 190.517 320.316 190.517C320.001 190.517 319.588 191.051 319.746 191.937C319.939 192.614 320.288 193.237 320.766 193.756C320.342 193.109 320.068 192.376 319.964 191.609C320.061 190.93 320.486 191.087 320.571 191.391C321.296 192.28 322.11 193.093 323 193.817C324.837 195.167 326.472 196.773 327.856 198.584L327.565 198.208Z" fill="#231F20"/>
<path d="M402.016 264.698C402.016 265.62 401.955 266.603 401.858 267.646C401.49 271.265 400.808 274.845 399.818 278.346L399.418 279.838C399.126 280.918 398.847 281.973 398.592 283.004C393.735 301.941 391.999 314.981 393.638 321.896C393.872 322.9 394.046 323.917 394.16 324.941C390.592 326.032 386.936 326.811 383.233 327.27C376.428 328.1 369.549 328.125 362.738 327.343L361.9 327.234C356.961 326.558 352.177 325.022 347.768 322.697C347.161 322.393 346.554 322.066 345.934 321.714C344.72 321.023 343.506 320.27 342.292 319.47C347.166 310.373 351.429 300.963 355.053 291.302C356.284 287.966 357.325 284.564 358.173 281.112C358.319 280.493 358.464 279.899 358.598 279.292C358.732 278.685 358.829 278.249 358.938 277.739C358.938 277.545 359.023 277.363 359.059 277.169C359.132 276.902 359.181 276.647 359.241 276.381C359.436 275.446 359.63 274.524 359.8 273.627C359.8 273.505 359.861 273.384 359.885 273.263C360.225 271.552 360.516 269.927 360.783 268.41C360.783 268.168 360.868 267.937 360.905 267.719C361.852 262.321 362.459 258.014 363.139 254.969C363.133 254.925 363.133 254.88 363.139 254.836C363.139 254.605 363.248 254.375 363.309 254.157C363.37 253.938 363.37 253.89 363.406 253.756C363.442 253.623 363.479 253.514 363.503 253.392C363.661 252.883 363.807 252.422 363.965 252.021C364.102 251.649 364.277 251.291 364.487 250.954C364.661 250.671 364.887 250.424 365.154 250.226C366.826 249.224 368.622 248.445 370.497 247.909C371.9 247.468 373.327 247.103 374.77 246.817C374.831 246.823 374.892 246.823 374.953 246.817L375.45 246.72H375.839L376.932 246.55C379.135 246.237 381.364 246.143 383.585 246.271C384.071 246.271 384.532 246.344 385.018 246.405C385.691 246.47 386.359 246.572 387.021 246.708C387.519 246.793 388.005 246.914 388.49 247.048L389.207 247.242C389.753 247.412 390.299 247.582 390.821 247.788C392.118 248.242 393.366 248.823 394.549 249.522C395.693 250.193 396.746 251.009 397.681 251.949C398.235 252.48 398.742 253.056 399.199 253.671C399.926 254.762 400.501 255.945 400.911 257.189L400.984 257.383V257.493C400.984 257.687 401.105 257.893 401.154 258.099C401.202 258.305 401.239 258.39 401.275 258.548C401.605 259.892 401.804 261.266 401.87 262.648C401.864 262.705 401.864 262.762 401.87 262.818C401.87 263.109 401.87 263.388 401.87 263.691C401.87 263.995 402.004 264.359 402.016 264.698Z" fill="#F47421"/>
<path d="M345.935 321.714C348.096 317.687 351.52 311.136 354.725 304.209C357.221 298.964 359.382 293.568 361.196 288.051C361.536 286.947 361.852 285.818 362.143 284.69C362.322 283.987 362.491 283.283 362.653 282.579C362.787 282.058 362.896 281.536 363.005 281.002C363.698 277.788 364.22 274.573 364.596 271.552C364.589 271.476 364.589 271.399 364.596 271.322C364.73 270.109 364.863 269.053 364.96 267.974C365.264 264.065 366.009 260.203 367.182 256.461" stroke="white" stroke-width="0.25" stroke-miterlimit="10"/>
<path d="M369.647 259.615C369.647 259.615 376.106 260.295 377.891 260.295L377.041 264.88C377.041 264.88 371.868 264.88 368.942 263.449L369.647 259.615Z" fill="white"/>
<path opacity="0.43" d="M400.134 273.869C400.414 281.027 379.032 313.429 379.032 313.429C379.032 313.429 371.966 320.986 358.696 322.114C345.425 323.243 346.906 312.907 346.979 312.616C347.052 312.325 350.111 303.481 357.833 301.637C365.555 299.793 370.655 289.712 369.647 281.476C368.639 273.239 375.609 264.832 378.146 260.695C380.684 256.558 372.731 256.837 370.946 257.675C369.161 258.512 368.032 259.276 367.304 258.148C366.575 257.019 365.216 256.935 363.552 255.503C363.342 255.337 363.172 255.125 363.054 254.884C362.447 253.671 363.771 252.094 363.904 251.937C364.548 255.273 375.487 252.458 381.558 250.857C386.73 249.486 395.593 251.573 399.199 253.683C399.964 254.832 400.565 256.081 400.984 257.396V257.505C400.984 257.699 401.106 257.905 401.154 258.111C401.203 262.163 399.928 268.665 400.134 273.869Z" fill="#A54623"/>
<path d="M400.959 257.189C398.337 253.732 392.303 253.55 387.98 253.768C384.203 254.069 380.456 254.669 376.774 255.564C378.276 254.813 379.825 254.161 381.412 253.611C378.085 253.938 371.699 256.11 370.715 257.141C370.344 257.533 369.842 257.778 369.304 257.829C368.766 257.88 368.228 257.735 367.789 257.42C367.158 256.947 366.466 255.248 364.584 254.763C364.089 254.672 363.635 254.431 363.284 254.072C363.19 253.969 363.124 253.843 363.094 253.706C363.065 253.57 363.071 253.428 363.114 253.295H363.479C365.276 253.295 373.192 253.477 375.11 252.774C377.296 251.985 388.575 250.481 397.402 251.706H397.718C398.269 252.315 398.765 252.973 399.199 253.671C399.942 254.759 400.535 255.942 400.959 257.189Z" fill="#722914"/>
<path d="M401.044 257.42C399.296 253.198 396.552 253.101 389.607 252.81C382.662 252.519 372.147 253.514 370.897 255.297C369.646 257.08 368.165 257.723 366.854 255.709C365.542 253.696 363.041 255.091 362.762 252.07C362.483 249.049 367.157 247.921 367.157 247.921C370.508 246.211 380.816 244.828 383.245 243.227C385.673 241.625 390.797 240.618 391.331 242.571C391.865 244.525 393.759 242.341 394.123 245.665C394.199 246.242 394.407 246.794 394.731 247.278C395.736 248.575 396.971 249.677 398.373 250.529C399.388 251.184 400.287 252.004 401.032 252.956C401.497 253.607 401.748 254.386 401.75 255.186C401.752 255.986 401.505 256.766 401.044 257.42Z" fill="#3B577F"/>
<path d="M374.77 246.72C374.77 246.72 369.768 248.479 368.347 249.862C366.927 251.245 367.315 252.119 367.315 252.119C367.315 252.119 365.069 252.604 370.363 252.325C375.656 252.046 384.932 249.389 387.506 247.679C390.08 245.968 389.765 244.039 389.765 244.039C389.517 244.621 389.147 245.144 388.68 245.571C388.213 245.998 387.66 246.319 387.057 246.514C387.057 246.514 388.927 243.372 385.333 243.809C381.739 244.246 377.344 246.344 374.77 246.72Z" fill="#231F20"/>
<path d="M398.385 250.493C396.439 249.597 394.324 249.125 392.181 249.11C389.071 249.023 385.971 249.492 383.026 250.493C383.026 250.493 389.097 247.521 392.46 247.363L394.731 247.242C395.74 248.54 396.979 249.641 398.385 250.493Z" fill="#1D3751"/>
<path opacity="0.41" d="M402.016 264.698C402.016 265.62 401.955 266.603 401.858 267.646C401.49 271.265 400.808 274.845 399.818 278.346L399.418 279.838C399.126 280.918 398.847 281.973 398.592 283.004C393.735 301.941 391.999 314.981 393.638 321.896C393.872 322.9 394.046 323.917 394.16 324.941C390.592 326.032 386.936 326.811 383.233 327.27C376.428 328.1 369.549 328.125 362.738 327.343L361.9 327.234C365.169 323.937 367.08 319.534 367.255 314.896C367.959 306.101 370.278 301.128 372.573 297.695C373.374 296.482 374.163 295.523 374.88 294.613C377.308 291.508 379.081 289.47 377.308 284.751C376.875 283.558 376.507 282.343 376.203 281.112C375.984 280.19 375.827 279.292 375.705 278.406C375.699 278.289 375.699 278.172 375.705 278.055C375.705 277.751 375.632 277.472 375.608 277.169C374.965 270.339 377.004 264.577 380.331 261.071C382.585 258.733 385.436 257.055 388.575 256.219C389.265 256.034 389.967 255.9 390.676 255.818C390.676 255.818 396.479 254.278 400.632 257.881C400.88 258.08 401.111 258.299 401.324 258.536C401.654 259.88 401.853 261.253 401.919 262.636C401.912 262.693 401.912 262.75 401.919 262.806C401.919 263.097 401.919 263.376 401.919 263.679C401.919 263.983 402.004 264.359 402.016 264.698Z" fill="#231F20"/>
<path d="M387.592 241.589C387.592 241.589 390.311 240.728 391.149 241.831C391.987 242.935 391.975 243.227 392.837 243.311C393.28 243.357 393.689 243.569 393.982 243.905C394.275 244.24 394.43 244.674 394.415 245.119C394.415 246.126 394.743 247.387 396.844 248.867C398.944 250.347 401.53 251.888 402.064 253.72C402.274 255.151 402.001 256.611 401.287 257.869C401.13 257.233 400.841 256.638 400.437 256.122C400.437 256.122 401.202 257.335 401.53 255.734C401.615 254.834 401.429 253.93 400.997 253.137C400.564 252.344 399.904 251.698 399.102 251.282C397.378 250.153 396.042 248.734 395.217 248.588C394.391 248.443 392.788 248.261 392.788 248.261C392.788 248.261 394.67 248.261 394.719 247.788C394.767 247.315 394.063 246.745 393.857 245.653C393.65 244.561 393.031 243.821 392.643 243.785C392.254 243.748 391.271 243.894 391.161 243.457C391.107 243.049 390.904 242.675 390.59 242.408C390.276 242.142 389.874 242.001 389.462 242.013C388.041 241.856 387.786 242.147 387.786 242.147L387.592 241.589Z" fill="#231F20"/>
<path d="M394.342 321.714C393.558 316.556 393.558 311.308 394.342 306.15C395.714 298.556 398.798 283.659 399.624 280.808C400.449 277.958 401.457 270.788 401.457 270.788L399.15 279.207C399.15 279.207 396.285 291.338 393.383 296.591C390.481 301.844 384.131 305.495 382.759 308.321C382.759 308.321 385.673 304.901 389.473 304.901L377.587 317.032C377.587 317.032 391.744 325.123 394.342 321.714Z" fill="#231F20"/>
<path d="M360.978 268.41L363.09 254.884L360.468 268.18L360.978 268.41Z" fill="#231F20"/>
<path opacity="0.71" d="M358.695 287.832C357.746 293.353 356.427 298.804 354.749 304.148C352.865 310.489 350.532 316.687 347.768 322.697C347.16 322.393 346.553 322.066 345.934 321.714C344.72 321.023 343.506 320.27 342.292 319.47C321.724 305.968 303.087 277.654 284.996 250.408C285.385 249.632 285.785 248.892 286.21 248.2C287.813 245.325 289.379 243.251 290.63 242.899C294.503 241.831 329.58 252.361 346.59 261.617C349.458 263.035 352.091 264.884 354.397 267.1C354.397 267.1 354.676 267.416 354.797 267.573C356.089 269.221 357.11 271.064 357.821 273.032C358.255 274.214 358.584 275.432 358.804 276.672C358.81 276.7 358.81 276.729 358.804 276.757C358.865 277.06 358.913 277.351 358.95 277.666C359.055 278.475 359.128 279.284 359.168 280.093C359.267 282.682 359.108 285.274 358.695 287.832Z" fill="url(#paint0_linear_131_2367)"/>
<path opacity="0.42" d="M358.695 287.832C357.746 293.353 356.427 298.804 354.749 304.148C352.865 310.489 350.532 316.687 347.768 322.697C347.16 322.393 346.553 322.066 345.934 321.714C344.72 321.023 343.506 320.27 342.292 319.47C321.724 305.968 303.087 277.654 284.996 250.408C285.385 249.632 285.785 248.892 286.21 248.2C287.728 252.713 290.423 257.201 295.183 259.628C307.057 265.693 313.868 260.768 323.108 278.576C329.786 291.52 343.591 300.024 355.137 291.302C356.444 290.275 357.636 289.112 358.695 287.832Z" fill="#3B577F"/>
<path d="M284.948 250.408C284.948 250.408 288.117 242.717 291.322 242.474C294.528 242.232 314.063 246.575 329.981 253.392C345.898 260.21 355.988 265.669 357.833 270.63C359.351 275.327 359.351 280.382 357.833 285.078C356.619 288.718 346.469 315.018 342.681 319.688C338.892 324.359 340.556 319.688 340.556 319.688C342.924 316.377 345.043 312.894 346.894 309.268C349.225 304.415 356.886 286.571 357.42 282.434C357.955 278.297 357.42 271.407 354.288 267.695C351.155 263.983 335.736 257.092 333.368 256.34C331 255.588 311.149 246.708 304.678 245.956C298.206 245.204 291.929 242.535 290.375 243.53C288.821 244.525 285.616 249.243 286.271 250.335C286.927 251.427 292.803 263.231 298.146 265.366C303.488 267.501 314.185 266.651 320.365 280.068C326.545 293.485 324.396 299.781 331.523 305.604C338.65 311.427 341.381 314.351 341.381 315.552C341.381 316.752 341.624 322.83 337.338 319.373C333.052 315.915 291.14 264.88 287.692 259.615C284.244 254.351 284.948 250.396 284.948 250.396" fill="#231F20"/>
<path d="M402.016 264.892C402.186 271.455 398.993 271.856 398.75 277.945C398.507 284.035 396.455 286.643 394.391 288.148C393.719 288.635 393.114 289.211 392.594 289.858C391.744 290.87 391.163 292.08 390.907 293.376C390.907 293.594 390.834 293.873 390.773 294.201C390.397 296.542 389.28 301.249 382.274 301.116C374.249 300.958 370.97 296.445 368.275 292.806C366.697 290.683 363.88 287.056 361.16 283.174C359.273 280.532 357.55 277.777 356 274.925C355.203 273.461 354.63 271.887 354.3 270.254C353.778 267.379 354.737 266.142 354.737 266.142C356.681 266.29 358.557 266.915 360.201 267.962C360.893 268.398 362.083 269.284 363.491 270.388L364.511 271.164C368.299 274.088 373.01 277.824 373.387 278.164C373.387 278.164 373.787 278.03 374.419 277.739C374.601 277.654 374.819 277.557 375.038 277.436L375.718 277.06C376.471 276.614 377.19 276.111 377.867 275.556C380.101 273.675 380.599 267.731 383.003 261.787C383.796 259.921 385.127 258.333 386.827 257.226C388.732 256.006 390.862 255.181 393.092 254.799C396.868 254.63 399.017 255.212 400.231 256.437C402.004 258.099 401.907 261.047 402.016 264.892Z" fill="#F47421"/>
<path opacity="0.43" d="M389.777 277.448C389.088 278.59 388.136 279.551 386.999 280.252C385.863 280.952 384.576 281.372 383.245 281.476C381.964 281.578 380.675 281.415 379.459 280.997C378.244 280.58 377.127 279.917 376.179 279.049C375.329 278.552 375.766 278.819 378.911 283.15C382.056 287.48 380.404 286.789 378.911 285.042C377.417 283.295 375.475 283.926 371.432 279.11C369.003 276.259 365.75 272.729 363.491 270.339L364.511 271.116C368.299 274.039 373.01 277.776 373.387 278.115C373.387 278.115 373.787 277.982 374.419 277.691C374.601 277.606 374.819 277.509 375.038 277.387L375.718 277.011C376.471 276.565 377.19 276.063 377.867 275.507C380.101 273.627 380.599 267.683 383.003 261.738C383.796 259.872 385.127 258.285 386.827 257.177C385.826 258.359 385.007 259.684 384.399 261.108C382.553 265.269 383.452 272.681 382.99 275.835C382.529 278.989 376.738 278.734 380.841 279.474C384.945 280.214 389.777 277.448 389.777 277.448Z" fill="#A54623"/>
<path d="M380.611 286.304C378.441 283.388 376.033 280.657 373.411 278.14C373.411 278.14 373.812 278.006 374.443 277.715C374.625 277.63 374.844 277.533 375.062 277.412C375.501 277.781 375.907 278.187 376.277 278.625C378.122 280.937 379.585 283.529 380.611 286.304Z" fill="#722914"/>
<path d="M385.091 279.413C383.214 280.105 381.174 280.227 379.227 279.765C378.223 279.444 377.238 279.068 376.277 278.637C375.524 278.297 374.88 277.982 374.443 277.751C374.625 277.666 374.844 277.569 375.063 277.448L375.743 277.072C377.003 277.366 378.226 277.806 379.385 278.382C381.182 279.162 383.135 279.515 385.091 279.413Z" fill="#722914"/>
<path d="M390.288 274.937C392.32 274.937 393.967 273.291 393.967 271.261C393.967 269.231 392.32 267.586 390.288 267.586C388.256 267.586 386.609 269.231 386.609 271.261C386.609 273.291 388.256 274.937 390.288 274.937Z" fill="#FECF0A"/>
<path d="M387.98 264.055C391.352 264.1 394.617 265.241 397.281 267.307L398.556 264.419C398.556 264.419 397.718 261.884 389.365 260.465L387.98 264.055Z" fill="white"/>
<path d="M365.021 279.207C364.81 280.165 364.336 281.045 363.652 281.748C362.968 282.451 362.1 282.949 361.148 283.186C359.261 280.544 357.537 277.789 355.988 274.937C352.746 268.689 354.774 266.154 354.774 266.154C356.717 266.302 358.594 266.927 360.237 267.974C361.087 268.52 362.666 269.745 364.56 271.152C365.47 273.74 365.63 276.532 365.021 279.207Z" fill="#FECF0A"/>
<path opacity="0.43" d="M402.017 264.892C402.187 271.455 398.994 271.856 398.751 277.945C398.508 284.035 396.456 286.643 394.392 288.148C393.719 288.635 393.115 289.211 392.595 289.858C391.744 290.87 391.164 292.08 390.907 293.376C390.907 293.594 390.834 293.873 390.774 294.201C390.397 296.542 389.28 301.249 382.275 301.116C374.249 300.958 370.971 296.445 368.276 292.806C366.697 290.683 363.88 287.056 361.161 283.174C359.273 280.532 357.55 277.777 356.001 274.925C355.204 273.461 354.631 271.887 354.301 270.254C356.729 274.452 360.894 280.554 364.949 281.876C371.287 283.95 371.02 292.964 377.467 296.688C383.914 300.412 389.9 296.918 389.256 291.229C388.613 285.539 390.47 282.676 393.275 280.942C396.08 279.207 397.5 277.084 397.099 274.658C396.699 272.232 398.204 269.223 399.868 266.7C401.082 264.771 401.531 260.064 400.281 256.389C402.005 258.099 401.908 261.047 402.017 264.892Z" fill="#A54623"/>
<path d="M359.679 272.353C359.681 272.758 359.661 273.163 359.619 273.566C359.485 274.852 358.113 275.592 356.243 275.18C354.373 274.767 353.936 274.039 353.815 275.883C353.694 277.727 353.936 280.068 353.281 280.044C352.625 280.02 349.699 276.405 348.424 275.665C347.149 274.925 344.235 271.188 344.332 269.527C344.519 268.031 344.848 266.556 345.316 265.123C345.562 264.451 345.975 263.854 346.517 263.387C347.059 262.92 347.711 262.599 348.412 262.454H348.849C351.484 262.321 357.142 266.833 358.489 267.937C359.485 268.774 359.691 270.849 359.679 272.353Z" fill="#FCC59A"/>
<path opacity="0.32" d="M359.679 272.353C357.9 272.048 356.259 271.2 354.98 269.927C352.795 267.78 348.727 266.87 347.793 264.298C347.638 263.973 347.615 263.602 347.728 263.26C347.841 262.919 348.082 262.635 348.4 262.466H348.837C351.471 262.333 357.129 266.846 358.477 267.949C359.485 268.774 359.691 270.849 359.679 272.353Z" fill="#F47421"/>
<path d="M392.595 289.858C391.744 290.87 391.164 292.08 390.907 293.376C390.907 293.594 390.834 293.873 390.774 294.201C390.462 290.125 391.375 286.049 393.396 282.495C392.601 284.863 392.328 287.375 392.595 289.858Z" fill="#722914"/>
<path d="M390.336 255.503C390.336 255.503 384.424 257.929 383.052 262.951C381.68 267.974 380.915 271.613 379.785 274.027C378.656 276.441 375.888 277.29 375.257 277.933C374.625 278.576 374.431 278.334 375.257 279.365C376.082 280.396 377.491 282.397 377.491 282.397C377.491 282.397 371.42 276.599 369.793 275.264C368.166 273.93 364.293 271.201 363.904 270.788C363.516 270.376 358.356 266.748 357.105 266.821L356.607 266.445C356.607 266.445 357.615 266.215 359.91 267.586C362.205 268.956 369.198 274.197 370.57 275.386C371.942 276.575 373.266 278.055 373.739 277.751C374.213 277.448 373.848 277.108 374.468 277.278C375.087 277.448 374.929 276.514 375.56 276.514C376.414 276.208 377.193 275.726 377.848 275.099C378.503 274.472 379.018 273.714 379.361 272.875C379.834 270.97 381.376 263.946 383.003 260.853C383.805 259.517 384.868 258.355 386.127 257.436C387.387 256.517 388.818 255.86 390.336 255.503Z" fill="#231F20"/>
<path d="M360.104 281.682L369.101 294.553C370.66 296.927 372.874 298.798 375.476 299.939C379.227 301.564 387.411 302.911 389.535 297.865C391.66 292.818 390.932 291.799 392.049 290.586C391.533 291.046 391.115 291.606 390.821 292.231C390.527 292.856 390.362 293.535 390.337 294.225C390.208 295.775 389.54 297.23 388.449 298.338C387.357 299.446 385.912 300.137 384.363 300.291C380.539 300.606 375.864 300.291 372.137 296.651C368.409 293.012 361.561 283.04 360.104 281.682Z" fill="#231F20"/>
<path d="M359.679 271.844C359.679 271.844 360.092 274.561 358.465 275.095C357.397 275.474 356.231 275.474 355.163 275.095C354.616 274.913 354.094 274.537 353.948 275.628C353.803 276.72 353.839 279.838 353.633 280.08C353.426 280.323 352.516 279.874 351.957 279.207C351.568 278.672 351.298 278.06 351.168 277.412C351.457 278.112 351.906 278.735 352.479 279.231C353.171 279.62 353.451 279.11 353.353 278.297C353.24 277.071 353.368 275.835 353.73 274.658C353.818 274.593 353.884 274.502 353.919 274.397C353.954 274.293 353.956 274.181 353.924 274.076C354.291 274.096 354.641 274.237 354.92 274.476C355.989 274.963 357.204 275.028 358.319 274.658C358.737 274.316 359.075 273.887 359.31 273.401C359.545 272.915 359.671 272.383 359.679 271.844Z" fill="#231F20"/>
<path d="M350.634 262.842C349.893 262.507 349.058 262.439 348.273 262.649C347.487 262.859 346.798 263.335 346.324 263.995C345.431 265.216 344.936 266.681 344.903 268.192C344.624 269.126 344.381 269.83 344.599 270.254C344.759 270.681 344.967 271.088 345.219 271.467C345.377 271.564 345.352 270.97 345.474 270.497C345.7 269.634 346.004 268.793 346.384 267.986C346.704 267.37 347.061 266.775 347.453 266.203C346.827 267.922 346.331 269.686 345.971 271.48C345.801 273.02 346.384 273.044 346.554 273.481C346.739 273.816 346.996 274.107 347.307 274.33C347.307 274.33 348.266 270.412 348.521 269.611C348.767 268.974 349.107 268.377 349.529 267.84C349.012 269.173 348.649 270.561 348.448 271.977C348.133 274.27 348.133 274.925 348.388 275.228C348.586 275.44 348.806 275.631 349.043 275.798L349.614 276.199C349.614 276.199 350.658 270.849 350.901 270.558C351.227 270.244 351.59 269.972 351.981 269.745C351.981 269.745 351.35 270.097 350.974 271.783C350.597 273.469 350.124 276.077 350.682 276.866C351.013 277.329 351.279 277.835 351.472 278.37L351.981 279.146C351.485 278.77 351.011 278.364 350.561 277.933C350.342 277.666 349.347 276.72 349.274 276.635C349.201 276.55 348.206 276.15 347.866 275.568C347.526 274.985 347.016 274.998 346.761 274.67C346.314 274.11 345.908 273.518 345.547 272.899C345.44 272.515 345.259 272.156 345.012 271.843C344.441 271.074 344.197 270.111 344.332 269.163C344.466 267.658 344.976 264.892 346.202 263.509C346.737 262.885 347.48 262.473 348.294 262.351C349.107 262.228 349.938 262.403 350.634 262.842Z" fill="#231F20"/>
<path d="M363.418 221.003C363.421 221.039 363.421 221.075 363.418 221.112" stroke="#231F20" stroke-width="0.25" stroke-miterlimit="10"/>
<path d="M383.779 239.575C382.565 243.214 384.265 247.582 383.488 248.176C382.954 248.576 378.546 249.244 375.207 250.032C374.831 250.117 374.479 250.202 374.151 250.299C373.303 250.485 372.485 250.792 371.723 251.209C369.829 252.507 369.173 251.743 369.707 251.209C370.242 250.675 370.521 247.654 370.594 246.987C370.597 246.947 370.597 246.906 370.594 246.866C370.594 246.866 369.938 246.575 366.842 247.169C366.093 247.322 365.321 247.322 364.572 247.169C362.738 246.793 361.573 245.519 361.585 244.573C361.316 242.032 360.791 239.524 360.018 237.088C359.754 235.794 359.754 234.459 360.019 233.164C360.284 231.87 360.808 230.642 361.56 229.555C362.352 227.775 362.849 225.878 363.03 223.938C363.03 223.829 363.03 223.732 363.03 223.635C363.03 223.538 363.03 223.574 363.03 223.538V223.307C363.151 222.434 363.236 221.706 363.272 221.318C363.272 221.233 363.272 221.172 363.272 221.124L363.345 221.003C364.189 219.962 365.244 219.112 366.442 218.51C367.639 217.907 368.951 217.566 370.29 217.509C373.062 217.162 375.874 217.656 378.361 218.926C380.849 220.196 382.897 222.183 384.241 224.63C384.669 225.38 385.019 226.173 385.285 226.995C386.924 231.848 384.799 236.457 383.779 239.575Z" fill="#FCC59A"/>
<path opacity="0.43" d="M362.252 231.387C362.046 232.005 360.637 232.6 361.341 233.655C361.903 234.644 362.105 235.797 361.912 236.918C361.516 238.741 361.471 240.623 361.779 242.462C362.24 245.823 363.151 246.769 364.583 247.157C362.75 246.781 361.584 245.507 361.596 244.561C361.327 242.02 360.803 239.512 360.03 237.076C359.766 235.781 359.766 234.447 360.031 233.152C360.296 231.857 360.82 230.63 361.572 229.543C362.364 227.763 362.86 225.866 363.041 223.926C363.041 223.817 363.041 223.72 363.041 223.623C363.041 223.526 363.041 223.562 363.041 223.526C363.745 224.011 365.263 225.26 364.96 226.874C364.632 228.96 362.446 230.756 362.252 231.387Z" fill="#A54623"/>
<path d="M361.451 232.927C361.529 233.694 361.782 234.433 362.192 235.087C362.01 234.953 360.407 233.655 360.905 232.66C361.403 231.666 364.863 228.633 365.021 226.922C365.03 226.288 364.846 225.666 364.492 225.14C364.139 224.613 363.633 224.207 363.042 223.975C363.042 223.756 363.042 223.55 363.139 223.344C364.302 223.955 365.175 225.002 365.567 226.255C366.126 228.415 361.561 232.102 361.451 232.927Z" fill="#231F20"/>
<path d="M369.136 228.293C369.136 228.293 369.015 227.153 370.484 227.08C371.953 227.007 375.341 227.468 376.773 230.161C375.712 229.315 374.48 228.709 373.161 228.386C371.842 228.064 370.469 228.032 369.136 228.293Z" fill="#231F20"/>
<path opacity="0.43" d="M383.779 239.575C382.565 243.214 384.265 247.582 383.488 248.176C382.954 248.576 378.546 249.244 375.207 250.032C376.5 247.345 377.396 244.485 377.866 241.54C377.866 240.485 380.161 237.464 381.351 235.984C379.901 237.587 378.147 238.886 376.191 239.806C374.078 240.461 373.763 242.232 372.463 244.039C371.164 245.847 370.035 245.252 369.282 244.791C368.53 244.33 368.42 243.008 369.902 241.977C371.285 241.085 372.325 239.751 372.852 238.192C373.756 235.872 375.086 233.741 376.774 231.908C377.988 231.011 379.202 228.839 378.304 228.997C377.405 229.155 374.916 227.274 372.852 226.862C370.788 226.449 368.821 225.649 367.995 224.436C367.17 223.223 365.494 223.683 364.28 223.841C363.868 223.867 363.455 223.809 363.066 223.671C363.06 223.562 363.06 223.453 363.066 223.344C363.187 222.47 363.272 221.743 363.309 221.354C363.309 221.269 363.309 221.209 363.309 221.16L363.382 221.039C366.893 220.535 370.458 220.535 373.969 221.039C378.322 221.69 382.325 223.799 385.321 227.02C386.924 231.848 384.799 236.457 383.779 239.575Z" fill="#A54623"/>
<path d="M369.476 232.575C369.858 232.575 370.168 232.043 370.168 231.387C370.168 230.73 369.858 230.198 369.476 230.198C369.094 230.198 368.784 230.73 368.784 231.387C368.784 232.043 369.094 232.575 369.476 232.575Z" fill="#231F20"/>
<path d="M369.355 239.818C369.102 240.37 368.676 240.826 368.141 241.116C366.198 242.183 362.908 241.116 362.908 241.116C362.908 241.116 362.908 240.412 362.908 239.587C362.908 239.417 362.908 239.235 362.908 239.066C362.903 238.449 362.83 237.834 362.689 237.234C364.889 237.464 367.109 237.407 369.294 237.064C369.504 237.012 369.707 236.939 369.901 236.846C369.953 237.865 369.766 238.883 369.355 239.818Z" fill="white"/>
<path d="M369.355 239.818C369.571 238.909 369.546 237.96 369.282 237.064C369.491 237.012 369.695 236.939 369.889 236.846C369.944 237.864 369.762 238.882 369.355 239.818Z" fill="#231F20"/>
<path d="M385.37 228.815C385.37 228.815 384.301 234.116 382.48 236.215C380.549 238.217 378.969 240.53 377.805 243.057C377.291 244.53 376.945 246.056 376.773 247.606C376.773 247.606 381.144 246.271 382.395 246.393C383.646 246.514 387.191 246.465 387.628 243.421C388.065 240.376 387.422 234.844 387.628 233.061C387.834 231.277 387.421 228.657 385.37 228.815Z" fill="#722914"/>
<path d="M364.316 216.987C365.499 215.005 367.099 213.302 369.004 211.998C370.91 210.693 373.076 209.817 375.353 209.43C383.026 208.216 388.454 211.747 390.676 217.412C392.897 223.077 390.081 231.969 390.081 231.969C390.034 229.372 389.283 226.836 387.908 224.632C386.534 222.427 384.586 220.636 382.274 219.45C374.042 214.731 368.323 214.889 364.316 216.987Z" fill="#F47421"/>
<path opacity="0.43" d="M364.316 216.987C365.499 215.005 367.099 213.302 369.004 211.998C370.91 210.693 373.076 209.817 375.353 209.43C383.026 208.216 388.454 211.747 390.676 217.412C392.897 223.077 390.081 231.969 390.081 231.969C390.034 229.372 389.283 226.836 387.908 224.632C386.534 222.427 384.586 220.636 382.274 219.45C374.042 214.731 368.323 214.889 364.316 216.987Z" fill="#A54623"/>
<path d="M363.236 222.288C363.236 222.288 370.922 219.947 377.928 223.95C384.933 227.954 386.56 233.437 386.997 235.22C387.434 237.003 387.823 237.44 388.454 236.251C389.085 235.062 391.344 230.186 389.923 227.104C388.503 224.023 383.938 217.108 375.863 215.641C367.789 214.173 364.657 216.55 363.394 217.739C362.131 218.928 362.107 222.555 363.236 222.288Z" fill="#722914"/>
<path d="M383.706 231.387C382.626 234.783 377.696 240.133 376.482 240.728H376.409C375.365 241.079 374.527 243.724 373.459 244.525C373.292 244.631 373.105 244.702 372.91 244.734C372.715 244.766 372.515 244.758 372.323 244.71C372.131 244.663 371.951 244.576 371.793 244.457C371.636 244.337 371.504 244.187 371.407 244.015C371.136 243.667 370.983 243.242 370.97 242.802C370.97 241.528 373.131 240.121 373.787 238.277V238.192C374.418 236.312 376.955 232.952 379.323 230.186C380.012 229.405 380.496 228.465 380.731 227.45C380.966 226.436 380.945 225.379 380.671 224.375C380.671 224.375 380.052 222.349 381.193 222.507C381.749 222.633 382.264 222.9 382.686 223.283C385.758 225.576 384.811 227.905 383.706 231.387Z" fill="#F47421"/>
<path d="M376.47 240.728H376.397C375.353 241.079 374.515 243.724 373.447 244.525C372.379 245.325 370.958 244.088 370.958 242.778C370.958 241.468 373.119 240.097 373.775 238.253C373.853 238.919 374.168 239.536 374.663 239.99C375.157 240.444 375.799 240.706 376.47 240.728Z" fill="#FECF0A"/>
<path opacity="0.43" d="M381.205 228.184C380.064 232.806 376.701 234.08 374.758 237.598C373.143 240.533 371.274 242.656 371.395 244.051C371.124 243.704 370.971 243.279 370.958 242.838C370.958 241.565 373.119 240.157 373.775 238.313V238.229C374.406 236.348 376.944 232.988 379.311 230.222C380 229.441 380.484 228.501 380.719 227.487C380.954 226.472 380.934 225.416 380.659 224.411C380.659 224.411 380.04 222.385 381.181 222.543C381.722 224.383 381.731 226.339 381.205 228.184Z" fill="#A54623"/>
<path d="M367.352 215.616V215.713C367.024 216.259 365.385 219.086 365.713 221.124C366.041 223.162 363.807 223.283 362.751 222.883C362.587 222.834 362.437 222.747 362.314 222.628C361.707 221.888 361.634 219.365 362.714 216.987C363.795 214.609 364.875 213.518 366.041 213.154C366.169 213.13 366.301 213.13 366.43 213.154C366.609 213.147 366.787 213.18 366.952 213.251C367.632 213.421 368.02 214.355 367.352 215.616Z" fill="#3B577F"/>
<path opacity="0.61" d="M367.352 215.616V215.713C367.024 216.259 365.385 219.086 365.713 221.124C366.04 223.162 363.806 223.283 362.75 222.883C363.378 221.725 363.755 220.448 363.855 219.134C364.333 217.338 365.223 215.677 366.453 214.282C366.714 213.927 366.874 213.508 366.915 213.069C367.631 213.421 368.019 214.355 367.352 215.616Z" fill="#254163"/>
<path d="M371.407 217.764C369.923 217.296 368.385 217.018 366.83 216.939C365.106 216.999 363.71 219.899 365.143 220.578C366.575 221.257 368.251 220.517 369.477 221.051C370.703 221.585 371.905 221.5 371.905 220.165C371.925 219.337 371.755 218.516 371.407 217.764Z" fill="#1D3751"/>
<path d="M382.091 223.053C381.193 226.267 380.282 227.226 378.825 227.104C375.767 226.486 372.838 225.345 370.168 223.732C369.708 223.406 369.357 222.95 369.161 222.422C368.469 220.602 369.331 217.921 370.168 216.041C370.417 215.393 370.908 214.867 371.538 214.575C372.169 214.283 372.888 214.247 373.544 214.476C373.544 214.476 379.444 215.483 381.169 216.526H381.241C382.893 217.63 382.978 219.874 382.091 223.053Z" fill="#3B577F"/>
<path d="M380.914 218.88C380.834 220.134 380.539 221.365 380.04 222.519C379.299 224.654 378.826 225.2 377.915 224.945C377.733 224.945 377.369 224.8 376.883 224.642C375.6 224.244 374.342 223.766 373.119 223.21C372.541 222.953 371.985 222.649 371.456 222.301C371.045 222.066 370.711 221.716 370.497 221.294C370.36 220.711 370.36 220.105 370.497 219.523C370.707 218.252 371.21 217.048 371.966 216.005C372.206 215.814 372.484 215.679 372.782 215.608C373.08 215.536 373.39 215.531 373.69 215.592C374.003 215.621 374.312 215.682 374.613 215.774C374.953 215.835 375.56 215.98 376.252 216.174C377.148 216.42 378.032 216.711 378.899 217.048C379.557 217.241 380.169 217.567 380.696 218.006C380.867 218.263 380.945 218.572 380.914 218.88Z" fill="#FECF0A"/>
<path opacity="0.32" d="M377.344 241.989C376.617 244.87 375.562 247.658 374.199 250.299C373.351 250.485 372.533 250.792 371.771 251.209C369.877 252.507 369.221 251.742 369.756 251.209C370.29 250.675 370.569 247.654 370.642 246.987C371.843 246.594 372.968 245.999 373.969 245.228C375.255 244.33 376.393 243.237 377.344 241.989Z" fill="#F47421"/>
<path d="M366.004 214.015C364.468 215.438 363.487 217.36 363.236 219.438C363.017 221.233 362.738 222.422 362.216 222.58C361.609 221.84 361.536 219.316 362.617 216.939C363.697 214.561 364.778 213.469 365.943 213.105C366.072 213.082 366.203 213.082 366.332 213.105C366.417 213.263 366.417 213.578 366.004 214.015Z" fill="#FECF0A"/>
<path opacity="0.61" d="M382.092 223.053C381.193 226.267 380.283 227.226 378.826 227.104C375.767 226.486 372.839 225.345 370.169 223.732C369.709 223.406 369.358 222.95 369.161 222.422C369.96 223.124 370.894 223.656 371.905 223.987C374.795 225.054 378.243 226.486 379.506 226.049C380.768 225.612 381.533 222.252 381.934 219.632C382.042 219.103 382.037 218.558 381.92 218.031C381.802 217.504 381.576 217.008 381.254 216.575C382.893 217.63 382.978 219.874 382.092 223.053Z" fill="#254163"/>
<path d="M375.426 217.412C375.317 217.011 375.633 216.599 376.191 216.199C375.499 216.005 374.892 215.859 374.552 215.798C374.252 215.706 373.942 215.645 373.629 215.616C372.816 216.829 373.387 219.256 371.675 219.122C371.232 219.115 370.802 219.265 370.461 219.547C370.324 220.129 370.324 220.735 370.461 221.318C370.675 221.74 371.009 222.09 371.42 222.325C371.582 221.935 371.855 221.602 372.204 221.365C372.554 221.128 372.964 220.998 373.387 220.99C376.131 220.626 375.912 219.086 375.426 217.412Z" fill="white"/>
<path d="M380.914 218.88C380.919 218.577 380.82 218.282 380.635 218.043C380.108 217.603 379.496 217.277 378.838 217.084C378.134 217.533 377.624 218.067 377.915 218.637C378.631 220.214 376.895 221.73 374.443 222.276C374.164 222.326 373.9 222.439 373.671 222.604C373.442 222.77 373.253 222.986 373.119 223.235C374.342 223.79 375.599 224.269 376.883 224.666C378.789 223.708 380.355 222.07 379.906 220.542C379.773 219.984 380.198 219.413 380.914 218.88Z" fill="white"/>
<path d="M375.183 214.731C375.183 214.731 381.484 215.434 382.274 217.703C383.063 219.971 382.274 223.271 381.909 224.423C381.545 225.576 380.817 227.214 379.032 227.068C376.674 226.553 374.375 225.797 372.172 224.812C372.172 224.812 377.988 227.153 379.712 226.377C381.436 225.6 382.14 221.112 382.274 219.704C382.407 218.297 382.213 217.363 381.144 216.745C379.201 215.95 377.21 215.278 375.183 214.731Z" fill="#231F20"/>
<path d="M366.623 216.963C367.051 216.264 367.389 215.514 367.631 214.731C367.688 214.525 367.696 214.309 367.654 214.1C367.613 213.891 367.523 213.695 367.392 213.526C367.261 213.358 367.093 213.222 366.9 213.13C366.708 213.038 366.497 212.992 366.283 212.996C365.142 212.996 364.195 213.7 362.944 216.114C363.522 215.177 364.267 214.355 365.142 213.688C366.053 213.227 366.356 213.13 366.805 213.445C366.941 213.513 367.061 213.609 367.158 213.726C367.254 213.843 367.326 213.979 367.367 214.125C367.408 214.271 367.418 214.424 367.397 214.574C367.375 214.725 367.323 214.869 367.242 214.998C366.983 215.693 366.568 216.32 366.028 216.829C365.674 216.985 365.355 217.21 365.09 217.491C364.825 217.773 364.62 218.105 364.486 218.467C364.369 218.75 364.324 219.059 364.356 219.364C364.388 219.669 364.495 219.961 364.668 220.214C364.53 219.526 364.654 218.811 365.015 218.21C365.377 217.609 365.95 217.164 366.623 216.963Z" fill="#231F20"/>
<path d="M367.267 213.372C370.103 210.949 373.665 209.536 377.393 209.357C383.148 209.357 389.643 212.438 390.748 218.977C391.853 225.515 390.748 226.559 390.748 226.559C390.697 226.086 390.539 225.631 390.287 225.227C390.034 224.824 389.694 224.483 389.291 224.229C387.815 223.134 386.435 221.917 385.163 220.59C385.163 220.59 389.23 225.2 389.777 227.869C390.323 230.537 389.364 230.125 389.291 231.035C389.218 231.945 387.943 231.629 387.191 229.737C387.422 230.571 387.727 231.383 388.101 232.163L388.66 233.279C387.727 232.405 386.973 231.359 386.438 230.198C386.001 228.815 385.017 228.208 385.017 227.129C385.038 226.528 384.854 225.938 384.495 225.455C384.495 225.455 385.212 226 384.301 229.506C385.198 230.952 385.981 232.465 386.644 234.031C387.506 236.166 387.264 238.216 388.611 236.918C389.959 235.62 390.214 231.229 390.214 231.229C390.214 231.229 391.707 228.293 391.525 222.094C391.343 215.895 389.643 214.379 387.154 211.88C384.665 209.381 374.199 206.033 367.267 213.372Z" fill="#231F20"/>
<path d="M377.345 241.989C377.345 241.989 373.168 246.575 370.363 246.842C367.559 247.108 363.953 248.443 362.119 245.738C362.119 245.738 363.2 247.545 366.466 246.951C369.732 246.356 370.97 246.284 372.184 245.738C373.969 244.58 375.692 243.329 377.345 241.989Z" fill="#231F20"/>
<path d="M565.987 587.359C565.513 588.232 566.934 593.06 566.059 594.637C565.185 596.214 539.227 611.815 535.973 612.045C532.719 612.276 491.159 606.429 481.106 603.663C471.052 600.897 469.935 600.581 469.935 598.519C469.833 596.925 469.878 595.325 470.069 593.74C470.114 593.242 470.267 592.76 470.519 592.328C470.771 591.896 471.115 591.525 471.526 591.241C473.578 590.028 502.487 579.85 502.487 579.85C503.702 575.733 505.402 571.775 507.55 568.058C511.35 561.253 520.213 537.731 522.994 535.62C525.774 533.509 567.407 538.471 576.987 540.048C586.566 541.625 586.894 542.826 584.915 550.02C582.936 557.213 566.46 586.497 565.987 587.359Z" fill="#B3B3B3"/>
<path opacity="0.43" d="M566.059 594.637C565.197 596.226 539.227 611.815 535.973 612.045C532.719 612.276 491.159 606.429 481.106 603.663C471.052 600.897 469.935 600.581 469.935 598.519C469.833 596.925 469.878 595.325 470.069 593.74C471.936 594.68 473.915 595.381 475.958 595.826C485.671 598.252 511.107 603.311 522.994 604.488C534.88 605.664 532.962 606.744 538.073 604.488C543.185 602.231 561.591 591.714 565.999 587.359C565.537 588.232 566.934 593.06 566.059 594.637Z" fill="#231F20"/>
<path d="M474.476 591.908C474.476 591.908 502.159 581.233 503.458 581.111C504.757 580.99 562.854 586.485 562.138 587.359C561.421 588.232 537.43 603.784 533.63 603.893C529.829 604.002 469.304 594.759 474.476 591.908Z" fill="#254163"/>
<path d="M541.291 594.88L547.702 591.398L552.74 588.669L556.893 586.412" stroke="white" stroke-width="0.25" stroke-miterlimit="10"/>
<path d="M547.981 585.369H547.969L543.744 587.553L538.729 590.125H538.717L531.991 593.594L524.245 597.573L516.377 601.613" stroke="white" stroke-width="0.25" stroke-miterlimit="10"/>
<path d="M537.612 584.265L533.666 586.291L528.955 588.717L522.192 592.199L514.701 596.057L506.882 600.072" stroke="white" stroke-width="0.25" stroke-miterlimit="10"/>
<path d="M526.381 583.149L522.86 584.957L518.502 587.152L511.715 590.646L504.43 594.358L496.829 598.264" stroke="white" stroke-width="0.25" stroke-miterlimit="10"/>
<path d="M516.437 582.203L513.401 583.756L509.358 585.842L502.547 589.348L495.553 592.987L488.269 596.7" stroke="white" stroke-width="0.25" stroke-miterlimit="10"/>
<path d="M508.874 581.524L505.911 582.81L501.613 584.726L493.903 588.074L486.327 591.398L479.212 594.516" stroke="white" stroke-width="0.25" stroke-miterlimit="10"/>
<path d="M495.821 583.816L501.613 584.69L509.347 585.842L518.502 587.201L528.907 588.717L538.717 590.125C541.74 590.573 544.788 590.998 547.69 591.338L554.732 592.32" stroke="white" stroke-width="0.25" stroke-miterlimit="10"/>
<path d="M500.435 582.118L505.874 582.81L513.365 583.756L522.823 584.969L533.581 586.303L543.695 587.516L552.691 588.632L559.187 589.421" stroke="white" stroke-width="0.25" stroke-miterlimit="10"/>
<path d="M487.14 587.08L493.878 588.074L502.523 589.288L511.69 590.634L522.119 592.138L531.966 593.533L541.266 594.819L549.037 595.863" stroke="white" stroke-width="0.25" stroke-miterlimit="10"/>
<path d="M479.042 590.173L486.327 591.386L495.554 592.927L504.466 594.431L514.641 596.081L524.233 597.597L533.521 599.029C536.423 599.453 539.191 599.866 541.789 600.242" stroke="white" stroke-width="0.25" stroke-miterlimit="10"/>
<path d="M526.029 603.032L533.533 599.004L533.545 598.992" stroke="white" stroke-width="0.25" stroke-miterlimit="10"/>
<path d="M504.83 578.855C504.83 578.855 521.937 537.913 523.953 537.44C525.968 536.967 575.979 541.952 580.01 543.372C584.041 544.791 580.726 550.371 577.995 555.248C575.263 560.125 563.753 584.993 562.211 585.369C560.669 585.745 508.861 578.746 504.83 578.855Z" fill="#231F20"/>
<path d="M546.681 561.119C546.689 560.512 546.572 559.909 546.338 559.348C546.105 558.786 545.759 558.279 545.322 557.856C544.484 557.14 542.31 557.492 541.291 556.485C540.905 556.052 540.399 555.742 539.837 555.595C539.275 555.448 538.683 555.471 538.134 555.66C537.376 556.117 536.525 556.398 535.645 556.485C534.03 556.667 533.617 556.607 533.386 557.613C533.168 558.188 533.168 558.822 533.386 559.397C533.556 559.991 534.989 560.222 534.807 559.955C534.625 559.688 534.625 559.955 534.625 559.688C534.516 559.368 534.516 559.022 534.623 558.702C534.73 558.382 534.94 558.106 535.22 557.917C535.22 557.917 535.997 556.91 536.652 557.444C537.308 557.977 537.247 558.269 538.255 557.917C539.263 557.565 544.01 558.511 544.848 560.998C545.686 563.485 542.711 567.294 542.65 568.362C542.59 569.429 541.108 570.606 540.028 570.909C539.242 571.187 538.385 571.187 537.6 570.909C537.737 571.227 537.98 571.489 538.287 571.65C538.594 571.811 538.947 571.862 539.287 571.795C540.501 571.504 539.603 570.97 541.315 570.97C542.09 570.874 542.817 570.544 543.399 570.024C543.98 569.503 544.389 568.817 544.569 568.058C544.569 567.173 544.265 566.396 545.018 565.511C545.944 564.216 546.517 562.702 546.681 561.119Z" fill="white"/>
<path d="M537.357 566.457C536.754 566.825 536.093 567.087 535.402 567.233C535.061 567.287 534.712 567.243 534.396 567.106C534.08 566.968 533.809 566.743 533.617 566.457C533.59 566.722 533.645 566.989 533.772 567.223C533.9 567.457 534.096 567.646 534.333 567.767C534.727 567.901 535.149 567.925 535.556 567.837C535.962 567.75 536.337 567.554 536.64 567.27C537.296 566.821 537.66 567.173 538.486 566.991C539.311 566.809 539.493 565.923 539.554 565.389C539.615 564.856 539.979 563.376 539.032 562.721C538.832 562.594 538.658 562.429 538.522 562.235C538.595 562.586 538.705 562.927 538.85 563.254C539.141 563.849 539.02 564.261 538.85 565.098C538.68 565.935 538.134 566.105 537.357 566.457Z" fill="white"/>
<path d="M538.523 562.235C538.425 561.787 538.377 561.398 538.377 561.398C538.33 561.539 538.319 561.689 538.344 561.835C538.37 561.981 538.431 562.119 538.523 562.235Z" fill="white"/>
<path d="M549.839 566.275C549.377 565.414 550.081 563.449 550.3 562.878C549.973 563.724 549.566 564.536 549.086 565.305C548.333 566.433 549.086 567.622 549.086 568.944C549.086 570.266 547.702 571.309 546.658 571.892C545.613 572.474 545.443 573.214 544.108 574.318C542.772 575.422 539.118 575.919 537.928 575.264C536.738 574.609 534.905 575.082 533.593 574.488C532.821 574.095 532.14 573.544 531.594 572.871C531.048 572.198 530.649 571.418 530.424 570.582C529.975 568.798 528.967 566.724 529.38 566.129C529.926 565.259 530.197 564.244 530.157 563.218C530.366 561.906 530.806 560.641 531.456 559.482C529.38 560.015 527.595 565.062 528.494 566.603C529.392 568.143 528.372 567.609 527.863 569.926C527.353 572.243 528.069 571.528 528.725 572.353C529.38 573.178 529.732 575.021 532.707 575.325C535.682 575.628 536.349 577.751 538.231 576.926C540.113 576.101 542.444 577.217 543.319 576.514C544.51 575.709 545.769 575.011 547.082 574.427C547.838 573.962 548.46 573.307 548.886 572.529C549.311 571.75 549.527 570.874 549.511 569.987C549.414 568.713 550.373 567.294 549.839 566.275Z" fill="white"/>
<path d="M528.154 559.955C528.457 558.681 528.275 557.529 529.101 556.315C529.926 555.102 530.533 554.12 530.533 554.12C530.533 554.12 532.197 551.803 534.03 551.985C535.864 552.167 537.478 552.931 538.316 552.518C539.941 551.937 541.718 551.937 543.343 552.518C545.14 553.222 546.087 554.593 546.985 554.714C547.555 554.754 548.1 554.961 548.554 555.308C549.007 555.655 549.348 556.128 549.535 556.667C549.887 557.977 550.373 560.755 550.373 560.755C550.373 560.755 551.198 557.019 550.373 555.83C549.547 554.641 547.337 555.066 546.73 553.404C546.123 551.742 544.63 552.628 543.391 551.499C542.001 550.41 540.3 549.79 538.535 549.728C537.053 549.728 536.58 550.735 535.269 550.735C533.957 550.735 532.245 550.493 531.626 551.39C530.897 552.474 530.018 553.45 529.016 554.29C528.178 554.884 527.802 557.735 527.802 558.802C527.714 559.599 527.457 560.369 527.049 561.059C527.049 561.059 527.899 561.229 528.154 559.955Z" fill="white"/>
<path d="M554.744 556.667C554.343 555.066 551.794 554.593 551.49 553.404C551.666 554.667 552.182 555.858 552.983 556.849C553.527 557.463 553.931 558.188 554.166 558.974C554.401 559.76 554.461 560.587 554.343 561.398C553.991 562.248 552.923 563.497 553.044 564.807C553.156 566.098 552.952 567.397 552.449 568.592C552.036 569.247 550.567 570.193 550.737 570.848C550.764 571.538 550.64 572.225 550.373 572.862C550.373 572.862 551.672 572.037 551.733 571.2C551.782 570.79 551.916 570.394 552.125 570.037C552.333 569.68 552.613 569.37 552.947 569.126C553.712 568.41 553.384 565.317 554.708 563.667C556.031 562.017 556.274 559.688 555.8 558.924C555.251 558.281 554.886 557.501 554.744 556.667Z" fill="white"/>
<path d="M526.138 574.294C525.956 573.226 525.009 572.45 524.475 570.848C524.304 570.241 524.258 569.606 524.34 568.98C524.421 568.355 524.628 567.753 524.948 567.209C525.3 566.311 524.802 564.346 524.353 561.374C524.061 559.694 524.267 557.965 524.948 556.4C523.867 557.291 523.15 558.547 522.933 559.931C522.568 561.677 522.933 562.696 523.528 564.783C524.123 566.869 523.054 567.318 522.872 569.635C522.69 571.952 523.758 572.244 524.657 573.081C525.555 573.918 524.827 573.796 525.665 576.041C526.502 578.285 533.229 578.77 533.229 578.77C531.375 578.471 529.575 577.903 527.886 577.084C525.665 575.895 526.32 575.361 526.138 574.294Z" fill="white"/>
<path d="M535.463 546.574C535.342 546.041 534.104 544.5 532.914 545.155C531.724 545.81 530.182 547.06 530.352 548.006C531.217 547.456 532.206 547.131 533.229 547.06C534.516 547.12 535.585 547.12 535.463 546.574Z" fill="white"/>
<path d="M560.681 553.877C560.851 552.397 557.342 551.269 556.868 552.749C556.868 552.749 559.369 552.931 559.612 554.714C559.855 556.497 559.612 558.511 560.256 557.917C560.899 557.322 560.523 555.357 560.681 553.877Z" fill="white"/>
<path d="M550.87 481.431C555.812 481.237 563.121 479.599 565.44 475.584C567.759 471.568 566.849 461.73 566.509 455.119C566.254 450.145 565.634 446.724 564.809 445.038C564.636 444.594 564.341 444.207 563.959 443.922C562.745 443.194 552.497 443.352 545.188 446.093C537.879 448.835 536.689 450.594 536.944 451.94C536.944 451.94 536.944 451.94 536.944 452.013C536.944 452.086 541.072 469.373 541.691 473.691C541.964 475.899 543.061 477.923 544.763 479.358C546.465 480.793 548.646 481.533 550.87 481.431Z" fill="url(#paint1_linear_131_2367)"/>
<path opacity="0.32" d="M547.326 452.559C554.611 451.819 560.244 449.15 563.268 446.651C563.856 446.17 564.393 445.629 564.87 445.038C564.697 444.594 564.403 444.207 564.02 443.922C562.806 443.194 552.559 443.352 545.25 446.093C537.941 448.835 536.751 450.594 537.006 451.94C537.902 452.191 538.815 452.377 539.738 452.498C542.255 452.829 544.804 452.85 547.326 452.559Z" fill="#722914"/>
<path d="M547.326 452.559C554.611 451.819 560.244 449.15 563.267 446.651C561.677 445.584 558.083 445.305 551.405 446.785C544.436 448.313 541.158 450.934 539.737 452.498C542.255 452.829 544.803 452.85 547.326 452.559Z" fill="#722914"/>
<path d="M538.887 456.308C538.887 456.308 532.61 457.011 531.712 458.855C530.813 460.699 533.569 473.085 536.204 474.079C538.839 475.074 542.906 473.873 542.906 473.873C542.906 473.873 543.064 471.314 542.53 470.671C541.995 470.028 539.591 470.925 538.146 470.671C536.702 470.416 535.718 464.605 535.415 462.591C535.111 460.578 536.301 460.323 539.458 459.801C542.615 459.28 538.887 456.308 538.887 456.308Z" fill="url(#paint2_linear_131_2367)"/>
<path d="M554.064 462.688C552.17 461.56 549.839 463.319 548.624 462.494C547.41 461.669 549.584 458.321 552.947 458.746C555.219 459.17 557.312 460.265 558.957 461.888C559.94 462.737 559.625 463.295 558.52 464.023C557.415 464.751 555.958 463.817 554.064 462.688Z" fill="#722914"/>
<path d="M556.893 467.359C554.606 467.731 552.262 467.256 550.3 466.024C548.139 464.617 548.236 463.598 550.361 463.125C551.186 462.855 552.068 462.803 552.919 462.975C553.77 463.147 554.562 463.538 555.217 464.108C556.65 465.212 558.459 464.69 558.86 464.848C560.365 465.442 558.253 466.959 556.893 467.359Z" fill="#722914"/>
<path d="M550.652 449.259C551.733 445.795 552.333 442.199 552.437 438.572C552.437 433.428 555.12 434.326 556.93 430.954C558.739 427.581 562.855 427.909 560.924 430.675C558.994 433.441 557.124 435.345 558.678 435.309C560.232 435.272 564.117 430.893 564.311 427.363C564.506 423.833 566.157 410.38 576.052 404.593C585.948 398.807 595.297 398.212 595.904 403.768C596.511 409.324 580.205 410.355 577.23 416.76C574.255 423.166 573.405 427.436 569.775 429.826C566.145 432.215 564.676 433.635 563.255 436.51C561.835 439.385 557.184 439.397 555.509 443.06C553.833 446.724 551.454 452.668 550.652 449.259Z" fill="url(#paint3_linear_131_2367)"/>
<path d="M558.702 445.766C560.468 443.312 562.961 441.475 565.829 440.513C570.127 439.361 571.196 441.12 569.824 442.054C568.452 442.988 561.288 441.762 558.702 445.766Z" fill="url(#paint4_linear_131_2367)"/>
<path d="M546.706 442.09C546.706 442.09 543.975 438.73 545.225 436.025C546.476 433.319 548.333 431.851 546.937 427.63C545.541 423.408 547.18 420.63 548.843 421.006C550.507 421.382 548.661 424.803 549.985 427.351C551.308 429.898 552.546 431.184 550.47 433.344C548.394 435.503 546.828 435.661 546.949 437.432C547.071 439.203 545.844 440.743 546.706 442.09Z" fill="url(#paint5_linear_131_2367)"/>
<path d="M591.885 123.275C580.241 156.502 570.977 157.715 575.725 164.096C580.472 170.477 599.243 195.721 569.314 217.472C539.385 239.223 512.115 233.546 509.687 247.242C507.259 260.938 508.971 264.929 504.697 263.886C500.423 262.842 498.286 256.607 494.717 261.605C491.147 266.603 499.33 262.588 497.266 266.154C495.202 269.721 501.37 264.735 498.286 271.261C495.202 277.788 483.789 291.423 475.958 291.726C468.127 292.029 458.608 277.933 458.608 277.933C458.608 277.933 454.577 249.28 458.608 235.05C462.639 220.821 465.152 220.19 464.909 225.018C464.666 229.846 464.557 237.549 467.641 233.279C470.725 229.009 470.725 223.671 473.457 223.793C476.189 223.914 477.099 224.448 478.496 219.134C479.892 213.821 490.637 195.661 501.249 199.227C511.86 202.794 513.245 212.632 518.004 206.579C522.763 200.525 519.218 201.872 523.225 198.766C527.231 195.661 520.141 192.931 527.499 188.188C534.856 183.445 555.303 164.812 553.748 138.706C552.194 112.6 525.605 123.991 524.609 109.155C523.613 94.3185 522.581 89.454 515.928 88.532C509.274 87.61 513.317 82.236 511.423 77.3715C509.529 72.507 500.775 75.4426 496.331 66.7326C491.888 58.0225 478.119 49.2882 469.013 56.0573C459.907 62.8264 459.858 69.4621 446.673 65.5559C433.487 61.6497 403.328 77.0561 392.279 101.039C381.23 125.022 401.422 143.049 384.436 161.439C367.45 179.83 359.315 177.489 352.188 171.059C345.061 164.63 332.762 158.819 314.209 171.059C295.657 183.299 309.79 188.043 289.356 192.07C268.922 196.098 273.803 228.524 255.153 236.882C236.504 245.24 125.81 276.562 146.232 347.274C166.654 417.986 200.869 404.714 194.215 436.522C187.562 468.329 194.701 471.702 208.469 476.396C222.238 481.091 197.068 510.096 224.63 509.15C252.191 508.204 258.832 492.058 279.74 510.569C300.647 529.081 321.931 519.595 336.465 504.88C350.998 490.165 365.993 480.909 369.902 490.323C373.812 499.736 381.959 510.606 398.556 479.757C415.154 448.908 420.848 431.342 442.46 429.68C464.072 428.018 463.367 448.41 475.958 444.237C488.549 440.064 502.317 460.007 503.507 476.882C504.697 493.756 512.297 484.949 509.93 498.244C507.562 511.54 499.95 541.2 512.297 554.047C524.645 566.894 536.763 560.925 536.763 560.925C536.763 560.925 537.479 564.722 534.152 564.722C526.351 565.296 518.547 563.638 511.654 559.943C507.2 557.437 503.235 554.15 499.95 550.238C485.926 533.861 499.707 534.091 497.096 525.782C494.486 517.472 500.897 519.619 498.043 512.971C495.19 506.324 503.981 495.648 497.813 492.349C491.645 489.049 486.885 490.214 489.022 482.644C491.159 475.074 488.779 464.132 474.768 464.132C460.757 464.132 460.041 452.256 449.344 454.427C445.656 455.2 442.09 456.469 438.744 458.2C429.262 462.98 417.752 472.49 405.635 490.396C388.539 515.664 352.212 557.674 327.929 558.62C303.646 559.567 306.548 547.702 299.652 547.702C292.755 547.702 286.588 547.945 281.84 534.649C277.093 521.354 265.923 515.434 250.272 530.379C234.622 545.325 228.648 556.485 211.784 541.297C194.919 526.109 174.012 547.472 152.874 528.717C131.735 509.963 107.501 473.897 118.877 411.047C130.254 348.196 115.951 269.114 194.155 239.927C272.358 210.74 234.064 199.519 251.802 193.829C269.541 188.14 285.665 187.569 284.888 168.888C284.111 150.206 280.942 140.089 295.815 136.935C310.688 133.781 313.942 141.047 319.612 129.013C325.282 116.979 340.144 113.825 345.219 121.104C350.294 128.382 372.015 138.196 375.572 119.527C379.13 100.857 371.068 102.119 375.572 96.7447C380.077 91.3706 382.044 88.5077 381.534 82.5029C381.024 76.498 380.15 74.4237 387.75 69.1588C395.351 63.8939 404.457 48.2692 402.842 39.4864C401.227 30.7035 396.662 9.58346 427.307 2.23208C457.952 -5.11931 478.374 6.9753 488.354 20.0283C498.335 33.0812 506.409 35.2163 524.22 30.9462C542.032 26.676 559.103 27.9134 572.641 45.661C586.178 63.4087 587.125 80.3193 590.695 72.9558C594.265 65.5923 594.969 54.6865 597.106 59.454C599.243 64.2215 603.516 90.0484 591.885 123.275Z" fill="url(#paint6_linear_131_2367)"/>
<path opacity="0.25" d="M463.465 278.77C463.465 278.77 466.015 246.465 467.423 250.493C468.831 254.52 472.158 252.397 472.51 250.493C472.862 248.588 472.777 246.247 474.841 244.803C474.841 244.803 477.367 247.145 479.516 239.951C481.665 232.757 485.927 221.755 489.97 220.347C494.013 218.94 498.76 209.43 503.507 219.134C508.255 228.839 510.161 224.557 512.298 220.554C514.435 216.55 514.435 215.544 515.867 219.134C517.3 222.725 523.468 218.928 526.552 212.511C529.636 206.093 528.458 204.444 532.963 202.078C537.467 199.713 552.45 180 559.103 159.826C565.757 139.652 558.618 126.83 560.997 130.869C563.377 134.909 564.7 151.989 562.017 161.718C559.334 171.447 566.23 157.448 569.788 168.609C573.345 179.769 579.768 196.692 551.733 214.33C523.699 231.969 520.372 220.202 516.341 229.167C512.31 238.131 512.067 238.071 511.351 234.662C510.634 231.253 504.224 229.81 504.224 235.05C504.224 240.291 503.981 255.867 500.897 252.118C497.813 248.37 494.486 244.245 492.823 248.2C491.16 252.155 485.222 258.366 487.59 262.26C489.958 266.154 488.901 269.369 486.23 273.578C483.559 277.788 491.876 268.726 491.16 272.28C490.443 275.835 477.258 287.517 477.258 287.517L463.465 278.77Z" fill="white"/>
<path opacity="0.25" d="M556.723 117.816C556.723 117.816 555.302 107.614 546.743 107.614C538.183 107.614 536.762 95.0342 535.099 84.8199C533.436 74.6056 526.794 79.1305 526.078 70.3476C525.362 61.5648 511.107 74.8604 506.652 58.714C502.196 42.5677 492.397 44.7148 492.397 44.7148C492.397 44.7148 499.282 40.6752 502.851 45.9279C506.421 51.1807 510.452 49.4823 511.872 46.6315C513.293 43.7808 543.938 29.0659 559.151 55.657C574.365 82.2482 563.656 82.7091 567.456 90.8369C571.256 98.9647 563.425 100.335 566.035 108.645C568.646 116.955 575.166 127.157 573.09 135.94C571.013 144.723 568.646 149.939 568.646 153.736V157.533C568.646 157.533 566.509 153.736 567.93 145.402C569.35 137.068 568.889 125.993 566.035 121.14C563.182 116.288 561.992 115.912 560.329 107.129C558.666 98.346 554.161 93.627 555.108 98.7221C556.055 103.817 561.713 109.749 556.723 117.816Z" fill="white"/>
<path opacity="0.25" d="M511.654 559.955C507.2 557.449 503.235 554.162 499.949 550.25C485.926 533.873 499.706 534.104 497.096 525.794C494.486 517.484 500.896 519.631 498.043 512.984C495.19 506.336 503.98 495.66 497.812 492.361C491.644 489.061 486.885 490.226 489.022 482.656C491.159 475.086 488.779 464.144 474.768 464.144C460.757 464.144 460.04 452.268 449.344 454.439C445.656 455.212 442.09 456.481 438.744 458.212C427.95 461.985 415.335 471.217 405.404 485.774C384.763 515.968 361.694 533.485 355.284 537.488C348.873 541.491 326.533 558.681 324.396 551.039C322.259 543.396 310.615 542.547 299.554 542.547C288.493 542.547 290.667 541.334 278.307 523.562C265.947 505.79 242.914 527.589 233.177 532.818C223.439 538.046 210.606 529.967 210.108 521.657C209.61 513.347 205.118 517.387 202.981 514.779C200.844 512.171 202.981 497.456 202.981 497.456C202.981 497.456 203.224 511.455 212.488 517.63C221.752 523.804 235.557 520.238 248.123 513.117C260.689 505.996 271.714 506.591 278.307 516.793C284.899 526.995 296.604 531.75 308.952 533.412C321.3 535.074 346.25 509.15 362.374 504.48C378.498 499.809 360.711 530.088 371.82 521.536C382.93 512.984 401.324 492.822 409.884 470.695C418.164 449.259 438.938 442.527 440.237 442.126C432.685 445.908 426.43 451.85 422.268 459.195C422.268 459.195 431.059 449.381 441.986 444.892C452.913 440.404 463.367 444.638 467.884 451.758C472.4 458.879 474.768 453.19 486.642 457.569C498.517 461.948 496.355 478.823 496.865 485.228C497.375 491.633 502.56 490.687 504.818 496.861C507.076 503.036 500.423 505.353 502.39 510.861C504.357 516.368 500.192 524.629 500.447 541.479C500.556 549.546 506.044 555.721 511.654 559.955Z" fill="white"/>
<path opacity="0.25" d="M483.559 47.323C483.559 47.323 479.515 39.4864 469.778 48.5361C460.041 57.5858 455.767 45.6853 444.597 50.6712C433.426 55.657 404.724 61.7953 391.526 89.7815C378.328 117.768 386.269 117.792 382.651 134.885C379.033 151.977 374.285 157.667 365.968 155.058C357.652 152.45 358.368 140.344 350.767 140.101C343.167 139.858 350.998 133.926 354.094 137.493C357.19 141.059 361.088 152.208 367.68 147.464C374.273 142.721 366.211 136.777 374.516 134.642C382.821 132.507 383.076 115.887 380.696 106.631C378.316 97.3755 385.443 96.4293 386.876 87.8891C388.309 79.3488 386.403 75.0666 391.623 71.2696C396.844 67.4726 413.004 59.7451 411.815 44.1447C410.625 28.5442 413.247 5.7622 437.47 13.1257C461.692 20.4892 446.733 32.8265 458.377 32.8265C470.021 32.8265 474.999 31.6134 476.431 36.6235C477.864 41.6336 487.116 38.3097 483.559 47.323Z" fill="white"/>
<path opacity="0.25" d="M433.67 497.383C433.67 497.383 419.658 495.479 407.784 508.774C395.91 522.07 361.926 569.296 333.187 576.174C304.448 583.052 305.868 565.147 303.015 564.856C300.162 564.565 305.626 568.313 303.015 571.892C300.405 575.47 284.73 560.974 280.687 552.106C276.644 543.238 269.905 562.769 285.871 578.794C301.837 594.819 336.756 607.909 344.357 598.313C351.957 588.717 354.325 573.287 364.305 569.478C374.286 565.668 386.633 560.913 390.434 549.413C394.234 537.913 412.058 497.092 433.67 497.383Z" fill="#6BABB6"/>
<path opacity="0.25" d="M459.324 416.105C459.324 416.105 453.144 419.745 459.324 422.438C465.504 425.131 468.357 418.798 472.947 421.649C477.536 424.5 481.021 420.703 481.81 425.046C482.599 429.389 482.453 430.711 487.516 431.487C492.579 432.264 498.444 433.356 500.338 438.766C502.232 444.177 503.033 452.68 505.729 451.419C508.424 450.157 505.255 444.298 507.149 436.546C509.043 428.794 502.56 420.958 497.545 418.532C492.531 416.105 489.143 407.42 491.207 399.923C493.271 392.426 482.016 389.102 475.423 391.953C468.831 394.803 468.612 399.547 471.623 405.879C474.634 412.211 473.675 417.743 469.875 417.743C466.074 417.743 465.662 414.735 459.324 416.105Z" fill="#6BABB6"/>
<path opacity="0.25" d="M513.329 138.306C513.329 138.306 511.909 118.69 500.18 113.461C488.451 108.233 484.202 103.49 478.495 94.0516C472.789 84.6137 456.471 77.5899 438.744 81.9206C427.993 84.6388 418.559 91.0886 412.13 100.117C412.13 100.117 427.975 72.7981 451.565 71.8519C475.156 70.9057 474.865 81.1806 478.495 76.9105C482.125 72.6404 491.317 75.8066 492.349 81.496C493.381 87.1855 488.463 94.3185 496.853 97.4847C505.243 100.651 504.466 98.1155 509.844 107.614C515.223 117.113 518.878 130.869 513.329 138.306Z" fill="#6BABB6"/>
<path opacity="0.25" d="M381.097 30.7036C381.097 30.7036 366.212 35.4589 363.358 46.6922C360.505 57.9255 359.874 69.826 350.209 71.7912C340.544 73.7565 331.05 73.0043 327.14 79.4459C323.231 85.8875 322.709 88.1438 320.013 90.5215C317.318 92.8992 323.498 97.4847 326.084 94.7916C328.67 92.0985 331.621 86.8822 336.368 88.4592C341.115 90.0363 354.58 88.9323 357.931 80.7075C361.282 72.4827 359.813 69.3165 365.35 65.0464C370.886 60.7763 372.792 50.8046 372.003 46.3768C371.214 41.949 372.695 32.9235 381.097 30.7036Z" fill="#6BABB6"/>
<path opacity="0.25" d="M607.559 47.9538C607.559 47.9538 613.739 65.0464 611.833 79.7613C609.927 94.4762 609.295 97.0116 612.464 93.8454C615.633 90.6792 618.013 86.4091 618.329 89.09C618.644 91.771 616.265 98.722 616.265 98.722L619.433 96.3686C619.433 96.3686 619.276 106.34 608.822 128.492C598.368 150.643 589.396 157.448 589.396 157.448C589.396 157.448 615.84 145.232 621.546 125.313C627.253 105.394 625.82 103.599 630.252 98.722C634.683 93.8454 629.887 74.3751 626.245 76.122C622.602 77.8688 616.107 76.4374 615.949 69.1588C615.791 61.8802 610.886 49.0577 607.559 47.9538Z" fill="#6BABB6"/>
<path d="M521.088 326.918V348.038C521.088 348.038 529.878 339.413 547.216 342.191C564.554 344.969 571.791 325.729 573.284 318.851C574.777 311.973 580.472 304.84 580.472 304.84C580.472 304.84 553.846 303.894 550.652 296.651C550.652 296.651 544.132 299.502 543.89 306.563C543.647 313.623 538.426 331.431 521.088 326.918Z" fill="#F47421"/>
<path d="M479.515 360.582L474.841 370.117H492.106L490.892 360.582C490.892 360.582 485.21 363.857 479.515 360.582Z" fill="#EE2C28"/>
<path d="M564.542 379.458C564.542 379.458 570.613 390.873 573.041 390.934C575.469 390.994 587.125 383.655 587.125 383.655L582.851 373.647C582.851 373.647 580.447 384.298 564.542 379.458Z" fill="#FECF0A"/>
<path d="M613.497 484.039C613.497 484.039 615.925 496.619 604.998 499.227L615.452 508.252C615.452 508.252 627.083 499.943 623.526 485.944L613.497 484.039Z" fill="#EE2C28"/>
<path d="M536.641 509.672C536.641 509.672 528.045 513.238 528.009 518.455L535.476 520.59C535.476 520.59 537.358 516.077 541.814 515.131L536.641 509.672Z" fill="#F47421"/>
<path d="M460.272 494.011C460.272 494.011 450.303 500.889 452.44 513.238L443.176 508.301C443.176 508.301 442.217 491.451 453.861 486.938L460.272 494.011Z" fill="#EE2C28"/>
<path d="M458.851 549.413L469.887 548.006V553.404L460.283 556.437L458.851 549.413Z" fill="#FECF0A"/>
<path d="M342.451 478.337C342.304 479.974 341.648 481.524 340.574 482.768C339.5 484.013 338.063 484.89 336.465 485.276C336.465 485.276 342.366 486.756 345.377 485.276C348.388 483.796 348.388 479.769 348.388 479.769L342.451 478.337Z" fill="#FECF0A"/>
<path d="M271.715 546.502C271.715 546.502 269.578 550.141 270.051 552.215L270.525 554.29L261.37 549.437L266.542 543.165L271.715 546.502Z" fill="#F47421"/>
<path d="M175.456 549.413C175.456 549.413 174.024 557.541 168.56 559.955C163.096 562.369 161.676 562.381 161.676 562.381L175.456 568.313C175.456 568.313 174.181 565.22 178.14 561.896C182.098 558.572 182.583 556.206 182.583 554.302C182.583 552.397 175.456 549.413 175.456 549.413Z" fill="#EE2C28"/>
<path d="M101.576 490.76C101.576 490.76 98.2495 503.97 104.43 509.429H89.9326C89.9326 509.429 89.9326 496.861 92.3609 495.2C95.3229 493.502 98.4025 492.018 101.576 490.76Z" fill="#FECF0A"/>
<path d="M9.45862 319.797C9.45862 319.797 -2.18505 337.594 0.425368 349.7C3.03578 361.807 1.63951 358.483 1.63951 358.483C1.63951 358.483 18.9775 352.782 19.9367 348.985C20.8959 345.188 15.8207 334.743 17.9576 330.715C20.0945 326.688 21.2844 325.669 21.2844 325.669L9.45862 319.797Z" fill="#F47421"/>
<path d="M30.5479 167.177C30.5479 167.177 36.4851 161.112 41.2324 162.143L45.2027 147.246C45.2027 147.246 34.3482 141.787 30.5479 147.246C30.5479 147.246 24.8414 155.556 30.5479 167.177Z" fill="#FECF0A"/>
<path d="M171.656 129.68C171.656 129.68 194.725 120.667 197.542 108.791C200.359 96.9146 192.078 95.6166 192.078 95.6166C192.078 95.6166 203.006 92.6566 204.912 98.8313C206.818 105.006 201.111 105.71 204.912 113.304C208.712 120.898 208.469 123.506 208.469 123.506C208.469 123.506 195.575 131.585 188.484 132.762C181.394 133.938 171.656 129.68 171.656 129.68Z" fill="#F47421"/>
<path d="M421.455 176.918C421.455 176.918 423.386 165.042 429.432 164.787C429.432 164.787 440.274 166.668 440.25 171.071V175.463C440.25 175.463 435.503 178.314 435.26 180.691L435.029 183.057C435.029 183.057 430.768 173.352 421.455 176.918Z" fill="#EE2C28"/>
<path opacity="0.12" d="M585.887 113.934C585.887 113.934 577.17 264.638 496.866 350.768C496.866 350.768 540.697 302.244 566.995 258.184C593.294 214.124 595.892 202.284 595.892 202.284L581.857 220.214C581.857 220.214 601.963 160.614 585.887 113.934Z" fill="#231F20"/>
<path opacity="0.12" d="M425.692 224.678C425.692 224.678 446.333 189.899 474.841 176.36C503.349 162.822 474.841 117.258 474.841 117.258C474.841 117.258 489.496 153.651 472.51 167.177C455.524 180.703 429.104 199.81 425.692 224.678Z" fill="#231F20"/>
<path opacity="0.12" d="M285.932 505.244C285.932 505.244 334.498 505.244 402.15 461.5C469.802 417.755 487.516 375.733 487.516 375.733C487.516 375.733 469.074 422.426 429.237 452.753C389.401 483.081 285.932 505.244 285.932 505.244Z" fill="#231F20"/>
<path opacity="0.12" d="M49.7929 406.134C49.7929 406.134 76.3949 462.604 147.35 500.064C218.304 537.525 290.376 537.415 290.376 537.415C290.376 537.415 221.085 537.076 144.812 485.931C68.5393 434.787 40.2861 348.038 40.2861 348.038V435.515L49.7929 406.134Z" fill="#231F20"/>
<path d="M444.948 282.968C444.948 282.968 449.113 275.143 452.075 273.615C455.038 272.086 464.217 272.559 474.998 280.638C485.78 288.718 482.611 298.313 481.421 302.474C480.231 306.635 475.484 313.744 475.484 313.744L444.948 282.968Z" fill="#231F20"/>
<path d="M437.627 296.3L431.059 300.097C431.059 300.097 424.988 285.382 428.327 275.835C431.666 266.288 447.923 251.876 447.923 251.876C447.923 251.876 447.462 253.429 446.891 255.843C445.155 263.121 442.387 278.127 447.923 282.434C448.503 282.859 448.984 283.406 449.332 284.035C452.258 289.628 437.627 296.3 437.627 296.3Z" fill="#EE2C28"/>
<path opacity="0.61" d="M449.332 284.096L432.953 295.899C432.953 295.899 427.975 283.247 433.354 272.486C436.632 265.936 442.666 259.749 446.891 255.903C445.155 263.182 442.387 278.188 447.923 282.495C448.504 282.92 448.984 283.466 449.332 284.096Z" fill="#AB2B2B"/>
<path d="M489.047 328.459C478.119 339.619 469.924 339.134 469.924 339.134V316.231C471.587 315.847 473.212 315.315 474.78 314.642C480.783 312.233 485.952 308.127 489.654 302.826C491.963 299.508 493.898 295.944 495.421 292.199C496.242 290.349 496.739 288.371 496.89 286.352C496.926 287.068 499.816 317.432 489.047 328.459Z" fill="#EE2C28"/>
<path d="M495.384 292.199C495.423 300.168 494.32 308.102 492.106 315.758C487.711 329.878 472.51 334.634 472.51 334.634L474.744 314.642C480.747 312.233 485.916 308.127 489.617 302.826C491.927 299.508 493.861 295.944 495.384 292.199Z" fill="#AB2B2B"/>
<path d="M469.462 354.237C465.828 364.335 461.191 374.044 455.621 383.218C430.124 425.531 377.745 472.393 281.318 487.472C225.467 496.194 177.35 484.124 138.194 458.188L137.174 457.521C128.535 451.713 120.341 445.27 112.661 438.244C111.592 437.274 110.536 436.279 109.492 435.284C104.465 430.505 99.6408 425.471 95.019 420.181C71.8409 393.736 53.8473 361.358 41.5965 325.778C40.1395 321.556 38.8121 317.44 37.6141 313.429C27.306 279.098 26.104 252.543 31.6891 232.151C41.4872 196.401 72.193 179.636 111.289 173.267C149.753 166.983 188.35 175.463 212.998 183.227C221.051 185.757 228.749 189.299 235.909 193.768C240.834 196.849 245.485 200.348 249.811 204.225C251.425 205.669 252.98 207.161 254.497 208.714C257.545 211.832 260.384 215.147 262.996 218.637L263.883 219.85C264.781 221.063 265.667 222.276 266.554 223.489C269.201 227.129 271.847 230.95 274.506 234.844C276.728 238.095 278.962 241.419 281.196 244.767C306.268 282.373 332.19 324.152 362.763 327.404C377.187 328.932 388.575 327.234 397.706 323.764C418.674 315.843 427.792 298.714 434.628 290.271C440.407 283.137 445.41 279.935 451.068 280.093C455.038 280.19 459.324 281.924 464.423 285.103C470.033 288.609 475.047 293.473 477.281 302.159C479.952 312.592 478.629 328.556 469.462 354.237Z" fill="url(#paint7_linear_131_2367)"/>
<path opacity="0.16" d="M436.753 314.593C426.069 334.197 415.991 338.576 415.991 338.576C415.991 338.576 405.525 333.797 405.064 333.323C402.329 330.365 399.866 327.165 397.706 323.764C418.674 315.843 427.793 298.714 434.628 290.271C440.408 283.138 445.41 279.935 451.068 280.093C453.618 283.198 446.308 297.088 436.753 314.593Z" fill="#A54623"/>
<path opacity="0.16" d="M289.234 325.669C283.394 385.778 222.929 469.045 138.157 458.236L137.137 457.569C128.509 451.745 120.327 445.285 112.66 438.244L163.812 435.515C163.812 435.515 262.279 418.689 275.052 344.654C284.377 290.683 273.243 244.488 266.553 223.429C269.2 227.068 271.847 230.889 274.506 234.783C276.728 238.034 278.962 241.358 281.196 244.706C286.684 259.919 293.01 286.947 289.234 325.669Z" fill="#A54623"/>
<path d="M236.03 399.547C198.985 425.181 154.449 437.756 109.455 435.284C104.429 430.505 99.6044 425.47 94.9825 420.181C71.8044 393.736 53.8108 361.358 41.56 325.778C5.77912 221.937 47.2665 183.712 111.252 173.279C149.716 166.995 188.314 175.475 212.961 183.239C228.684 188.183 242.94 196.934 254.461 208.714C285.239 265.681 298.352 356.663 236.03 399.547Z" fill="#FECF0A"/>
<path opacity="0.34" d="M197.651 250.493C197.651 250.493 226.475 248.746 292.67 300.097C358.866 351.447 380.417 355.244 405.112 351.763C429.808 348.281 447.037 314.593 447.037 314.593C447.037 314.593 449.137 325.317 432.674 343.598C416.21 361.88 397.245 365.361 370.959 359.09C344.672 352.818 271.872 304.173 246.035 286.304C220.198 268.435 188.387 252.519 144.896 242.778C144.896 242.826 193.814 250.214 197.651 250.493Z" fill="white"/>
<path d="M407.383 342.191C380.295 350.331 343.956 320.55 343.956 320.55C346.154 320.55 348.473 318.22 350.622 315.624C353.05 312.689 355.199 309.401 356.692 308.564C359.546 306.975 366.406 313.307 384.909 319.87C403.413 326.433 414.352 315.891 418.626 315.418C420.144 315.224 422.572 317.517 423.871 320.913C426.239 327.052 424.867 336.926 407.383 342.191Z" fill="#898888"/>
<path d="M253.416 401.439C220.865 442.6 171.158 454.536 137.174 457.569C129.714 452.553 122.588 447.058 115.841 441.12C108.44 434.601 101.472 427.607 94.9824 420.181C194.105 445.559 265.801 381.059 265.801 294.201C265.801 243.845 250.381 212.317 235.86 193.781C246.354 200.334 255.55 208.764 262.984 218.649C266.821 223.744 270.645 229.179 274.494 234.82C279.716 250.016 283.183 265.759 284.826 281.742C288.967 322.369 281.245 366.259 253.416 401.439Z" fill="#EE2C28"/>
<path d="M395.666 391.237C393.845 402.519 386.851 413.145 381.387 420.012C377.416 424.979 372.379 428.992 366.648 431.754C364.669 432.713 362.714 433.61 360.808 434.447C327.431 449.077 305.503 445.693 292.451 435.26C279.581 424.973 275.368 407.82 277.359 394.318C281.633 365.361 302.31 357.537 317.985 361.564C333.659 365.592 355.757 370.82 368.979 371.269C382.201 371.718 398.75 372.009 395.666 391.237Z" fill="#EE2C28"/>
<path d="M378.692 394.452C377.393 402.494 372.403 410.076 368.505 414.965C365.675 418.513 362.082 421.378 357.991 423.348C357.226 423.724 356.461 424.075 355.708 424.415C344.987 429.34 335.857 431.694 328.196 432.179C324.172 432.484 320.126 432.164 316.2 431.233C309.421 429.678 303.478 425.628 299.554 419.89C295.023 413.061 293.157 404.808 294.309 396.696C297.356 376.073 312.096 370.456 323.278 373.331C326.338 374.108 329.726 374.957 333.247 375.758C337.241 376.704 341.394 377.614 345.388 378.366C349.366 379.154 353.382 379.738 357.42 380.113C358.197 380.173 358.938 380.222 359.642 380.246C363.362 380.24 367.072 380.614 370.715 381.362C376.13 382.733 380.04 386.045 378.692 394.452Z" fill="url(#paint8_linear_131_2367)"/>
<path d="M475.691 289.531C468.333 309.826 464.885 313.501 458.11 314.46C451.335 315.418 446.709 311.366 446.709 306.502L447.061 305.75L455.621 287.553C455.621 287.553 462.274 289.336 469.996 279.486C470.664 278.625 471.295 277.763 471.866 276.926C472.655 275.798 473.347 274.694 473.967 273.615C475.534 270.936 476.839 268.112 477.864 265.184C478.415 263.66 478.842 262.094 479.139 260.501C479.139 260.501 483.085 269.235 475.691 289.531Z" fill="#EE2C28"/>
<path opacity="0.13" d="M477.888 265.147C476.589 282.131 467.021 301.916 463.464 306.502C459.53 311.573 456.956 309.328 456.956 309.328C456.956 309.328 460.089 308.977 465.188 298.908C468.199 292.939 470.506 283.55 471.89 276.89C472.679 275.762 473.371 274.658 473.991 273.578C475.558 270.899 476.863 268.076 477.888 265.147Z" fill="white"/>
<path opacity="0.16" d="M477.257 302.159C479.952 312.592 478.629 328.556 469.462 354.322C452.67 401.475 400.729 468.887 281.269 487.557C224.993 496.352 176.464 484.003 137.126 457.606C127.271 450.975 117.998 443.52 109.407 435.321C104.38 430.541 99.5559 425.507 94.9341 420.218C71.756 393.772 53.7623 361.395 41.5116 325.814C27.5975 285.418 25.3634 254.957 31.6041 232.199C34.7366 264.189 46.4167 307.836 83.9582 336.926C149.522 387.719 199.885 392.729 242.174 429.874C284.462 467.019 385.625 459.219 436.437 382.49C462.638 343.065 473.177 317.602 477.257 302.159Z" fill="#A54623"/>
<g opacity="0.3">
<path d="M333.247 375.733C325.659 389.284 309.195 408.863 299.555 419.89C303.479 425.628 309.422 429.678 316.201 431.233C325.38 416.882 336.671 395.507 345.34 378.342C341.394 377.589 337.278 376.68 333.247 375.733Z" fill="white"/>
<path d="M359.631 380.222C358.926 380.222 358.186 380.149 357.409 380.088C349.966 397.63 336.246 419.757 328.196 432.179C335.858 431.694 344.988 429.34 355.709 424.415C363.309 409.858 368.057 392.947 370.704 381.338C367.06 380.59 363.35 380.216 359.631 380.222Z" fill="white"/>
</g>
<path opacity="0.61" d="M395.666 391.237C393.845 402.519 386.851 413.145 381.387 420.012C377.416 424.979 372.379 428.992 366.648 431.754C364.669 432.713 362.714 433.61 360.808 434.447C370.159 427.896 377.844 419.246 383.245 409.191C395.848 385.62 385.212 377.238 380.137 377.238C375.062 377.238 346.25 375.333 326.459 369.486C306.669 363.639 289.185 368.94 283.539 395.119C279.703 412.915 287.242 427.654 292.451 435.26C279.581 424.973 275.368 407.82 277.359 394.318C281.633 365.361 302.31 357.537 317.985 361.564C333.659 365.592 355.757 370.82 368.979 371.269C382.201 371.718 398.75 372.009 395.666 391.237Z" fill="#AB2B2B"/>
<path d="M253.417 401.439C220.866 442.6 171.158 454.536 137.174 457.569C129.715 452.553 122.589 447.058 115.842 441.12C140.404 444.201 177.848 444.019 211.638 423.906C268.072 390.363 286.757 344.532 284.827 281.864V281.742C288.967 322.369 281.245 366.259 253.417 401.439Z" fill="#AB2B2B"/>
<path d="M473.99 273.578C473.463 277.089 472.692 280.559 471.684 283.962C468.673 294.395 463.124 311.961 455.135 310.566C449.683 309.619 447.753 307.193 447.085 305.713L455.645 287.517C455.645 287.517 462.298 289.3 470.02 279.45C471.478 277.587 472.805 275.625 473.99 273.578Z" fill="#AB2B2B"/>
<path opacity="0.34" d="M43.7695 217.412C43.7695 217.412 64.9928 183.445 123.588 182.135C182.182 180.825 231.586 194.909 242.355 213.675C253.125 232.442 239.247 243.263 213.094 232.163C186.942 221.063 126.671 199.409 89.385 203.655C52.0986 207.901 43.7695 217.412 43.7695 217.412Z" fill="white"/>
<path opacity="0.13" d="M268.909 332.765C255.76 378.863 238.774 385.729 238.252 385.923C262.001 353.958 272.139 324.213 268.071 271.261C265.643 240.606 256.841 217.885 249.859 204.237C251.474 205.681 253.028 207.173 254.546 208.726C257.593 211.844 260.432 215.159 263.045 218.649L263.931 219.862C273.766 247.885 279.484 295.742 268.909 332.765Z" fill="white"/>
<path opacity="0.28" d="M455.621 383.267C430.124 425.58 377.745 472.442 281.318 487.521C225.467 496.243 177.35 484.172 138.194 458.236L137.174 457.569C128.533 451.746 120.339 445.287 112.661 438.244C111.592 437.274 110.536 436.279 109.492 435.284C104.465 430.505 99.641 425.471 95.0191 420.181C71.8411 393.736 53.8474 361.358 41.5967 325.778C40.1397 321.556 38.8122 317.44 37.6143 313.429C51.7591 339.935 74.9614 372.118 112.673 402.434C198.064 471.059 260.799 482.971 336.513 468.536C388.648 458.564 430.828 415.778 455.621 383.267Z" fill="#231F20"/>
<path d="M46.3193 204.237C46.3193 204.237 19.5474 224.715 31.3124 288.245C43.0775 351.775 73.8076 392.389 94.958 420.181C94.958 420.181 111.774 445.656 137.15 457.569C156.398 470.818 178.031 480.218 200.856 485.252C200.856 485.252 157.79 469.615 144.811 456.805C134.153 452.011 124.364 445.485 115.841 437.492C101.102 423.881 101.417 421.516 101.417 421.516C101.417 421.516 79.8783 396.696 61.6661 358.726C43.4539 320.756 13.3916 240.582 46.3193 204.237Z" fill="#231F20"/>
<path d="M94.9828 413.461C94.9828 413.461 211.869 457.132 261.321 330.715C261.321 330.715 236.03 448.277 101.418 421.54C101.418 421.54 94.57 418.192 94.9828 413.461Z" fill="#231F20"/>
<path d="M144.812 456.829C144.812 456.829 210.375 453.02 253.417 401.439C253.417 401.439 229.693 438.147 180.568 454.925C180.568 454.925 193.523 452.074 200.82 448.75C200.82 448.75 186.25 453.978 188.484 463.465C190.718 472.951 246.448 498.645 310.105 481.819C310.105 481.819 223.549 509.247 154.221 468.002L144.812 456.829Z" fill="#231F20"/>
<path d="M477.888 305.143C477.888 305.143 478.811 326.979 470.603 347.808C462.396 368.637 450.667 409.676 371.845 459.207C371.845 459.207 427.477 434.205 458.122 380.088C458.122 380.088 471.781 355.281 477.245 329.878C482.708 304.476 476.504 299.721 476.504 299.721C477.168 301.47 477.632 303.289 477.888 305.143Z" fill="#231F20"/>
<path d="M282.872 377.189C277.544 387.38 275.774 399.057 277.845 410.367C281.402 428.976 297.198 444.152 320.838 444.334C344.477 444.516 372.378 429.704 376.883 424.925C376.883 424.925 352.309 444.504 325.233 444.977C298.158 445.45 289.719 437.856 281.997 424.439C274.275 411.023 273.292 395.543 282.872 377.189Z" fill="#231F20"/>
<path d="M474.925 339.134C474.925 339.134 488.075 334.197 493.38 323.121C498.686 312.046 497.921 297.222 496.853 286.304C496.853 286.304 498.006 306.041 494.425 316.631C490.843 327.222 484.845 331.649 475.617 336.635C475.277 336.944 475.032 337.342 474.909 337.785C474.787 338.227 474.792 338.695 474.925 339.134Z" fill="#231F20"/>
<path d="M446.733 306.502C446.733 306.502 446.259 312.567 453.544 314.593C460.829 316.619 466.693 312.507 471.198 302.389C475.702 292.272 480.231 278.334 480.705 269.878C481.178 261.423 479.163 260.465 479.163 260.465C479.163 260.465 481.591 268.386 477.888 280.093C474.185 291.799 471.599 300.946 466.135 308.321C460.671 315.697 448.153 315.515 446.733 306.502Z" fill="#231F20"/>
<path d="M422.037 306.562C422.037 306.562 427.501 300.012 431.896 293.849C436.291 287.687 442.071 282.422 444.657 281.476C444.657 281.476 439.266 283.247 433.353 290.901C427.44 298.556 422.037 306.562 422.037 306.562Z" fill="#231F20"/>
<path d="M429.553 296.36C429.553 296.36 425.243 285.564 427.307 277.606C429.371 269.648 440.116 257.626 447.947 251.924C447.947 251.924 436.838 261.484 429.893 273.578C429.893 273.578 426.748 277.375 427.877 285.442C429.006 293.51 430.063 295.269 430.063 295.269L429.553 296.36Z" fill="#231F20"/>
<path d="M477.257 302.159C477.257 302.159 463.124 350.598 435.806 379.458C408.487 408.317 414.412 428.236 414.412 428.236" stroke="#231F20" stroke-width="0.25" stroke-miterlimit="10"/>
<path d="M282.714 336.15C282.714 336.15 340.046 362.656 361.913 365.264C383.779 367.873 387.786 342.664 387.786 342.664" stroke="#231F20" stroke-width="0.25" stroke-miterlimit="10"/>
<path d="M208.433 442.102C208.433 442.102 215.718 463.149 267.707 468.851C319.697 474.553 359.181 465.212 359.181 465.212" stroke="#231F20" stroke-width="0.25" stroke-miterlimit="10"/>
<path d="M45.2021 205.232C45.2021 205.232 65.1384 177.125 123.102 171.787C181.065 166.449 228.793 188.94 235.86 193.781C242.926 198.621 254.715 203.813 274.494 234.82C274.494 234.82 295.401 278.734 280.674 345.382" stroke="#231F20" stroke-width="0.25" stroke-miterlimit="10"/>
<path opacity="0.12" d="M407.383 342.191C380.295 350.331 343.956 320.55 343.956 320.55C346.154 320.55 348.473 318.22 350.622 315.624C358.55 320.816 382.02 334.743 402.029 332.45C417.108 330.727 422.196 325.002 423.883 320.865C426.239 327.052 424.867 336.926 407.383 342.191Z" fill="#231F20"/>
<path d="M352.066 325.96C352.066 325.96 369.635 336.526 383.245 339.134C396.856 341.742 403.971 338.576 403.971 338.576C400.204 338.819 396.421 338.648 392.691 338.067C392.691 338.067 406.047 339.826 415.384 333.069C424.721 326.312 424.186 321.896 422.037 317.577L423.349 319.676C423.349 319.676 429.152 329.939 418.031 337.254C406.909 344.569 396.407 345.163 383.245 341.536C370.084 337.909 350.633 326.894 352.066 325.96Z" fill="#231F20"/>
</g>
<defs>
<linearGradient id="paint0_linear_131_2367" x1="284.948" y1="282.761" x2="359.156" y2="282.761" gradientUnits="userSpaceOnUse">
<stop stop-color="#3B577F"/>
<stop offset="0.3" stop-color="#5AA2D8"/>
<stop offset="1" stop-color="#FECF0A"/>
</linearGradient>
<linearGradient id="paint1_linear_131_2367" x1="553.821" y1="441.749" x2="552.675" y2="479.962" gradientUnits="userSpaceOnUse">
<stop stop-color="#F47421"/>
<stop offset="0.41" stop-color="#FECF0A"/>
</linearGradient>
<linearGradient id="paint2_linear_131_2367" x1="538.931" y1="454.792" x2="538.387" y2="472.94" gradientUnits="userSpaceOnUse">
<stop stop-color="#F47421"/>
<stop offset="0.41" stop-color="#FECF0A"/>
</linearGradient>
<linearGradient id="paint3_linear_131_2367" x1="555.948" y1="421.656" x2="590.417" y2="429.298" gradientUnits="userSpaceOnUse">
<stop stop-color="#FBB368"/>
<stop offset="1" stop-color="#FFFDF4"/>
</linearGradient>
<linearGradient id="paint4_linear_131_2367" x1="559.576" y1="441.978" x2="569.757" y2="444.236" gradientUnits="userSpaceOnUse">
<stop stop-color="#FBB368"/>
<stop offset="1" stop-color="#FFFDF4"/>
</linearGradient>
<linearGradient id="paint5_linear_131_2367" x1="544.903" y1="430.866" x2="551.398" y2="432.306" gradientUnits="userSpaceOnUse">
<stop stop-color="#FBB368"/>
<stop offset="1" stop-color="#FFFDF4"/>
</linearGradient>
<linearGradient id="paint6_linear_131_2367" x1="97.2291" y1="233.886" x2="574.196" y2="314.048" gradientUnits="userSpaceOnUse">
<stop stop-color="#3B577F"/>
<stop offset="0.3" stop-color="#5AA2D8"/>
<stop offset="1" stop-color="#FECF0A"/>
</linearGradient>
<linearGradient id="paint7_linear_131_2367" x1="28.338" y1="330.715" x2="478.495" y2="330.715" gradientUnits="userSpaceOnUse">
<stop stop-color="#AF4D26"/>
<stop offset="0.22" stop-color="#F47421"/>
<stop offset="1" stop-color="#FECF0A"/>
</linearGradient>
<linearGradient id="paint8_linear_131_2367" x1="316.503" y1="373.538" x2="367.551" y2="441.429" gradientUnits="userSpaceOnUse">
<stop stop-color="#3B577F"/>
<stop offset="0.45" stop-color="#5AA2D8"/>
<stop offset="0.91" stop-color="#FECF0A"/>
</linearGradient>
<clipPath id="clip0_131_2367">
<rect width="632" height="616" fill="white"/>
</clipPath>
</defs>
</svg>
