<svg width="151" height="151" viewBox="0 0 151 151" fill="none" xmlns="http://www.w3.org/2000/svg">
<path d="M75.3721 21.4019H76.7016V22.7314C76.7016 36.8507 82.4779 49.6867 91.7853 58.9949C101.092 68.302 113.929 74.0787 128.049 74.0787H129.378V76.7386H128.049C123.168 76.7386 118.442 77.4276 113.964 78.7139C109.331 80.0444 104.961 82.0134 100.958 84.5177C98.195 86.2458 95.6129 88.2222 93.2453 90.411C90.8714 92.6071 88.6962 95.0314 86.7589 97.6494C83.5477 101.987 81.0003 106.849 79.2703 112.081C77.6043 117.121 76.7018 122.502 76.7018 128.085V129.415H74.0419V128.085C74.0419 113.966 68.2655 101.13 58.9581 91.8216C49.6509 82.5145 36.8149 76.7378 22.6945 76.7378H21.3651V74.0779H22.6945C27.9378 74.0779 32.9958 73.2848 37.7562 71.8144C42.689 70.2893 47.3138 68.0354 51.5021 65.1778C55.5463 62.419 59.1716 59.1028 62.2734 55.3499C65.371 51.6024 67.9394 47.431 69.8727 42.9568C71.2316 39.8119 72.2844 36.503 72.9934 33.0689C73.6802 29.7411 74.042 26.2839 74.042 22.7307V21.4013H75.3714L75.3721 21.4019ZM92.7486 78.5894C93.122 78.357 93.6132 78.4716 93.8456 78.845C94.0781 79.2184 93.9634 79.7096 93.59 79.942C91.173 81.4545 88.9106 83.1857 86.8344 85.1064C84.7529 87.0311 82.848 89.1546 81.1525 91.4455C80.8906 91.7989 80.3931 91.8725 80.0397 91.6106C79.6863 91.3487 79.6127 90.8512 79.8746 90.4978C81.6237 88.1355 83.5947 85.9393 85.7563 83.9401C87.9187 81.9396 90.2609 80.1462 92.7497 78.5897L92.7486 78.5894ZM101.317 119.748H102.647V121.078C102.647 123.621 103.688 125.935 105.367 127.612C107.045 129.29 109.358 130.332 111.902 130.332H113.231V132.992H111.902C109.359 132.992 107.045 134.034 105.367 135.712C103.689 137.39 102.647 139.704 102.647 142.247V143.577H99.987V142.247C99.987 139.704 98.9457 137.39 97.2669 135.712C95.5893 134.035 93.2755 132.992 90.732 132.992H89.4026V130.332H90.732C93.2753 130.332 95.5892 129.291 97.2669 127.612C98.9445 125.935 99.987 123.621 99.987 121.078V119.748H101.317ZM103.486 129.493C102.621 128.627 101.886 127.629 101.317 126.532C100.748 127.628 100.014 128.626 99.1487 129.493C98.2831 130.358 97.2849 131.092 96.1879 131.662C97.2839 132.231 98.282 132.965 99.1487 133.83C100.014 134.696 100.748 135.694 101.317 136.791C101.886 135.695 102.621 134.697 103.486 133.83C104.352 132.965 105.35 132.231 106.447 131.662C105.351 131.092 104.353 130.358 103.486 129.493ZM22.3483 108.723C22.3483 114.136 24.5634 119.058 28.133 122.627C31.7018 126.195 36.6241 128.411 42.0367 128.411V131.071C36.6241 131.071 31.7018 133.286 28.133 136.856C24.5643 140.425 22.3483 145.347 22.3483 150.76H19.6883C19.6883 145.347 17.4733 140.425 13.9036 136.856C10.3349 133.287 5.41261 131.071 0 131.071V128.411C5.41261 128.411 10.3349 126.196 13.9036 122.627C17.4724 119.058 19.6883 114.136 19.6883 108.723H22.3483ZM26.2525 124.507C23.9523 122.207 22.1485 119.411 21.0187 116.299C19.8891 119.411 18.0844 122.207 15.7849 124.507C13.4846 126.807 10.6889 128.611 7.57687 129.741C10.6892 130.871 13.4846 132.675 15.7849 134.975C18.0852 137.275 19.8889 140.071 21.0187 143.183C22.1483 140.07 23.9531 137.275 26.2525 134.975C28.5528 132.675 31.3485 130.871 34.4606 129.741C31.3482 128.611 28.5528 126.807 26.2525 124.507ZM110.177 0H111.507V1.32946C111.507 5.04763 113.029 8.42896 115.482 10.8808C117.933 13.3325 121.315 14.8556 125.033 14.8556H126.362V17.5155H125.033C121.315 17.5155 117.933 19.0375 115.482 21.4903C113.03 23.942 111.507 27.3235 111.507 31.0417V32.3711H108.847V31.0417C108.847 27.3235 107.325 23.9422 104.872 21.4903C102.42 19.0386 99.0388 17.5155 95.3206 17.5155H93.9912V14.8556H95.3206C99.0388 14.8556 102.42 13.3337 104.872 10.8808C107.324 8.42909 108.847 5.04763 108.847 1.32946V0H110.177ZM113.601 12.7614C112.165 11.3258 110.997 9.62405 110.177 7.73818C109.358 9.62403 108.189 11.3258 106.754 12.7614C105.318 14.1971 103.616 15.3657 101.73 16.185C103.616 17.0044 105.318 18.1729 106.754 19.6086C108.189 21.0444 109.358 22.746 110.177 24.6319C110.997 22.7461 112.165 21.0443 113.601 19.6086C115.037 18.173 116.738 17.0044 118.624 16.185C116.738 15.3657 115.037 14.1972 113.601 12.7614ZM22.2016 27.2951H23.531V28.6246C23.531 31.7033 24.7911 34.503 26.8222 36.5329C28.8532 38.5639 31.6521 39.8241 34.7305 39.8241H36.06V42.484H34.7305C31.6518 42.484 28.8521 43.7441 26.8222 45.7752C24.7911 47.8062 23.531 50.6051 23.531 53.6835V55.013H20.8711V53.6835C20.8711 50.6048 19.611 47.8051 17.5799 45.7752C15.5489 43.7441 12.75 42.484 9.67158 42.484H8.34212V39.8241H9.67158C12.7503 39.8241 15.55 38.564 17.5799 36.5329C19.6109 34.5019 20.8711 31.703 20.8711 28.6246V27.2951H22.2016ZM24.9415 38.4136C23.8203 37.2923 22.8884 35.9808 22.2016 34.5325C21.5137 35.9808 20.5829 37.2924 19.4616 38.4136C18.3404 39.5348 17.0288 40.4666 15.5805 41.1535C17.0288 41.8414 18.3404 42.7722 19.4616 43.8935C20.5828 45.0147 21.5147 46.3263 22.2016 47.7746C22.8894 46.3262 23.8203 45.0147 24.9415 43.8935C26.0627 42.7723 27.3743 41.8404 28.8226 41.1535C27.3743 40.4656 26.0627 39.5348 24.9415 38.4136ZM130.55 84.1092H131.879V85.4386C131.879 90.1897 133.824 94.5102 136.957 97.6424C140.09 100.776 144.41 102.72 149.161 102.72H150.49V105.38H149.161C144.41 105.38 140.089 107.325 136.957 110.458C133.824 113.592 131.879 117.911 131.879 122.662V123.992H129.219V122.662C129.219 117.911 127.274 113.591 124.141 110.458C121.008 107.325 116.688 105.38 111.937 105.38H110.608V102.72H111.937C116.688 102.72 121.009 100.776 124.141 97.6424C127.274 94.5091 129.219 90.1894 129.219 85.4386V84.1092H130.55ZM135.076 99.5241C133.119 97.5668 131.563 95.2066 130.55 92.5824C129.535 95.2066 127.98 97.5669 126.023 99.5241C124.066 101.481 121.705 103.037 119.081 104.051C121.705 105.066 124.066 106.62 126.023 108.578C127.98 110.535 129.536 112.895 130.55 115.519C131.565 112.895 133.119 110.535 135.076 108.578C137.034 106.62 139.394 105.065 142.018 104.051C139.394 103.036 137.034 101.481 135.076 99.5241ZM89.9057 60.875C82.8073 53.7766 77.6618 44.7239 75.3701 34.6192C74.6339 37.864 73.6021 41.0035 72.3041 44.0063C70.2626 48.731 67.5639 53.119 64.3201 57.0443C61.0648 60.9832 57.2532 64.4677 52.9987 67.3708C48.5979 70.3736 43.7324 72.7444 38.5366 74.3505C37.2397 74.7512 35.9219 75.1046 34.5871 75.4075C44.6905 77.6994 53.7413 82.8447 60.8397 89.942C67.936 97.0383 73.0804 106.088 75.3734 116.188C75.7541 114.512 76.2127 112.865 76.747 111.249C78.5624 105.757 81.2444 100.643 84.6301 96.0698C86.6558 93.3331 88.9414 90.7867 91.4487 88.4676C93.9593 86.1463 96.6739 84.0647 99.5558 82.262C103.767 79.6273 108.363 77.5562 113.236 76.1563C114.198 75.8797 115.171 75.6305 116.153 75.4064C106.052 73.1135 97.0022 67.9693 89.9059 60.8727L89.9057 60.875Z" fill="#234263"/>
</svg>
