<svg width="160" height="146" viewBox="0 0 160 146" fill="none" xmlns="http://www.w3.org/2000/svg">
<path d="M11.8576 53.4147L19.4073 56.4696C20.8076 57.0367 21.1026 58.5867 20.1656 59.7229L12.4315 69.1106C11.6122 70.1052 10.0563 70.5592 8.84962 70.0706L1.29991 67.0156C-0.100308 66.4486 -0.395333 64.8986 0.54161 63.7624L8.27571 54.3746C9.09508 53.3801 10.6509 52.926 11.8576 53.4147ZM142.135 105.932L149.685 108.987C151.085 109.554 151.38 111.104 150.443 112.24L142.709 121.628C141.89 122.623 140.334 123.077 139.127 122.588L131.577 119.533C130.177 118.966 129.882 117.416 130.819 116.28L138.553 106.892C139.373 105.898 140.928 105.444 142.135 105.932ZM148.909 110.474L141.508 107.48C140.985 107.268 140.191 107.523 139.839 107.95L132.105 117.338C131.89 117.6 131.862 117.848 132.204 117.987L139.754 121.042C140.277 121.254 141.071 120.999 141.423 120.572L149.157 111.184C149.491 110.778 149.288 110.629 148.908 110.475L148.909 110.474ZM139.476 67.2381L145.804 59.5571C146.073 59.2586 146.11 59.0696 145.725 58.8852L138.175 55.8302C137.776 55.6689 137.019 55.6781 136.722 56.0377L135.919 57.0126C137.794 60.1612 139.037 63.5944 139.476 67.2371V67.2381ZM139.388 79.5047L146.898 82.5437C148.298 83.1107 148.593 84.6608 147.657 85.797L139.923 95.1847C139.104 96.1792 137.548 96.6333 136.341 96.1447L133.304 94.915C131.649 96.9468 129.745 98.7872 127.697 100.419C127.915 100.719 127.912 101.138 127.667 101.438L117.774 113.445C117.483 113.8 116.957 113.852 116.602 113.559C116.247 113.268 116.196 112.742 116.488 112.387L124.379 102.809C118.654 106.536 111.777 109.154 104.434 110.533C97.8374 111.772 90.8591 112.011 83.9986 111.161L76.8177 120.13C76.0156 121.389 74.2062 121.496 73.229 121.099L65.6793 118.045C64.2791 117.477 63.984 115.927 64.921 114.791L70.546 107.963C69.9006 107.729 69.2587 107.483 68.6225 107.225C66.1897 106.241 63.9275 105.127 61.8428 103.903L54.4914 112.825C53.7965 113.67 52.5103 112.612 53.2052 111.767L60.408 103.024C57.9141 101.435 55.6543 99.5476 53.7779 97.8016C53.4345 97.4824 52.9816 97.2611 52.6312 97.8385L44.8971 107.226C44.0777 108.221 42.5219 108.675 41.3152 108.186L33.7655 105.131C32.3653 104.564 32.0703 103.014 33.0061 101.878L40.7401 92.4902C41.5595 91.4957 43.1153 91.0416 44.3221 91.5303L50.4161 93.9965C47.898 90.666 46.1969 87.0575 45.3753 83.3352C45.2635 82.8304 45.1517 82.0836 45.0491 81.1732L44.1352 82.283C43.3631 83.2199 41.8568 83.4205 40.769 82.9802L33.2193 79.9252C31.9539 79.4135 31.3385 78.034 32.2443 76.9345L40.4118 67.0223C41.184 66.0853 42.6902 65.8848 43.7781 66.325L45.0181 66.8263C45.7049 61.7304 47.9925 57.1227 51.2458 53.1746C54.8864 48.756 59.744 45.1455 65.3459 42.4316L64.4194 42.057C63.184 41.5569 62.5202 40.1866 63.4444 39.0663L71.6107 29.1541C72.3829 28.2171 73.8891 28.0166 74.977 28.4568L82.5267 31.5118C83.7633 32.012 84.4259 33.3811 83.5016 34.5025L81.0366 37.4944C92.4272 35.5444 104.868 36.5482 115.829 40.9839C123.296 44.0044 130.411 48.7894 134.981 55.5346L135.439 54.9791C136.211 54.0422 137.717 53.8416 138.805 54.2819L146.355 57.3369C147.59 57.837 148.254 59.2073 147.33 60.3276L139.645 69.6554C139.703 73.0529 139.786 76.1032 139.391 79.5042L139.388 79.5047ZM139.155 81.2114C138.448 85.6796 136.997 89.8235 134.353 93.5391L136.968 94.597C137.491 94.8091 138.285 94.5544 138.636 94.1268L146.37 84.7391C146.586 84.4775 146.614 84.2297 146.271 84.0903L139.155 81.2114ZM82.0791 110.894C78.7347 110.378 75.4295 109.597 72.2235 108.544L66.2044 115.85C65.9889 116.111 65.9612 116.359 66.3035 116.498L73.8532 119.553C74.3741 119.764 75.1693 119.522 75.5161 119.09L82.0793 110.896L82.0791 110.894ZM44.8321 78.8158C44.7399 77.5412 44.6708 76.1295 44.6396 74.6934C44.5959 72.5891 44.635 70.4224 44.8056 68.5439L43.1461 67.8732C42.7473 67.7119 41.9902 67.7211 41.6928 68.0807L34.0614 77.3439C33.5947 77.9109 33.3365 78.1748 34.1248 78.494L41.3922 81.4339C41.7909 81.5952 42.5481 81.586 42.8454 81.2264L44.8311 78.8155L44.8321 78.8158ZM46.5423 79.3586C46.6726 80.9455 46.8374 82.2409 46.9987 82.9762C48.0267 87.6308 50.5367 92.1141 54.3894 96.0589C58.1221 99.8815 63.1169 103.197 69.2466 105.678C80.2363 110.124 92.7599 111.028 104.125 108.893C115.456 106.766 125.615 101.625 131.918 93.9751C135.411 89.7353 137.052 84.8963 137.703 79.5256C136.65 82.0379 135.156 84.5053 133.204 86.8747C126.644 94.8369 116.128 100.177 104.431 102.374C92.7672 104.564 79.9082 103.635 68.6179 99.0675C59.365 95.3233 50.4797 88.7428 46.6349 79.2421L46.5393 79.3573L46.5423 79.3586ZM137.974 70.0388C137.772 65.5904 136.93 61.9798 134.692 58.1005C130.505 50.8447 122.828 45.6174 115.199 42.53C104.21 38.0839 91.686 37.1803 80.3213 39.3148C70.0034 41.252 59.3146 45.9956 52.5278 54.2331C47.2356 60.6558 44.9713 68.6271 47.5215 76.768C50.6641 86.8012 59.8424 93.7146 69.2475 97.5201C80.2372 101.966 92.7608 102.87 104.125 100.735C115.457 98.6079 125.616 93.4668 131.919 85.817C133.834 83.4914 135.282 81.0665 136.282 78.5948C137.423 75.7759 137.976 72.8973 137.974 70.0391L137.974 70.0388ZM67.4302 41.4767C70.8967 39.9797 74.6111 38.8111 78.4694 37.9872L82.026 33.6701C82.2864 33.3796 82.3383 33.2471 81.8957 33.0593L74.346 30.0043C73.9473 29.8429 73.1901 29.8521 72.8928 30.2117L65.1162 39.6514C64.7463 40.0996 64.563 40.3163 65.1911 40.571L67.4302 41.4767ZM123.09 70.1438C123.785 69.299 125.071 70.357 124.376 71.2017L109.477 89.2847C108.782 90.1295 107.496 89.0715 108.191 88.2268L123.09 70.1438ZM94.3294 57.876L105.699 62.4767C107.543 63.2223 107.904 65.2264 106.676 66.7177L95.0288 80.8547C93.9133 82.2088 91.7629 82.8415 90.1181 82.1766L78.7481 77.5759C76.9042 76.8303 76.5435 74.8251 77.772 73.3349L89.4196 59.1979C90.5352 57.8438 92.6855 57.2111 94.3303 57.876H94.3294ZM105.072 64.0232L93.7025 59.4226C92.7414 59.033 91.3527 59.4675 90.705 60.2546L79.0583 74.3917C78.5386 75.022 78.5996 75.7135 79.3752 76.027L90.7452 80.6276C91.7064 81.0171 93.095 80.5827 93.7427 79.7956L105.39 65.6585C105.899 65.042 105.867 64.3436 105.073 64.0232H105.072ZM75.0271 50.6975C75.722 49.8527 77.0081 50.9107 76.3132 51.7554L61.4144 69.8384C60.7195 70.6832 59.4334 69.6252 60.1283 68.7805L75.0271 50.6975ZM43.6068 40.7507L51.1565 43.8057C52.5568 44.3727 52.8518 45.9227 51.9148 47.0589L44.1807 56.4466C43.3614 57.4412 41.8055 57.8953 40.5988 57.4066L33.0491 54.3516C31.6489 53.7846 31.3539 52.2346 32.2897 51.0984L40.0238 41.7107C40.8431 40.7161 42.399 40.262 43.6057 40.7507H43.6068ZM50.3706 45.2879L42.9799 42.2972C42.4567 42.0851 41.6627 42.3398 41.3112 42.7674L33.6694 52.0666C33.417 52.3156 33.4044 52.6924 33.7478 52.8319L41.2273 55.8582C41.7505 56.0703 42.5445 55.8156 42.896 55.388L50.5643 46.0797C50.9043 45.6671 50.752 45.4411 50.3706 45.2879ZM157.58 62.51C158.275 61.6653 159.561 62.7232 158.866 63.5679L148.974 75.5752C148.279 76.4199 146.993 75.362 147.687 74.5173L157.58 62.51ZM61.8353 23.7731C62.5302 22.9284 63.8163 23.9863 63.1214 24.8311L53.2289 36.8383C52.534 37.6831 51.2479 36.6251 51.9428 35.7804L61.8353 23.7731ZM156.176 38.4312C156.871 37.5864 158.157 38.6444 157.462 39.4891L147.569 51.4964C146.874 52.3411 145.588 51.2832 146.283 50.4384L156.176 38.4312ZM137.4 30.2026L144.95 33.2576C146.35 33.8246 146.645 35.3747 145.708 36.5109L137.974 45.8986C137.154 46.8931 135.599 47.3472 134.392 46.8586L126.842 43.8036C125.442 43.2366 125.147 41.6865 126.084 40.5503L133.818 31.1626C134.637 30.168 136.193 29.714 137.4 30.2026ZM144.323 34.8044L136.773 31.7494C136.25 31.5374 135.456 31.7921 135.104 32.2197L127.37 41.6074C127.155 41.869 127.127 42.1168 127.469 42.2562L135.019 45.3112C135.542 45.5232 136.336 45.2685 136.688 44.841L144.422 35.4533C144.637 35.1916 144.665 34.9439 144.323 34.8044ZM124.261 25.5179C124.956 24.6732 126.242 25.7311 125.547 26.5758L115.655 38.5831C114.96 39.4278 113.674 38.3699 114.368 37.5252L124.261 25.5179ZM105.485 17.2893L113.035 20.3443C114.435 20.9113 114.73 22.4614 113.794 23.5976L106.06 32.9853C105.241 33.9799 103.685 34.4339 102.478 33.9453L94.9287 30.8903C93.5285 30.3233 93.2334 28.7732 94.1704 27.637L101.904 18.2493C102.724 17.2548 104.28 16.8007 105.486 17.2893H105.485ZM112.408 21.8912L104.858 18.8362C104.335 18.6241 103.541 18.8788 103.19 19.3064L95.4555 28.6941C95.24 28.9557 95.2123 29.2035 95.5546 29.3429L103.104 32.3979C103.628 32.61 104.422 32.3553 104.773 31.9277L112.507 22.54C112.723 22.2784 112.75 22.0306 112.408 21.8912ZM92.3463 12.6046C93.0412 11.7599 94.3273 12.8178 93.6324 13.6626L83.7399 25.6698C83.045 26.5146 81.7589 25.4566 82.4538 24.6119L92.3463 12.6046ZM155.629 13.2235C156.324 12.3788 157.61 13.4367 156.915 14.2814L147.023 26.2887C146.328 27.1334 145.042 26.0755 145.737 25.2308L155.629 13.2235ZM136.854 4.99494L144.403 8.04993C145.803 8.61694 146.099 10.167 145.163 11.3032L137.429 20.6909C136.609 21.6855 135.053 22.1395 133.847 21.6509L126.297 18.5959C124.897 18.0289 124.602 16.4788 125.539 15.3426L133.273 5.95492C134.092 4.96036 135.648 4.50629 136.855 4.99494H136.854ZM143.776 9.59675L136.227 6.54176C135.703 6.32971 134.909 6.5844 134.558 7.01197L126.824 16.3997C126.608 16.6613 126.581 16.9091 126.923 17.0485L134.473 20.1035C134.996 20.3156 135.79 20.0609 136.141 19.6333L143.875 10.2456C144.091 9.98397 144.119 9.73618 143.776 9.59675ZM123.715 0.310227C124.41 -0.534521 125.696 0.52343 125.001 1.36816L115.108 13.3754C114.413 14.2202 113.127 13.1622 113.822 12.3175L123.715 0.310227ZM77.6375 128.52L85.1872 131.575C86.5874 132.142 86.8824 133.692 85.9455 134.828L78.2114 144.216C77.392 145.21 75.8362 145.664 74.6295 145.175L67.0798 142.121C65.6795 141.553 65.3845 140.003 66.3214 138.867L74.0555 129.48C74.8749 128.485 76.4307 128.031 77.6375 128.52ZM84.4298 133.068L77.0105 130.066C76.4873 129.854 75.6933 130.109 75.3418 130.536L67.6077 139.924C67.3922 140.186 67.3645 140.433 67.7068 140.573L75.2565 143.628C75.7797 143.84 76.5738 143.585 76.9252 143.158L84.6593 133.77C84.9832 133.376 84.8034 133.22 84.4289 133.068L84.4298 133.068ZM64.4982 123.835C65.1931 122.99 66.4792 124.048 65.7843 124.893L55.8918 136.9C55.1969 137.745 53.9108 136.687 54.6057 135.842L64.4982 123.835ZM45.7225 115.606L53.2722 118.661C54.6724 119.228 54.9674 120.778 54.0305 121.915L46.2964 131.302C45.477 132.297 43.9212 132.751 42.7145 132.262L35.1648 129.207C33.7645 128.64 33.4695 127.09 34.4065 125.954L42.1406 116.566C42.9599 115.572 44.5157 115.118 45.7225 115.606ZM52.6452 120.208L45.0955 117.153C44.5723 116.941 43.7783 117.196 43.4268 117.623L35.8045 126.875C35.589 127.137 35.5383 127.561 36.0154 127.75L43.3427 130.714C43.8659 130.926 44.6599 130.671 45.0114 130.244L52.7455 120.856C52.961 120.594 52.9887 120.347 52.6464 120.207L52.6452 120.208ZM32.5835 110.922C33.2784 110.077 34.5645 111.135 33.8696 111.979L23.9771 123.987C23.2822 124.831 21.9961 123.774 22.691 122.929L32.5835 110.922ZM13.8078 102.693L21.3575 105.748C22.7577 106.315 23.0527 107.865 22.1169 109.001L14.3828 118.389C13.5634 119.384 12.0076 119.838 10.8009 119.349L3.2512 116.294C1.85098 115.727 1.55596 114.177 2.4929 113.041L10.227 103.653C11.0464 102.658 12.6022 102.204 13.8089 102.693H13.8078ZM20.5866 107.237L13.1808 104.241C12.6576 104.029 11.8636 104.283 11.5121 104.711L3.8196 114.01C3.60409 114.272 3.63751 114.65 3.98094 114.788L11.4268 117.801C11.95 118.013 12.744 117.758 13.0955 117.33L20.8296 107.943C21.1604 107.54 20.9656 107.389 20.5865 107.236L20.5866 107.237ZM108.15 117.352L115.7 120.407C117.1 120.974 117.395 122.524 116.458 123.66L108.724 133.048C107.905 134.042 106.349 134.497 105.142 134.008L97.5925 130.953C96.1923 130.386 95.8972 128.836 96.8342 127.7L104.568 118.312C105.388 117.317 106.943 116.863 108.15 117.352ZM114.96 121.909L107.523 118.9C107 118.688 106.206 118.942 105.855 119.37L98.5804 128.199C97.9016 129.023 97.7287 129.207 98.6783 129.591L105.769 132.459C106.292 132.671 107.087 132.417 107.438 131.989L115.172 122.601C115.483 122.224 115.332 122.058 114.96 121.908L114.96 121.909ZM95.0112 112.668C95.7062 111.824 96.9923 112.882 96.2974 113.726L86.4049 125.734C85.7099 126.578 84.4238 125.52 85.1187 124.676L95.0112 112.668ZM50.9403 96.0062L43.6947 93.0744C43.1716 92.8624 42.3775 93.1171 42.026 93.5446L34.2919 102.932C34.0764 103.194 34.0488 103.442 34.391 103.581L41.9407 106.636C42.4639 106.848 43.258 106.594 43.6095 106.166L51.1326 97.0352C51.6581 96.3979 51.6858 96.3092 50.9402 96.0072L50.9403 96.0062ZM31.1827 86.843C31.8776 85.9983 33.1637 87.0562 32.4688 87.901L22.5763 99.9082C21.8814 100.753 20.5953 99.695 21.2902 98.8503L31.1827 86.843ZM12.407 78.6145L19.9567 81.6695C21.3569 82.2365 21.6519 83.7865 20.715 84.9227L12.9809 94.3104C12.1615 95.305 10.6057 95.7591 9.39898 95.2704L1.84927 92.2154C0.449048 91.6484 0.154024 90.0984 1.08982 88.9622L8.82391 79.5745C9.64329 78.5799 11.1991 78.1258 12.4058 78.6145H12.407ZM19.1489 83.1437L11.78 80.1625C11.2568 79.9504 10.4628 80.2051 10.1113 80.6327L2.37722 90.0204C2.16171 90.282 2.13405 90.5298 2.47633 90.6692L10.026 93.7242C10.5492 93.9363 11.3433 93.6816 11.6948 93.254L19.4289 83.8663C19.7815 83.4387 19.5326 83.3004 19.1477 83.1449L19.1489 83.1437ZM30.6366 61.6378C31.3315 60.7931 32.6176 61.851 31.9227 62.6958L22.0302 74.703C21.3353 75.5477 20.0492 74.4898 20.7441 73.6451L30.6366 61.6378ZM18.658 57.9603L11.2351 54.957C10.7119 54.7449 9.9179 54.9996 9.56641 55.4272L1.89338 64.7411C1.67787 65.0027 1.67787 65.36 2.0213 65.4994L9.4822 68.5176C10.0054 68.7296 10.7994 68.4749 11.1509 68.0473L18.885 58.6596C19.2065 58.2701 19.0337 58.111 18.6591 57.9601L18.658 57.9603Z" fill="#234263"/>
</svg>
